<svg xmlns="http://www.w3.org/2000/svg" viewBox="0 0 84 84"><defs><style>.cls-1{fill:none}.cls-1,.cls-4,.cls-6{stroke:#1a539c}.cls-1,.cls-2,.cls-4,.cls-6{stroke-miterlimit:10}.cls-2,.cls-3,.cls-4{fill:#0076c3}.cls-2{stroke:#fff;stroke-width:.5px}.cls-5{fill:#00569c}.cls-6{fill:#ffd593}</style></defs><title>iconsМонтажная область 5 копия</title><g id="Слой_6" data-name="Слой 6"><circle class="cls-1" cx="42.2" cy="41.7" r="41.1" id="Слой_10" data-name="Слой 10"/><path class="cls-2" d="M23.7 24.1h7.4v8.16h-7.4zm0 8.2h7.4v8.16h-7.4z"/><path class="cls-2" d="M23.7 40.4h7.4v8.16h-7.4zm0 8.2h7.4v8.16h-7.4zm31.2-24.5h7.4v8.16h-7.4zm0 8.2h7.4v8.16h-7.4z"/><path class="cls-2" d="M54.9 40.4h7.4v8.16h-7.4z"/><path class="cls-3" d="M54.9 48.6h7.4v8.16h-7.4z"/><path class="cls-4" d="M20.7 24.1h41.5v32.63H20.7z"/><path class="cls-5" d="M63 57.5H20V23.4h43zM21.5 56h40V24.9h-40zm0 0"/><path class="cls-6" d="M38.5 45.6V35.2l8.2 5.2zm0 0"/><path class="cls-5" d="M28.9 33H20v-9.6h8.9zm-7.4-1.5h5.9v-6.6h-5.9zm0 0"/><path class="cls-5" d="M28.9 41.2H20v-9.7h8.9zm-7.4-1.5h5.9V33h-5.9zm0 0"/><path class="cls-5" d="M28.9 49.3H20v-9.6h8.9zm-7.4-1.5h5.9v-6.6h-5.9zm0 0"/><path class="cls-5" d="M28.9 57.5H20v-9.7h8.9zM21.5 56h5.9v-6.7h-5.9zM63 33h-8.9v-9.6H63zm-7.4-1.5h5.9v-6.6h-5.9zm0 0"/><path class="cls-5" d="M63 41.2h-8.9v-9.7H63zm-7.4-1.5h5.9V33h-5.9zm0 0"/><path class="cls-5" d="M63 49.3h-8.9v-9.6H63zm-7.4-1.5h5.9v-6.6h-5.9zm0 0"/><path class="cls-5" d="M63 57.5h-8.9v-9.7H63zM55.6 56h5.9v-6.7h-5.9zm0 0"/></g></svg>