<svg xmlns="http://www.w3.org/2000/svg" viewBox="0 0 84 84"><defs><style>.cls-1{fill:none}.cls-1,.cls-4{stroke:#1a539c;stroke-miterlimit:10}.cls-2{fill:#0076c3}.cls-3{fill:#1a539c}.cls-4{fill:#ffd593}</style></defs><title>iconsМонтажная область 3</title><g id="Слой_3" data-name="Слой 3"><circle class="cls-1" cx="42.2" cy="41.7" r="41.1"/><g id="Слой_5" data-name="Слой 5"><path class="cls-2" d="M24.5 56.5h3v-31l1-2h32v9h-4v27h-32v-3z" id="Слой_9" data-name="Слой 9"/><path class="cls-3" d="M60.2 32h-2.5v-6.9a1.2 1.2 0 0 1 1.1-1.3 1.2 1.2 0 0 1 1.4 1.2v7zm-3.8 26a1.2 1.2 0 0 1-1.4 1.2 1.2 1.2 0 0 1-1.1-1.3v-1.2a.6.6 0 0 0-.6-.6H28.6V25a1.2 1.2 0 0 1 1.2-1.2h27a2.8 2.8 0 0 0-.4 1.2v33zM26 59.2a1.2 1.2 0 0 1-1.2-1.2v-.7h27.8v.7a2.8 2.8 0 0 0 .4 1.2zm33-36.7H29.8a2.5 2.5 0 0 0-2.5 2.5v31.1h-3.2a.6.6 0 0 0-.6.6V58a2.5 2.5 0 0 0 2.5 2.5h29.2a2.5 2.5 0 0 0 2.5-2.5V33.3h3.2a.7.7 0 0 0 .6-.7V25a2.5 2.5 0 0 0-2.5-2.5z"/><path class="cls-4" d="M42.3 30.5c3.4 0 6.8 1.6 6.8 5.4s-4 4.8-4.9 6.1-.4 2.2-2.2 2.2a1.7 1.7 0 0 1-1.7-1.8c0-3.2 4.7-3.9 4.7-6.5s-.9-2.3-2.6-2.3c-3.4 0-2.1 3.5-4.7 3.5a1.6 1.6 0 0 1-1.7-1.6c0-2.7 3-5 6.3-5zM42.1 46a2.2 2.2 0 0 1 0 4.4 2.2 2.2 0 0 1 0-4.4zm0 0" id="Слой_14" data-name="Слой 14"/></g></g></svg>