<svg xmlns="http://www.w3.org/2000/svg" viewBox="0 0 84 84"><defs><style>.cls-1{fill:none}.cls-1,.cls-2,.cls-3{stroke:#1a539c;stroke-miterlimit:10}.cls-2{fill:#0076c3}.cls-3{fill:#ffd593}</style></defs><title>iconsМонтажная область 2</title><g id="Слой_8" data-name="Слой 8"><circle class="cls-1" cx="42.2" cy="41.7" r="41.1"/><circle class="cls-2" cx="43" cy="42" r="20"/><path class="cls-3" d="M44.4 31.4l2.6 5.2 5.9.8a1.2 1.2 0 0 1 .7 2l-4.2 4.2 1.1 5.8a1.1 1.1 0 0 1-1.7 1.2L43.5 48l-5.1 2.8a1.2 1.2 0 0 1-1.8-1.2l.9-5.9-4.3-4a1.3 1.3 0 0 1 .7-2.1l5.8-.9 2.5-5.3a1.2 1.2 0 0 1 2.2 0z"/></g></svg>