<svg id="Слой_1" data-name="Слой 1" xmlns="http://www.w3.org/2000/svg" viewBox="0 0 1000 1000"><defs><style>.cls-1{fill:#d2fcff}.cls-2{fill:#3dffde}.cls-3{opacity:.34}.cls-4{fill:#7ec9f7}.cls-5{opacity:.96;fill:url(#Безымянный_градиент_48)}.cls-6{opacity:.32}.cls-7{fill:#443e99}.cls-8{fill:#d8d7f2}.cls-9{opacity:.64}.cls-11,.cls-9{isolation:isolate}.cls-10{fill:#0267b0}.cls-11{opacity:.84}.cls-12{fill:#2548aa}</style><linearGradient id="Безымянный_градиент_48" data-name="Безымянный градиент 48" x1="-822.06" y1="-2233.07" x2="-1177.25" y2="-2862.44" gradientTransform="matrix(.57 -.95 -.93 -.58 -1289.82 -1885.03)" gradientUnits="userSpaceOnUse"><stop offset="0" stop-color="#bdbdf3"/><stop offset=".13" stop-color="#cdcdf6"/><stop offset=".3" stop-color="#e7e7fb"/><stop offset=".41" stop-color="#fbfbfe"/><stop offset=".55" stop-color="#fff"/><stop offset=".71" stop-color="#e7e7fb"/><stop offset="1" stop-color="#bdbdf3"/></linearGradient></defs><title>инструкцияМонтажная область 1 копия 4</title><path class="cls-1" d="M404 380c.9 30-48.9 86.7-100 45.5s-261.2-10-184.5 175.6 241.2 381.3 487.9 236.8S555.2 577.8 763 601.1 1048.7 456.7 927.5 410s-172.3 1.1-206.7-82.3S398.5 188.8 404 380z"/><path class="cls-2" d="M295.9 260.9c37.5-34.9 98.9-19.3 115.1 29.2 13.7 41.2 38.5 82.6 82.5 78.3 85.3-8.3 258.3-62.8 273.7 109s-74.6 166 67.6 226.4-169.5 218.1-378.1 107.9C279.4 718 156.9 390.5 295.9 260.9z"/><g class="cls-3"><path class="cls-4" d="M282.6 579c-11.7-11.9-31.1-15.3-44.8-4.6a30.5 30.5 0 0 0-11.4 19c-1.3 9.1 2.3 17.9 6.8 25.5 10.6 17.7 24.4 34 38.7 48.7a338 338 0 0 0 49.4 41.6 494.5 494.5 0 0 0 114.6 59.3 412.9 412.9 0 0 0 124 23.2c39.7 1.4 78.7-5.2 114.3-23.3 8.3-4.2 15.4-8.9 21.9-15.7a125.8 125.8 0 0 0 15.6-20.1c10.4-16.8 19.4-34.5 14.7-54.7-3.8-16.4-11-33.6-25.8-43-16.6-10.7-37.8-9-56.5-6.7a329.9 329.9 0 0 0-66.4 16.1c-22.1 7.7-44.1 14.8-67.2 18.6-46.7 7.8-96 4.6-141.6-8.3-18.4-5.2-35-17.2-49.3-29.8-8.8-7.8-13.3-18.9-20.3-28.1a139 139 0 0 0-18.1-19.5c-1.4-1.3-3.6.8-2.1 2.1 11.1 10.2 19.7 21.4 27.6 34.2 6.7 10.9 16.3 18.1 26.5 25.7a116.9 116.9 0 0 0 22.4 13.7c8.7 4 18.1 6.1 27.5 8.2a361.2 361.2 0 0 0 63.8 8.6c43.6 1.8 85.3-6.2 126.3-20.6 20.3-7.1 40.7-13.2 62-16.6 19.5-3.1 42.9-6.6 61.1 3.3s24.3 28.2 27.9 45.9c4 19.5-7.9 39.5-18.8 54.9-5.1 7.3-11 14.5-17.9 20.2s-17 10.3-25.8 14.2a203.7 203.7 0 0 1-55.2 15.6c-38.5 5.4-79.3 1.7-117.2-6.2-40.3-8.3-79-23.4-115.3-42.7s-71.6-42.9-100.6-72.9c-14-14.5-27.8-30.6-38-48.1-5.4-9.3-8.7-20.1-3.7-30.2a28.7 28.7 0 0 1 22.9-15.6c9.7-.7 19.1 3.4 25.9 10.3a1.5 1.5 0 0 0 2.1-2.2z"/><path class="cls-4" d="M290.8 619.3c-10.5-7.4-13.5-22.6-26.8-26.7-5.3-1.6-11.6-.4-15.3 4s-1 12 2.8 16.9c11.7 15.4 26.4 28.5 40.3 41.9s28 26.3 43 38.3c59.8 47.7 133.8 69.3 209 76.7 35.2 3.5 73 2.1 106.5-10.5 27.6-10.3 53.2-35.5 54.1-66.5.4-13.2-4.6-28-16.1-35.6-7.1-4.7-15.4-4.9-23.7-3.8-10 1.4-19.9 3.3-29.9 5.1-42 7.7-83.9 17-126.5 21.4-68.1 7.2-143.7.7-199-44a181.3 181.3 0 0 1-18.1-17c-1.3-1.4-3.4.7-2.1 2.1 42.1 45.3 104.3 63 164.6 64.5 37 .9 74.1-4.3 110.5-10.7 19.4-3.4 38.7-7.2 58.1-10.9 9.8-1.9 19.7-3.7 29.5-5.4s20.6-4.7 30.1-1.2c15.6 5.7 20.9 24.9 19.3 39.8s-10.4 29.9-21.7 40.7c-24.7 23.4-61.7 29-94.4 30.4-35 1.5-70.8-3.7-104.9-11.3a380.4 380.4 0 0 1-100.4-37.1c-32.3-17.7-59.9-42.4-86.4-67.8-13.2-12.6-27.1-25-38.4-39.4-3.1-4-7.9-9.8-3.8-14.7s8.4-4.3 12.7-2.8c6.9 2.3 10.9 8.6 14.8 14.2s6.2 8.8 10.7 12c1.6 1.1 3.1-1.5 1.5-2.6z"/><path class="cls-4" d="M647.7 679.9c13.2-1.4 26.8 8.5 28.3 22.2s-11 27-23.5 32.9c-14.3 6.6-31.1 9.1-46.5 11.5a313.3 313.3 0 0 1-49.3 4.1c-15.8.1-32.8-.4-48.1-5.1-13.2-4-23.7-13.7-36.7-18.2s-27.7-1.6-41.2-4.1c-7.4-1.4-14.3-4.4-21.2-7.4-13.2-5.6-26.4-11.5-39.3-17.9-3-1.5-30.5-14.8-26.4-19.3s14.1-.2 17.9.9a261.7 261.7 0 0 1 25.4 8.6c7.9 3.1 15.7 6.4 23.6 9.3s16.6 3.7 25.7 3.4c15.6-.5 31.3-.1 46.9-.6s31.8-1.5 47.6-2.9c31.5-2.8 62.9-7.3 94-13l23.2-4.5c1.8-.4 1-3.3-.8-2.9a1060.6 1060.6 0 0 1-105 16.3c-17.1 1.7-34.2 3-51.4 3.7s-34.5.2-51.7.8c-6.8.2-14 .8-20.6-.9a80.1 80.1 0 0 1-9.4-3.2c-8.7-3.3-17.3-6.9-26-10.2s-17.7-6.5-26.8-8.2c-4.5-.9-11.7-2.2-15.2 1.7-6.5 7.3 16.2 17.6 20.1 19.7 14.6 7.8 29.8 14.6 45 21.1 6.4 2.8 12.8 5.8 19.7 7.5a100.1 100.1 0 0 0 17.3 2.4c8.5.7 17.2-.4 25.5 1.9 14.6 4 26 15.4 40.8 19.4s33.5 4.9 49.9 4.7a335.7 335.7 0 0 0 50.1-4.6c15.6-2.7 32.5-5.2 46.8-12.6 11-5.7 20.8-15.8 22.4-28.6s-5.2-22.5-15.3-27.8a27.2 27.2 0 0 0-15.8-3.1c-1.9.2-2 3.2 0 3z"/><path class="cls-4" d="M628.7 705.8c6.8-2.8 15-9 21.7-2.7s-1.9 16.2-9.1 18.7c-9.5 3.3-20.1 4.7-29.9 6.7s-19.8 3.9-29.7 5.3a241.9 241.9 0 0 1-33 2.5c-10.2 0-21.1-.3-30.3-5.2-5.3-2.7-10.1-8-4.9-13.5s10.7-5.5 16.4-5.9c9.9-.8 19.9 1.1 29.8 1.6a219.7 219.7 0 0 0 69-7.5c1.9-.6 1.1-3.5-.8-2.9-26.9 7.4-54.3 8.9-82 6.4-10.3-1-23.2-2.4-32.1 4.1-6.8 5-7.6 12.8-.6 18s19.8 7.6 30.1 7.8a234 234 0 0 0 39.2-2.5c13-1.9 26-4.4 38.8-7.3 9.8-2.1 21.4-2.8 29.1-9.8s8.4-13.6 1.2-19.4-15.9-.5-23.7 2.7c-1.7.7-.9 3.6.8 2.9z"/><path class="cls-4" d="M311.3 584.1c10.7 16.3 21.3 33.7 37.8 44.9 18 12.1 40.6 15 61.6 17.3a411.2 411.2 0 0 0 138.1-8.7c22.6-5.4 44.3-12.9 65.8-21.5 10.7-4.3 21.6-8.5 33-10.5s23.4-.4 35.1 2 22.4 6.1 31.4 13.9a102.1 102.1 0 0 1 21.1 26c5.4 9.8 7.7 21 9.1 32.1s2.3 24.5.5 36.5c-7 44.2-49.4 69.1-89.2 79.3-11.1 2.8-22.3 4.9-33.6 6.7s-24.2 3.8-36.5 3.9-24.3-.8-36.5-1.4-23.6-1-35.4-2.1c-25.1-2.3-48.7-8.6-72.9-15.6l-35.6-10.3c-9.6-2.8-18.4-7.4-27.1-12.2-17.5-9.7-35.4-18.6-52-29.7a309.5 309.5 0 0 1-45.4-36.8 387.2 387.2 0 0 1-37.1-42.8c-5.7-7.7-11.2-15.5-16.5-23.5s-11.8-18.2-15.2-28.7-6-20.6-3.7-31 10.9-19.1 22.3-21.9c19.8-4.8 42 1.1 58.7 12.2a84.1 84.1 0 0 1 22.2 21.9c1.1 1.6 3.7.1 2.5-1.5a85.8 85.8 0 0 0-46.9-33.9c-17.1-4.9-42.1-6.3-54.9 8.5s-7.3 37-.6 53.3c4 10 10.4 18.8 16.4 27.7s11.5 16.4 17.6 24.3c24.3 31.4 53.2 58.8 86.9 79.8 9.3 5.9 19 11.1 28.8 16.2s17.5 9.9 26.5 14.4 20.2 7.6 30.8 10.7l38.4 11.1a329.8 329.8 0 0 0 72.5 12l38.9 1.9c12.3.6 24.5.7 36.7-1 43.6-6 91.5-14.1 122.3-48.7a84.9 84.9 0 0 0 21.6-55.3c.4-21.6-2.4-46.6-15.5-64.4-6.1-8.3-12.4-16.5-20.6-22.7s-19.4-9.8-30-11.9-21.5-3.9-32.4-2.4-23.6 5.8-34.8 10.3c-23.3 9.2-46.6 17.5-71.1 23a406.5 406.5 0 0 1-75.4 9.8 398 398 0 0 1-74-4c-12.5-1.9-25.1-4.6-36.4-10.2s-18.4-12.6-25.6-21.2-13-18-19.2-27.3c-1-1.6-3.6-.1-2.5 1.5z"/><path class="cls-4" d="M267.4 526.9c25.9 2 45.3 18.7 63.5 35.7 4.8 4.6 10.2 8.9 13.4 14.9 1.9 3.7 2.8 7.7 3.9 11.6 2.2 8.3 5.6 15.1 12.8 20 16 11.1 38.2 12.6 56.8 15.3 13.6 1.9 27.2 4.1 40.9 5.3s29.2.7 43.8-.4c26.4-2.2 52.2-6.7 76.4-17.7 12.1-5.5 23.7-11.9 35.8-17.1a135.2 135.2 0 0 1 43.3-10.4c13.8-1.1 28.9-2.6 42.5.9 11.1 2.8 20.7 9.5 28.4 17.9 15.9 17.6 24.3 41.6 29.4 64.4 6.4 28.5 5 57.8-10.9 82.9-28.6 45-81.8 66.5-132.8 72.2-29 3.3-58.3 2.3-87.2-.3-14.8-1.4-29.6-3.1-44.3-5.1s-29.3-3.6-43.7-6.6a284.8 284.8 0 0 1-72.7-26.2c-20.5-10.8-39.4-24.5-59-36.9-9-5.7-18.3-11.5-26.2-18.7s-16.6-17.3-24.4-26a495.5 495.5 0 0 1-42.7-55.2c-14.5-21.9-29.5-46.3-27.5-73.7.8-11.5 4.9-23.9 14.4-31s18.6-9.2 28.5-11.3c12.4-2.7 25-3.8 37.6-4.5 2-.1 2-3.1 0-3-21.7 1.1-48.1 2.6-66.7 15.5s-19.4 39.1-14.4 58.8c6.5 25.7 23.4 48.6 38.8 69.7 14 19.3 29.9 37.1 46.2 54.6s34.4 26.6 52.9 38.7c21.3 14.1 42.2 27.4 65.9 37.1 26.1 10.7 53 16.3 80.8 20.1 30.9 4.2 61.8 8.1 93 8.9 53.9 1.4 110.8-6.9 154.3-41 20-15.7 37.5-37 43.8-62s1.6-54.5-7-79.8c-6.9-20.4-17.6-41.5-35.8-54.1-9.8-6.8-21-9.9-32.9-10.3a217.6 217.6 0 0 0-44.1 2.9c-27.3 4.6-50.1 20.8-75.6 30.5-27.6 10.7-59.1 14-88.5 14.1-16.1 0-32-2.1-47.9-4.4-14.1-2.1-28.4-3.7-42.3-6.9-12.2-2.8-27.8-7-33.9-19.3-3.7-7.5-3.9-16.3-8.6-23.5s-12.1-12.7-18.3-18.5c-8.8-8-17.9-15.8-28.4-21.6a76.6 76.6 0 0 0-31.3-9.5c-1.9-.1-1.9 2.9 0 3z"/><path class="cls-4" d="M344.5 541.3c11.8 6.8 17.3 17 23.8 28.4s12.6 18 22.6 23.7 22.3 8.6 34 10.7a286.9 286.9 0 0 0 40.3 4.3 272.4 272.4 0 0 0 79.9-8.9c26.7-7.2 51-20 76.3-30.8s54.9-19.5 82.9-12.3c23.8 6.2 43.4 23.8 55.7 44.7 14 23.7 19.7 51.8 21.1 79.1s-2.4 55.3-15.1 79.7c-22.8 44.1-69.1 70.5-116.3 80.7-27.2 6-55.3 7.1-83.2 6.1a737.2 737.2 0 0 1-82.5-7.5c-52.4-7.5-104.8-21.7-150.7-48.7s-83.7-64.1-119.2-102.3c-18-19.4-34.6-41-44.2-66s-10.9-55.7 1.9-78.9c5.5-9.9 14.3-17.2 23.7-23.2s22-12.2 34.1-14.5 28-.8 41.1 1.8a123 123 0 0 1 39.8 15c5.5 3.3 10.9 6.8 16.4 9.9s11.9 5.8 17.6 9c1.7.9 3.3-1.7 1.6-2.6-6.3-3.5-12.9-6.3-19.2-9.9s-11.8-7.3-17.9-10.7a122.2 122.2 0 0 0-39.3-13.9c-12.7-2.4-26.6-3.9-39.5-1.7-11.4 1.9-22.3 6.8-32.2 12.6s-18.6 12.2-25.1 21-10.4 21.6-12 33.4c-3.6 26.3 3.2 51.7 16.1 74.6s31.9 43.3 50.7 62.5 38.5 38.3 59.6 55.3 44.3 32.5 69.1 44.2a392.3 392.3 0 0 0 76.6 26.5c27 6.5 54.5 10.6 82.1 13.4s57.5 5 86.3 3.7c51.1-2.3 103.4-16.7 140.9-53.2a134.6 134.6 0 0 0 36.4-60.9c7.3-26.7 7-55.3 2.4-82.4-4.3-25.5-13.5-50.7-30.6-70.4s-38.5-30.7-63.3-31.9c-27.9-1.3-54.5 9.2-79.4 20.5-27.6 12.6-54.7 24.6-84.8 30a281.2 281.2 0 0 1-88.3 1.3c-13.6-2-27.7-4.4-40.1-10.8s-19.9-16.7-26.7-29.1c-5.6-10-11.7-18.2-21.8-24.1a1.5 1.5 0 0 0-1.6 2.6z"/></g><g class="cls-3"><path class="cls-4" d="M515 432.6a95.6 95.6 0 0 0 22.7-2.3c5.5-1.3 11.5-3.1 15.1-7.8 7.2-9.3.9-21.7-8.2-26.7-12.8-7.1-29.6-4.1-43.6-3.6-5 .2-10.4-.6-13.8 3.8s-3.9 9.7-3 14.7c2.7 14 16.8 20.2 29.7 20.4 1.9.1 1.9-2.9 0-3-12.8-.2-27.5-7.3-27-22 .1-3.5 1.3-8 4.5-9.8s7.3-1 10.5-1.1c6.8-.3 13.6-.6 20.4-.7 12.1-.1 33.9 4.4 30.3 21.5-1.6 7.1-8.6 9.6-14.8 11.2a92.1 92.1 0 0 1-22.8 2.4 1.5 1.5 0 0 0 0 3z"/><path class="cls-4" d="M535.2 441.9c6.3-.9 12.6-1.9 18.7-3.4 4.2-1 8.3-2.3 11.4-5.4 5.6-5.4 6.7-14.1 5.2-21.4-3.8-19.3-23.1-31.3-41-35.3-11-2.5-22.8-3-34-2.4-8.9.6-17.1 3.5-23.3 10.1-12.7 13.6-9.1 33.1 3.2 45.6 17.3 17.6 43.8 15.9 66.2 12.2 1.9-.3 1.1-3.2-.8-2.9-18 3-38.6 5-54.9-4.8-14.1-8.5-24.4-26.7-15.5-42.6s31-15.8 47.8-14 36.5 9 45.7 25.2c4.4 7.8 6.5 18.7.9 26.4-3.2 4.3-8.2 5.7-13.2 6.8s-11.4 2.2-17.2 3c-1.9.3-1.1 3.2.8 2.9z"/><path class="cls-4" d="M586.1 424.5c-1.7-25-16.4-48.5-38.5-60.6-13-7.1-27.9-9.7-42.5-10.1-12.7-.3-27.2-.3-39 5.2s-16.5 17.2-17.6 29.7-1.1 27.1 3.5 39.4c10.1 26.9 42.4 29.4 67.1 31.3 16.1 1.3 33.1.4 47.2-8.2 11-6.7 19.5-17.5 19.5-30.9a1.5 1.5 0 0 0-3 0c0 12.6-8.3 22.6-18.7 28.7s-24.6 8.2-37.6 7.8a207.9 207.9 0 0 1-39.2-4.8c-12-2.7-23.5-8-29.8-19.1s-6.6-22.6-6.4-34.1 1.1-27.4 12.8-35.1 23.9-6.8 35.8-6.9c13.9-.1 28.2 1.4 41.1 7.1 23.9 10.4 40.5 34.6 42.3 60.6.2 1.9 3.2 1.9 3 0z"/><path class="cls-4" d="M598 419.2a96 96 0 0 0-49.3-72.7c-16-8.6-34.2-11.5-52.2-12.2s-36.6-1.4-51.5 8c-12.3 7.7-19.1 21.7-21.1 35.8-2.6 18.4 3.2 36.6 10.2 53.5 3.1 7.6 6 15.8 10.5 22.7s10.8 10.6 18.8 12.4a354.8 354.8 0 0 0 59.9 7c19.4.6 40.2-1.8 55.9-14.1 13.4-10.4 22.2-26.7 19.2-43.8-.3-1.9-3.2-1.1-2.9.8 2.7 15.4-5.3 30.2-17.1 39.8s-31.1 14.2-47.9 14.4-36-2.3-53.6-4.9c-8.7-1.3-19.1-1.9-25.8-8.3S443 444.7 440 438c-11.7-27.2-24.5-66.1 1.8-89.5 12.6-11.2 30.5-11.4 46.4-11.4 17.4.1 35.1 1.6 51.3 8.3 29.9 12.4 51.8 41.7 55.5 73.8.2 1.9 3.2 1.9 3 0z"/><path class="cls-4" d="M611.1 416.3c-9.6-37.6-31.4-73.4-67.8-89.9s-81.7-20-114.7 3.4c-7.6 5.3-14.2 12.2-18 20.7s-4.9 19.1-4.4 28.8c1.1 21.5 7 43 15.4 62.7a164.7 164.7 0 0 0 15.5 29c5.4 8 12.2 13.7 21.7 15.8s22.5 2.3 33.5 2.5 24.7-.1 36.9-1.1 25.5-1.9 37.8-4.6 19.5-9.5 27.1-18.4c12.8-15 28-37.6 13.5-56.7-1.2-1.5-3.8 0-2.6 1.5 13.9 18.3-1.4 39.6-13.6 53.7-6.6 7.6-13.4 14.2-23.5 16.6s-22 3.5-32.9 4.5a402.1 402.1 0 0 1-64 .6c-11-.8-20.9-2.9-28.3-11.8-6.1-7.3-10.7-16.4-14.8-25a195.2 195.2 0 0 1-17.5-57.8c-2.8-20.1-1.4-40.7 15-54.8 29.5-25.5 74.3-23 108.6-10.2 40 14.9 64 51.2 74.2 91.3a1.5 1.5 0 0 0 2.9-.8z"/><path class="cls-4" d="M618.8 397.8c-10.2-21.4-20.8-43.3-37-61a96.4 96.4 0 0 0-28.7-21.6c-11.8-5.8-24.7-9.3-37.4-12.7-24.1-6.5-50.8-12.8-74.5-1.5-11.5 5.5-17.6 15-26 24s-19.3 13.7-25.3 24.3c-12.5 22-2.4 47.6 6.3 68.9s13.1 43.6 25.3 62.4c5.5 8.6 13 15.8 22.3 20 11.1 5.1 23.4 5.9 35.4 6 27.1.1 55.7.4 82.3-5.6 24.9-5.6 46.3-19.3 57.1-43 9.3-20.3 9.8-44.2 0-64.4-.8-1.8-3.4-.2-2.5 1.5 8.7 18.1 8.7 39.4 1.4 58-8.1 20.5-24.6 34.9-45.4 41.9-24.3 8.1-51.1 7.9-76.5 8.4-23.2.4-49.1 1.9-66-17-13.6-15.2-18.3-36.4-25.1-55.2-7.9-22.1-21.8-45.2-16.1-69.6 2.9-12.4 10.7-19.4 20.3-26.8s14.4-16.4 22.7-23.8c19.8-17.7 48.8-14.3 72.5-8.5 26.6 6.5 53.4 13.7 73.1 33.7 17.6 17.8 28.6 40.8 39.2 63.1.8 1.7 3.4.2 2.6-1.5z"/></g><path class="cls-5" d="M60.8 363.8l279.6-154.9L442 149c-3.7 5.4-26.1 39.1-16 83 9.2 39.8 38.7 59.9 45 64l373 248a161.2 161.2 0 0 1 66 167L595 901.8 553 929c3.7-5.3 39.7-58.1 17.9-119.7-16-45.4-53.1-66.3-62.4-71.2L134.4 503c-42-26.4-75-88.8-73.6-139.2z"/><g class="cls-6"><path class="cls-7" d="M451.1 573.6L372.6 616l7.3 4.5 78.5-42.4-7.3-4.5zm40.2-21.8l-28.2 15.3 7.3 4.5 28.3-15.3-7.4-4.5zm31.2-16.9l-19.2 10.4 7.3 4.5 19.2-10.4-7.3-4.5zm-123.9 47.7l-42.8 23.1 7.4 4.5 42.7-23.1-7.3-4.5zm64.4-34.8l-52.4 28.3 7.3 4.5 52.4-28.3-7.3-4.5zm31.2-16.9L475 541.3l7.3 4.5 19.2-10.4-7.3-4.5zm29.7-16.1l-19.2 10.4 7.3 4.5 19.2-10.4-7.3-4.5zM370 578.7l-30.9 16.7 7.3 4.5 31-16.7-7.4-4.5zm22.6-12.2l-10.6 5.7 7.4 4.5 10.5-5.7-7.3-4.5zm31.2-16.9L404.6 560l7.3 4.5 19.2-10.4-7.3-4.5zm12.7-26.3l-114.2 61.8 7.4 4.5 114.2-61.7-7.4-4.6zm40.3-21.7l-28.3 15.3 7.3 4.5 28.3-15.3-7.3-4.5zm-140.3 56.5l-30.9 16.7 7.3 4.5 30.9-16.7-7.3-4.5zm72.6-39.3l-60.6 32.8 7.3 4.5 60.7-32.8-7.4-4.5zm-57 11.5l-63.3 34.2 7.4 4.5 63.3-34.2-7.4-4.5zm57.8-31.3l-45.8 24.8 7.3 4.5 45.8-24.8-7.3-4.5zm42.9-23.2l-30.9 16.7 7.3 4.5 30.9-16.7-7.3-4.5zm-159.4 66.9l-21.3 11.5 7.3 4.5 21.4-11.5-7.4-4.5zm40.3-21.8l-28.3 15.3 7.4 4.5 28.2-15.3-7.3-4.5zm57.5-31.1l-45.5 24.6 7.3 4.5 45.5-24.6-7.3-4.5zm-70.4 18.7l-65.5 35.4 7.3 4.5 65.5-35.4-7.3-4.5zm73.3-39.7L332.8 502l7.3 4.5 61.4-33.2-7.4-4.5zm31.2-16.9l-19.2 10.4 7.4 4.5 19.2-10.4-7.4-4.5zm30-16.2l-19.2 10.4 7.3 4.5 19.2-10.4-7.3-4.5zm-177.5 76.7l-39.3 21.2 7.4 4.5 39.2-21.2-7.3-4.5zm332.5-25l54.4-29.4 7.3 4.5-54.4 29.4-7.3-4.5zm-5.2-16.6l42.8-23.1 7.3 4.5-42.7 23.1-7.4-4.5zm-4.9-16.7l30.9-16.7 7.4 4.5-31 16.7-7.3-4.5zm-30.8-2.7l45-24.3 7.3 4.5-45 24.3-7.3-4.5zm-2.7-17.9l30.9-16.7 7.4 4.5-31 16.7-7.3-4.5zm-25.1-5.8l39.3-21.2 7.3 4.5-39.2 21.2-7.4-4.5zm1.1-20l21.4-11.5 7.4 4.5-21.4 11.6-7.4-4.6zm-36.8.6l41.5-22.4 7.3 4.5-41.4 22.4-7.4-4.5zm-47.5 5.5l39.2-21.2 7.3 4.5-39.2 21.2-7.3-4.5zm-151.9 83.1l-16.7 9 7.3 4.5 16.7-9-7.3-4.5zm49.5-26.8l-37.6 20.3 7.4 4.5 37.5-20.3-7.3-4.5zm-44.4-77l-63.3 34.3 7.3 4.5 63.4-34.3-7.4-4.5zm43.5-23.5l-25 13.6 7.3 4.5 25-13.5-7.3-4.6zM452 418l-88.6 47.4 7.6 3.6 88.7-47.2zm-50.6 66.8l39.2-21.2 7.3 4.5-39.2 21.2-7.3-4.5zM534 413l-88.6 47.4 7.6 3.6 88.7-47.2zm-99.8 131.1l30.9-16.7 7.4 4.5-31 16.7-7.3-4.5zm30-113l30.9-16.7 7.4 4.5-31 16.7-7.3-4.5zM560 438l-88.6 47.4 7.6 3.6 88.7-47.2zm0 38l-88.6 47.4 7.6 3.6 88.7-47.2zm45.1 15l-75.7 40.4 7 3.9 75.7-40.2zm-6.6-16l-70.1 37.4 6.7 4.1 70.2-37.2zm-43-15l-70.1 37.4 6.7 4.1 70.2-37.2zm34.6-1.1l-22.8 12.4 8.1 4.1 22.8-12.3-8.1-4.2zm-63-82l-22.8 12.4 8.1 4.1 22.8-12.3-8.1-4.2zM531 433l-70.7 38.3 7.7 4.7 71-38z"/></g><path class="cls-8" d="M510.1 114.3c15.5 0 30.8 7.1 30.8 24.2s-18.1 21.9-22 27.5-1.9 10.2-9.9 10.2c-5.2 0-7.8-4.2-7.8-8.1 0-14.4 21.2-17.7 21.2-29.6 0-6.5-4.3-10.4-11.6-10.4-15.5 0-9.5 16-21.2 16-4.3 0-7.9-2.6-7.9-7.4 0-11.9 13.6-22.4 28.4-22.4zm-.6 69.8a10 10 0 1 1-10 10 10 10 0 0 1 10-10zm0 0"/><g class="cls-9"><path class="cls-10" d="M225.6 227c24.1 0 47.8 11.1 47.8 37.6 0 24.4-28 33.8-34.1 42.6-4.5 6.6-2.9 15.8-15.3 15.8-8.1 0-12.1-6.6-12.1-12.6 0-22.4 32.9-27.4 32.9-45.8 0-10.2-6.8-16.2-18-16.2-24.1 0-14.7 24.8-32.9 24.8-6.6 0-12.2-4-12.2-11.5 0-18.4 21-34.7 43.9-34.7zm-.9 108.2a15.4 15.4 0 1 1-15.4 15.4 15.4 15.4 0 0 1 15.4-15.4zm0 0"/></g><g class="cls-11"><path class="cls-12" d="M918.3 378.6c11 5.7 19.1 16.3 12.8 28.3s-20.7 8.7-25.5 11.3-5.1 6.5-10.7 3.6c-3.7-1.9-3.9-5.9-2.5-8.6 5.3-10.1 21.4-4.7 25.8-13 2.4-4.6.7-9-4.4-11.6-10.9-5.7-12.5 7.8-20.8 3.5-3-1.6-4.6-4.7-2.8-8.1 4.3-8.4 17.7-10.8 28.1-5.4zm-25.9 48.9a7.9 7.9 0 0 1-7.3 14 7.9 7.9 0 1 1 7.3-14zm0 0"/></g><g class="cls-6"><path class="cls-7" d="M606.1 668.6L527.6 711l7.3 4.5 78.5-42.4-7.3-4.5zm40.2-21.8l-28.2 15.3 7.3 4.5 28.3-15.3-7.4-4.5zm31.2-16.9l-19.2 10.4 7.3 4.5 19.2-10.4-7.3-4.5zm-123.9 47.7l-42.8 23.1 7.4 4.5 42.7-23.1-7.3-4.5zm64.4-34.8l-52.4 28.3 7.3 4.5 52.4-28.3-7.3-4.5zm31.2-16.9L630 636.3l7.3 4.5 19.2-10.4-7.3-4.5zm29.7-16.1l-19.2 10.4 7.3 4.5 19.2-10.4-7.3-4.5zM525 673.7l-30.9 16.7 7.3 4.5 31-16.7-7.4-4.5zm22.6-12.2l-10.6 5.7 7.4 4.5 10.5-5.7-7.3-4.5zm31.2-16.9L559.6 655l7.3 4.5 19.2-10.4-7.3-4.5zm12.7-26.3l-114.2 61.8 7.4 4.5 114.2-61.7-7.4-4.6zm40.3-21.7l-28.3 15.3 7.3 4.5 28.3-15.3-7.3-4.5zm-140.3 56.5l-30.9 16.7 7.3 4.5 30.9-16.7-7.3-4.5zm72.6-39.3l-60.6 32.8 7.3 4.5 60.7-32.8-7.4-4.5zm31.2-16.9l-19.2 10.4 7.3 4.5 19.2-10.4-7.3-4.5zm-88.2 28.4l-63.3 34.2 7.4 4.5 63.3-34.2-7.4-4.5zm57.8-31.3l-45.8 24.8 7.3 4.5 45.8-24.8-7.3-4.5zm42.9-23.2l-30.9 16.7 7.3 4.5 30.9-16.7-7.3-4.5zm-159.4 66.9l-21.3 11.5 7.3 4.5 21.4-11.5-7.4-4.5zm40.3-21.8l-28.3 15.3 7.4 4.5 28.2-15.3-7.3-4.5zm57.5-31.1l-45.5 24.6 7.3 4.5 45.5-24.6-7.3-4.5zm-70.4 18.7l-65.5 35.4 7.3 4.5 65.5-35.4-7.3-4.5zm73.3-39.7L487.8 597l7.3 4.5 61.4-33.2-7.4-4.5zm31.2-16.9l-19.2 10.4 7.4 4.5 19.2-10.4-7.4-4.5zm30-16.2l-19.2 10.4 7.3 4.5 19.2-10.4-7.3-4.5zm-177.5 76.7l-39.3 21.2 7.4 4.5 39.2-21.2-7.3-4.5zm332.5-25l54.4-29.4 7.3 4.5-54.4 29.4-7.3-4.5zm-5.2-16.6l42.8-23.1 7.3 4.5-42.7 23.1-7.4-4.5zm-4.9-16.7l30.9-16.7 7.4 4.5-31 16.7-7.3-4.5zm-30.8-2.7l45-24.3 7.3 4.5-45 24.3-7.3-4.5zm-2.7-17.9l30.9-16.7 7.4 4.5-31 16.7-7.3-4.5zm-25.1-5.8l39.3-21.2 7.3 4.5-39.2 21.2-7.4-4.5zm1.1-20l21.4-11.5 7.4 4.5-21.4 11.6-7.4-4.6zm-36.8.6l41.5-22.4 7.3 4.5-41.4 22.4-7.4-4.5zm-47.5 5.5l39.2-21.2 7.3 4.5-39.2 21.2-7.3-4.5zm-151.9 83.1l-16.7 9 7.3 4.5 16.7-9-7.3-4.5zm49.5-26.8l-37.6 20.3 7.4 4.5 37.5-20.3-7.3-4.5zm-44.4-77l-63.3 34.3 7.3 4.5 63.4-34.3-7.4-4.5zM607 513l-88.6 47.4 7.6 3.6 88.7-47.2zm-50.6 66.8l39.2-21.2 7.3 4.5-39.2 21.2-7.3-4.5zM689 508l-88.6 47.4 7.6 3.6 88.7-47.2zm-99.8 131.1l30.9-16.7 7.4 4.5-31 16.7-7.3-4.5zm30-113l30.9-16.7 7.4 4.5-31 16.7-7.3-4.5zM689 545l-88.6 47.4 7.6 3.6 88.7-47.2zm26 26l-88.6 47.4 7.6 3.6 88.7-47.2zm45.1 15l-75.7 40.4 7 3.9 75.7-40.2zm-6.6-16l-70.1 37.4 6.7 4.1 70.2-37.2zm-43-15l-70.1 37.4 6.7 4.1 70.2-37.2zm34.6-1.1l-22.8 12.4 8.1 4.1 22.8-12.3-8.1-4.2zm-63-82l-22.8 12.4 8.1 4.1 22.8-12.3-8.1-4.2zM686 528l-70.7 38.3 7.7 4.7 71-38z"/></g></svg>