<svg xmlns="http://www.w3.org/2000/svg" xmlns:xlink="http://www.w3.org/1999/xlink" viewBox="0 0 1911.59 1789.78"><defs><style>.cls-1,.cls-17,.cls-18{fill:none;}.cls-2{isolation:isolate;}.cls-3{opacity:0.28;}.cls-4{clip-path:url(#clip-path);}.cls-5{fill:#6477bf;}.cls-51,.cls-6,.cls-7{fill:#2f92ed;}.cls-6,.cls-7{fill-rule:evenodd;}.cls-7{opacity:0.21;}.cls-8{opacity:0.38;fill:url(#Безымянный_градиент_10);}.cls-9{fill:url(#Безымянный_градиент_10-2);}.cls-10{fill:#27348b;}.cls-11{fill:#2548aa;}.cls-12{fill:#1d3691;}.cls-13{fill:#6484ba;}.cls-14{fill:#8ba6d2;}.cls-15,.cls-48{fill:#fff;}.cls-16{fill:#212268;}.cls-17{stroke:#79aadf;}.cls-17,.cls-18,.cls-36{stroke-miterlimit:10;}.cls-18{stroke:#6484ba;}.cls-19{fill:#f7bda4;}.cls-20{fill:#4e4291;}.cls-21{fill:#3d2b82;}.cls-22{fill:#1cbdf4;}.cls-23{fill:#2a1c65;}.cls-24{fill:url(#Безымянный_градиент_10-3);}.cls-25{opacity:0.41;fill:url(#Безымянный_градиент_10-4);}.cls-26{fill:#3772ce;}.cls-27{fill:#ff8358;}.cls-28{fill:#e2e8f2;}.cls-29{fill:#c4dffc;}.cls-30{opacity:0.63;}.cls-30,.cls-40,.cls-47{mix-blend-mode:multiply;}.cls-31{fill:#eff6fc;}.cls-32,.cls-36{fill:#a0d2ff;}.cls-33{fill:#ced6e9;}.cls-34{fill:#f2f4f9;}.cls-35{fill:#f2f4fa;}.cls-36{stroke:#fff;stroke-width:3px;}.cls-37{fill:#1f3598;}.cls-38{fill:#2f0001;}.cls-39{fill:#87ace0;}.cls-40{opacity:0.56;}.cls-41{opacity:0.51;}.cls-42{fill:#020053;}.cls-43{fill:#e52364;}.cls-44{fill:#79181b;}.cls-45{fill:#b20032;}.cls-46{fill:#75a3ec;}.cls-48{font-size:27.55px;font-family:MyriadPro-Regular, Myriad Pro;}.cls-49{letter-spacing:0em;}.cls-50{fill:red;}.cls-52{fill:#eefaff;}.cls-53{fill:#f2cfad;}.cls-54{fill:#89abe5;}</style><clipPath id="clip-path"><rect class="cls-1" x="0.34" y="-8.75" width="1911" height="2268"/></clipPath><linearGradient id="Безымянный_градиент_10" x1="385.54" y1="549.67" x2="1916.07" y2="549.67" gradientUnits="userSpaceOnUse"><stop offset="0" stop-color="#9090f1"/><stop offset="1" stop-color="#2d79cc"/></linearGradient><linearGradient id="Безымянный_градиент_10-2" x1="369.98" y1="495.63" x2="1917.98" y2="495.63" xlink:href="#Безымянный_градиент_10"/><linearGradient id="Безымянный_градиент_10-3" x1="-16.46" y1="1279.12" x2="961.23" y2="1279.12" xlink:href="#Безымянный_градиент_10"/><linearGradient id="Безымянный_градиент_10-4" x1="-16.46" y1="1311.23" x2="959.09" y2="1311.23" xlink:href="#Безымянный_градиент_10"/></defs><title>ленд</title><g class="cls-2"><g id="маска"><g class="cls-4"><path class="cls-5" d="M1151.38,755.72c.54-.53,1.1-1,1.67-1.54.29-.25.61-.5.11-.12.37-.29.77-.56,1.16-.82a32,32,0,0,1,4.18-2.39c2.83-1.37,3.81-5.63,2.15-8.21a6.16,6.16,0,0,0-8.21-2.15,36.48,36.48,0,0,0-9.55,6.74,6,6,0,0,0,8.49,8.49Z"/><path class="cls-5" d="M1147.91,799.73a68.88,68.88,0,0,1-4.07-15.32c-.47-3.21-4.53-5-7.38-4.2-3.44.95-4.66,4.17-4.19,7.39a68.88,68.88,0,0,0,4.07,15.32c1.19,3,4,5.11,7.38,4.19,2.87-.79,5.38-4.35,4.19-7.38Z"/><path class="cls-5" d="M1160.71,851.46a69.31,69.31,0,0,0-1.07-15c-.54-3.2-4.49-5-7.38-4.19-3.39.93-4.74,4.17-4.19,7.38a55,55,0,0,1,.64,11.82c-.16,3.24,2.87,6,6,6a6.1,6.1,0,0,0,6-6Z"/><path class="cls-5" d="M1142,913.66a129.6,129.6,0,0,0,11-22c2.83-7.19-8.77-10.31-11.57-3.19a113.26,113.26,0,0,1-9.82,19.17c-4.14,6.55,6.24,12.57,10.37,6.06Z"/><path class="cls-5" d="M1010.82,971.66c10.47-1.4,21-1.75,31.52-3,7.57-.9,7.66-12.92,0-12-10.49,1.26-21,1.61-31.52,3-3.24.43-6,2.45-6,6,0,2.91,2.78,6.43,6,6Z"/><path class="cls-5" d="M940.64,986.4c11.86-3.31,22.83-9.35,35.12-11.12,7.61-1.1,4.37-12.66-3.19-11.57-12.29,1.77-23.26,7.81-35.12,11.12-7.43,2.07-4.27,13.65,3.19,11.57Z"/><path class="cls-5" d="M895.77,1026.25c2.45-8.84,8.48-15.56,15.8-20.84,6.2-4.48.22-14.9-6.06-10.37-9.89,7.15-18,16-21.31,28-2.07,7.45,9.5,10.63,11.57,3.19Z"/><path d="M1453.54,1296.62a.05.05,0,1,0,0-.1.05.05,0,0,0,0,.1Z"/><path d="M801.54,1438.34l-2.3-.24c-.65-.06-1.35-.3-1.91.11a.43.43,0,0,0,0,.73c.56.4,1.26.17,1.91.1l2.3-.23a.24.24,0,0,0,0-.47Z"/><path class="cls-6" d="M1105.31,507q0,4.32,0,8.63L997.76,546.51l.21-8.63Z"/><path class="cls-7" d="M557.54,19.57c-.17.52,22,8.1,56.8,21.68,56.51,22.07,84.77,33.1,109,48,41.47,25.51,68.57,57.38,79,72,86.77,121.69-89.81,300.07-17,427,8.22,14.33,55.63,90.79,74.83,176.6.09.41.15.7.24,1.12,2.51,11.48,18,88.94-19.74,156.38-57.47,102.76-224.65,90.77-239.73,163.8-15.17,73.46,140,204.11,278.4,186.1,43.62-5.67,75.46-24.79,102.32-40.92,111.6-67,105.18-141,178.68-187.08,83.9-52.59,130.92,19.57,323.2,1.32,130.91-12.43,285.24-62.14,292-132,2.94-30.32-24.63-71.35-2-116,10.2-20.12,21.53-23.07,26-32C1844.17,676.4,1101,200.17,711.34,69.25,691.46,62.57,558,18.31,557.54,19.57Z"/><path class="cls-8" d="M385.54,6.57c56.06.15,138.69,9.3,224,54,56,29.36,129,67.59,156.67,149.33,17.61,52,9.58,99.92,2.67,126.67-4.81,12.9-53.08,149.47,29.49,264.82,46.48,64.93,110.67,90,137.17,98.6a494.8,494.8,0,0,0,75.4,24.4c102.41,24.24,208.6,14.45,208.6,14.18h0a334.08,334.08,0,0,1,116.25,45.25,341.17,341.17,0,0,1,79.55,69.83,346,346,0,0,1,54.2,89.42c16.57,32.69,43.75,72.35,88,102.72,96.5,66.22,234.74,61.2,358-7.22,4-160-16-224.79-16-224.79L1124.88,219.56l-87.34-67a1504.58,1504.58,0,0,0-652-146Z"/><path class="cls-9" d="M398.94-8.7H1918l-5.2,943.94s-136.43,90.87-294.29,57.27c-25.38-5.87-61.31-18.13-93-46.94-24.25-22-31-40.06-50.9-65.33-19.4-24.62-51.83-56.74-107.6-84C1345,778,1310.72,755,1265,746.65c-38.16-7-60.12.64-107,.92-31.63.19-77.18-3-133-19-36.36-8.05-127.44-33.68-173.42-113.13-11.7-20.21-17.48-38.72-20.58-48.87-21.22-69.31-5-117.11,0-188,2.47-35.22,2.85-85.9-7.89-148.57a194.94,194.94,0,0,0-69.27-112.44A331.87,331.87,0,0,0,518,38.57c-106,7-130-24-130-24L370-8.7Z"/><path class="cls-10" d="M1427.86,827.84a1165.95,1165.95,0,0,1,484.34-99.71q1-141.17,2-282.33c-156.62-30.84-362.23-52.11-599-25.17a1926.13,1926.13,0,0,0-251.55,45.72c-64.58,17.77-109,34-135.12,46.95l-86,42.66c6.89,23,20.36,57.25,48.08,90.42,51.22,61.27,119,80.51,162.59,92.25,91.74,24.73,119.31,1.67,208,19.33C1335.43,772.75,1392,804,1427.86,827.84Z"/><path class="cls-11" d="M1413.88,822.24A1351.77,1351.77,0,0,1,1917.79,709l1-262c-42.87-7.1-362.41-58.67-615-34.67C1173.33,424.69,1052.24,458,1052.24,458A1029.79,1029.79,0,0,0,917.12,505c-33.3,14.24-63.58,29.27-90.8,44.22,9.82,42.89,27.52,71.39,39.52,87.52,55.15,74.21,144,94.75,186.61,104.59,18.38,4.25,32.78,6.21,51.44,8.76,69.67,9.5,112.3,5.9,141.7,7.17C1285.67,759,1343,771.58,1413.88,822.24Z"/><path class="cls-12" d="M1515,937.57c15,8.21,59.91,30.22,116.08,19.67a167.93,167.93,0,0,0,61.42-25q14-90.51,24.9-187.61,6.19-56,10.77-110.06a197.42,197.42,0,0,1,74.67-70.67q24.72-6.18,50.66-12,29.93-6.69,58.62-12.22v372a559.49,559.49,0,0,1-105.92,49.25c-58.46,20-127.48,43.68-204.65,21.82C1562.43,971.65,1533.44,952.31,1515,937.57Z"/><path class="cls-11" d="M1579.82,975.4a169.32,169.32,0,0,0,151.06-44.16c2.65-56,7.62-115.69,15.75-178.59,5.16-39.92,11.22-78.2,17.91-114.75,16.91-28.81,36-44.93,51.5-54.5,0,0,20.72-12.81,108.17-31.5v372a455.71,455.71,0,0,1-105.92,49.25c-34.65,11-104,32-188.51,15.87A333.19,333.19,0,0,1,1579.82,975.4Z"/><path class="cls-13" d="M975.74,598.54s-5.68-1.14-5.68,2.27,5.68,5.68,5.68,5.68L1046.16,636l70.41,29.53,63.6,27.26s16.47,7.38,27.83,4l308.92-86.32Z"/><path class="cls-14" d="M1182.23,681.52l-.35,7.31L977.44,602.51s-3.4-1.13-3.4-5.67l-.13-4.55Z"/><path class="cls-14" d="M1182.23,681.52l-.35,7.31s10.22,7.95,31.8,2.27,291.89-77.23,291.89-77.23,21.46-3.41,15.84-13.63Z"/><path class="cls-15" d="M1219.36,682s-25,6.81-47.7-4.55L977.44,595.7s-8-4.86,0-8.11l311.2-82.75s5.68-2.27,14.76,0S1510.11,590,1510.11,590s19.31,8,9.08,11.36S1219.36,682,1219.36,682Z"/><path class="cls-15" d="M967.79,318.59c8.18-4.21,17.58-4.65,26.4-6.56,10.92-2.38,21.72-5.89,32.5-8.83q32.08-8.74,64.16-17.55c59.85-16.35,119.58-33.19,179.62-48.85,5.24-1.36,10.86-3.58,16.37-3.18,5,.36,11.91,10.64,10.88,15.68,0,0,1.14,211.25,0,234s-17,21.58-17,21.58-286.21,77.23-301,81.77c-4,1.23-6.79,1-8.79-.07a19.09,19.09,0,0,1-6-3.33,15.73,15.73,0,0,1-5.68-11.36V336.75C959.27,330,961.27,322,967.79,318.59Z"/><polygon class="cls-16" points="1232.99 554.81 1251.16 550.27 1267.06 557.09 1250.02 561.63 1232.99 554.81"/><polygon class="cls-16" points="1210.27 560.49 1228.44 555.95 1244.34 562.76 1227.31 567.31 1210.27 560.49"/><polygon class="cls-16" points="1191.62 565.73 1209.59 561.24 1225.31 567.98 1208.47 572.47 1191.62 565.73"/><polygon class="cls-16" points="1171.41 571.35 1189.38 566.86 1205.1 573.6 1188.26 578.09 1171.41 571.35"/><polygon class="cls-16" points="1150.08 576.96 1168.04 572.47 1183.76 579.21 1166.92 583.7 1150.08 576.96"/><polygon class="cls-16" points="1253.38 548.89 1271.35 544.4 1287.07 551.14 1270.23 555.63 1253.38 548.89"/><polygon class="cls-16" points="1233.17 554.5 1251.14 550.01 1266.86 556.75 1250.02 561.24 1233.17 554.5"/><polygon class="cls-16" points="1211.84 560.12 1229.8 555.63 1245.52 562.37 1228.68 566.86 1211.84 560.12"/><polygon class="cls-16" points="1315.14 532.05 1333.11 527.55 1348.83 534.29 1331.99 538.78 1315.14 532.05"/><polygon class="cls-16" points="1294.93 537.66 1312.9 533.17 1328.62 539.91 1311.78 544.4 1294.93 537.66"/><polygon class="cls-16" points="1273.6 543.28 1291.56 538.78 1307.29 545.52 1290.44 550.01 1273.6 543.28"/><polygon class="cls-16" points="1128.5 583.21 1146.67 578.66 1162.57 585.48 1145.53 590.02 1128.5 583.21"/><polygon class="cls-16" points="1108.05 588.88 1126.23 584.34 1142.13 591.16 1125.09 595.7 1108.05 588.88"/><polygon class="cls-16" points="1086.47 593.43 1104.65 588.88 1120.55 595.7 1103.51 600.24 1086.47 593.43"/><polygon class="cls-16" points="1066.03 599.11 1084.2 594.56 1100.1 601.38 1083.07 605.92 1066.03 599.11"/><polygon class="cls-16" points="1035.37 607.06 1062.62 600.24 1080.8 607.06 1052.4 615.01 1035.37 607.06"/><polygon class="cls-16" points="1182.54 554.38 1200.51 549.88 1216.23 556.62 1199.38 561.11 1182.54 554.38"/><polygon class="cls-16" points="1161.19 559.99 1179.16 555.5 1194.88 562.24 1178.03 566.73 1161.19 559.99"/><polygon class="cls-16" points="1140.99 564.47 1158.96 559.98 1174.68 566.72 1157.83 571.21 1140.99 564.47"/><polygon class="cls-16" points="1244.3 537.53 1262.27 533.04 1277.99 539.78 1261.14 544.27 1244.3 537.53"/><polygon class="cls-16" points="1210.27 537.78 1228.44 533.23 1235.96 537.51 1219.12 542 1210.27 537.78"/><polygon class="cls-16" points="1189.83 543.46 1208 538.91 1215.52 543.19 1198.68 547.68 1189.83 543.46"/><polygon class="cls-16" points="1169.38 548 1187.56 543.46 1195.08 547.73 1178.23 552.22 1169.38 548"/><polygon class="cls-16" points="1148.94 554.81 1167.11 550.27 1174.63 554.54 1157.79 559.03 1148.94 554.81"/><polygon class="cls-16" points="1128.5 559.36 1146.67 554.81 1154.19 559.09 1137.35 563.58 1128.5 559.36"/><polygon class="cls-16" points="1104.65 565.03 1122.82 560.49 1130.34 564.76 1113.49 569.26 1104.65 565.03"/><polygon class="cls-16" points="1085.34 570.71 1103.51 566.17 1111.03 570.44 1094.19 574.94 1085.34 570.71"/><polygon class="cls-16" points="1063.76 576.39 1081.93 571.85 1089.45 576.12 1072.61 580.61 1063.76 576.39"/><polygon class="cls-16" points="1044.45 582.07 1062.62 577.53 1070.14 581.8 1053.3 586.29 1044.45 582.07"/><polygon class="cls-16" points="1022.87 587.75 1041.05 583.21 1048.57 587.48 1031.72 591.97 1022.87 587.75"/><polygon class="cls-16" points="1002.43 593.43 1020.6 588.88 1028.12 593.16 1011.28 597.65 1002.43 593.43"/><polygon class="cls-16" points="1229.58 532.1 1247.75 527.55 1255.27 531.83 1238.43 536.32 1229.58 532.1"/><polygon class="cls-16" points="1251.16 526.42 1269.33 521.88 1276.85 526.15 1260.01 530.64 1251.16 526.42"/><polygon class="cls-16" points="1272.74 520.74 1298.86 513.93 1309.08 518.47 1281.59 524.96 1272.74 520.74"/><polygon class="cls-16" points="1222.95 543.15 1240.92 538.66 1256.64 545.39 1239.79 549.88 1222.95 543.15"/><polygon class="cls-16" points="1202.75 548.76 1220.72 544.27 1236.44 551.01 1219.6 555.5 1202.75 548.76"/><polygon class="cls-16" points="1285.85 526.3 1313.62 519.61 1328.39 526.42 1302.69 533.04 1285.85 526.3"/><polygon class="cls-16" points="1264.51 531.92 1282.48 527.43 1298.2 534.16 1281.36 538.66 1264.51 531.92"/><polygon class="cls-16" points="1119.41 570.71 1137.58 566.17 1153.48 572.99 1136.45 577.53 1119.41 570.71"/><polygon class="cls-16" points="1098.97 576.39 1117.14 571.85 1133.04 578.66 1116 583.21 1098.97 576.39"/><polygon class="cls-16" points="1077.39 582.07 1095.56 577.53 1111.46 584.34 1094.42 588.88 1077.39 582.07"/><polygon class="cls-16" points="1056.94 587.75 1075.12 583.21 1091.02 590.02 1073.98 594.56 1056.94 587.75"/><polygon class="cls-16" points="1035.37 593.43 1053.54 588.88 1069.44 595.7 1052.4 600.24 1035.37 593.43"/><polygon class="cls-16" points="1014.92 599.11 1033.1 594.56 1048.99 601.38 1031.96 605.92 1014.92 599.11"/><polygon class="cls-16" points="1092.15 605.92 1110.33 601.38 1126.23 608.19 1109.19 612.74 1092.15 605.92"/><polygon class="cls-16" points="1056.94 616.14 1088.75 608.19 1103.51 615.01 1073.98 622.96 1056.94 616.14"/><polygon class="cls-16" points="1112.6 600.24 1130.77 595.7 1146.67 602.51 1129.63 607.06 1112.6 600.24"/><polygon class="cls-16" points="1133.04 594.56 1151.21 590.02 1167.11 596.84 1150.08 601.38 1133.04 594.56"/><polygon class="cls-16" points="1154.62 590.02 1172.79 585.48 1188.69 592.29 1171.66 596.84 1154.62 590.02"/><polygon class="cls-16" points="1176.2 584.34 1194.37 579.8 1210.27 586.61 1193.23 591.16 1176.2 584.34"/><polygon class="cls-16" points="1196.64 578.66 1214.81 574.12 1230.71 580.93 1213.68 585.48 1196.64 578.66"/><polygon class="cls-16" points="1217.09 572.99 1235.26 568.44 1251.16 575.26 1234.12 579.8 1217.09 572.99"/><polygon class="cls-16" points="1237.53 567.31 1255.7 562.76 1271.6 569.58 1254.57 574.12 1237.53 567.31"/><polygon class="cls-16" points="1260.24 562.76 1278.42 558.22 1294.32 565.03 1277.28 569.58 1260.24 562.76"/><polygon class="cls-16" points="1280.69 557.09 1298.86 552.54 1314.76 559.36 1297.72 563.9 1280.69 557.09"/><polygon class="cls-16" points="1301.13 551.41 1319.3 546.86 1335.2 553.68 1318.17 558.22 1301.13 551.41"/><polygon class="cls-16" points="1123.95 612.74 1142.13 608.19 1158.03 615.01 1140.99 619.55 1123.95 612.74"/><polygon class="cls-16" points="1144.4 607.06 1162.57 602.51 1178.47 609.33 1161.43 613.87 1144.4 607.06"/><polygon class="cls-16" points="1164.84 601.38 1183.01 596.84 1198.91 603.65 1181.88 608.19 1164.84 601.38"/><polygon class="cls-16" points="1185.29 595.7 1203.46 591.16 1219.36 597.97 1202.32 602.51 1185.29 595.7"/><polygon class="cls-16" points="1314.76 575.26 1332.93 570.71 1348.83 577.53 1331.8 582.07 1314.76 575.26"/><polygon class="cls-16" points="1336.34 569.58 1354.51 565.03 1370.41 571.85 1353.38 576.39 1336.34 569.58"/><polygon class="cls-16" points="1357.92 565.03 1376.09 560.49 1391.99 567.31 1374.95 571.85 1357.92 565.03"/><polygon class="cls-16" points="1378.36 559.36 1396.53 554.81 1412.43 561.63 1395.4 566.17 1378.36 559.36"/><polygon class="cls-16" points="1208 591.16 1226.17 586.61 1242.07 593.43 1225.04 597.97 1208 591.16"/><polygon class="cls-16" points="1228.44 585.48 1246.62 580.93 1262.52 587.75 1245.48 592.29 1228.44 585.48"/><polygon class="cls-16" points="1248.89 579.8 1267.06 575.26 1282.96 582.07 1265.92 586.61 1248.89 579.8"/><polygon class="cls-16" points="1269.33 574.12 1287.5 569.58 1303.4 576.39 1286.37 580.93 1269.33 574.12"/><polygon class="cls-16" points="1288.64 582.07 1310.22 576.39 1327.25 584.34 1305.67 588.88 1288.64 582.07"/><polygon class="cls-16" points="1160.3 616.14 1181.88 610.47 1198.91 618.41 1177.34 622.96 1160.3 616.14"/><polygon class="cls-16" points="1137.58 622.96 1159.16 617.28 1176.2 625.23 1154.62 629.77 1137.58 622.96"/><polygon class="cls-16" points="1097.83 633.18 1135.31 622.96 1151.21 630.91 1113.73 641.13 1097.83 633.18"/><polygon class="cls-16" points="1076.25 624.09 1120.55 612.74 1136.45 620.69 1093.29 632.04 1076.25 624.09"/><polygon class="cls-16" points="1290.91 568.44 1309.08 563.9 1324.98 570.71 1307.94 575.26 1290.91 568.44"/><polygon class="cls-16" points="1311.35 562.76 1329.53 558.22 1345.42 565.03 1328.39 569.58 1311.35 562.76"/><polygon class="cls-16" points="1331.8 557.09 1373.82 545.73 1391.99 552.54 1348.83 563.9 1331.8 557.09"/><polygon class="cls-16" points="1186.42 610.47 1285.23 583.21 1303.4 591.16 1203.46 617.28 1186.42 610.47"/><polygon class="cls-16" points="1322.71 545.73 1354.51 536.64 1370.41 544.59 1339.75 552.54 1322.71 545.73"/><polygon class="cls-16" points="1286.37 253.84 979.72 337.88 979.72 560.49 1286.37 477.58 1286.37 253.84"/><path class="cls-17" d="M1297.72,248.16s1.14-12.49-11.35-9.08S979.71,322,979.71,322s-11.92.57-11.92,14.2V574.69s-1.14,17,10.22,11.36l305.52-81.78s13.63,0,14.76-17Z"/><path class="cls-18" d="M1235.83,619l101.64-27.82a26.05,26.05,0,0,1,17,3.4l38.62,15.9-56.79,14.77-53.95,14.2"/><line class="cls-18" x1="1361.94" y1="636.68" x2="1335.81" y2="625.32"/><path class="cls-6" d="M1147.21,479.12l.55,8L1028.16,522c-.11-2.91-.21-5.81-.32-8.71Z"/><path class="cls-6" d="M1246.17,451c0,.25,1,7.67,1,7.91L1159,484.75l-.67-8.5Z"/><path class="cls-6" d="M1021.14,515c.17,2.84.33,5.67.5,8.5l-23.88,6.88,0-8.61Z"/><path class="cls-19" d="M1565.21,305.9s-10,40.67-6,50.34l5,9.66c-10.43,22.88-8.72,29.47-6.17,31.67,0,0,.81.69,11.17,3.67,0,0,10.67,23.66,8.67,34,1,12.33,4.66,27.33,45.66,17.66,4.34,16.34,4.34,38.67,10.34,46.67s93.33-39,93.33-39-17.79-25.65-14.33-44.67-15.34-3.5-15.34-3.5l-17.66-31.16Z"/><path class="cls-19" d="M1292.54,622.57c-1.75,3.29-15-10.67-15-10.67s-6-2.66-6,3.67-8.33-9.67-10.66-2-4.34,5,0,9.16c-8.34-2.83-15.34.17-10.67,7.51-5.67-.34-8.66,4.33-1.5,20.33s5.17,24.33,34.17,35.33c28.33,17,169.33,88,207,72l43.66-13.66-7.66-66-13-14.34-23.34,12-16,6.34s-61.66-8-105-15.67-63.33-17.33-63.33-17.33-3-22-4-24S1295.21,617.57,1292.54,622.57Z"/><path class="cls-19" d="M1417,649.32s-17.53,3-28-2c-17.74-2.5-32-5-32-5s-10-9.75,27.75-8.5c11.25-2.25,11-3.25,4.24-9.75-6.49-5.75-9.49-6-12.24,3.25-4.5,2.75-10.5,7.5-4.75-6,2.75-6.25.75-7.5,2.75-6.25s-10,15.5-10,15.5-4.5,4.75-7,3.25c-5.5,3-10.25,5.25-10.25,5.25v-6.65h-10.75L1354,602.07s26.25-12,39.75-5.5c16.25,6.5,37.75,19.5,37.75,19.5s29.17,12.33,76.67-3.33,56.33-21.17,56.33-21.17l-15.66,28.33-44.17,41s-32,.5-79.33-10.33Z"/><path class="cls-20" d="M1709.54,250.9s50.67,20.34,26.34,93.67c-12.34,34.67-23.67,56.67-23,71.33-19,10.34-36,38-78.34-16-5.33-14-14.66-49.66-31.66-22.66l-8.34,16s12.67-44-10.66-68l-11.67-10.34s-38,26.67-53.33-8c15.66,3,24.33,7.34,41-22.33.66-15.67-11-7.67-11-7.67s-17,5-16.34,10-5.66-40.33,25.67-36,36.67-14.33,36.67-14.33,21.28-25.33,35.8-12.67,21.2-6.33,21.2-6.33,12-8,21,0,9.33,10,9.33,10l-4.33-18.67,13.33,25s4,0,9.33,7.67S1709.54,250.9,1709.54,250.9Z"/><path class="cls-21" d="M1414.88,823.24a582,582,0,0,1,100.33-43c10.8-3.47,20.61-6.26,30.24-8.63,35.47-8.75,59.2-15.48,88.09-15,25.92.4,48.29.74,57,14.67,9,14.46-8.13,25.21-7,60.33.78,24,9.15,29.3,12,67.33,1.74,23.19-.75,29.45-3,33.34s-9.61,14.82-49.33,22.66c-30.27,6-58.82,11.62-92.88-.33-14.33-5-34.28-12-47.14-29.31-3-4-7.54-10.17-17.48-25-3.28-4.91-7.57-10.87-13.67-18.47A421.12,421.12,0,0,0,1414.88,823.24Z"/><path class="cls-22" d="M1498.21,669.24s35.33,31.33,33.33,80.66c35.34-12.66,48.67-4.66,78-37.33,1.34,84.67-21.33,159.33-8,184.67s12.67,31.33,51.34,38.66h42.66l31.67-276.66s1.67-84,126.33-107.34c-27.33-52.66-89.14-105.74-118.66-82-64.67,26.67-140,41.34-186,150-40.67,35.34-50.67,44-50.67,44Z"/><path class="cls-23" d="M1461,867.32l138.23-24.47,8.79-82.61s-131.85,20.33-194.18,62C1461,867.32,1456.54,861.4,1461,867.32Z"/><path class="cls-15" d="M1620.54,500.65a245,245,0,0,0,106.67-45.08c25.35,8.51,27.33,9.4,27.33,9.4a272.52,272.52,0,0,1-137,57.6Z"/><path class="cls-24" d="M-16.46,867.32s52.67,138,361.34,130.61c177.45-4.23,293.42-62.17,464,3.88,85.8,33.23,117.71,75.13,132.9,105.49,27.62,55.22,19.46,111.27,13.78,137.27a480.33,480.33,0,0,1-46,52c-30.5,29.84-48.35,41.15-64,56-22.1,21-47.32,57.26-58,124-7.3,39.38-21.52,68.42-35,89-97.12,148.33-330.63,124.66-345,123a554.64,554.64,0,0,1-424-176Z"/><path class="cls-25" d="M-6.46,908.57c131.83,53.74,241.16,64.9,320,64,208.69-2.38,290.29-90.28,442-36,26.23,9.39,141.6,50.66,186.22,162.49,22,55,18.59,106.62,13.78,137.27-6.14,37.15-19.32,61.46-29.56,76.31-26.84,38.93-56.48,46.3-76.44,89.93-8,17.49-7.94,25.4-12.88,48.22-8.44,39.09-25.24,85.89-59.12,129.78-123.34,159.83-358.52,132.56-378,130a811.45,811.45,0,0,1-416-206.24Q-11.45,1206.45-6.46,908.57Z"/><path class="cls-26" d="M200.26,1194.89c-.06,0-.11.06-.17.12a4.2,4.2,0,0,1-.05-.79A1,1,0,0,0,200.26,1194.89Z"/><path class="cls-27" d="M197.78,1187a2.83,2.83,0,0,1-2.14.18c-.07-.19,0-.39-.14-.56Z"/><path class="cls-27" d="M208.05,1220.41c.39,0,.78.1,1.17.15l-3.07-2.94C206.8,1218.53,207.42,1219.47,208.05,1220.41Z"/><path class="cls-19" d="M157.84,1242.87c5.24,7.69,22.75,4.93,39.47-6.09-4.64-1.35-9.19-2.44-13.33-3.29a82.94,82.94,0,0,0-26.7-1C155.9,1236.57,156,1240.2,157.84,1242.87Z"/><path class="cls-28" d="M549.27,1126.38l-.64,1.31a2.19,2.19,0,0,0,.51,0A13.35,13.35,0,0,1,549.27,1126.38Z"/><path class="cls-29" d="M210.57,1628a14,14,0,0,0,12.66.82c3.62-1.79,3.83-5.07.47-7.31a14,14,0,0,0-12.66-.82C207.41,1622.46,207.2,1625.74,210.57,1628Z"/><path class="cls-29" d="M219,1456.21,208.28,1622.6a2.15,2.15,0,0,0,.09.66,1.47,1.47,0,0,0,1.25.86l15,1a1.49,1.49,0,0,0,1.34-.7,1.72,1.72,0,0,0,.18-.64L237,1457.37a1.45,1.45,0,0,0-1.34-1.53l-15-1A1.45,1.45,0,0,0,219,1456.21Z"/><g class="cls-30"><path class="cls-29" d="M217.2,1484.71a1.17,1.17,0,0,0,.12.63,2.86,2.86,0,0,0-.22.93c-.09,1.33.69,2.71,2.38,3.82a14,14,0,0,0,12.67.82c1.82-.89,2.77-2.15,2.86-3.48a3.11,3.11,0,0,0-.1-1,1.38,1.38,0,0,0,.2-.61l1.84-28.5a1.45,1.45,0,0,0-1.34-1.53l-15-1a1.45,1.45,0,0,0-1.53,1.34Z"/></g><path class="cls-29" d="M731.84,1211.37l-265.5-179.14a62.61,62.61,0,0,0-62.52-4.36L-68.5,1258.56a16.51,16.51,0,0,0-1.91,28.56l269.93,180.07a62.66,62.66,0,0,0,62.53,4l467.87-231.39A16.5,16.5,0,0,0,731.84,1211.37Z"/><path class="cls-31" d="M732.78,1181.33,467.29,1002.18a62.68,62.68,0,0,0-62.53-4.36l-472.31,230.7a16.5,16.5,0,0,0-1.92,28.55l269.94,180.08a62.66,62.66,0,0,0,62.53,4L730.87,1209.8A16.5,16.5,0,0,0,732.78,1181.33Z"/><path class="cls-32" d="M392.49,1328.07l145.3-71.81c6.6-3.26,7-9.21.86-13.29l-53-35.35c-6.12-4.08-16.43-4.75-23-1.49l-145.3,71.81c-6.6,3.26-7,9.21-.86,13.29l53,35.35C375.59,1330.67,385.9,1331.33,392.49,1328.07Z"/><polygon class="cls-32" points="543.64 1239.83 542.78 1253.12 380.81 1330.08 312.13 1284.28 312.78 1274.19 543.64 1239.83"/><path class="cls-33" d="M393.15,1318l145.3-71.81c6.59-3.26,7-9.21.86-13.29l-53-35.35c-6.12-4.09-16.43-4.75-23-1.49L318,1267.85c-6.59,3.26-7,9.21-.86,13.29l53,35.35C376.25,1320.57,386.55,1321.24,393.15,1318Z"/><polygon class="cls-33" points="364.48 1296.24 505.26 1226.66 493.79 1219.01 353 1288.58 364.48 1296.24"/><polygon class="cls-33" points="384.17 1309.37 524.95 1239.79 513.47 1232.14 372.69 1301.72 384.17 1309.37"/><polygon class="cls-28" points="502.56 1226.49 364.58 1294.68 355.7 1288.76 493.68 1220.56 502.56 1226.49"/><polygon class="cls-28" points="522.25 1239.62 384.27 1307.81 375.39 1301.89 513.37 1233.7 522.25 1239.62"/><polygon class="cls-28" points="483.53 1211.79 345.55 1279.98 336.67 1274.06 474.65 1205.87 483.53 1211.79"/><path class="cls-29" d="M338.94,1133.52s-18.06,40.92-3.29,50.77l7.15,4.76h0l28,18.68c3.94,2.64,3.69,6.51-.56,8.6l-42.39,21a16.21,16.21,0,0,1-14.81-1.08l-19.95-13.61-.21.08c-2.29-1.64-4.43-3.17-6.35-4.56l-.88-.6c-.08-.06-.13-.13-.21-.19-4-2.91-6.77-4.9-6.77-4.9s-12.36-10.34-10.18-44.11Z"/><path class="cls-34" d="M269,1160.43c-2.18,33.77,10.18,44.11,10.18,44.11l6.78,4.9a1.08,1.08,0,0,1,.22.21l.86.58,6.35,4.58.23-.1,2.3,1.57,17.63,12c3.92,2.69,10.57,3.2,14.84,1.07l42.36-21c4.27-2.09,4.52-5.94.56-8.6L353.65,1188l-10.3-6.86h0c-2.56-1.71-5-3.33-7.13-4.78-14.43-9.61,2.41-48.75,3.24-50.68v0h0Z"/><path class="cls-31" d="M269,1160.43c-2.18,33.77,10.18,44.11,10.18,44.11l6.78,4.9a1.08,1.08,0,0,1,.22.21l.86.58,6.35,4.58.23-.1,2.3,1.57L353.65,1188l-10.3-6.86h0c-2.56-1.71-5-3.33-7.13-4.78-14.43-9.61,2.41-48.75,3.24-50.68l0,0Z"/><g id="_Группа_" data-name="&lt;Группа&gt;"><path class="cls-15" d="M179.29,1023.85,403.77,912.91c5.58-2.75,9.61-1.2,14.06,2.89l9.63,6.26L416.22,929,405.29,1098c-.56,8.58-7.25,18.59-14.93,22.38L170.54,1229.05l-.63,9.61a1.73,1.73,0,0,1-2.8,1.25l-9.71-7.66c-3-1.26-4.77-4.61-4.45-9.52l11.41-176.46C164.91,1037.69,171.61,1027.65,179.29,1023.85Z"/><path class="cls-14" d="M178.45,1055.7,167,1232.16c-.55,8.58,5.25,12.41,12.93,8.62l224.48-110.94c7.68-3.8,14.37-13.81,14.93-22.39L430.79,931c.56-8.58-5.24-12.45-12.92-8.65L193.39,1033.28C185.7,1037.07,179,1047.11,178.45,1055.7Z"/><polygon class="cls-16" points="402.71 1112.51 413.7 942.6 195.13 1050.62 184.14 1220.53 402.71 1112.51"/><path class="cls-29" d="M169.25,1198.05,167,1232.16c-.55,8.58,5.25,12.41,12.93,8.62l224.48-110.94c7.68-3.8,14.37-13.81,14.93-22.39l2.21-34.11Z"/><path class="cls-29" d="M169.54,1242.41c-2.93-2-4.37-5.63-4.06-10.35l2.26-35,255.59-126.31L421,1107.55c-.6,9.2-7.54,19.61-15.81,23.69L180.66,1242.18a13.76,13.76,0,0,1-6.92,1.62A8.43,8.43,0,0,1,169.54,1242.41Zm1.22-43.36-2.15,33.21c-.23,3.56.72,6.24,2.67,7.54s4.79,1.15,8-.43l224.48-110.94c7.24-3.57,13.54-13,14.06-21.08l2-31.4Z"/></g><path class="cls-35" d="M301,1157.58c-.34,5.19,3.17,7.53,7.83,5.23s8.71-8.38,9.05-13.57-3.17-7.53-7.83-5.22S301.28,1152.39,301,1157.58Z"/><polygon class="cls-32" points="309.87 1014.97 370.39 983.62 368.47 1025.63 307.95 1056.97 309.87 1014.97"/><polygon class="cls-32" points="237.24 1052.58 297.77 1021.23 295.85 1063.24 235.32 1094.59 237.24 1052.58"/><polygon class="cls-36" points="307.33 1070.59 367.85 1039.24 365.93 1081.25 305.41 1112.6 307.33 1070.59"/><polygon class="cls-32" points="234.7 1108.2 295.23 1076.85 293.31 1118.86 232.78 1150.21 234.7 1108.2"/><path class="cls-6" d="M255.92,1138.23l22.3-11.55c0-6.68-1.72-12-4.82-12.86-1.46-.43-3.1.3-6.33,1.77C264.13,1116.92,261.06,1118.33,255.92,1138.23Z"/><path class="cls-6" d="M272.92,1109.5c-.95,2.24-3.46,4.58-5.87,4a4.43,4.43,0,0,1-2.71-2.36c-1.42-2.81,0-6.86,2.83-8.5.31-.17,2.59-1.49,4.42-.5C273.77,1103.35,274,1107.06,272.92,1109.5Z"/><path class="cls-6" d="M328.92,1046.06l22.3-11.55c0-6.67-1.72-12-4.82-12.86-1.46-.42-3.1.3-6.33,1.77C337.13,1024.76,334.06,1026.16,328.92,1046.06Z"/><path class="cls-6" d="M345.92,1017.34c-.95,2.23-3.46,4.58-5.87,4a4.46,4.46,0,0,1-2.71-2.35c-1.42-2.81,0-6.87,2.83-8.5.31-.18,2.59-1.5,4.42-.5C346.77,1011.19,347,1014.9,345.92,1017.34Z"/><path class="cls-6" d="M254,1085l22.3-11.55c0-6.67-1.72-12-4.82-12.85-1.46-.43-3.1.3-6.33,1.77C262.18,1063.7,259.11,1065.11,254,1085Z"/><path class="cls-6" d="M271,1056.28c-1,2.24-3.47,4.58-5.87,4a4.37,4.37,0,0,1-2.71-2.36c-1.42-2.81,0-6.86,2.83-8.5.3-.17,2.58-1.49,4.42-.5C271.82,1050.13,272,1053.84,271,1056.28Z"/><path class="cls-26" d="M521.67,1217.31c.06,0,.11.07.16.13a3.4,3.4,0,0,0,.1-.78A.92.92,0,0,1,521.67,1217.31Z"/><path class="cls-19" d="M524.64,1209.62a2.78,2.78,0,0,0,2.11.32c.08-.18.06-.38.18-.55Z"/><path class="cls-19" d="M513,1230.76c-.39,0-.78,0-1.17.08l3.24-2.72C514.4,1229,513.72,1229.87,513,1230.76Z"/><path class="cls-19" d="M561.43,1256.28c-5.7,7.28-22.9,3.43-38.78-8.58,4.69-1,9.28-1.83,13.43-2.41a82.44,82.44,0,0,1,26.57.72C563.75,1250.14,563.41,1253.74,561.43,1256.28Z"/><path class="cls-37" d="M543.5,1140.48l1.4.23Z"/><g id="чувак"><path class="cls-19" d="M659.07,1165c-2-.89-3.93-1.84-5.86-2.81a43.34,43.34,0,0,0-3.68-3.61c3.28-.93,5-5.86,1.22-7.79h0a1.55,1.55,0,0,0,.89,0c.49.12,1,.24,1.48.33a1.43,1.43,0,0,0,1.61-.85c.24.06.48.13.73.18.61.11,1.24-.67.67-1.15-3.54-3-7.81-4.49-12.08-6.21l-2.37-1c-4.08-2-8.28-3.74-12.08-5.74q-10.71-5.62-21.24-11.58c-6.8-3.84-13.47-8-20.4-11.58-2.23-1.16-4.72-2.44-7.3-3.52a28,28,0,0,0-5.55-7c-2.43-2.42-4.67-5.29-7.22-7.53-1-.89-2.76-1.74-3.81-.44a2.64,2.64,0,0,0-.53,1.47c-1.22-.45-2.45-.89-3.68-1.32s-2.29-.86-3.47-1.16a13.73,13.73,0,0,0-3.84-1.26l-.2-.07a9.12,9.12,0,0,0-4.05-.52c-1.68-.21-3,.13-2.81,1.79s2.22,2.06,3.34,2.53l1.76.73a58.18,58.18,0,0,0,5.39,2.8c1.21.91,2.39,1.88,3.53,2.89-2.1-.38-4.58-.49-5.54,1.22-1.17,2.08.75,3.86,2.52,4.67-1.41.56-2.4,1.74-1.83,3.38.47,1.36,1.74,1.75,3,2a4,4,0,0,0-1.52,2.06,1.81,1.81,0,0,0,1.27,2.22c5.12,1.12,9.44,3.94,14,6.2a4.48,4.48,0,0,0,.35.6A6.9,6.9,0,0,0,575,1127c1.31,1.07,2.74,2,4.09,3a58.22,58.22,0,0,0,10,6.06c2.19,1.56,4.5,2.93,6.52,4.19,6.51,4.07,13.38,7.49,20,11.32,6.85,4,12.87,8.83,19.39,13.25,6.7,4.55,14.16,7.81,20.69,12.64,1.86,1.38,3.65-1.74,1.81-3.1-.48-.36-1-.7-1.46-1a4.88,4.88,0,0,0,.55-.47C660.74,1172.81,663.48,1166.93,659.07,1165Z"/><path class="cls-19" d="M774.21,1072.73l5.44,38.32c.75,5.3-5.48,9.6-13.93,9.6s-15.9-4.3-16.65-9.6h-.14l-5.44-38.32Z"/><path class="cls-19" d="M768.89,1066.76c7.55-11.12,11.31-16.8,10.32-22.7-.67-4-3-7.71-8.57-12.38-13.18-11.12-41.56-25.15-53.42-14.71-10.18,9,1.26,27.6-11.6,45-1.06,1.44-6.36,8.38-4.58,10.62,1.22,1.55,4.69-.53,7.29,1.46,2.17,1.66,1.54,4.45,2.43,8.75.21,1,1.76,8.45,7.08,13.13.31.27,7.18,6.1,16,4.79,2.77-.42,6.23-1.6,15.62-10.84A152,152,0,0,0,768.89,1066.76Z"/><path class="cls-38" d="M774.44,1009.35s22.23,8.93,11.55,41.1c-5.41,15.21-10.38,24.86-10.09,31.3-8.33,4.53-15.79,16.67-34.37-7-2.34-6.14-6.43-21.79-13.89-10l-3.66,7s5.56-19.3-4.68-29.83l-5.11-4.54s-16.68,11.7-23.4-3.51c6.87,1.32,10.67,3.22,18-9.79.3-6.88-4.82-3.37-4.82-3.37s-7.46,2.2-7.17,4.39-2.48-17.7,11.26-15.8,16.09-6.28,16.09-6.28,9.34-11.12,15.71-5.56,9.3-2.78,9.3-2.78,5.26-3.51,9.21,0,4.1,4.39,4.1,4.39l-1.9-8.19,5.85,11s1.75,0,4.09,3.36S774.44,1009.35,774.44,1009.35Z"/><path class="cls-28" d="M787.5,1118.32c-.12-4.49.46-8.66-.07-12.42a12.86,12.86,0,0,0-6.14-9.56c-8.52-5.68-19.81-3.64-27.88,1.83-10.93,7.4-8.92,13.95-9,25.36-.15,15.63-.92,40.4-1.38,56h0l4.84,1.72a30.2,30.2,0,0,0,6.78,1.52c5.39.55,9-.37,13.94-2.67l5.1-12.92.91,9.58,11.29-5.51a5.31,5.31,0,0,0,2.63-4.71C788.16,1153.53,787.83,1131.36,787.5,1118.32Z"/><path class="cls-26" d="M756.81,1564.36c17.36-4.75,55.41.61,53.44,12.69a30.83,30.83,0,0,1,1,6.92c.86,24.21-33.88,9.81-45.83,3.17C743,1574.72,745.61,1567.43,756.81,1564.36Z"/><path class="cls-37" d="M817,1214.61a93.54,93.54,0,0,1,2,36,91.74,91.74,0,0,1-4,17.4l-22,76.72c-2.8,8.3.91,17.51,8.36,20.44a13.8,13.8,0,0,0,3.5.87c6.41.64,12.67-3.57,15-10.62l22-76.66a130.79,130.79,0,0,0,2.84-73.56l-18-70.17c-2.22-8.42-10.19-13.21-17.79-10.55s-12.08,11.56-9.92,20Z"/><path class="cls-19" d="M814.94,1268a91,91,0,0,0,3.93-17,34.32,34.32,0,0,0,7.35,3.25c7.63,2.32,14.77,2.11,21.31-.45a129.69,129.69,0,0,1-5.68,25l-22,76.66c-2.38,7-8.64,11.26-15,10.62a13.8,13.8,0,0,1-3.5-.87c-7.45-2.93-11.16-12.14-8.36-20.44Z"/><path class="cls-26" d="M733.87,1598.67c3.73-.07,7,2.88,8.42,6.31s1.47,7.27,1.48,11c0,3.26-.14,6.9-2.46,9.18-1.5,1.48-3.63,2.08-5.66,2.63-17.63,4.78-38.35,1.13-55.37-4.29-3.6-1.15-6.84-4.29-6.85-8.06,0-5.49,6.14-8.66,11.4-10.23a187.42,187.42,0,0,1,46.52-7.64c2.82-.07,6.53,1.21,6.27,4Z"/><rect class="cls-28" x="787.18" y="1546.69" width="20.45" height="36.21" rx="3.93" ry="3.93" transform="translate(-18.9 9.78) rotate(-0.69)"/><rect class="cls-28" x="716.33" y="1574.47" width="20.45" height="36.21" rx="3.93" ry="3.93"/><path class="cls-39" d="M708.16,1323.18l20.6-61.31,98.65,15.32v46.56s-16.61,96.31-17.17,100.15l3.06,127.76c-.81,5.57-7.78,12.23-13.4,12.64l-6,.44c-7.2.53-15.63-5.35-15.28-12.56l-11.13-110.27,6-79.49-17.38,14.7-.46-.17-19.39,80.25c-5.34,28.26,7.11,121.69,7.11,121.69-.54,6.4-8.28,11.32-14.7,11.32h-8.49c-6.82,0-14.74-5.53-14.74-12.35l-9.39-111.79a222.06,222.06,0,0,1,.3-33.23Z"/><path class="cls-37" d="M829.81,1313a16.27,16.27,0,0,1-8.08,14.45l-32.87,16-1.77-18.64L777,1350.37l-.86.41c-9.5,4.43-17.68,7.23-27.94,7.58h-.34l-1.86,0a71.55,71.55,0,0,1-7.66-.41,81,81,0,0,1-18.34-4.11l-12.68-4.52-1.63-.58,0-1.74c1.15-39.24,3.2-116.84,3.61-158.75,0-4.33,0-8.35-.12-12.25-.09-5.23-.19-10.11.05-14.78v0c.79-15.41,5.14-28.11,24.78-41.41,19-12.87,50.24-21.84,75.79-4.79,10.07,6.73,15.5,15.22,17.12,26.7.86,6.2.62,12.68.39,19.55-.15,4.3-.32,8.75-.2,13.3.43,17.1.87,43.6,1.3,69.25S829.36,1295.93,829.81,1313Z"/><g class="cls-40"><g class="cls-41"><path class="cls-37" d="M737.55,1358.36c-.37.63,3.88.67,3.19,0-1.62-1.51-4.23-.12-6.54-.41a60.7,60.7,0,0,1-15.66-4.11l-10.82-4.52-1.39-.58,0-1.74c1-39.24,2.74-116.84,3.08-158.75,0-4.33,0-8.35-.1-12.25-.08-5.23-.16-10.11,0-14.78v0a14.2,14.2,0,0,1,4.23-4.26,12.06,12.06,0,0,1,6.68-2c7.33,0,13.35,6.69,13.74,15.26l4.26,146.09C737.75,1316.29,740.51,1353.63,737.55,1358.36Z"/></g></g><path class="cls-39" d="M718.92,1574.75h8.49c3.91,0,7.51-2.93,10.39-6.36a3.8,3.8,0,0,1,6.74,2.42v9.47a17.12,17.12,0,0,1-17.13,17.13h-8.49a17.14,17.14,0,0,1-17.07-15.7V1570a2,2,0,0,1,3.66-1C707.54,1572,711,1574.82,718.92,1574.75Z"/><path class="cls-37" d="M656.17,1180.59c6.91,6.42,22.31-.63,38.82-6.82a411.82,411.82,0,0,1,58.41-17,20.06,20.06,0,0,0,7.74-13.43c.67-5.18-3-7.12-4.09-15-1-7.6,1.46-9.78,0-12.1-4.27-6.57-29.33,2.93-48.67,9.34a566.15,566.15,0,0,1-62,16.66c1.13,4.87,2.84,12.39,4.83,21.67C653.92,1176.7,654.17,1178.73,656.17,1180.59Z"/></g><g id="дама"><rect class="cls-37" x="382.66" y="1584.48" width="29.04" height="12.11" rx="4.04" ry="4.04" transform="translate(-1215.67 1884.24) rotate(-86.3)"/><path class="cls-19" d="M413.8,1417.43l-1,9.25L399,1557c0,.49,0,.4.09.19.56,1.15.8,3.71.78,7-8.42,5.36-15.54,8.2-26.26,7,1.06-7-.35-18.23-.42-19.13-.1-1.4-2.11-131.19-2.11-131.19v-.12C386.94,1422.07,397.94,1415.52,413.8,1417.43Z"/><path class="cls-37" d="M374.16,1586.66c-10.85,6.66-10.28,13.6-25.6,8.76-4.88-1.55-9.77-3.67-13.05-7.32s-4.5-9.15-1.72-13c2.46-3.45,7.21-4.83,11.68-5.54a69.64,69.64,0,0,1,22.41.16c3.57.61,7.26,1.59,9.82,3.94C382.94,1578.42,379,1583.67,374.16,1586.66Z"/><path class="cls-19" d="M381.05,1558.06c-2,.52-4.11,2.24-7.33,4.58-8.23,6-16.6,12.15-22.65,20.34,1.31,4.91,6.35,8.75,12,10.85a85.89,85.89,0,0,0,10.09-2.85,54,54,0,0,0,22.95-16.65c.72-.91,1.44-2.15.85-3.15l-8.15-9c-8.15-9-21.8,2.21-30.87,6.22-3.43,1.52-7.35,3.68-7.72,7.41-.34,3.49,2.71,6.36,5.77,8.06a30,30,0,0,0,9.71,3.39Z"/><path class="cls-37" d="M402.67,1561.06c-3.43-1.61-7.63-1.62-12.72,1-6.33,3.28-11.24,9-16.86,13.29-7.75,5.9-15.37,9-24.07,4.31-3.08,1.6-5.28,3.53-5.34,5.92-.09,3.48,5.84,8.34,8.46,10.4,8.24,6.49,22.72-2.13,30-5.24,5.7-2.46,11.53-1.56,16.94-3.56C406.33,1584.5,409.64,1568.2,402.67,1561.06Z"/><rect class="cls-37" x="458.44" y="1543.16" width="29.04" height="12.11" rx="4.04" ry="4.04" transform="matrix(0.06, -1, 1, 0.06, -1103.54, 1921.2)"/><path class="cls-19" d="M488.79,1406.79l-.16-4.26-12.74,114.08c0,.49,0,.39.08.19.56,1.15.8,3.71.79,7-8.43,5.37-15.55,8.2-26.27,7,1.07-7-.35-18.22-.42-19.12-.09-1.41-.8-109.41-.8-109.41v-.12C465.15,1403.5,472.93,1404.88,488.79,1406.79Z"/><path class="cls-37" d="M451.07,1546.3c-10.85,6.67-10.28,13.6-25.6,8.76-4.88-1.54-9.77-3.67-13.05-7.32s-4.5-9.14-1.72-13c2.46-3.44,7.21-4.83,11.68-5.53a69.64,69.64,0,0,1,22.41.15c3.57.61,7.26,1.59,9.82,3.94C459.86,1538.07,455.94,1543.31,451.07,1546.3Z"/><path class="cls-19" d="M458,1517.71c-2,.52-4.11,2.23-7.33,4.58-8.23,6-16.6,12.14-22.65,20.33,1.31,4.92,6.36,8.75,12,10.85a85.89,85.89,0,0,0,10.09-2.85A53.82,53.82,0,0,0,473,1534c.72-.91,1.44-2.15.85-3.14l-8.14-9c-8.16-9-21.81,2.2-30.88,6.21-3.43,1.52-7.35,3.68-7.72,7.41-.34,3.49,2.71,6.37,5.77,8.07a30.25,30.25,0,0,0,9.71,3.38Z"/><path class="cls-37" d="M479.58,1520.71c-3.43-1.61-7.63-1.63-12.72,1-6.33,3.29-11.24,9-16.86,13.29-7.74,5.91-15.36,9-24.07,4.32-3.07,1.6-5.28,3.53-5.34,5.92-.09,3.48,5.84,8.33,8.46,10.4,8.24,6.49,22.72-2.14,30-5.25,5.71-2.45,11.53-1.55,16.94-3.55C483.24,1544.15,486.55,1527.84,479.58,1520.71Z"/><path class="cls-42" d="M388.21,1408.69l39.89-19.55c15.37-6.5,26.49,3.53,42.15,9.26l-1.89-2.16,8.26-11.23,89.27-.52c30,19.65,31.11,95.7,31.11,95.7l-.06.56h0c1.69,31-47.65,50.93-84.93,54.17a60.8,60.8,0,0,1-37.34-9.08l-6-3.72-86-53.63C356.82,1451.58,359.76,1420.77,388.21,1408.69Z"/><path class="cls-19" d="M562.44,1310.63a85.62,85.62,0,0,0,.92-9.65c-1.74-4.34-3.29-8.26-3.25-8.58l-60.32-47.92a11.49,11.49,0,0,0-8.07-3.56,13,13,0,0,0-1.66.08,11.39,11.39,0,0,0-6.56,3.11,11.54,11.54,0,0,0-.38,16.3l58.46,57.23.15.14C548.81,1324.55,560.88,1320.31,562.44,1310.63Z"/><path class="cls-19" d="M478.57,1266.45c7.12,7.54,17.75,9.07,23.72,3.42s5-16.33-2.1-23.87-17.75-9.08-23.72-3.43S471.44,1258.91,478.57,1266.45Z"/><path class="cls-43" d="M572.74,1371.36A116.37,116.37,0,0,0,572,1387a7.24,7.24,0,0,1-3.73,6.55,96.17,96.17,0,0,1-14.41,6.36c-14.35,4.95-30.58,7.22-45.27,2.95l-1.74-.54c-8.42-2.74-26.73-9-27.72-19.73a5.92,5.92,0,0,1-.06-1.32c.1-1,.22-2,.34-3l3.08-47.63c-3.74-14.09-11.61-24.49-6.24-41.74a62.56,62.56,0,0,1,11.37-21.66c8.55-10.3,20.31-16.25,35-19.53,4.67-1,9.26-1.8,13.41-2.39a81.38,81.38,0,0,1,26.58.72c9.23,1.8,17.92,5.53,23.07,12.09a22,22,0,0,1,1.83,2.63c10,17.27,2.61,40-2.56,57.77C579.89,1335.91,574.59,1353.4,572.74,1371.36Z"/><polygon class="cls-19" points="559.55 1262.67 526.29 1260.52 523.77 1235.78 521.89 1217.12 555.15 1219.27 559.55 1262.67"/><polygon class="cls-19" points="546.21 1225.19 528.08 1249.21 527.03 1249.14 524.51 1224.4 546.21 1225.19"/><path class="cls-19" d="M492,1196.59c.75,2.73,2.48,2.72,5,6,6.8,8.85.41,17,5.55,23.9,3.95,5.26,11.68,5.78,24.57,6.64,7.89.52,11.85.81,16-.82,9.72-3.82,15.76-14.53,19.8-24.92a90.86,90.86,0,0,0,3.74-12.13,46.42,46.42,0,0,0,1-14.28c-1-10.28-6.52-19.54-13.82-26s-16.27-10.36-25.45-13c-4.44-1.32-9.29-2.26-13.76-.61a11.66,11.66,0,0,0-6.72,6.64,8.75,8.75,0,0,0-.69,3.45c.86,12.88-2.26,21.11-5.28,26.25C497.33,1185.52,490.36,1190.59,492,1196.59Z"/><path class="cls-44" d="M579,1182.06a61.74,61.74,0,0,1-7.36,20.84c-3.26,5.83-8.85,15.62-20.28,21.44-15.36,7.83-32.55,4-32.73,2.25-.1-1.1,6.68-.52,10-5.34,4.77-6.88-1.42-19.2-3.33-23-2.52-5-4.1-6.1-7.21-10.77-3.4-5.09-15.09-22.6-10.23-39.48.71-2.45,2.58-9,8.43-13.52,0,0,13.25-10.35,37,.58a41.9,41.9,0,0,1,10.27,6.68c.17.17.34.31.56.51C575.1,1152.12,581.15,1167.44,579,1182.06Z"/><path class="cls-19" d="M527.29,1195.45a2.8,2.8,0,0,0,2.07.52c.1-.17.09-.37.23-.53Z"/><path class="cls-45" d="M513.67,1291.78c-3.77-7.88-7.06-13.62-16.33-12.73-6.43.61-12.76,2.61-19.08,4.3-.71,1.77-1.39,3.59-2,5.52-5.37,17.25,2.5,27.65,6.24,41.74l-3.08,47.63c-.12,1-.24,2-.34,3a5.92,5.92,0,0,0,.06,1.32c1,10.72,19.3,17,27.72,19.73l1.74.54,7-108.11A13.68,13.68,0,0,1,513.67,1291.78Z"/><path class="cls-19" d="M471.3,1374.13a83.4,83.4,0,0,0,.91-9.65c-1.73-4.34-3.28-8.26-3.24-8.58L408.65,1308a11.5,11.5,0,0,0-8.08-3.56,12.93,12.93,0,0,0-1.65.08,11.41,11.41,0,0,0-6.57,3.11,11.55,11.55,0,0,0-.37,16.3l58.46,57.23.14.14C457.67,1388.05,469.74,1383.81,471.3,1374.13Z"/><path class="cls-19" d="M387.42,1330c7.13,7.54,17.75,9.07,23.73,3.42s5-16.33-2.1-23.87-17.75-9.08-23.72-3.43S380.29,1322.41,387.42,1330Z"/><path class="cls-19" d="M405.74,1313.43h0a5,5,0,0,0,.19-7l-20.47-21.66a5,5,0,0,0-7-.19h0a5,5,0,0,0-.19,7l20.47,21.65A5,5,0,0,0,405.74,1313.43Z"/><path class="cls-43" d="M461.66,1384.71l.23.1c8.76,3.81,18.89-1.27,21.81-10.37l25.7-80.37a17.1,17.1,0,0,0-32.58-10.42l-10.14,31.68-10,31.21h0C452.2,1361.5,444,1376.77,461.66,1384.71Z"/><path class="cls-44" d="M514.11,1177.37c0-.74.39-2,.72-4.62,1.69-13.19.13-27.42,12.31-36.56,8.47-6.36,20.11-6,30.62-4.71,11.5,1.42,23.32,3.79,32.73,10.55,17.67,12.7,15.7,41.73,9,60a148,148,0,0,0-6.42,22.69c-.64,12,5.88,18.49,19.37,21.66,9.82,2.3,17.85,8.92,21.86,19.41a42.59,42.59,0,0,1,2.58,15.55c-.26,16.53,1,21.2,19.79,28.29,11.29,4.24,20.39,12.93,25.25,25.69,11.55,30.28-5,71.9-37.08,93s-67.37,13.56-78.92-16.72c-4.87-12.76-4.72-27.53-.56-41.92,6.92-23.91,4.87-28.1-5.29-37.67l-.09-.09c-15-21.09-15.64-34.74-12.65-43.67,3.49-10.43,12.13-14.82,10.33-22.66-2.18-9.56-16.08-7.61-21.6-20.3-3-6.78-2.25-14.86-1.49-23.72.8-9.4,2.26-8.24,1.76-12C534.43,1195.12,514.07,1191.79,514.11,1177.37Z"/></g><path class="cls-19" d="M134.08,1613.44l-12-157.8,3.1-35.7,73.76,11.13L241.61,1412l14.87,197.35s-21,126.81-21.15,128.21c-.11.9-2.2,12.07-1.61,19.16-10.5.55-17.24-2.76-25.1-8.69.19-3.27.58-5.81,1.2-6.93,0,.2.07.31.09-.19l-2.44-120.16L185,1483l-3.31,60.24-4,69.94L167.38,1726.9c-7.84-.07-18.84-.27-26.67-.66l-.93-.5a15.29,15.29,0,0,1,.73-2.06Z"/><path class="cls-16" d="M231.58,1369.54l8.88,13.91a66.54,66.54,0,0,1,10.45,36.62l15.76,168.51a26.69,26.69,0,0,1-18.69,28c-30.85,9.51-88.69,21-119.79-13.09L120,1472.25a285.61,285.61,0,0,1,19.28-98.13Z"/><path class="cls-46" d="M127.93,1356.35l-.25,0c-9.59-.68-16.26-9.92-14.62-19.4l14.5-83.59a17.2,17.2,0,0,1,33.89,5.87l-5.71,33-5.62,32.46h0C147.16,1340.06,147.4,1357.51,127.93,1356.35Z"/><path class="cls-28" d="M139,1357.62a115,115,0,0,1-.29,15.74,7.29,7.29,0,0,0,3.33,6.82,96.15,96.15,0,0,0,14,7.31c14.08,5.9,30.22,9.23,45.24,5.9l1.77-.43c8.63-2.2,27.41-7.31,29.1-18a5.07,5.07,0,0,0,.14-1.32c0-1-.08-2-.14-3.06v-48c4.67-13.9,13.24-23.82,9-41.48a62.88,62.88,0,0,0-10-22.47c-7.91-10.9-19.32-17.63-33.89-21.88-4.61-1.31-9.17-2.4-13.3-3.26a81.86,81.86,0,0,0-26.71-1c-9.38,1.21-18.35,4.39-23.94,10.64a21.57,21.57,0,0,0-2,2.52c-11.12,16.68-5.21,40-1.17,58.13C134.14,1321.59,138.33,1339.47,139,1357.62Z"/><polygon class="cls-19" points="159.31 1237.94 192.82 1237.94 196.95 1213.28 200.05 1194.68 166.54 1194.68 159.31 1237.94"/><g class="cls-47"><polygon class="cls-19" points="175.12 1212.67 191.76 1237.94 192.82 1237.94 196.95 1213.28 175.12 1212.67"/></g><path class="cls-19" d="M200.17,1192.88s-.1.06-.15.12a3.83,3.83,0,0,1-.05-.76A.94.94,0,0,0,200.17,1192.88Z"/><path class="cls-19" d="M230.17,1185.92c-1.31,1.69-3.4.4-5.83,2.33-3.47,2.76-2.15,7.71-3.17,14-.25,1.57-2.39,13.91-10.33,18.17-3.69,2-9.11,1.08-19.94-.74-7.74-1.3-11.65-1.87-13.86-3.3-7.93-5.13-11.64-16.18-13.65-26.61a93.67,93.67,0,0,1-1.49-12,48.06,48.06,0,0,1,1.23-13.61A38.89,38.89,0,0,1,179,1141.79c7.32-5,15.71-7.21,24.11-8.25,4.07-.55,8.45-.67,12.11,1.59a11.14,11.14,0,0,1,4.89,7.33,9,9,0,0,1,.1,3.35,52.46,52.46,0,0,0,2.8,19.61C226.54,1175.5,232.75,1182.62,230.17,1185.92Z"/><path class="cls-19" d="M198,1185.37a2.33,2.33,0,0,1-1.88.16,3.37,3.37,0,0,0-.12-.53Z"/><path class="cls-42" d="M214.81,1132.39c-12.25-12.75-34.59-13.4-51.17-7.08a48.59,48.59,0,0,0-18,12.19c-7.18,7.55-14,30.88-13,41.65s9.74,17.46,17,24.49a83.44,83.44,0,0,0,17.5,13,33.92,33.92,0,0,1,12.13-12c7.37-4.15,11.42-2.29,16-7.25,3.21-3.49,2.93-6.26,7.72-10.6,3-2.7,3.86-2.32,5.77-4.35,3.9-4.15,2.79-8.46,4.3-15.18,2.63-11.73,9.16-12.65,9.1-20.54C222.06,1139.94,217.21,1134.9,214.81,1132.39Z"/><path class="cls-19" d="M192.38,1185.24c-.15,3.16,1.25,6.15,2.84,8.8a16.25,16.25,0,0,0,3.63,4.49,6.14,6.14,0,0,0,5.22,1.36c5.6-1.47,5.08-10.37,3.34-14.74-1.33-3.33-4.15-6.09-7.49-6.54A6.75,6.75,0,0,0,192.38,1185.24Z"/><path class="cls-33" d="M203.46,1281.6c4.29-7.66,8-13.21,17.21-11.72,6.41,1,12.63,3.45,18.87,5.56.59,1.82,1.16,3.69,1.64,5.67,4.27,17.66-4.3,27.58-9,41.48v48c.06,1,.11,2.06.14,3.06a5.07,5.07,0,0,1-.14,1.32c-1.69,10.69-20.47,15.8-29.1,18l-1.77.43V1284.46A14.26,14.26,0,0,0,203.46,1281.6Z"/><path class="cls-26" d="M137.3,1373.24a116.18,116.18,0,0,0,.29-15.54l-.12-2.54,2.23,1.21c22.3,12,43.36,23.41,78.91,8.33,1.26-.54,2.56-1,3.86-1.53a41.05,41.05,0,0,0,8.92-4.21l2.25-1.57v13.1c.06,1,.11,2.09.14,3.06a6.67,6.67,0,0,1-.15,1.62c-1.88,11.87-21.7,17-30.17,19.19a58.19,58.19,0,0,1-14.58,1.79c-12.66,0-24.59-3.68-33.34-7.35a98.18,98.18,0,0,1-14.27-7.42A8.8,8.8,0,0,1,137.3,1373.24Z"/><path class="cls-19" d="M233.35,1362.44a86.74,86.74,0,0,1,9.91-1.66c4.61,1.47,8.77,2.78,9.1,2.71l54,58.74a11.86,11.86,0,0,1,4.29,8.08,14.16,14.16,0,0,1,0,1.72,11.78,11.78,0,0,1-2.73,7,12,12,0,0,1-16.81,1.6l-63.48-56.13-.15-.13C220,1377.56,223.47,1364.78,233.35,1362.44Z"/><path class="cls-19" d="M295.17,1450.09c.24-7.62,2.51-22.66,10.27-24.46a7.55,7.55,0,0,1,3.84.17c6.81,1.93,9.18,12,10.73,18.62,1.42,6.06,2.13,9.08,1.16,12.17-2.77,8.88-15.36,15.27-21.66,11.5C294.71,1465.22,295,1457.29,295.17,1450.09Z"/><path class="cls-19" d="M314.57,1443.26a5.64,5.64,0,0,1,3.78,1.1c3.5,2.45,3.25,7.49,3.22,8l2.07,26.09a5.14,5.14,0,0,1-4.55,5.67l-.66-1.53c-.38-.91-.74-1.86-1.09-2.87a49.18,49.18,0,0,1-2.25-9.62q-2.54-10.61-5.06-21.2A5.14,5.14,0,0,1,314.57,1443.26Z"/><path class="cls-28" d="M239.37,1381.24l-.25.06c-9.74,2.31-19.25-4.78-20.58-14.69l-11.72-87.51a17.91,17.91,0,0,1,35.5-4.75l4.62,34.5,4.56,34h0C253.39,1359.06,259.08,1376.32,239.37,1381.24Z"/><path class="cls-42" d="M147.93,1137c-18,1-39.65,4.38-46.63,21-5,12,.16,25.79-1.82,38.63-2.48,16-15.47,28-25.57,40.74S56.1,1268.47,65,1282.05c1.84,2.78,4.31,5.21,5.43,8.35,2.58,7.17-2.59,14.51-6.24,21.2-10.47,19.18-8.74,44.36,4.25,61.93,4.09,5.52,9.53,10.5,16.25,11.9,13.55,2.81,25.45-9.62,31.52-22a99.23,99.23,0,0,0,8.72-59.12c-.8-4.91-2-10-.38-14.74,2.4-7.16,10.07-10.79,16-15.43,16.16-12.57,20.84-37.66,10.31-55.22-3.62-6-8.95-11.79-8.79-18.83.31-13.2,18.19-18,24.88-29.35,4.23-7.17.93-18.71-5.42-25.75a23.52,23.52,0,0,0-7.92-5.69Z"/><path class="cls-37" d="M234,1770c10.23,7.23,9.24,14,24.59,10.23,4.9-1.21,9.84-3,13.29-6.36s5-8.7,2.52-12.72c-2.19-3.54-6.78-5.2-11.12-6.17a68.48,68.48,0,0,0-22-1.28c-3.54.37-7.24,1.1-9.9,3.25C225.89,1761.3,229.41,1766.7,234,1770Z"/><path class="cls-19" d="M229,1741.41c1.9.64,3.9,2.46,6.92,5,7.7,6.42,15.53,13,21,21.42-1.6,4.75-6.8,8.19-12.49,9.9a83.53,83.53,0,0,1-9.74-3.45,53,53,0,0,1-21.49-17.82c-.65-.93-1.27-2.2-.63-3.14l8.57-8.29c8.59-8.31,21.29,3.55,29.94,8.07,3.28,1.7,7,4.08,7.12,7.77.12,3.45-3.07,6.08-6.19,7.56a29.58,29.58,0,0,1-9.75,2.7Z"/><rect class="cls-37" x="206.34" y="1754.61" width="11.93" height="28.59" rx="3.98" ry="3.98"/><path class="cls-37" d="M207.61,1743c3.47-1.37,7.6-1.12,12.43,1.8,6,3.63,10.47,9.56,15.73,14.13,7.23,6.3,14.52,9.82,23.38,5.77,2.91,1.77,5,3.81,4.86,6.16-.13,3.42-6.27,7.82-9,9.68-8.51,5.85-22.18-3.54-29.1-7.06-5.45-2.77-11.23-2.26-16.42-4.57C202.53,1765.79,200.31,1749.56,207.61,1743Z"/><path class="cls-19" d="M190.84,1750.2a15.48,15.48,0,0,0,3.13-9c-.11-4.11-2.44-6.59-5.26-8.28a26.17,26.17,0,0,0-3.89-1.88c-7.35-2.86-16.95-10.25-25.82-10.27a7.6,7.6,0,0,0-2.56-1l.46,1.17c-3.81.54-7.44,2.62-10.63,7.36-.13.21-.27.41-.41.62,7.23,4,12.78,2.47,19.24,7.82C173.2,1743.39,181.36,1755.78,190.84,1750.2Z"/><path class="cls-37" d="M204.77,1732.26c-1.84-3.5-8.51-4.27-12.16-4.3a38.83,38.83,0,0,0-5.86.4,4,4,0,0,0-2.13,1.09,5.17,5.17,0,0,1,.45.79,16.62,16.62,0,0,1,2,5.55,1.5,1.5,0,0,1-.65,1.59,10.83,10.83,0,0,1-5.71,2.19c-6.14,3.25-14.12-5.34-19.3-9.94-3.78-3.33-5.54-2.75-9.63-5.16-.22-.12-.43-.28-.66-.4a8.78,8.78,0,0,0-10.46,1,18,18,0,0,0-1.39,2.53c-3.4,7.51-1.23,20.27,8.2,20.13,2.16,0,12.4,1.58,14.1,2.44,16.83,8.47,30,12.48,41.13-5.58C205.56,1739.91,206.87,1736.24,204.77,1732.26Z"/><rect class="cls-37" x="141.46" y="1733.47" width="11.93" height="28.59" rx="3.98" ry="3.98"/><g id="креселко"><g id="_Группа_2" data-name="&lt;Группа&gt;"><g id="_Группа_3" data-name="&lt;Группа&gt;"><path class="cls-26" d="M592.41,1675.15c.38-6-3.34-13.51-8.32-16.83s-9.33-1.17-9.72,4.8,3.34,13.51,8.32,16.84S592,1681.13,592.41,1675.15Z"/><path class="cls-26" d="M592.41,1675.15c.38-6-3.34-13.51-8.32-16.83s-9.33-1.17-9.72,4.8,3.34,13.51,8.32,16.84S592,1681.13,592.41,1675.15Z"/><polygon class="cls-26" points="577.24 1657.39 568.89 1661.08 580.07 1685 589.85 1680.69 588.29 1667.53 577.24 1657.39"/><path class="cls-32" d="M584.18,1678.77c.38-6-3.34-13.51-8.32-16.84s-9.33-1.17-9.72,4.81,3.34,13.51,8.32,16.83S583.79,1684.74,584.18,1678.77Z"/><path class="cls-32" d="M584.18,1678.77c.38-6-3.34-13.51-8.32-16.84s-9.33-1.17-9.72,4.81,3.34,13.51,8.32,16.83S583.79,1684.74,584.18,1678.77Z"/></g><g id="_Группа_4" data-name="&lt;Группа&gt;"><path class="cls-26" d="M483.81,1604.89c.39-6-3.33-13.51-8.32-16.83s-9.33-1.17-9.72,4.8,3.34,13.51,8.32,16.84S483.43,1610.87,483.81,1604.89Z"/><path class="cls-26" d="M483.81,1604.89c.39-6-3.33-13.51-8.32-16.83s-9.33-1.17-9.72,4.8,3.34,13.51,8.32,16.84S483.43,1610.87,483.81,1604.89Z"/><polygon class="cls-26" points="468.65 1587.13 460.3 1590.82 471.48 1614.74 481.25 1610.43 479.7 1597.27 468.65 1587.13"/><path class="cls-32" d="M475.58,1608.51c.39-6-3.33-13.51-8.32-16.84s-9.33-1.17-9.72,4.81,3.34,13.51,8.32,16.83S475.2,1614.48,475.58,1608.51Z"/><path class="cls-32" d="M475.58,1608.51c.39-6-3.33-13.51-8.32-16.84s-9.33-1.17-9.72,4.81,3.34,13.51,8.32,16.83S475.2,1614.48,475.58,1608.51Z"/></g><g id="_Группа_5" data-name="&lt;Группа&gt;"><path class="cls-26" d="M484.85,1671c.38-6-3.34-13.51-8.32-16.84s-9.34-1.17-9.72,4.81,3.34,13.51,8.32,16.83S484.46,1677,484.85,1671Z"/><path class="cls-26" d="M484.85,1671c.38-6-3.34-13.51-8.32-16.84s-9.34-1.17-9.72,4.81,3.34,13.51,8.32,16.83S484.46,1677,484.85,1671Z"/><polygon class="cls-26" points="469.68 1653.23 461.33 1656.91 472.51 1680.84 482.29 1676.53 480.73 1663.36 469.68 1653.23"/><path class="cls-32" d="M476.62,1674.6c.38-6-3.34-13.51-8.32-16.83s-9.34-1.17-9.72,4.8,3.34,13.51,8.32,16.84S476.23,1680.58,476.62,1674.6Z"/><path class="cls-32" d="M476.62,1674.6c.38-6-3.34-13.51-8.32-16.83s-9.34-1.17-9.72,4.8,3.34,13.51,8.32,16.84S476.23,1680.58,476.62,1674.6Z"/></g><g id="_Группа_6" data-name="&lt;Группа&gt;"><path class="cls-26" d="M598.33,1614.65c.38-6-3.34-13.52-8.32-16.84s-9.34-1.17-9.72,4.81,3.34,13.51,8.32,16.83S597.94,1620.62,598.33,1614.65Z"/><path class="cls-26" d="M598.33,1614.65c.38-6-3.34-13.52-8.32-16.84s-9.34-1.17-9.72,4.81,3.34,13.51,8.32,16.83S597.94,1620.62,598.33,1614.65Z"/><polygon class="cls-26" points="583.16 1596.89 574.81 1600.57 585.99 1624.49 595.77 1620.19 594.21 1607.02 583.16 1596.89"/><path class="cls-32" d="M590.1,1618.26c.38-6-3.34-13.51-8.32-16.83s-9.34-1.17-9.72,4.8,3.34,13.51,8.32,16.83S589.71,1624.24,590.1,1618.26Z"/><path class="cls-32" d="M590.1,1618.26c.38-6-3.34-13.51-8.32-16.83s-9.34-1.17-9.72,4.8,3.34,13.51,8.32,16.83S589.71,1624.24,590.1,1618.26Z"/></g><path class="cls-31" d="M460.51,1643.4l43-21.26-39.91-26.62c-6.55-4.37-6.13-10.8.93-14.29h0c7-3.49,18.19-2.76,24.74,1.6l39.91,26.62,43-21.25c7.06-3.49,18.2-2.77,24.75,1.6s6.13,10.8-.93,14.29l-43,21.25L592.93,1652c6.55,4.37,6.13,10.8-.93,14.29h0c-7.06,3.49-18.19,2.77-24.74-1.6L527.35,1638l-43,21.25c-7.06,3.49-18.2,2.77-24.75-1.6S453.46,1646.89,460.51,1643.4Z"/><path class="cls-31" d="M460.51,1643.4l43-21.26-39.91-26.62c-6.55-4.37-6.13-10.8.93-14.29h0c7-3.49,18.19-2.76,24.74,1.6l39.91,26.62,43-21.25c7.06-3.49,18.2-2.77,24.75,1.6s6.13,10.8-.93,14.29l-43,21.25L592.93,1652c6.55,4.37,6.13,10.8-.93,14.29h0c-7.06,3.49-18.19,2.77-24.74-1.6L527.35,1638l-43,21.25c-7.06,3.49-18.2,2.77-24.75-1.6S453.46,1646.89,460.51,1643.4Z"/></g><g id="_Группа_7" data-name="&lt;Группа&gt;"><path class="cls-29" d="M549.2,1624.38c-.51,7.75-10.26,13.42-21.79,12.68s-20.48-7.63-20-15.38,10.67-20,22.21-19.23S549.7,1616.64,549.2,1624.38Z"/></g><g id="_Группа_8" data-name="&lt;Группа&gt;"><path class="cls-31" d="M544.3,1613.73c-.37,5.69-7.52,9.85-16,9.3s-15-5.6-14.66-11.28,7.53-9.84,16-9.3S544.67,1608.05,544.3,1613.73Z"/></g><path class="cls-29" d="M536.12,1502.32a9.46,9.46,0,0,1,8.76,10.1L539,1603.85a9.39,9.39,0,1,1-18.73-1.21l5.91-91.43A9.46,9.46,0,0,1,536.12,1502.32Z"/><path class="cls-32" d="M698,1340.94,673.2,1496.62a26.89,26.89,0,0,1-14.43,19.79l-132.45,66.92a26.9,26.9,0,0,1-26.57-1.31l-94.63-60.17a44.83,44.83,0,0,1-20.78-37.31h0a19,19,0,0,1,29.54-16.11L475,1508.82a16.26,16.26,0,0,0,24.05-7.49l46.53-115.53a14,14,0,0,1,7.6-7.7l125.53-52.3A14,14,0,0,1,698,1340.94Z"/></g></g><g id="record"><text class="cls-48" transform="matrix(0.97, -0.22, 0.22, 0.97, 1230.12, 308.14)"><tspan class="cls-49">R</tspan><tspan x="14.93" y="0">ec</tspan></text><circle class="cls-50" cx="1216.58" cy="303.49" r="7.51"/></g></g><g id="Слой_39" data-name="Слой 39"><path class="cls-19" d="M1146,422.64a25.73,25.73,0,0,1-9.48,1.5h0l1.88-64.75h0s23.89.9,24.23,16.77a131.49,131.49,0,0,1-1.19,19.85,106.14,106.14,0,0,1-2,10.82,26.51,26.51,0,0,1-1.16,3.75,19,19,0,0,1-2.93,4.23c-2.71,3.14-6.51,6.41-9.17,7.73Z"/><path class="cls-19" d="M1124.19,416.88a5.18,5.18,0,0,1,2-2.41c1.89-1.12,4-.42,6.32,0a34.1,34.1,0,0,0,9.17.58l-.07-.06.18-.16c2.2-2,5-6.18,6.72-9.93,4.67-1.41,6.56-.64,7.44.23,2.33,2.33-.93,7,.16,13.8a20.47,20.47,0,0,0,4.77,10l29.72,8.25h0l7.78,9.91L1143.49,461h0l-54.91,13.84,2.15-12.41q3.3-2.91,6.64-5.81,10.14-8.81,20.2-17.28a25.1,25.1,0,0,0,6.65-22.44Z"/><path class="cls-19" d="M1140.82,358.68,1137,423.34c-2.47,0-7.48-1.19-9.52-2.45-2.53-1.55-6-5.14-8.45-8.51a19.48,19.48,0,0,1-2.55-4.47,27,27,0,0,1-.82-3.84,104,104,0,0,1-1-10.95,129.43,129.43,0,0,1,.57-19.87C1116.93,357.46,1140.82,358.68,1140.82,358.68Z"/><path class="cls-51" d="M1160.9,429c1.78.4,1.93.9,6.92,2.54,2.56.84,4.76,1.44,10.15,2.75,3.31.81,7.59,1.83,12.65,3l7.78,9.91L1143.49,461h0l-54.91,13.84,2.15-12.41q3.3-2.91,6.64-5.81,10.14-8.81,20.2-17.28c12.1,1.9,19.9-.42,24.79-2.9C1148.93,433.07,1154.13,427.47,1160.9,429Z"/><path class="cls-15" d="M1118.74,432.71a63,63,0,0,0,41.29-8.14c4.73,4.14,7.85,6.89,7.8,6.95h0c-2.12-.64-23.71,8.59-23.71,8.59s-2.28,1-29.94,2.06h0Z"/><path class="cls-20" d="M1118.36,387.74a15.76,15.76,0,0,1,5.26-.41c1.38.05,2.75.18,4.13.27a13.59,13.59,0,0,1,3.88.42c.34.14.82.19,1-.07a.17.17,0,0,0,.11-.16.19.19,0,0,0,0-.08.08.08,0,0,0,0-.07c-.2-1.1-1.93-1.32-3-1.63a20.23,20.23,0,0,0-3.17-.73,10.68,10.68,0,0,0-3.24-.09,11.64,11.64,0,0,0-2.84,1l-1.48.74h0l-.5.17h0a.15.15,0,0,0-.1,0c-.13.06-.27.11-.4.18C1117.69,387.46,1118.15,387.8,1118.36,387.74Z"/><path class="cls-20" d="M1155.9,385.41l-.42-.13a.17.17,0,0,0-.1,0h0l-.51-.13h0l-1.54-.59a11.27,11.27,0,0,0-2.93-.69,10.6,10.6,0,0,0-3.21.41,20.28,20.28,0,0,0-3.08,1c-1,.41-2.71.81-2.8,1.92a.15.15,0,0,0,0,.07v.08a.16.16,0,0,0,.12.15c.23.24.7.14,1,0a13.2,13.2,0,0,1,3.82-.8c1.36-.23,2.7-.5,4.08-.69a16.08,16.08,0,0,1,5.27-.12C1155.79,385.91,1156.2,385.53,1155.9,385.41Z"/><path class="cls-20" d="M1114.28,391.15l0-.16a.36.36,0,0,1,0,.09Z"/><path class="cls-20" d="M1167.18,371a24.55,24.55,0,0,0-5.75-12.59c-1.31-1.4-6.94-6.56-2.92-8.2-2-1.93-4.59.5-5,2.29-.13.56-1,2.1-.91,2.55-.86-4-.36-7.21-5-9.36-7.56-3.47-14.76,5.54-22,6.1-3.5.27-9.8,1.64-10.94-2.6a8.64,8.64,0,0,0-1.49,1.78,4.33,4.33,0,0,0-.22,2.41c.33,1.4,1.76,3.83,3.63,3.81-2.42.09-3.93,0-5.29-1.94-.48,1.26.59,2,1.27,2.93-1.25.16-3.75-1.79-4.2-2.87-1.31,1.43-.44,3.45.54,4.8.32.44,4.22,3.05,4.26,2.64-.37,4.13-2.35,8.16-3.29,12.19-.5,2.2,1.71,7.83,2.37,7,.14,1.27,1.9,7.85,2.06,9a29.44,29.44,0,0,0,1.77-5.43c.18-.83.5-1.75.62-2.56.23-1.46.42-2.68.79-4.14,0-.17.08-.32.13-.48,1.82-6.21,7.61-7.15,14.36-6.24l.7.08a21,21,0,0,0,11.92-2.45,20.69,20.69,0,0,0,5.26-3.85l.29-.35a8.31,8.31,0,0,1,1.68-1.92c.46,1.75,0,3.36,1.42,4.84a23.64,23.64,0,0,1,3.25,4.4c1.8,3.12,4.58,10.13,5,10.23a55.85,55.85,0,0,1,1,6.27l.06.56c0-.16,0-.32,0-.49.13-1.9,1-7.21,1.1-9.31C1165,380.43,1167.68,374.65,1167.18,371Z"/></g><g id="Слой_30" data-name="Слой 30"><path class="cls-19" d="M338.45,1079.86a6.26,6.26,0,0,1-2.38.38h0l.47-16.26h0s6,.22,6.08,4.21a32.33,32.33,0,0,1-.3,5c-.15,1.1-.33,2-.49,2.71a6.47,6.47,0,0,1-.29.94,5.06,5.06,0,0,1-.74,1.07,8.92,8.92,0,0,1-2.3,1.94Z"/><path class="cls-19" d="M337.16,1063.8l-1,16.24a6.26,6.26,0,0,1-2.39-.62,8.93,8.93,0,0,1-2.13-2.13,5.4,5.4,0,0,1-.64-1.13,7.14,7.14,0,0,1-.2-1,23.32,23.32,0,0,1-.25-2.75,32.94,32.94,0,0,1,.14-5C331.16,1063.49,337.16,1063.8,337.16,1063.8Z"/><path class="cls-19" d="M333,1081.24a1.31,1.31,0,0,1,.36-.7,2.24,2.24,0,0,1,1.56-.33,8.13,8.13,0,0,0,2.28-.35h0l0,0a8.75,8.75,0,0,0,1.11-2.8c1.08-.59,1.58-.51,1.84-.34.7.45.15,1.77.78,3.38a5.14,5.14,0,0,0,1.71,2.19l7.74.42h0l2.44,2L340.07,1091h0l-12.73,6.35-.14-3.16,1.32-1.78q2-2.7,4-5.33a6.36,6.36,0,0,0,.89-2.47A6.5,6.5,0,0,0,333,1081.24Z"/><path class="cls-51" d="M342.61,1082.23c.46,0,.53.12,1.84.25.67.07,1.24.1,2.64.13.85,0,2,0,3.26,0l2.44,2L340.07,1091h0l-12.73,6.35-.14-3.16,1.32-1.78q2-2.7,4-5.33a9.89,9.89,0,0,0,5.92-2C339.9,1083.88,340.87,1082.23,342.61,1082.23Z"/><path class="cls-20" d="M331.52,1071.1a3.89,3.89,0,0,1,1.32-.1c.35,0,.69,0,1,.06a3.48,3.48,0,0,1,1,.11c.09,0,.21,0,.26,0s0,0,0,0v0c-.05-.27-.48-.33-.75-.41a5.32,5.32,0,0,0-.79-.18,2.82,2.82,0,0,0-.82,0,2.61,2.61,0,0,0-.71.25l-.37.18h0l-.12,0h0l-.1,0C331.35,1071,331.47,1071.11,331.52,1071.1Z"/><path class="cls-20" d="M341,1070.51l-.11,0h0l-.13,0h0l-.39-.15a3.1,3.1,0,0,0-.73-.17,2.73,2.73,0,0,0-.81.1,5.1,5.1,0,0,0-.78.26c-.25.11-.68.21-.7.49h0v0s0,0,0,0,.17,0,.26,0a3.81,3.81,0,0,1,1-.2l1-.17a4.23,4.23,0,0,1,1.33,0C340.92,1070.64,341,1070.54,341,1070.51Z"/><path class="cls-20" d="M330.49,1072v0Z"/><path class="cls-20" d="M343.78,1066.89a6.14,6.14,0,0,0-1.44-3.16c-.33-.36-1.75-1.65-.74-2.06-.49-.49-1.15.12-1.25.57,0,.14-.25.53-.23.64-.21-1-.09-1.81-1.26-2.35-1.9-.87-3.71,1.39-5.53,1.53-.88.07-2.46.42-2.75-.65a2.33,2.33,0,0,0-.38.45,1.11,1.11,0,0,0-.05.6c.08.36.44,1,.91,1-.61,0-1,0-1.33-.49-.12.32.15.5.32.74A1.53,1.53,0,0,1,329,1063c-.33.36-.11.86.13,1.2.08.11,1.06.77,1.07.67a23.85,23.85,0,0,1-.82,3.06c-.13.55.43,2,.59,1.76,0,.32.48,2,.52,2.27a7.2,7.2,0,0,0,.44-1.36c.05-.21.13-.44.16-.64a9.09,9.09,0,0,1,.2-1l0-.12c.46-1.56,1.91-1.8,3.6-1.57l.18,0a5.37,5.37,0,0,0,3-.61,5.63,5.63,0,0,0,1.32-1l.07-.09a1.83,1.83,0,0,1,.42-.48c.12.44,0,.84.36,1.21a6.27,6.27,0,0,1,.81,1.11c.46.78,1.15,2.54,1.27,2.57a13.82,13.82,0,0,1,.26,1.57l0,.14v-.12c0-.48.26-1.81.27-2.34C343.23,1069.26,343.91,1067.81,343.78,1066.89Z"/><path class="cls-15" d="M332.47,1085.42a15.81,15.81,0,0,0,9.69-4.22c1.39.76,2.3,1.27,2.29,1.28h0c-.56,0-5.36,3.39-5.36,3.39s-.5.36-7.23,2.11h0Z"/></g><g id="Слой_17" data-name="Слой 17"><path class="cls-52" d="M1103.42,937.34h0c-1.47-6,7.2-12.41,10.5-21.54,3.76-10.4-1.37-31.25-1.37-31.25l-29.79,7.33L1053,899.2s5.12,20.85,13.28,28.32c7.15,6.56,17.82,8.25,19.28,14.21h0c1.47,6-7.2,12.42-10.49,21.54-3.76,10.4,1.37,31.25,1.37,31.25l29.78-7.33,29.79-7.32s-5.13-20.85-13.28-28.32c-7.16-6.55-17.83-8.25-19.29-14.21"/><path class="cls-53" d="M1107.81,955.21c-3,.73-6.86-1.47-7.59-4.45-1.09-5.14-1.91-8.52-2.76-12-2.36-9.59,5.7-15.81,9.47-24.44L1071.78,923c7.34,5.89,17.37,7.67,19.72,17.26.85,3.44,1.68,6.81,3.11,11.87.73,3-1.69,6.73-4.67,7.47-6,1.46-9.4,7.94-9.72,11.86-.78,9.67,2.15,21.58,2.15,21.58l20.85-5.12,3-.74,23.83-5.86s-2.93-11.91-8.1-20.11c-2.1-3.33-8.16-7.47-14.12-6"/><path class="cls-54" d="M1142,978.4a6.14,6.14,0,0,1-4.5,7.43l-59.57,14.65a6.14,6.14,0,0,1-2.93-11.92l59.57-14.65a6.14,6.14,0,0,1,7.43,4.49"/><path class="cls-54" d="M1118.51,883.09a6.14,6.14,0,0,1-4.5,7.42l-59.57,14.65a6.13,6.13,0,0,1-2.93-11.91l59.57-14.65a6.14,6.14,0,0,1,7.43,4.49"/></g></g></svg>
