<svg id="Слой_1" data-name="Слой 1" xmlns="http://www.w3.org/2000/svg" viewBox="0 0 640 1890"><defs><style>.cls-1{fill:#097bd8}.cls-2{fill:#672cd7}.cls-3{fill:#b74ba0}.cls-4{fill:#17b9f8}.cls-5{fill:#1797e9}.cls-6{fill:url(#Безымянный_градиент_218)}</style><linearGradient id="Безымянный_градиент_218" data-name="Безымянный градиент 218" x1="40.88" y1="183.64" x2="610.4" y2="1688.29" gradientUnits="userSpaceOnUse"><stop offset="0" stop-color="#a675f5"/><stop offset="1" stop-color="#006acd"/></linearGradient></defs><title>статистика-фонМонтажная область 8 копия 2</title><path class="cls-1" d="M67.2 1023.1c.1-.8 0-1.7.9-2.3 0 .9.1 1.8-.9 2.3z"/><path class="cls-2" d="M92.3 1025.5l.5-.5.2.4zm0 0l-.7.8h-.1l.8-.8zm-1.6 1.5l.8-.7h.1a6 6 0 0 1-.8.8z"/><path class="cls-3" d="M111.1 1031.8a1.4 1.4 0 0 1 .2.6l-.2.2a1.1 1.1 0 0 0 0-.8z"/><path class="cls-5" d="M217.7 906.6a3.5 3.5 0 0 1 2-.5 3.5 3.5 0 0 0-2 .5zm2.1-.5zm-21.8 50z"/><path class="cls-6" d="M-.1.2s111.5 47 311.5 41.5c181-5 146.5-36.5 328.5-41.5v1875s-27.5-28.5-146.5-20.5c-124.5 8.3-238 77-493-12z"/></svg>