<svg xmlns="http://www.w3.org/2000/svg" viewBox="0 0 84 84"><defs><style>.cls-1,.cls-3{fill:#0076c3}.cls-1,.cls-2,.cls-4{stroke:#1a539c;stroke-miterlimit:10}.cls-2{fill:none}.cls-4{fill:#ffd593}</style></defs><title>iconsМонтажная область 4</title><g id="Слой_2" data-name="Слой 2"><circle class="cls-1" cx="42.2" cy="42.7" r="20.2"/><circle class="cls-2" cx="42.2" cy="41.7" r="41.1"/><path class="cls-3" d="M41.5 47.5h3v5h-3z" id="плашка"/><path class="cls-4" d="M38.6 47.2a.7.7 0 0 1-.7.8h-7.6a.7.7 0 0 1-.8-.8v-2.3a4.7 4.7 0 0 1 4.6-4.6 4.6 4.6 0 0 1 4.5 4.6z"/><path class="cls-4" d="M34.1 41.9a3.1 3.1 0 0 1-3.1-3.1 3.1 3.1 0 0 1 6.1 0 3.1 3.1 0 0 1-3 3.1zm21.4 5.3a.7.7 0 0 1-.8.8h-7.6a.7.7 0 0 1-.7-.8v-2.3a4.6 4.6 0 0 1 4.5-4.6 4.7 4.7 0 0 1 4.6 4.6z"/><path class="cls-4" d="M50.9 41.9a3.1 3.1 0 0 1-3-3.1 3.1 3.1 0 0 1 6.1 0 3.1 3.1 0 0 1-3.1 3.1zm-8.4-1.6a5.4 5.4 0 0 0-5.3 5.4V48h10.6v-2.3a5.4 5.4 0 0 0-5.3-5.4z"/><path class="cls-4" d="M42.7 40.7a3.6 3.6 0 1 1 3.6-3.6 3.6 3.6 0 0 1-3.6 3.6z"/></g></svg>