<svg xmlns="http://www.w3.org/2000/svg" viewBox="0 0 84 84"><defs><style>.cls-1{fill:none}.cls-1,.cls-2,.cls-4{stroke:#1a539c}.cls-1,.cls-2,.cls-4,.cls-5{stroke-miterlimit:10}.cls-2,.cls-5,.cls-6{fill:#0076c3}.cls-3{fill:#00569c}.cls-4{fill:#ffd593}.cls-5{stroke:#fff;stroke-width:.5px}.cls-7{fill:#575d72}.cls-8{fill:#1a539c}</style></defs><title>iconsМонтажная область 5</title><g id="Слой_6" data-name="Слой 6"><circle class="cls-1" cx="42.2" cy="41.7" r="41.1" id="Слой_10" data-name="Слой 10"/><path class="cls-2" d="M63.3 56.7H21.7V24.1h41.6"/><path class="cls-3" d="M64 57.5H21V23.4h43zM22.5 56h40V24.9h-40zm0 0"/><path class="cls-4" d="M39.5 45.6V35.2l8.2 5.2zm0 0"/><path class="cls-5" d="M21.7 24.1h7.4v8.16h-7.4z"/><path class="cls-3" d="M29.9 33H21v-9.6h8.9zm-7.4-1.5h5.9v-6.6h-5.9zm0 0"/><path class="cls-5" d="M21.7 32.3h7.4v8.16h-7.4z"/><path class="cls-3" d="M29.9 41.2H21v-9.7h8.9zm-7.4-1.5h5.9V33h-5.9zm0 0"/><path class="cls-5" d="M21.7 40.4h7.4v8.16h-7.4z"/><path class="cls-3" d="M29.9 49.3H21v-9.6h8.9zm-7.4-1.5h5.9v-6.6h-5.9zm0 0"/><path class="cls-5" d="M21.7 48.6h7.4v8.16h-7.4z"/><path class="cls-3" d="M29.9 57.5H21v-9.7h8.9zM22.5 56h5.9v-6.7h-5.9zm0 0"/><path class="cls-5" d="M55.9 24.1h7.4v8.16h-7.4z"/><path class="cls-3" d="M64 33h-8.9v-9.6H64zm-7.4-1.5h5.9v-6.6h-5.9zm0 0"/><path class="cls-5" d="M55.9 32.3h7.4v8.16h-7.4z"/><path class="cls-3" d="M64 41.2h-8.9v-9.7H64zm-7.4-1.5h5.9V33h-5.9zm0 0"/><path class="cls-5" d="M55.9 40.4h7.4v8.16h-7.4z"/><path class="cls-3" d="M64 49.3h-8.9v-9.6H64zm-7.4-1.5h5.9v-6.6h-5.9zm0 0"/><path class="cls-6" d="M57.9 48.6h7.4v8.16h-7.4z"/><path class="cls-7" d="M66 57.5h-8.9v-9.7H66zM58.6 56h5.9v-6.7h-5.9zm0 0"/><path class="cls-4" d="M67.5 53.8a8.9 8.9 0 1 1-8.9-8.9 8.9 8.9 0 0 1 8.9 8.9zm0 0"/><path class="cls-8" d="M59.6 53.8l2.7-2.6a.8.8 0 0 0-1.1-1.1l-2.6 2.6-2.6-2.6a.8.8 0 0 0-1.1 1.1l2.7 2.6-2.7 2.6a.7.7 0 0 0 0 1 .9.9 0 0 0 .6.3l.5-.3 2.6-2.6 2.6 2.6.5.3a.9.9 0 0 0 .6-.3.7.7 0 0 0 0-1zm0 0"/></g></svg>