<svg id="Слой_1" xmlns="http://www.w3.org/2000/svg" xmlns:xlink="http://www.w3.org/1999/xlink" viewBox="0 0 640 1041.7"><style>.st0{clip-path:url(#SVGID_2_)}.st1,.st2{opacity:.84;fill:url(#SVGID_3_);enable-background:new}.st2{opacity:.83;fill:url(#SVGID_4_)}.st3{fill:#2548aa}.st4{fill:url(#SVGID_5_)}.st5,.st6{opacity:.69;fill:url(#SVGID_6_);enable-background:new}.st6{opacity:.55;fill:#006eac}.st7{fill:url(#SVGID_7_)}.st8{fill:url(#SVGID_8_)}.st9{fill:url(#SVGID_9_)}.st10{fill:url(#SVGID_10_)}.st11{fill:url(#SVGID_11_)}.st12{fill:url(#SVGID_12_)}.st13{fill:url(#SVGID_13_)}.st14{fill:url(#SVGID_14_)}.st15{fill:url(#SVGID_15_)}.st16{opacity:.5;fill:url(#SVGID_16_);enable-background:new}.st17{fill:url(#SVGID_17_)}.st18{fill:url(#SVGID_18_)}.st19{fill:url(#SVGID_19_)}.st20{opacity:.5;fill:url(#SVGID_20_)}.st20,.st21,.st22,.st23{enable-background:new}.st21{fill:url(#SVGID_21_)}.st21,.st22,.st23{opacity:.2}.st22{fill:url(#SVGID_22_)}.st23{fill:url(#SVGID_23_)}.st24{opacity:.15}</style><title>главная фон мобМонтажная область 8 копия 4</title><defs><path id="SVGID_1_" d="M0 0h640.4v1039.7H0z"/></defs><clipPath id="SVGID_2_"><use xlink:href="#SVGID_1_" overflow="visible"/></clipPath><g class="st0"><linearGradient id="SVGID_3_" gradientUnits="userSpaceOnUse" x1="332.376" y1="500.549" x2="311.536" y2="1062.259" gradientTransform="matrix(1 0 0 -1 0 1182)"><stop offset="0" stop-color="#a59eff"/><stop offset="1" stop-color="#0077c2"/></linearGradient><path class="st1" d="M639.9 658.3H-1.5L-1.6 0v-.3h641.7z"/><linearGradient id="SVGID_4_" gradientUnits="userSpaceOnUse" x1=".3" y1="590.9" x2="436.1" y2="590.9" gradientTransform="matrix(1 0 0 -1 0 1182)"><stop offset="0" stop-color="#c1bae4"/><stop offset="1" stop-color="#fff" stop-opacity=".1"/></linearGradient><path class="st2" d="M436.1 656.1s-21.2-23.9-57.4-9.8c0 0-.9-5.3-15.1-4.4 0 0 8.9-31.8-24.7-39.8 0 0 0-7-15.9-7.9 0 0-1.8-52.2-69-43.3 0 0-13.3 3.5-23.9-6.2 0 0-49.5-42.5-95.4 0l-10.6 8.8s-7.1-8.8-16.8-2.6c0 0-4.5-5.3-13.3-2.7 0 0-17.7-29.2-46.9-7.9 0 0-4.4-8.9-12.3-3.6 0 0 3.5-26.5-34.5-49.5v173.3L345.1 695c.9 0 91-38.9 91-38.9z"/><path class="st3" d="M640 562.8c-.6.3-16.4 10.8-19.1 14.2-14.2 17.6-26.5 23.8-26.5 23.8L552 623.4l-270.1 35.8 327.7-.2 30.4-.3s.4-96 0-95.9z"/><linearGradient id="SVGID_5_" gradientUnits="userSpaceOnUse" x1="226.669" y1="707.684" x2="484.199" y2="-201.736" gradientTransform="matrix(1 0 0 -1 0 1182)"><stop offset="0" stop-color="#ab82e4"/><stop offset=".07" stop-color="#9c8ae8"/><stop offset=".13" stop-color="#8b92ed"/><stop offset=".96" stop-color="#0066b0"/></linearGradient><path class="st4" d="M640 657.8l-641.5.5v286.4s181.3 126.4 399.6 87.5c297.7-53 183.7-153.6 241.9-183.3.1-.1 0-191.1 0-191.1z"/><linearGradient id="SVGID_6_" gradientUnits="userSpaceOnUse" x1="-1.5" y1="483.05" x2="362.94" y2="483.05" gradientTransform="matrix(1 0 0 -1 0 1182)"><stop offset="0" stop-color="#a8a2ff"/><stop offset="1" stop-color="#a8a2ff" stop-opacity="0"/></linearGradient><path class="st5" d="M361.9 658.3s8.8 11.5-24.8 16c0 0 0 4-15.9 4.5 0 0-1.8 29.7-69 24.7 0 0-13.2-2.1-23.8 3.5 0 0-49.5 24.1-95.5 0l-10.6-5.1c-5 3.1-11.3 3.7-16.8 1.6 0 0-4.4 3-13.3 1.5 0 0-17.7 16.5-46.8 4.5 0 0-4.4 5-12.4 2 0 0 3.5 15.1-34.5 28.1v-81.3s377.5.5 363.4 0z"/><path class="st6" d="M504.2 834.2c7.8 9.1-197.1 77.8-394.5 50.4 0 0 215.9 36.2 394.5-50.4z"/><linearGradient id="SVGID_7_" gradientUnits="userSpaceOnUse" x1="109.7" y1="322.347" x2="504.416" y2="322.347" gradientTransform="matrix(1 0 0 -1 0 1182)"><stop offset="0" stop-color="#c1bae4"/><stop offset="1" stop-color="#fff" stop-opacity=".1"/></linearGradient><path class="st7" d="M504.2 830.7c7.8 9-197.1 77.8-394.5 50.4 0 0 215.9 36.2 394.5-50.4z"/><linearGradient id="SVGID_8_" gradientUnits="userSpaceOnUse" x1="249.582" y1="310.029" x2="300.611" y2="129.839" gradientTransform="matrix(1 0 0 -1 0 1182)"><stop offset="0" stop-color="#c1bae4"/><stop offset="1" stop-color="#fff" stop-opacity=".1"/></linearGradient><path class="st8" d="M135.5 927.9s131.8 57.5 266.1 22.1c0 0-150.2 22.1-266.1-22.1z"/><path class="st6" d="M135.5 935.9s131.8 57.4 266.1 22.1c0 0-150.2 22.1-266.1-22.1z"/><linearGradient id="SVGID_9_" gradientUnits="userSpaceOnUse" x1="379.5" y1="245.7" x2="534.989" y2="245.7" gradientTransform="matrix(1 0 0 -1 0 1182)"><stop offset="0" stop-color="#c1bae4"/><stop offset="1" stop-color="#fff" stop-opacity=".1"/></linearGradient><path class="st9" d="M530.7 876.6s44.2 76.1-151.2 119.4c0 0 172.4-42.4 151.2-119.4z"/><path class="st6" d="M533.4 881.9s44.2 76.1-151.2 119.4c0 0 172.4-42.4 151.2-119.4z"/><linearGradient id="SVGID_10_" gradientUnits="userSpaceOnUse" x1="237.2" y1="290.673" x2="494.5" y2="290.673" gradientTransform="matrix(1 0 0 -1 0 1182)"><stop offset="0" stop-color="#c1bae4"/><stop offset="1" stop-color="#fff" stop-opacity=".1"/></linearGradient><path class="st10" d="M237.2 911.1s168.9 15.9 257.3-43.3c0 0-41.6 62.8-257.3 43.3z"/><path class="st6" d="M237.2 917.3s168.9 15.9 257.3-43.3c0 0-41.6 62.8-257.3 43.3z"/><linearGradient id="SVGID_11_" gradientUnits="userSpaceOnUse" x1="35.7" y1="269.664" x2="244.974" y2="269.664" gradientTransform="matrix(1 0 0 -1 0 1182)"><stop offset="0" stop-color="#c1bae4"/><stop offset="1" stop-color="#fff" stop-opacity=".1"/></linearGradient><path class="st11" d="M35.7 891.7s157.3 36.2 201.5 40.6-110.5-13.2-201.5-40.6z"/><linearGradient id="SVGID_12_" gradientUnits="userSpaceOnUse" x1="576.7" y1="366.8" x2="764.38" y2="366.8" gradientTransform="matrix(1 0 0 -1 0 1182)"><stop offset="0" stop-color="#c1bae4"/><stop offset="1" stop-color="#fff" stop-opacity=".1"/></linearGradient><path class="st12" d="M640 799.5v-3.3c-21.8 11.4-43 24.1-63.3 38 0 0 26.5-15.9 63.3-34.6v-.1z"/><path class="st6" d="M640.1 801.1v-2.2h-.1c-21.9 11.3-43 24-63.3 38 0 0 26.5-15.9 63.3-34.7h.1c-.1-.4-.1-.7 0-1.1z"/><linearGradient id="SVGID_13_" gradientUnits="userSpaceOnUse" x1="498" y1="307.55" x2="624.4" y2="307.55" gradientTransform="matrix(1 0 0 -1 0 1182)"><stop offset="0" stop-color="#c1bae4"/><stop offset="1" stop-color="#fff" stop-opacity=".1"/></linearGradient><path class="st13" d="M624.4 778.5c-7.4 3.3-16.2 4-23.9 7.6-18.5 8.8-33.8 23.3-44.4 40.7s-16.9 36-13.1 57.2c6.4 36-12.5 70.5-45 86.4 26-12.7 47.5-30.2 49.5-61.7 1.1-15.8-5.9-31.5-3.8-47.2 5.4-39.5 47.2-67.9 80.7-83z"/><path class="st6" d="M628 781.2c-7.5 3.3-16.3 3.9-24 7.6-18.5 8.8-33.7 23.2-44.4 40.7s-16.9 35.9-13.1 57.1c6.5 36-12.4 70.6-45 86.4 26.1-12.7 47.6-30.1 49.6-61.6 1-15.9-5.9-31.6-3.8-47.3 5.3-39.4 47.1-67.9 80.7-82.9z"/><linearGradient id="SVGID_14_" gradientUnits="userSpaceOnUse" x1="79.683" y1="333.187" x2="51.293" y2="397.477" gradientTransform="matrix(1 0 0 -1 0 1182)"><stop offset="0" stop-color="#c1bae4"/><stop offset="1" stop-color="#fff" stop-opacity=".1"/></linearGradient><path class="st14" d="M-1.5 793.5s32.7 68.1 150.3 66.3c0 0-68.1 13.6-150.3-49.3v-17z"/><path class="st6" d="M-1.5 802.4s32.7 63.6 150.3 61.9c0 0-68.1 17.9-150.3-45v-16.9z"/><linearGradient id="SVGID_15_" gradientUnits="userSpaceOnUse" x1="624.43" y1="349.95" x2="738.74" y2="349.95" gradientTransform="matrix(1 0 0 -1 0 1182)"><stop offset="0" stop-color="#c1bae4"/><stop offset="1" stop-color="#fff" stop-opacity=".1"/></linearGradient><path class="st15" d="M640 822.8c-15.6 12-15.6 18.5-15.6 18.5 3.2-5.1 8.7-10.5 15.6-15.8.1-.9.1-1.8 0-2.7z"/><path class="st6" d="M640 824.6c-15.6 12-15.6 18.4-15.6 18.4 3.2-5.1 8.7-10.4 15.6-15.7.1-.9.1-1.8 0-2.7z"/><path class="st3" d="M295.7 675c-.2-.2-3.3-2.8-3.7-2.8s-2.8-.9-3.3 0c-.3.4-.6.8-1 1.1-.2.2-.5.2-.7 0-.8-.9-3.2-3.2-5.8-2.5-1.3.4-2.7.5-4.1.3-.8-.1-1.7 0-2.4.4l-6.5 3.4c-.1.1-.2.2-.2.3-.1.3 0 .7.4.8h26.9c.3 0 .6-.3.6-.6-.1-.2-.1-.3-.2-.4zm-44.3-12.3s16.3-7.5 23-6.9c0 0 10.6-4.6 17.6-12.5l14.7 3.3 11.8-2.5c8 3.7 11.4 3.2 11.4 3.2s18.3 4.2 23.8 1.2 20.7-1.2 22.5-2.5 6.1 2.5 6.1 2.5.6 1.2 14 0c0 0-7.3 1.2-8.5 3s-11-.6-15.9 3.7c0 0-1.5.9-9.4-.3 0 0-6.1 0-7.3 2.4 0 0-14.8 5.5-22.5 1.9-5.7-2.7-51.3 4.8-55 4.8s-15.7-2.2-26.3-1.3zm96.3 22.1h-26.5s3.5-7.1 6.2-8 2.6 3.6 7.1 2.7 13.2 5.3 13.2 5.3z"/><linearGradient id="SVGID_16_" gradientUnits="userSpaceOnUse" x1="190.4" y1="379.668" x2="448.5" y2="379.668" gradientTransform="matrix(1 0 0 -1 0 1182)"><stop offset="0" stop-color="#c1bae4"/><stop offset="1" stop-color="#fff" stop-opacity=".1"/></linearGradient><path class="st16" d="M190.4 814.8s92.8 18.5 258.1-29.2c0 0-136.1 47.7-258.1 29.2z"/><linearGradient id="SVGID_17_" gradientUnits="userSpaceOnUse" x1="410.5" y1="394.723" x2="644.9" y2="394.723" gradientTransform="matrix(1 0 0 -1 0 1182)"><stop offset="0" stop-color="#c1bae4"/><stop offset="1" stop-color="#fff" stop-opacity=".1"/></linearGradient><path class="st17" d="M640 742.8c-27.9 2.5-83.7 12.8-102.2 49.9-22.9 45.8-127.3 38-127.3 38s104.3 10.6 128.2-35.4c21.4-41.3 74.4-49.7 101.3-52.2v-.3z"/><linearGradient id="SVGID_18_" gradientUnits="userSpaceOnUse" x1="108.151" y1="439.559" x2="162.881" y2="246.289" gradientTransform="matrix(1 0 0 -1 0 1182)"><stop offset="0" stop-color="#c1bae4"/><stop offset="1" stop-color="#fff" stop-opacity=".1"/></linearGradient><path class="st18" d="M45.4 785.6S66.6 836 211.6 843c0 0-134.4-5.3-166.2-57.4z"/><linearGradient id="SVGID_19_" gradientUnits="userSpaceOnUse" x1="226.6" y1="334.188" x2="382.2" y2="334.188" gradientTransform="matrix(1 0 0 -1 0 1182)"><stop offset="0" stop-color="#c1bae4"/><stop offset="1" stop-color="#fff" stop-opacity=".1"/></linearGradient><path class="st19" d="M226.6 853.7s96.4-16 155.6-10.7c0 0-90.2-.8-155.6 10.7z"/><linearGradient id="SVGID_20_" gradientUnits="userSpaceOnUse" x1="498" y1="433.55" x2="610.3" y2="433.55" gradientTransform="matrix(1 0 0 -1 0 1182)"><stop offset="0" stop-color="#c1bae4"/><stop offset="1" stop-color="#fff" stop-opacity=".1"/></linearGradient><path class="st20" d="M498 780.3s30.1-44.2 112.3-63.7c0 0-74.3 17.7-112.3 63.7z"/><linearGradient id="SVGID_21_" gradientUnits="userSpaceOnUse" x1="49.8" y1="406.959" x2="187.7" y2="406.959" gradientTransform="matrix(1 0 0 -1 0 1182)"><stop offset="0" stop-color="#c1bae4"/><stop offset="1" stop-color="#fff" stop-opacity=".1"/></linearGradient><path class="st21" d="M49.8 757.3s58.3 33.6 137.9 35.4c0 0-65.4 3.5-137.9-35.4z"/><linearGradient id="SVGID_22_" gradientUnits="userSpaceOnUse" x1="382.2" y1="414.1" x2="482.1" y2="414.1" gradientTransform="matrix(1 0 0 -1 0 1182)"><stop offset="0" stop-color="#c1bae4"/><stop offset="1" stop-color="#fff" stop-opacity=".1"/></linearGradient><path class="st22" d="M382.2 785.6s67.2-2.7 99.9-35.4c0 0-28.3 32.7-99.9 35.4z"/><linearGradient id="SVGID_23_" gradientUnits="userSpaceOnUse" x1="118.8" y1="426.778" x2="405.2" y2="426.778" gradientTransform="matrix(1 0 0 -1 0 1182)"><stop offset="0" stop-color="#c1bae4"/><stop offset="1" stop-color="#fff" stop-opacity=".1"/></linearGradient><path class="st23" d="M118.8 754.6s137.9 45.1 286.4-15c0 0-132.6 56.6-286.4 15z"/></g><image width="1645" height="1112" xlink:href="A4B259E7.png" transform="translate(-37.6 -36.3)" overflow="visible" class="st24"/></svg>