<svg xmlns="http://www.w3.org/2000/svg" xmlns:xlink="http://www.w3.org/1999/xlink" viewBox="0 0 273 251.33"><defs><style>.cls-1{fill:none;}.cls-2{fill:url(#Безымянный_градиент_4);}.cls-3{opacity:0.41;isolation:isolate;fill:url(#Безымянный_градиент_4-2);}.cls-4{fill:#e2e8f2;}.cls-5{fill:#1f3598;}.cls-6{fill:#c4dffc;}.cls-7{opacity:0.63;}.cls-8{clip-path:url(#clip-path);}.cls-9{fill:#eff6fc;}.cls-10,.cls-19{fill:#a0d2ff;}.cls-11{fill:#ced6e9;}.cls-12{fill:#f2f4f9;}.cls-13{fill:#fff;}.cls-14{fill:#8ba6d2;}.cls-15{fill:#212268;}.cls-16{fill:#f2f4fa;}.cls-17{fill:#3772ce;}.cls-18{fill:#f7bda4;}.cls-19{stroke:#fff;stroke-miterlimit:10;stroke-width:3px;}.cls-20{fill:#2f92ed;}.cls-21{fill:#020053;}.cls-22{fill:#e52364;}.cls-23{fill:#79181b;}.cls-24{fill:#b20032;}.cls-25{fill:#ff8358;}.cls-26{fill:#75a3ec;}.cls-27{fill:#4e4291;}</style><linearGradient id="Безымянный_градиент_4" y1="552.04" x2="271.46" y2="552.04" gradientTransform="matrix(1, 0, 0, -1, 0, 666.06)" gradientUnits="userSpaceOnUse"><stop offset="0" stop-color="#9090f1"/><stop offset="1" stop-color="#2d79cc"/></linearGradient><linearGradient id="Безымянный_градиент_4-2" y1="543.13" x2="270.89" y2="543.13" xlink:href="#Безымянный_градиент_4"/><clipPath id="clip-path"><rect class="cls-1" y="-0.33" width="273" height="252"/></clipPath></defs><title>мобилка</title><g id="Слой_5" data-name="Слой 5"><g id="чуваки-2"><path class="cls-2" d="M0-.33S14.62,38,100.32,35.93c49.27-1.17,81.47-17.26,128.83,1.09,23.83,9.22,32.69,20.85,36.9,29.29,7.67,15.33,5.4,30.89,3.83,38.11a133.58,133.58,0,0,1-12.77,14.44c-8.47,8.28-13.43,11.43-17.77,15.56-6.14,5.83-13.15,15.89-16.11,34.43a66.76,66.76,0,0,1-9.72,24.71c-27,41.18-91.8,34.61-95.78,34.15A154.07,154.07,0,0,1,0,178.84Z"/><path class="cls-3" d="M2.77,11.12c36.61,14.91,67,18,88.86,17.77,58-.65,80.61-25.07,122.73-10C221.64,21.49,253.68,33,266.07,64c6.09,15.27,5.18,29.6,3.83,38.11a51.12,51.12,0,0,1-8.22,21.19c-7.45,10.81-15.68,12.86-21.22,25-2.22,4.86-2.21,7.05-3.57,13.4a89.71,89.71,0,0,1-16.42,36c-34.25,44.38-99.55,36.8-105,36.12A225.37,225.37,0,0,1,0,176.54Q1.38,93.85,2.77,11.12Z"/><path class="cls-4" d="M160.38,66.6l-.18.37h.14A3.15,3.15,0,0,1,160.38,66.6Z"/><path class="cls-5" d="M20.11,101.89c4.17-4.24,8.12,2.42,10,5.19,1.3,1.88,5.84,7,5.19,9.43-.24.87-.35.82-1.23,1a5.56,5.56,0,0,1-2.65-.27,15.1,15.1,0,0,1-9.78-8.32c-.16,1.1-.25,2.2-.31,3.3a.31.31,0,0,1-.34.29.27.27,0,0,1-.17-.06c-.41-.31-.81-.63-1.2-1-1.46-1.23-.65-2.8-1-4.65A5.75,5.75,0,0,1,20.11,101.89Z"/><path class="cls-6" d="M66.33,205.89a3.88,3.88,0,0,0,3.51.22,1.07,1.07,0,0,0,.13-2,3.89,3.89,0,0,0-3.51-.23A1.08,1.08,0,0,0,66.33,205.89Z"/><path class="cls-6" d="M68.68,158.17l-3,46.2a.54.54,0,0,0,0,.18.39.39,0,0,0,.34.24l4.19.27a.4.4,0,0,0,.37-.19.61.61,0,0,0,0-.18l3-46.2a.4.4,0,0,0-.37-.42l-4.18-.28A.41.41,0,0,0,68.68,158.17Z"/><g class="cls-7"><path class="cls-6" d="M68.17,166.1a.25.25,0,0,0,0,.17,1.22,1.22,0,0,0-.06.26,1.21,1.21,0,0,0,.65,1.07,3.88,3.88,0,0,0,3.51.22,1.22,1.22,0,0,0,.87-1,.61.61,0,0,0,0-.27.49.49,0,0,0,.06-.17l.51-7.91a.39.39,0,0,0-.37-.42l-4.18-.28a.4.4,0,0,0-.42.38Z"/></g><g class="cls-8"><path id="стол" class="cls-6" d="M211.07,90.2,137.32,40.46A17.38,17.38,0,0,0,120,39.25L-11.14,103.3a4.59,4.59,0,0,0-2.12,6.12,4.56,4.56,0,0,0,1.59,1.81l74.93,50a17.4,17.4,0,0,0,17.36,1.12L210.54,98.11a4.59,4.59,0,0,0,.53-7.91Z"/><path id="стоол" class="cls-9" d="M211.33,81.86,137.61,32.12a17.38,17.38,0,0,0-17.36-1.21L-10.9,95A4.58,4.58,0,0,0-13,101.1a4.63,4.63,0,0,0,1.57,1.8l75,50A17.4,17.4,0,0,0,80.92,154L210.83,89.77a4.59,4.59,0,0,0,2-6.17A4.53,4.53,0,0,0,211.33,81.86Z"/></g><path class="cls-10" d="M116.84,122.6l40.35-19.93c1.83-.91,1.94-2.56.24-3.7l-14.72-9.81a7.1,7.1,0,0,0-6.39-.42L96,108.68c-1.83.91-1.94,2.6-.24,3.69l14.72,9.83A7.1,7.1,0,0,0,116.84,122.6Z"/><polygon class="cls-10" points="158.81 98.1 158.57 101.79 113.59 123.16 94.53 110.45 94.71 107.65 158.81 98.1"/><path class="cls-11" d="M117,119.8l40.35-19.94c1.83-.9,1.94-2.55.24-3.69l-14.72-9.81a7.07,7.07,0,0,0-6.39-.42L96.15,105.88c-1.83.91-2,2.56-.23,3.69l14.71,9.82A7.07,7.07,0,0,0,117,119.8Z"/><polygon class="cls-11" points="109.06 113.77 148.16 94.45 144.97 92.32 105.88 111.64 109.06 113.77"/><polygon class="cls-11" points="114.53 117.41 153.62 98.09 150.44 95.97 111.34 115.29 114.53 117.41"/><polygon class="cls-4" points="147.4 94.4 109.09 113.33 106.63 111.69 144.94 92.76 147.4 94.4"/><polygon class="cls-4" points="152.88 98.05 114.56 116.98 112.1 115.34 150.41 96.4 152.88 98.05"/><polygon class="cls-4" points="142.12 90.32 103.81 109.25 101.34 107.61 139.66 88.67 142.12 90.32"/><path class="cls-6" d="M102,68.59S97,80,101.06,82.68l2,1.3h0l7.78,5.18a1.27,1.27,0,0,1-.16,2.39L98.89,97.38a4.46,4.46,0,0,1-4.11-.3l-5.54-3.74h0L87.42,92l-.24-.16-.06,0-1.88-1.36s-3.43-2.87-2.82-12.25Z"/><path class="cls-12" d="M82.55,76.06C82,85.44,85.38,88.3,85.38,88.3l1.89,1.37a.07.07,0,0,1,.06,0l.24.16,1.76,1.3h.06l.65.44L94.94,95a4.51,4.51,0,0,0,4.12.3l11.76-5.84c1.19-.57,1.26-1.64.16-2.38l-4.91-3.28-2.86-1.91h0l-2-1.33c-4-2.66.65-13.53.9-14.07h0Z"/><path class="cls-9" d="M82.55,76.06C82,85.44,85.38,88.3,85.38,88.3l1.89,1.37a.07.07,0,0,1,.06,0l.24.16,1.76,1.3h.06l.65.44,16-7.85-2.86-1.91h0l-2-1.32c-4-2.67.65-13.54.9-14.07h0Z"/><g id="_Группа_9" data-name=" Группа 9"><path class="cls-13" d="M57.64,38.14,120,7.33c1.55-.77,2.67-.33,3.89.8l2.68,1.74-3.12,1.94-3,46.95A8.27,8.27,0,0,1,116.23,65l-61,30.13L55,97.78a.49.49,0,0,1-.51.45.54.54,0,0,1-.27-.11L51.56,96a2.5,2.5,0,0,1-1.23-2.64l3.17-49A8.22,8.22,0,0,1,57.64,38.14Z"/><path class="cls-14" d="M57.41,47,54.24,96c-.15,2.39,1.45,3.45,3.59,2.4l62.33-30.81a8.23,8.23,0,0,0,4.15-6.21l3.16-49c.16-2.38-1.45-3.46-3.58-2.4L61.55,40.75A8.27,8.27,0,0,0,57.41,47Z"/><polygon class="cls-15" points="119.68 62.75 122.73 15.57 62.04 45.56 58.99 92.75 119.68 62.75"/><path class="cls-6" d="M54.85,86.5,54.24,96c-.15,2.39,1.45,3.45,3.59,2.4l62.33-30.81a8.23,8.23,0,0,0,4.15-6.21l.61-9.48Z"/><path class="cls-6" d="M54.94,98.82A3,3,0,0,1,53.81,96l.65-9.73,71-35.07-.65,10.22A8.61,8.61,0,0,1,120.39,68L58,98.76a3.87,3.87,0,0,1-1.94.45A2.29,2.29,0,0,1,54.94,98.82Zm.33-12L54.68,96a1.85,1.85,0,0,0,3,2L120,67.15a7.8,7.8,0,0,0,3.89-5.84l.56-8.72Z"/></g><path class="cls-16" d="M91.42,75.26c-.09,1.45.88,2.1,2.17,1.46A5,5,0,0,0,96.11,73c.09-1.44-.88-2.09-2.17-1.45A5,5,0,0,0,91.42,75.26Z"/><path class="cls-17" d="M152.71,91.85h0a.74.74,0,0,0,0-.21A.26.26,0,0,1,152.71,91.85Z"/><path class="cls-18" d="M153.53,89.72a.84.84,0,0,0,.58.09.17.17,0,0,1,.06-.16Z"/><path class="cls-18" d="M150.29,95.58H150l.91-.76A7.25,7.25,0,0,1,150.29,95.58Z"/><path class="cls-18" d="M163.75,102.67c-1.58,2-6.36,1-10.76-2.38,1.29-.29,2.59-.51,3.72-.65a22.85,22.85,0,0,1,7.38.2A3.16,3.16,0,0,1,163.75,102.67Z"/><path class="cls-5" d="M158.78,70.52l.38.06Z"/><polygon class="cls-10" points="93.9 35.67 110.7 26.96 110.17 38.63 93.37 47.33 93.9 35.67"/><polygon class="cls-10" points="73.74 46.11 90.54 37.4 90.01 49.07 73.2 57.77 73.74 46.11"/><polygon class="cls-19" points="93.19 51.11 110 42.41 109.47 54.07 92.66 62.77 93.19 51.11"/><polygon class="cls-10" points="73.03 61.55 89.83 52.85 89.3 64.52 72.49 73.22 73.03 61.55"/><path class="cls-20" d="M78.92,69.89l6.19-3.2c0-1.86-.48-3.33-1.34-3.57-.4-.12-.86.08-1.75.49S80.35,64.37,78.92,69.89Z"/><path class="cls-20" d="M83.64,61.92c-.26.64-1,1.29-1.63,1.12a1.21,1.21,0,0,1-.75-.65A1.94,1.94,0,0,1,82.05,60a1.36,1.36,0,0,1,1.22-.14C83.88,60.21,83.93,61.24,83.64,61.92Z"/><path class="cls-20" d="M99.19,44.3l6.19-3.24c0-1.85-.48-3.32-1.33-3.57-.41-.12-.87.08-1.76.49S100.62,38.78,99.19,44.3Z"/><path class="cls-20" d="M103.91,36.33c-.27.65-1,1.29-1.63,1.11a1.21,1.21,0,0,1-.75-.65,2,2,0,0,1,.78-2.36,1.34,1.34,0,0,1,1.23-.13C104.15,34.62,104.2,35.64,103.91,36.33Z"/><path class="cls-20" d="M78.38,55.09l6.19-3.21c0-1.85-.48-3.32-1.34-3.57-.4-.12-.86.08-1.76.49S79.8,49.59,78.38,55.09Z"/><path class="cls-20" d="M83.1,47.14c-.27.65-1,1.3-1.63,1.12a1.24,1.24,0,0,1-.75-.65,2,2,0,0,1,.78-2.36,1.38,1.38,0,0,1,1.23-.14C83.34,45.43,83.39,46.46,83.1,47.14Z"/><g id="дама-2"><rect class="cls-5" x="114.11" y="193.8" width="8.06" height="3.36" rx="1.12" ry="1.12" transform="translate(-84.56 300.76) rotate(-86.3)"/><path class="cls-18" d="M122.76,147.42l-.28,2.59-3.84,36.18v.05a5.58,5.58,0,0,1,.23,1.95,10.26,10.26,0,0,1-7.3,1.94,25.47,25.47,0,0,0-.11-5.31c0-.39-.59-36.43-.59-36.43v0C115.28,148.71,118.35,146.89,122.76,147.42Z"/><path class="cls-5" d="M111.75,194.41c-3,1.85-2.86,3.77-7.13,2.43a8.1,8.1,0,0,1-3.62-2,3,3,0,0,1-.48-3.63,4.79,4.79,0,0,1,3.25-1.53,19.37,19.37,0,0,1,6.22,0,5.22,5.22,0,0,1,2.72,1.1C114.19,192.12,113.1,193.58,111.75,194.41Z"/><path class="cls-18" d="M113.67,186.47a7.53,7.53,0,0,0-2,1.3,27.78,27.78,0,0,0-6.29,5.64,5.11,5.11,0,0,0,3.33,3,24.19,24.19,0,0,0,2.8-.79,15,15,0,0,0,6.38-4.63c.2-.25.4-.59.24-.87l-2.27-2.49c-2.26-2.5-6,.61-8.57,1.72-1,.42-2,1-2.14,2.06s.75,1.77,1.6,2.24a8.34,8.34,0,0,0,2.7.94Z"/><path class="cls-5" d="M119.67,187.31a3.81,3.81,0,0,0-3.53.27c-1.76.92-3.12,2.51-4.68,3.69-2.16,1.64-4.27,2.5-6.69,1.2-.85.44-1.46,1-1.48,1.65,0,1,1.62,2.31,2.35,2.88,2.29,1.81,6.31-.59,8.32-1.45,1.58-.65,3.2-.43,4.7-1C120.68,193.83,121.6,189.29,119.67,187.31Z"/><rect class="cls-5" x="135.16" y="182.32" width="8.06" height="3.36" rx="1.12" ry="1.12" transform="translate(-53.41 311.03) rotate(-86.3)"/><path class="cls-18" d="M143.58,144.46l0-1.18L140,175v0a5.58,5.58,0,0,1,.22,2,10.23,10.23,0,0,1-7.29,1.94,24.81,24.81,0,0,0-.12-5.31c0-.39-.22-30.38-.22-30.38h0C137,143.55,139.18,143.91,143.58,144.46Z"/><path class="cls-5" d="M133.11,183.2c-3,1.86-2.86,3.78-7.13,2.43a7.9,7.9,0,0,1-3.63-2,3,3,0,0,1-.48-3.62,4.8,4.8,0,0,1,3.25-1.54,19.38,19.38,0,0,1,6.22.05,5.33,5.33,0,0,1,2.74,1.07C135.55,180.92,134.46,182.37,133.11,183.2Z"/><path class="cls-18" d="M135,175.27a7.44,7.44,0,0,0-2,1.29,27.82,27.82,0,0,0-6.29,5.65,5.1,5.1,0,0,0,3.33,3,23,23,0,0,0,2.81-.79,15,15,0,0,0,6.36-4.63c.2-.25.4-.59.24-.87-.75-.82-1.51-1.65-2.26-2.49-2.27-2.5-6.06.65-8.57,1.73-1,.42-2,1-2.15,2.06s.76,1.76,1.6,2.23a8.19,8.19,0,0,0,2.7.94Z"/><path class="cls-5" d="M141,176.1a3.84,3.84,0,0,0-3.53.27c-1.76.92-3.12,2.51-4.68,3.7-2.15,1.64-4.27,2.5-6.68,1.19-.86.45-1.47,1-1.49,1.65,0,1,1.63,2.31,2.36,2.89,2.28,1.8,6.3-.6,8.31-1.46,1.58-.65,3.21-.43,4.7-1C142,182.6,143,178.08,141,176.1Z"/><path class="cls-21" d="M115.66,145l11.07-5.43c4.27-1.8,7.36,1,11.7,2.6l-.52-.61,2.29-3.11,24.79-.15c8.33,5.46,8.64,26.58,8.64,26.58V165h0c.47,8.59-13.23,14.14-23.58,15a16.83,16.83,0,0,1-10.37-2.53l-1.66-1-23.89-14.91C106.94,156.87,107.75,148.34,115.66,145Z"/><path class="cls-18" d="M164,117.76a24.07,24.07,0,0,0,.26-2.68c-.48-1.2-.92-2.29-.91-2.38L146.64,99.39a3.23,3.23,0,0,0-2.24-1h-.46A3.2,3.2,0,0,0,142,103.8l16.21,15.89,0,0a3.46,3.46,0,0,0,4.89-.14A3.41,3.41,0,0,0,164,117.76Z"/><path class="cls-18" d="M140.74,105.5c2,2.09,4.93,2.52,6.59,1s1.4-4.54-.58-6.63-4.93-2.53-6.59-1S138.76,103.4,140.74,105.5Z"/><path class="cls-22" d="M166.89,134.62a33.34,33.34,0,0,0-.2,4.35,2,2,0,0,1-1,1.82,27.42,27.42,0,0,1-4,1.76c-4,1.38-8.49,2-12.57.83l-.48-.15c-2.34-.77-7.42-2.51-7.7-5.49a2.16,2.16,0,0,1,0-.36,8,8,0,0,1,.09-.84l.86-13.23c-1-3.89-3.24-6.8-1.73-11.59a17.16,17.16,0,0,1,3.15-6c2.38-2.87,5.64-4.54,9.73-5.43,1.3-.28,2.59-.5,3.72-.65a22.57,22.57,0,0,1,7.38.21,10.44,10.44,0,0,1,6.41,3.35,5.3,5.3,0,0,1,.51.73c2.76,4.8.72,11.12-.72,16S167.4,129.64,166.89,134.62Z"/><polygon class="cls-18" points="163.23 104.44 154 103.85 153.3 96.98 152.77 91.8 162 92.39 163.23 104.44"/><polygon class="cls-18" points="159.53 94.04 154.49 100.71 154.2 100.69 153.5 93.82 159.53 94.04"/><path class="cls-18" d="M144.45,86.1c.21.76.7.76,1.39,1.66,1.89,2.46.12,4.73,1.54,6.64,1.1,1.46,3.25,1.6,6.82,1.84,2.2.15,3.3.23,4.45-.22,2.71-1.07,4.38-4,5.5-6.93a26.12,26.12,0,0,0,1-3.36,12.61,12.61,0,0,0,.27-4,11.35,11.35,0,0,0-3.82-7.22,17.88,17.88,0,0,0-7.07-3.61,6.06,6.06,0,0,0-3.81-.17,3.19,3.19,0,0,0-1.87,1.85,2.38,2.38,0,0,0-.2,1,12.5,12.5,0,0,1-1.46,7.29C146,83,144,84.43,144.45,86.1Z"/><path class="cls-23" d="M168.64,82.07a17.28,17.28,0,0,1-2,5.78,13.68,13.68,0,0,1-5.63,6c-4.27,2.17-9,1.1-9.08.64,0-.3,1.85-.14,2.78-1.48,1.3-1.91-.39-5.33-.93-6.39a22.8,22.8,0,0,0-2-3c-1-1.42-4.19-6.28-2.84-11a7.08,7.08,0,0,1,2.34-3.75s3.68-2.87,10.29.15a11.76,11.76,0,0,1,2.85,1.86l.16.15A12.76,12.76,0,0,1,168.64,82.07Z"/><path class="cls-18" d="M154.27,85.78a.79.79,0,0,0,.58.14.15.15,0,0,1,.06-.14Z"/><path class="cls-24" d="M150.49,112.53c-1-2.19-2-3.78-4.54-3.53a33.15,33.15,0,0,0-5.29,1.19c-.2.49-.39,1-.56,1.53-1.49,4.79.7,7.67,1.73,11.59L141,136.54c0,.28-.07.56-.09.84a1.09,1.09,0,0,0,0,.36c.28,3,5.36,4.72,7.69,5.49l.49.15,1.94-30A4.37,4.37,0,0,1,150.49,112.53Z"/><path class="cls-18" d="M138.72,135.39a23.89,23.89,0,0,0,.26-2.67c-.48-1.21-.91-2.3-.91-2.39L121.33,117a3.18,3.18,0,0,0-2.24-1,3.53,3.53,0,0,0-.46,0,3.16,3.16,0,0,0-1.83.86,3.21,3.21,0,0,0-.11,4.53h0l16.21,15.89,0,0a3.46,3.46,0,0,0,5.77-2Z"/><path class="cls-18" d="M115.44,123.16c1.94,2.1,4.92,2.52,6.58,1s1.4-4.54-.58-6.63-4.93-2.52-6.59-1S113.45,121,115.44,123.16Z"/><path class="cls-18" d="M120.52,118.54h0a1.39,1.39,0,0,0,.06-2l-5.69-6a1.37,1.37,0,0,0-1.94-.06h0a1.37,1.37,0,0,0-.06,1.94l5.69,6A1.37,1.37,0,0,0,120.52,118.54Z"/><path class="cls-22" d="M136,138.33h.06a4.54,4.54,0,0,0,5.92-2.49,3.54,3.54,0,0,0,.14-.39l7.13-22.31a4.75,4.75,0,1,0-9.05-2.89h0L137.42,119l-2.77,8.67h0C133.43,131.89,131.13,136.13,136,138.33Z"/><path class="cls-23" d="M150.61,80.76c0-.21.11-.56.2-1.29.47-3.67,0-7.62,3.42-10.16,2.35-1.77,5.58-1.66,8.51-1.29,3.19.39,6.48,1,9.07,2.93,4.91,3.52,4.37,11.59,2.51,16.67a40.73,40.73,0,0,0-1.79,6.3c-.17,3.33,1.64,5.14,5.38,6a8.43,8.43,0,0,1,6.07,5.39,11.73,11.73,0,0,1,.72,4.31c-.08,4.59.28,5.89,5.49,7.86a11.92,11.92,0,0,1,7,7.13c3.21,8.43-1.41,20-10.3,25.81S168.2,154.21,165,145.8a18.56,18.56,0,0,1-.15-11.64c1.94-6.64,1.35-7.78-1.47-10.46h0c-4.15-5.84-4.34-9.65-3.51-12.12,1-2.9,3.37-4.12,2.87-6.3-.61-2.65-4.47-2.11-6-5.63-.82-1.88-.65-4.13-.42-6.59s.65-2.29.49-3.33C156.25,85.69,150.6,84.76,150.61,80.76Z"/></g><g id="креселко-2"><g id="_Группа_10" data-name=" Группа 10"><g id="_Группа_11" data-name=" Группа 11"><path class="cls-17" d="M172.33,219a5.75,5.75,0,0,0-2.31-4.67c-1.38-.92-2.59-.33-2.69,1.33a5.76,5.76,0,0,0,2.3,4.68C171,221.24,172.25,220.64,172.33,219Z"/><path class="cls-17" d="M172.33,219a5.75,5.75,0,0,0-2.31-4.67c-1.38-.92-2.59-.33-2.69,1.33a5.76,5.76,0,0,0,2.3,4.68C171,221.24,172.25,220.64,172.33,219Z"/><polygon class="cls-17" points="168.14 214.05 165.82 215.07 168.93 221.72 171.64 220.52 171.21 216.86 168.14 214.05"/><path class="cls-10" d="M170.07,220a5.77,5.77,0,0,0-2.31-4.68c-1.39-.92-2.59-.32-2.7,1.34a5.76,5.76,0,0,0,2.31,4.67C168.75,222.24,170,221.65,170.07,220Z"/><path class="cls-10" d="M170.07,220a5.77,5.77,0,0,0-2.31-4.68c-1.39-.92-2.59-.32-2.7,1.34a5.76,5.76,0,0,0,2.31,4.67C168.75,222.24,170,221.65,170.07,220Z"/></g><g id="_Группа_12" data-name=" Группа 12"><path class="cls-17" d="M142.2,199.47a5.78,5.78,0,0,0-2.28-4.67c-1.38-.93-2.6-.32-2.7,1.3a5.76,5.76,0,0,0,2.31,4.67C140.88,201.73,142.09,201.13,142.2,199.47Z"/><path class="cls-17" d="M142.2,199.47a5.78,5.78,0,0,0-2.28-4.67c-1.38-.93-2.6-.32-2.7,1.3a5.76,5.76,0,0,0,2.31,4.67C140.88,201.73,142.09,201.13,142.2,199.47Z"/><polygon class="cls-17" points="137.99 194.54 135.67 195.56 138.78 202.2 141.49 201.01 141.06 197.35 137.99 194.54"/><path class="cls-10" d="M139.92,200.48a5.81,5.81,0,0,0-2.32-4.68c-1.38-.92-2.59-.33-2.7,1.33a5.8,5.8,0,0,0,2.31,4.68C138.62,202.73,139.81,202.13,139.92,200.48Z"/><path class="cls-10" d="M139.92,200.48a5.81,5.81,0,0,0-2.32-4.68c-1.38-.92-2.59-.33-2.7,1.33a5.8,5.8,0,0,0,2.31,4.68C138.62,202.73,139.81,202.13,139.92,200.48Z"/></g><g id="_Группа_13" data-name=" Группа 13"><path class="cls-17" d="M142.51,217.81a5.76,5.76,0,0,0-2.31-4.67c-1.38-.93-2.59-.33-2.7,1.33a5.75,5.75,0,0,0,2.31,4.67C141.17,220.08,142.38,219.48,142.51,217.81Z"/><path class="cls-17" d="M142.51,217.81a5.76,5.76,0,0,0-2.31-4.67c-1.38-.93-2.59-.33-2.7,1.33a5.75,5.75,0,0,0,2.31,4.67C141.17,220.08,142.38,219.48,142.51,217.81Z"/><polygon class="cls-17" points="138.28 212.89 135.96 213.92 139.06 220.56 141.78 219.36 141.34 215.71 138.28 212.89"/><path class="cls-10" d="M140.2,218.83a5.77,5.77,0,0,0-2.31-4.68c-1.38-.92-2.59-.32-2.7,1.34a5.75,5.75,0,0,0,2.31,4.67C138.89,221.06,140.09,220.49,140.2,218.83Z"/><path class="cls-10" d="M140.2,218.83a5.77,5.77,0,0,0-2.31-4.68c-1.38-.92-2.59-.32-2.7,1.34a5.75,5.75,0,0,0,2.31,4.67C138.89,221.06,140.09,220.49,140.2,218.83Z"/></g><g id="_Группа_14" data-name=" Группа 14"><path class="cls-17" d="M174,202.18a5.81,5.81,0,0,0-2.31-4.68c-1.39-.92-2.59-.32-2.7,1.34a5.75,5.75,0,0,0,2.31,4.67C172.68,204.43,173.89,203.84,174,202.18Z"/><path class="cls-17" d="M174,202.18a5.81,5.81,0,0,0-2.31-4.68c-1.39-.92-2.59-.32-2.7,1.34a5.75,5.75,0,0,0,2.31,4.67C172.68,204.43,173.89,203.84,174,202.18Z"/><polygon class="cls-17" points="169.78 197.25 167.47 198.27 170.57 204.91 173.28 203.72 172.86 200.06 169.78 197.25"/><path class="cls-10" d="M171.68,203.18a5.76,5.76,0,0,0-2.3-4.67c-1.39-.92-2.6-.33-2.7,1.33a5.74,5.74,0,0,0,2.31,4.68C170.39,205.44,171.61,204.85,171.68,203.18Z"/><path class="cls-10" d="M171.68,203.18a5.76,5.76,0,0,0-2.3-4.67c-1.39-.92-2.6-.33-2.7,1.33a5.74,5.74,0,0,0,2.31,4.68C170.39,205.44,171.61,204.85,171.68,203.18Z"/></g><path class="cls-9" d="M135.73,210.16l12-5.9-11.08-7.39c-1.83-1.21-1.71-3,.26-4h0a7.62,7.62,0,0,1,6.86.45l11.09,7.39,11.94-5.9a7.61,7.61,0,0,1,6.87.44c1.82,1.21,1.71,3-.26,4l-11.94,5.9,11.09,7.39c1.81,1.22,1.69,3-.26,4h0a7.66,7.66,0,0,1-6.88-.45l-11.08-7.39-12,5.9a7.61,7.61,0,0,1-6.87-.44C133.65,212.92,133.77,211.13,135.73,210.16Z"/><path class="cls-9" d="M135.73,210.16l12-5.9-11.08-7.39c-1.83-1.21-1.71-3,.26-4h0a7.62,7.62,0,0,1,6.86.45l11.09,7.39,11.94-5.9a7.61,7.61,0,0,1,6.87.44c1.82,1.21,1.71,3-.26,4l-11.94,5.9,11.09,7.39c1.81,1.22,1.69,3-.26,4h0a7.66,7.66,0,0,1-6.88-.45l-11.08-7.39-12,5.9a7.61,7.61,0,0,1-6.87-.44C133.65,212.92,133.77,211.13,135.73,210.16Z"/></g><g id="_Группа_15" data-name=" Группа 15"><path class="cls-6" d="M160.36,204.88c-.15,2.15-2.86,3.73-6.06,3.52s-5.68-2.11-5.54-4.26,3-5.55,6.16-5.35S160.49,202.73,160.36,204.88Z"/></g><g id="_Группа_16" data-name=" Группа 16"><path class="cls-9" d="M159,201.92c-.11,1.59-2.09,2.74-4.45,2.6s-4.16-1.56-4.06-3.13,2.09-2.74,4.43-2.6S159.1,200.35,159,201.92Z"/></g><path class="cls-6" d="M156.73,171a2.63,2.63,0,0,1,2.43,2.8l-1.65,25.39a2.6,2.6,0,1,1-5.19-.34L154,173.46a2.6,2.6,0,0,1,2.72-2.47Z"/><path class="cls-10" d="M201.66,126.18l-6.87,43.23a7.49,7.49,0,0,1-4,5.49L154,193.48a7.46,7.46,0,0,1-7.37-.36l-26.28-16.71A12.41,12.41,0,0,1,114.58,166h0a5.28,5.28,0,0,1,8.2-4.47l17,11.21a4.53,4.53,0,0,0,6.28-1.32,4.23,4.23,0,0,0,.4-.76l12.94-32.06a3.85,3.85,0,0,1,2.11-2.14L196.32,122a3.89,3.89,0,0,1,5.34,4.21Z"/></g><path class="cls-17" d="M63.47,85.62h0a.81.81,0,0,1,0-.22A.25.25,0,0,0,63.47,85.62Z"/><path class="cls-25" d="M62.77,83.43a.81.81,0,0,1-.59,0,.94.94,0,0,0,0-.16Z"/><path class="cls-25" d="M65.63,92.69a1.77,1.77,0,0,1,.32,0l-.85-.82Z"/><path class="cls-18" d="M51.69,99c1.45,2.13,6.31,1.37,11-1.69-1.29-.38-2.55-.65-3.7-.91a22.76,22.76,0,0,0-7.41-.28A3.18,3.18,0,0,0,51.69,99Z"/><path class="cls-18" d="M45.09,201.85,41.75,158l.86-9.92,20.48,3.1,11.85-5.3,4.13,54.8s-5.83,35.21-5.86,35.6a25.05,25.05,0,0,0-.45,5.32,9.73,9.73,0,0,1-7-2.41,5.58,5.58,0,0,1,.34-1.94v-.06l-.65-33.36-6.24-38.25-.92,16.72L57.2,201.78l-2.86,31.59c-2.17,0-5.23-.07-7.4-.18l-.26-.13a4,4,0,0,1,.2-.58Z"/><path class="cls-15" d="M72.16,134.12,74.62,138a18.52,18.52,0,0,1,2.91,10.18L81.91,195a7.41,7.41,0,0,1-5.19,7.78c-8.57,2.64-24.64,5.84-33.26-3.63l-2.28-36.48a79.6,79.6,0,0,1,5.35-27.23Z"/><path class="cls-26" d="M43.38,130.45h-.06a4.53,4.53,0,0,1-4.13-4.91c0-.16,0-.32.07-.47l4-23.21a4.77,4.77,0,1,1,9.4,1.63l-1.59,9.15-1.56,9h0C48.72,125.94,48.79,130.78,43.38,130.45Z"/><path class="cls-4" d="M46.46,130.81a31.85,31.85,0,0,1-.08,4.37,2,2,0,0,0,.93,1.89,24.69,24.69,0,0,0,3.88,2c3.89,1.64,8.39,2.6,12.57,1.64l.49-.11c2.39-.65,7.61-2,8.08-5a1.55,1.55,0,0,0,0-.37,6,6,0,0,0,0-.85V121.09c1.3-3.89,3.68-6.62,2.49-11.52A17.51,17.51,0,0,0,72,103.32c-2.19-3-5.36-4.89-9.4-6.07-1.3-.36-2.55-.64-3.7-.9a22.22,22.22,0,0,0-7.41-.28,10.7,10.7,0,0,0-6.66,3,6.28,6.28,0,0,0-.55.7c-3.09,4.63-1.45,11.11-.33,16.14S46.27,125.75,46.46,130.81Z"/><polygon class="cls-18" points="52.09 97.58 61.4 97.58 62.55 90.73 63.41 85.57 54.1 85.57 52.09 97.58"/><polygon class="cls-18" points="56.48 90.56 61.11 97.58 61.4 97.58 62.55 90.73 56.48 90.56"/><path class="cls-18" d="M63.42,85.07h-.05a.74.74,0,0,1,0-.21A.23.23,0,0,0,63.42,85.07Z"/><path class="cls-18" d="M71.77,83.13c-.37.47-.94.12-1.62.65-1,.77-.59,2.14-.88,3.89-.07.44-.65,3.89-2.87,5-1,.55-2.52.3-5.53-.21-2.15-.36-3.24-.52-3.85-.91-2.21-1.43-3.24-4.5-3.8-7.4a28.57,28.57,0,0,1-.41-3.33,13.7,13.7,0,0,1,.34-3.78,10.84,10.84,0,0,1,4.41-6.21,15.14,15.14,0,0,1,6.7-2.29,5,5,0,0,1,3.36.44,3.13,3.13,0,0,1,1.36,2A2.48,2.48,0,0,1,69,72a14.37,14.37,0,0,0,.78,5.44C70.76,80.24,72.49,82.22,71.77,83.13Z"/><path class="cls-18" d="M62.83,83a.63.63,0,0,1-.52,0,.74.74,0,0,0,0-.14Z"/><path class="cls-21" d="M67.51,68.27c-3.41-3.54-9.61-3.72-14.21-2a13.58,13.58,0,0,0-5,3.39c-2,2.1-3.89,8.58-3.62,11.56s2.7,4.85,4.71,6.8a23.15,23.15,0,0,0,4.86,3.61,9.51,9.51,0,0,1,3.37-3.33c2.05-1.15,3.17-.65,4.45-2,.89-1,.81-1.74,2.14-3,.83-.75,1.07-.64,1.6-1.21C66.89,81,66.59,79.83,67,78c.72-3.24,2.54-3.51,2.52-5.7A6.09,6.09,0,0,0,67.51,68.27Z"/><path class="cls-18" d="M61.28,83a5.74,5.74,0,0,0,1.79,3.69,1.7,1.7,0,0,0,1.45.37c1.56-.41,1.41-2.88.93-4.09a2.76,2.76,0,0,0-2.08-1.81,1.86,1.86,0,0,0-2.08,1.64A1.27,1.27,0,0,0,61.28,83Z"/><path class="cls-11" d="M64.35,109.7c1.19-2.12,2.22-3.67,4.78-3.24A33.87,33.87,0,0,1,74.37,108c.16.51.32,1,.46,1.58,1.18,4.9-1.2,7.66-2.49,11.52v13.32a6,6,0,0,0,0,.85,2.21,2.21,0,0,1,0,.37c-.5,3-5.68,4.38-8.08,5l-.49.11V110.49A3.5,3.5,0,0,0,64.35,109.7Z"/><path class="cls-17" d="M46,135.15a31.16,31.16,0,0,0,.08-4.32v-.7l.65.33c6.19,3.35,12,6.48,21.9,2.32l1.08-.43a11.47,11.47,0,0,0,2.48-1.17l.65-.43v3.63a7.68,7.68,0,0,0,0,.85,1.75,1.75,0,0,1,0,.46c-.53,3.29-6,4.72-8.38,5.33a16.27,16.27,0,0,1-4,.49,24.41,24.41,0,0,1-9.26-2,27,27,0,0,1-4.05-2.05A2.44,2.44,0,0,1,46,135.15Z"/><path class="cls-18" d="M72.65,132.15a23.55,23.55,0,0,1,2.75-.46c1.3.41,2.44.77,2.53.75l15,16.31A3.29,3.29,0,0,1,94.11,151a3.84,3.84,0,0,1,0,.48,3.24,3.24,0,0,1-.76,1.95,3.31,3.31,0,0,1-4.66.45L71.06,138.31l0,0a3.59,3.59,0,0,1,1.63-6.12Z"/><path class="cls-18" d="M89.82,156.48c.07-2.11.69-6.28,2.85-6.78a2.16,2.16,0,0,1,1.07,0c1.89.54,2.54,3.33,3,5.19.4,1.68.6,2.52.33,3.38-.77,2.46-4.27,4.24-6,3.19C89.69,160.69,89.76,158.49,89.82,156.48Z"/><path class="cls-18" d="M95.18,154.59a1.52,1.52,0,0,1,1,.31,2.64,2.64,0,0,1,.89,2.23l.58,7.24A1.43,1.43,0,0,1,96.48,166l-.18-.42c-.11-.25-.21-.52-.31-.8a14.45,14.45,0,0,1-.65-2.67c-.46-1.95-.94-3.89-1.4-5.89A1.42,1.42,0,0,1,95.18,154.59Z"/><path class="cls-4" d="M74.33,137.37h-.07a4.77,4.77,0,0,1-5.65-3.67c0-.14,0-.27-.07-.41L65.3,109a5,5,0,0,1,9.86-1.3l1.29,9.58,1.3,9.44h0C78.22,131.21,79.8,136,74.33,137.37Z"/><path class="cls-21" d="M48.93,69.56c-5,.27-11,1.22-13,5.83-1.4,3.32,0,7.14-.51,10.73-.69,4.46-4.29,7.78-7.1,11.31s-4.95,8.63-2.46,12.4a11.53,11.53,0,0,1,1.52,2.31c.72,2-.72,4-1.73,5.89a16.39,16.39,0,0,0,1.18,17.19,7.9,7.9,0,0,0,4.54,3.31c3.76.77,7.07-2.67,8.75-6.12A27.55,27.55,0,0,0,42.58,116a8.47,8.47,0,0,1-.1-4.09c.64-2,2.8-3,4.45-4.28a12.16,12.16,0,0,0,2.86-15.33c-1-1.68-2.48-3.25-2.44-5.23.08-3.66,5-5,6.91-8.15,1.17-2,.25-5.19-1.51-7.13a6.28,6.28,0,0,0-2.2-1.58Z"/><path class="cls-17" d="M219.82,47.5l0,0a.6.6,0,0,1,0-.19A.19.19,0,0,0,219.82,47.5Z"/><path class="cls-18" d="M101.83,54.24a1.72,1.72,0,0,1-.64.1h0l.13-4.53h0S103,49.87,103,51a9.18,9.18,0,0,1-.08,1.39,6.4,6.4,0,0,1-.14.75,1.12,1.12,0,0,1-.08.26,1.21,1.21,0,0,1-.2.3,2.79,2.79,0,0,1-.65.54Z"/><path class="cls-18" d="M101.48,49.78l-.27,4.54a1.92,1.92,0,0,1-.65-.18,2.75,2.75,0,0,1-.59-.59,3.07,3.07,0,0,1-.17-.31,1.31,1.31,0,0,1-.06-.27c0-.19,0-.45-.07-.76a9.23,9.23,0,0,1,0-1.39C99.81,49.7,101.48,49.78,101.48,49.78Z"/><path class="cls-18" d="M100.31,54.62a.44.44,0,0,1,.1-.19c.11-.11.27-.09.43-.09a2.38,2.38,0,0,0,.65-.1h0a2.4,2.4,0,0,0,.31-.78c.3-.17.44-.14.51-.1s0,.5.22.94a1.38,1.38,0,0,0,.48.61l2.14.12h0l.65.56-3.49,1.75h0L98.78,59.1l0-.87.37-.5c.37-.5.74-1,1.12-1.48a1.67,1.67,0,0,0,.24-.69A1.8,1.8,0,0,0,100.31,54.62Z"/><path class="cls-20" d="M103,54.9a2.05,2.05,0,0,1,.51.07c.19,0,.35,0,.73,0h.91l.65.56-3.48,1.78h0L98.78,59.1l0-.87.37-.5c.37-.5.74-1,1.12-1.48a2.84,2.84,0,0,0,1.64-.56C102.24,55.35,102.51,54.89,103,54.9Z"/><path class="cls-27" d="M99.91,51.81a1.14,1.14,0,0,1,.37,0h.28a.65.65,0,0,1,.28,0h.07c0-.08-.14-.1-.21-.12l-.22,0h-.23l-.19.07-.11,0h-.07S99.9,51.81,99.91,51.81Z"/><path class="cls-27" d="M102.53,51.65h0l-.11,0a.65.65,0,0,0-.2,0,.88.88,0,0,0-.23,0l-.21.07c-.07,0-.19.06-.19.13h.07a1.1,1.1,0,0,1,.26-.06l.29,0a1.15,1.15,0,0,1,.37,0S102.55,51.65,102.53,51.65Z"/><path class="cls-27" d="M103.32,50.64a1.78,1.78,0,0,0-.4-.88c-.09-.1-.49-.46-.21-.57-.14-.14-.32,0-.34.16a.75.75,0,0,0-.07.18c-.06-.29,0-.51-.35-.65-.52-.24-1,.39-1.54.43-.24,0-.68.11-.76-.19a.64.64,0,0,0-.1.13.25.25,0,0,0,0,.17.31.31,0,0,0,.25.26c-.17,0-.27,0-.37-.13,0,.09,0,.13.09.2a.44.44,0,0,1-.3-.2c-.09.1,0,.24,0,.33a1.17,1.17,0,0,0,.3.19,6.28,6.28,0,0,1-.23.85c0,.15.12.54.16.49s.14.55.15.65a2.4,2.4,0,0,0,.12-.38c0-.06,0-.12,0-.18a.61.61,0,0,1,0-.29c0-.1,0,0,0,0,.12-.43.53-.5,1-.43h0a1.51,1.51,0,0,0,.83-.18,1.59,1.59,0,0,0,.37-.27h0s.07-.11.11-.13,0,.24.1.34a1.78,1.78,0,0,1,.23.31c.12.22.32.7.35.71s.06.29.08.44h0c0-.13.07-.5.07-.65S103.35,50.89,103.32,50.64Z"/><path class="cls-13" d="M100.17,55.78a4.14,4.14,0,0,0,1.48-.37,4.09,4.09,0,0,0,1.22-.8l.64.36h0a11.53,11.53,0,0,0-1.48.94,14,14,0,0,1-2,.59h0Z"/><path class="cls-5" d="M73.3,241.39c3,2.16,2.74,4.17,7.3,3a8.4,8.4,0,0,0,4-1.89,3.12,3.12,0,0,0,.75-3.77,5.05,5.05,0,0,0-3.3-1.84,20.31,20.31,0,0,0-6.55-.38,5.63,5.63,0,0,0-2.94,1C70.88,238.83,71.93,240.43,73.3,241.39Z"/><path class="cls-18" d="M71.84,232.91a8.36,8.36,0,0,1,2.06,1.48,29.62,29.62,0,0,1,6.23,6.37,5.37,5.37,0,0,1-3.72,2.93,24.78,24.78,0,0,1-2.89-1,15.71,15.71,0,0,1-6.38-5.29c-.2-.28-.38-.65-.19-.93L69.5,234c2.54-2.47,6.32,1.05,8.89,2.4,1,.51,2.08,1.21,2.11,2.31s-.9,1.8-1.83,2.24a8.88,8.88,0,0,1-2.94.81Z"/><rect class="cls-5" x="65.08" y="236.84" width="3.55" height="8.49" rx="1.18" ry="1.18"/><path class="cls-5" d="M65.46,233.37a4,4,0,0,1,3.69.54c1.79,1.08,3.11,2.84,4.67,4.2,2.15,1.86,4.32,2.91,7,1.71.86.52,1.47,1.13,1.45,1.83,0,1-1.87,2.32-2.67,2.87-2.53,1.74-6.59-1.05-8.65-2.1-1.62-.82-3.34-.64-4.88-1.35C64,240.16,63.29,235.32,65.46,233.37Z"/><path class="cls-18" d="M60.47,235.53a4.62,4.62,0,0,0,.94-2.69,2.87,2.87,0,0,0-1.57-2.45,6.89,6.89,0,0,0-1.16-.56c-2.18-.85-5-3.05-7.67-3.06a2.28,2.28,0,0,0-.76-.3l.14.35A4.49,4.49,0,0,0,47.21,229l-.13.19c2.15,1.18,3.8.73,5.72,2.32C55.23,233.5,57.66,237.19,60.47,235.53Z"/><path class="cls-5" d="M64.61,230.2c-.55-1-2.52-1.3-3.61-1.3a10.18,10.18,0,0,0-1.74.12,1.25,1.25,0,0,0-.65.32c0,.08.1.15.14.23a5,5,0,0,1,.57,1.66.4.4,0,0,1-.19.46,3.18,3.18,0,0,1-1.69.65c-1.8,1-4.19-1.56-5.69-2.92-1.13-1-1.65-.82-2.86-1.54l-.2-.11a2.58,2.58,0,0,0-3.11.3,5.46,5.46,0,0,0-.41.75c-1,2.23-.37,6,2.43,6a21,21,0,0,1,4.15.72c5,2.52,8.92,3.71,12.22-1.66C64.85,232.47,65.24,231.38,64.61,230.2Z"/><rect class="cls-5" x="45.8" y="230.56" width="3.55" height="8.49" rx="1.18" ry="1.18"/></g></g></svg>