<svg id="Слой_1" data-name="Слой 1" xmlns="http://www.w3.org/2000/svg" viewBox="0 0 1000 1000"><defs><style>.cls-1{fill:#d2fcff}.cls-2{fill:#3dffde}.cls-3{opacity:.34}.cls-4{fill:#7ec9f7}.cls-5{fill:#6e84b8}.cls-6{fill:#93a5d0}.cls-7{fill:#fff}.cls-8{fill:#262766}.cls-10,.cls-9{fill:none;stroke-miterlimit:10}.cls-9{stroke:#88a9dd}.cls-10{stroke:#6e84b8}.cls-11{fill:url(#Безымянный_градиент_86)}</style><linearGradient id="Безымянный_градиент_86" data-name="Безымянный градиент 86" x1="370.36" y1="306.18" x2="697.73" y2="306.18" gradientUnits="userSpaceOnUse"><stop offset="0" stop-color="#ab82e4"/><stop offset=".36" stop-color="#8b92ed"/><stop offset=".96" stop-color="#0066b0"/></linearGradient></defs><title>инструкцияМонтажная область 1 копия 3</title><path class="cls-1" d="M961.2 528.2c-5-40.2-14.7-79.2-25.4-112-14.3-43.6-36-88.9-71.2-119.4-37.5-32.5-85.3-50.1-133.1-60.8-66.3-14.9-135.8-17.8-202.5-4.7-55.1 10.9-108.3 32.9-153.8 65.9-42.8 30.9-79.6 83.5-136.4 47.1-16.8-10.7-32.2-24.6-51.4-29.7-24-6.5-50.1 2.1-70.1 16.9-100.8 74.4-96.5 225.6 3.7 298 59.8 43.2 74.9 46.2 144 70.8 73.5 26.3 149.2 46.4 225.8 61.2 116.7 22.5 240 52.7 356.9 14.7 108.5-35.3 126.2-145.6 113.5-248z"/><path class="cls-2" d="M326.4 272c-18.6 32.1-29.8 69.8-52.9 99.6s-53.1 56.3-81.6 82.3c-55.5 50.6-115.2 106-120.4 186-4.2 63.7 59 117.9 116.1 132 51.5 12.7 116.2-1 168.6-7.4 62.6-7.7 125-19.9 184.2-42.2 223.6-84 470-312.5 286.5-558.9C771.2 88.5 673.1 58.7 599.8 124c-23.6 21-45.3 45.4-73.9 59.2-47.3 22.7-106.1 12.6-151.6 38.7-21.9 12.5-36.3 30.2-47.9 50.1z"/><g class="cls-3"><path class="cls-4" d="M221.7 448.4c-9.3-13.8-27.3-21.2-43.1-14.1a31.8 31.8 0 0 0-16.1 16c-4 9.1-2.3 19.3 1 28.4 7.3 20.5 18.8 40.2 30.9 58.3a340.4 340.4 0 0 0 42.2 51.4 510.8 510.8 0 0 0 103.6 80.9 428.3 428.3 0 0 0 124.9 48.5c21.6 4.7 43.7 7.4 65.9 6.6s45.8-4.3 66.2-12.9c16.6-6.9 30.4-21.5 41.5-35.2 6-7.3 11.5-15.3 14.7-24.3s2.7-18.5 1.6-27.9c-2.1-17.6-8.8-35.1-24.2-45.1s-38.4-11.9-57.7-12.5c-24.5-.8-48.5 2.1-72.6 5.8s-47.4 5.5-71.3 4.4c-46-2.2-92.2-14.6-133.6-34.9-17.8-8.8-31.9-23.9-44.3-39.2-7.6-9.3-10.2-21.2-15.3-31.9a147.4 147.4 0 0 0-15.4-24.4c-1.2-1.6-3.8-.1-2.6 1.5 9.5 12.6 16.1 25.6 21.8 40.2 4.8 12.4 13.1 21.4 22 31.1a133.3 133.3 0 0 0 19.3 17.5c8.1 5.8 17.2 9.9 26.3 13.8a371.6 371.6 0 0 0 60 20.3 329.9 329.9 0 0 0 125.2 5.8c23.5-3.4 46.8-7.2 70.6-7.2 20.4 0 43.7.3 62.1 10s25.4 29.1 27.1 48.7c.9 10.5.2 19.9-4.6 29.5s-10.9 16.7-17.6 24.1a130.7 130.7 0 0 1-20.4 18.9c-8.3 6.2-17 9.7-26.9 12.6a219.9 219.9 0 0 1-66 8.4c-21.9-.6-43.4-4.4-64.6-9.8a456.6 456.6 0 0 1-61.2-20.2c-38.6-16.1-74.4-38.6-107.1-64.7s-64.7-57.4-88.5-93.5c-11.6-17.6-23.1-37-29.7-57.1-3.5-10.3-4.1-21.5 2.9-30.5a29.3 29.3 0 0 1 25.2-11.1c10.3.8 19.5 6.9 25.2 15.3 1.1 1.6 3.7.1 2.6-1.5z"/><path class="cls-4" d="M222.5 491c-9.6-9.9-9.8-27.2-23.9-33.1-4.9-2-11.4-1.4-15.4 2.4s-2.5 11.9.3 17.4c9.3 18.3 22.2 34.9 34.2 51.5s23.5 32 36.5 47c51.5 59 122.2 94.7 196.4 116.3 35.9 10.4 75.1 16.3 112.3 9.7 29.9-5.3 60.9-26.3 67.4-57.6 2.9-13.5.5-29.7-10-39.5-6-5.6-13.8-7.5-21.9-8-10.9-.6-21.8-.5-32.7-.5-44.8-.1-89.7 1.4-134.4-2.2-70.2-5.7-144.7-26.5-192.5-81.5a178.1 178.1 0 0 1-16.1-21.6c-1-1.6-3.6-.1-2.6 1.5 34.2 53.8 93.8 83.7 154.6 96.7 38 8.1 77.1 9.9 115.9 10.3 21.1.2 42.3-.1 63.4-.2 10.4 0 20.8 0 31.2.2s21.2-.7 29.8 4.9c14 9.3 15.7 29.1 11.2 43.8s-15.9 28.2-29.2 37c-29.9 19.6-69.1 18.4-103.2 13.5-35.7-5.1-71.1-17.1-104.2-31.1s-65.8-32.8-94.3-55.9-53.7-54.6-76.1-85.8c-11.2-15.6-23.3-31.2-32.3-48.4-2.2-4.2-5.8-10.2-2.1-14.7s8-4 12-2.7c7.4 2.5 11.1 10 14.1 16.6s5 11.5 9.4 16.1a1.5 1.5 0 0 0 2.2-2.1z"/><path class="cls-4" d="M575.3 620.1c13.7 1.1 25.4 14 24.5 27.9s-15.7 25.4-29.2 29.1c-16 4.3-33.8 3.7-50.3 3.3a339 339 0 0 1-51.2-5.1c-15.8-2.9-32.5-6.6-47-13.7-12.8-6.3-21.6-17.8-33.7-25.2s-26.5-7.6-39.5-11.8c-8.4-2.8-15.6-7.4-22.9-12.2-12.2-8.1-24.2-16.4-35.9-25.1a190.8 190.8 0 0 1-19-15.7c-1.6-1.5-8.3-7.2-6.5-9.8s14.8 2 17.6 3.2a243.8 243.8 0 0 1 24.5 13.7c7.5 4.6 14.8 9.4 22.3 13.8a65.3 65.3 0 0 0 24.5 8.7c32.1 5 63.9 11.1 96.2 14.3s67.3 4.8 101.1 4.9c8.2 0 16.3-.1 24.5-.3a1.5 1.5 0 0 0 0-3 1079.5 1079.5 0 0 1-109.4-3.2c-18.5-1.5-37.1-3.5-55.5-6.2s-35.6-6.3-53.5-9c-6.4-1-13.2-1.9-19.1-4.7a89.5 89.5 0 0 1-9.1-5.2c-8.5-5.1-16.7-10.5-25.2-15.6s-16.5-9.8-25.5-13.1c-4.2-1.6-11.5-4.2-15.4-.5-10.2 9.6 52.4 49 59.9 54s12.8 8.8 20 11.8a124.6 124.6 0 0 0 20 6c8.2 1.7 16.4 2.8 23.7 7.2 13.5 7.9 22.9 20.7 37.5 27s32.6 10.6 49.3 13.4a336.1 336.1 0 0 0 52.1 4.4c16.8.2 35.4.9 51.4-5.1 11.5-4.3 22.2-13 25.5-25.2s-2.3-23.2-11.3-30.1a28.7 28.7 0 0 0-15.4-5.9c-1.9-.1-1.9 2.9 0 3z"/><path class="cls-4" d="M551.1 642.9c7.7-1.6 17.6-6.4 22.9 2.3s-6.8 15.9-14.4 16.7c-10.1 1.1-20.7.9-30.9 1.1s-21.6.2-32.4-.3a244.4 244.4 0 0 1-33.2-3.7c-9.7-1.8-19.8-4-28.1-9.7-5.2-3.7-11.1-10.1-4.4-15.6 4.3-3.7 10.4-4 15.9-3.6 11.2.7 22 5.1 32.9 7.6a224.9 224.9 0 0 0 71.3 5.2c1.9-.1 1.9-3.1 0-3-28.9 2.5-57.2-1.1-85-8.9-10.2-2.9-23.1-6.7-33.4-1.9-8 3.7-10.3 11.8-4 18.4 7.8 8.3 19.7 11.5 30.4 13.7a249.1 249.1 0 0 0 39.4 4.6c13.9.5 27.8.3 41.7-.1 10.2-.4 22 1 31-4.9 6.9-4.5 10.3-11.7 4.6-18.8s-16.4-3.8-25.1-2c-1.9.4-1.1 3.3.8 2.9z"/><path class="cls-4" d="M250 458.7c7.9 19 15.6 39.1 30.7 53.6s37.9 22.4 58.5 28.6a426.8 426.8 0 0 0 142.5 17.4c24.2-1.2 47.9-4.8 71.6-9.5 12.5-2.5 25.2-4.9 37.9-4.4s22.9 4.4 33.7 8.8 20.9 10.1 28.3 19.2a102.7 102.7 0 0 1 17.3 31.4c3.9 11.6 3.9 24.2 3.1 36.3s-2.4 24.7-6.6 36.3c-15.9 43.9-64.8 60.7-107.4 63.3-12.5.8-25 .6-37.5.2s-26.3-1.1-39.3-3.6-25.1-6-37.6-8.8-23.4-5.5-35-8.9c-24-7.2-46-18-68.4-29.2-11.4-5.8-22.9-11.3-34.2-17.2-9.3-4.8-17.3-11.5-25.3-18.1-16.1-13.3-32.8-25.9-47.7-40.6a317.4 317.4 0 0 1-39.1-46.7 396.4 396.4 0 0 1-28.8-49.7c-9.7-19.9-20.6-40.9-22.4-63.3-.9-11-.9-22.2 5.2-31.8s18.7-14 30.8-13.2c20.3 1.3 39.6 11.3 53.5 25.9a89.1 89.1 0 0 1 16.3 24.4c.8 1.7 3.4.2 2.6-1.5a89.6 89.6 0 0 0-39.4-42.2c-16.1-8.6-40.3-15.1-57-4.5s-16.9 35.6-13.6 53.9c2 11.1 6.8 21.5 11.2 31.8s8.8 19.3 13.6 28.7c18.9 37.1 43.4 70.8 74.1 99 8.1 7.4 16.7 14.4 25.4 21.2s16.2 13.5 24.6 19.9 19.7 12.1 30.2 17.3l36.9 18.5a339.3 339.3 0 0 0 69.8 25.5l38.4 9.1c12.6 3 25.3 5.8 38.3 6.5 45.8 2.6 97.3 3.2 135.5-26.1a87.3 87.3 0 0 0 32.9-52.7c4.6-22.1 6.4-48-3.7-68.8-4.8-10-10-20.1-17.8-28.1S634.8 554 624.9 550s-21.8-8.1-33.7-8.6-24.1 1.6-35.9 3.9c-26 5.1-51.7 9.2-78.2 10.2a423.3 423.3 0 0 1-78.7-4.4 417.1 417.1 0 0 1-73.9-18c-11.5-4-22.9-8.7-33-15.8s-17.8-16.5-23.8-27.2-10.3-21.3-14.8-32.2c-.8-1.7-3.7-1-2.9.8z"/><path class="cls-4" d="M215.9 392.2c24.4 6.5 42.3 25.9 56.6 45.7 7.7 10.5 12.1 21.2 15.2 33.7a53.4 53.4 0 0 0 13 23.9c15 16 37.5 20.4 57.5 27.2 13 4.4 26 8.7 39.3 12.1s26.1 4.9 39.3 6.3c27.3 2.8 54.4 3 81.2-3.7 13-3.3 25.8-7.5 38.9-10.5a138.6 138.6 0 0 1 42.1-3c13.7 1.2 28.3 2.6 41.4 6.9a56.9 56.9 0 0 1 27 19c13.8 17.3 19.3 40.3 21.7 61.9 2.9 25.5 2 52.8-9.6 76.2s-32.1 40-54.2 51.6c-49.5 25.8-107.5 23.8-160.7 12.7-27.5-5.7-54.5-13.8-81.3-22.5-24.8-8-49.3-16.1-72.4-28.5a302.4 302.4 0 0 1-60.8-43.5c-7.8-7.1-15-14.8-22.8-22.1s-15.6-14.2-23.1-21.6c-15.7-15.7-26.8-35.4-37.9-54.5a512.1 512.1 0 0 1-31.4-64.5c-9.6-23.9-17.4-51-8.1-76.2 3.8-10 10.1-19.2 20.1-23.7s20.9-5.3 31.4-5.5a241.9 241.9 0 0 1 38 2.6c2 .3 1.9-2.7 0-3-22.2-3-48.5-6.2-69.8 2.9-19.5 8.3-26.7 31.5-26.8 51.1-.2 27.2 12 53.2 23 77.4a536.2 536.2 0 0 0 34 61.7c5.8 9.3 11.3 18.7 18.7 26.8s15.6 15.6 23.7 23.1c17.3 15.8 33.2 32.7 51.9 46.9a293.3 293.3 0 0 0 64 36.9c26.5 11.1 54.7 19.4 82.4 27.4 54.2 15.7 112.9 27.3 168.9 13.8 48.1-11.7 95.1-43.7 104.8-95.1 4.4-23.6 2.8-49.1-2.7-72.4-4.6-19.7-13.2-40-29.6-52.7-9.8-7.5-21.4-10.8-33.3-12.7-13.8-2.2-27.8-4.2-41.7-4-28.6.6-54.9 13.2-82.8 17.6-14.9 2.4-30.1 2.6-45.1 1.7a354.3 354.3 0 0 1-44.9-4.9c-14.1-2.7-27.8-6.9-41.4-11.3s-26.3-8.5-39.4-13.1c-10.6-3.7-20.7-9.4-28.3-17.8a51.1 51.1 0 0 1-8.3-12.8c-2.6-5.8-3.4-12-5.2-18-3.4-11.2-9.8-21.1-17-30.2s-15.5-19.1-25-26.8a79.6 79.6 0 0 0-29.7-15.4c-1.8-.5-2.6 2.4-.8 2.9z"/><path class="cls-4" d="M291.1 422.3c10.2 10.3 15.1 22.5 21.2 35.4 5 10.9 11.4 20.9 21.1 28.3s19.9 11.5 30.6 15.4a316 316 0 0 0 40.4 11.7 280.7 280.7 0 0 0 83.8 5.4c29-2.6 56.6-11.6 85-17.6s57.1-8.1 83 4c23.1 10.8 39.7 32.4 48.3 56 10.1 27.6 10.5 58.3 6.3 87.1-3.8 26.8-12.7 53.4-29.3 75.2-31.8 41.9-85.5 60.3-136.5 61.5-30.3.7-60.4-4-89.8-10.8a817.5 817.5 0 0 1-82.5-23.8c-50.7-17.7-100.2-42-140.7-77.7-20.8-18.2-39.1-39-55.9-61s-32.2-44.2-46.6-67.3-27.1-48.6-31.5-75.9a109.6 109.6 0 0 1 1.6-42.3c3-12.7 8-26.1 16.7-36.1s19-14.9 30.2-19.1 24.1-7.6 36.5-7.4 28 4.7 40.6 9.8a125.6 125.6 0 0 1 36.8 22.2c10.2 8.9 21 17.5 30.7 27 1.4 1.3 3.5-.8 2.1-2.1-10.5-10.3-22.2-19.8-33.4-29.3a124.7 124.7 0 0 0-35.4-20.7c-12.2-4.9-25.4-8.8-38.6-9.7s-25.4 2.1-37.2 6.2-20.7 8.4-29.1 15.7-14.7 18.4-18.8 29.5c-9.8 26.3-8.4 54.2.3 80.6s23.8 50.5 39.4 73.6 31.5 46 49.5 67.3 37.8 40.8 60.1 57.4 46.8 30.6 72.1 42.2a600.8 600.8 0 0 0 79.1 29.4c29.8 8.9 59.9 17 90.7 21.6 53.9 8.1 111.6 3.9 158-27.3a140.3 140.3 0 0 0 49-56.5c11.6-24.9 16.6-52.7 17.2-80s-3.8-56.1-18.1-80.1c-12.8-21.4-32.5-37.6-56.8-43.6-28.3-7.1-57.7-1.5-85.4 5.3-30.3 7.5-59.9 14.8-91.3 14.8a288.4 288.4 0 0 1-89.3-14.5c-12.5-4.1-25.4-8.5-36.4-15.9s-19.4-20-25.4-33.2-10.7-23.3-20.2-32.8a1.5 1.5 0 1 0-2.1 2.1z"/></g><g class="cls-3"><path class="cls-4" d="M751.5 396.1a142.3 142.3 0 0 0 32.5 11.3c8.6 1.8 18.5 3.4 26.7-.9 16.1-8.4 14.4-30 4.8-42.5-13-16.8-36.5-23.2-55.2-31.1-8.6-3.5-17-9.5-25.7-3.8-6.4 4.2-10.5 11.3-12 18.7-4 20.4 11 37.2 28.2 45.5 1.8.8 3.3-1.8 1.6-2.6-13.8-6.6-27-18.8-27.4-35.1-.2-7.5 2.2-15.3 7.4-20.8 2.8-2.9 6.8-5.8 11-5.3s8.7 3.2 12.6 4.9l27.2 11.3c8.2 3.6 16.5 7.5 23.4 13.3 11.9 10.2 20.2 30.9 5.7 42.8-8.2 6.7-19.9 4.4-29.3 2.3a139 139 0 0 1-30-10.6c-1.7-.8-3.2 1.7-1.5 2.6z"/><path class="cls-4" d="M773.6 422.3c9.3 2.7 18.6 5.3 28 7.3 7.1 1.4 14.4 2.3 21.3-.6 11.6-4.9 18.3-17.7 20-29.7 4.5-30.9-16.7-58.8-40.8-75.5a188.9 188.9 0 0 0-44.3-22.6c-13.1-4.6-27.1-4-39.5 2.6-25.3 13.3-29 44.3-17.9 68.5 14.7 32 50.5 45.4 82.1 54.1a1.5 1.5 0 0 0 .8-2.9c-25.9-7.1-53.8-16.7-71.4-38.3-15.8-19.4-21.9-51.5-2.8-71a45.2 45.2 0 0 1 35.8-12.9c14.5 1.3 29.3 9.7 41.9 16.7 24.8 13.7 48.2 34.9 52.9 64.2 2.3 14.4-.5 31.6-12.8 41-7.6 5.8-16.5 5.2-25.4 3.3s-18.1-4.4-27.1-7.1c-1.8-.5-2.6 2.4-.8 2.9z"/><path class="cls-4" d="M855.9 431.1c14.1-36.6 7.8-80-16.2-111.1-12.9-16.6-30.5-28.9-49.2-38.4s-40.7-20.1-62.1-19.1-34.4 16.3-43.7 33.9-19.9 40.7-18.5 62.7c1.4 20.2 13.4 36 28.7 48.2a318.3 318.3 0 0 0 55.4 34.8c19.8 9.8 41.5 16.4 63.8 13.1 18.3-2.7 36.1-12.3 43.9-29.8.8-1.8-1.8-3.3-2.6-1.5-6.8 15.3-21.5 24.2-37.5 27.6-18.2 3.8-36.6.3-53.7-6.5-19.1-7.6-36.7-18.8-53.7-30.2s-32.1-23.2-38.5-41.7c-7.3-21.2.3-43.9 9.3-63.3 8.1-17.4 18.3-37.8 38.4-43s43.4 5.2 61.8 13.8 35.2 18.7 48.9 33.1c29 30.6 37.7 77.5 22.6 116.6-.6 1.8 2.3 2.6 2.9.8z"/><path class="cls-4" d="M875.9 431.6c15.1-45.5 5.8-97.8-23.6-135.6-16.5-21.2-39.2-36.3-62.9-48.3s-52.9-27.1-81-22c-22.6 4.1-40.9 20.9-52 40.3-13.9 24.3-16.8 53-17.7 80.5-.5 13.5-2.1 28.3 1.5 41.5s13.1 20.3 23.5 27.4c24.9 16.8 50.7 33.5 78 46.4s55.1 20.4 83.9 14.1c23.5-5.1 44.1-20.2 50.3-44.3.4-1.8-2.4-2.6-2.9-.8-5.5 21.6-23.2 35.6-44.2 41.2-24.4 6.6-50 2-73-7.2-25.2-10.1-48.7-24.9-71.5-39.5-11.4-7.3-25-14.3-34-24.6s-9.3-24.5-9-37.7c.5-27.7 1.1-56.5 11.5-82.7 8.3-20.8 24-40.3 45.4-48.6 26.7-10.4 54.6 1.8 78.9 13.3s45.9 23.9 63.8 42.4c35.9 37.3 48.3 94.5 32.1 143.4-.6 1.9 2.3 2.6 2.9.8z"/><path class="cls-4" d="M895.3 436.3c11-59.7 4.3-124.3-37.1-171.3-39.3-44.8-102-80-163.1-67.9-14.7 2.9-28.8 9.1-39.6 19.6S638.6 239 633.4 252c-12.6 31.5-18.3 66.5-18.9 100.3-.3 16.6.3 33.6 3.3 50s9.7 26.9 22.2 35.7 29.5 16.8 44.5 24 31.1 14.1 47 20.2 32.5 11.7 49 16.5c8 2.3 16.2 4.6 24.6 4.7s15.5-1.8 22.8-4.5 14-6 21-9.1 13.1-5.6 19.1-9.4c10.3-6.5 18.4-16.9 22.9-28.2 2-5.2 3-10.6 4.4-15.9.4-1.9-2.5-2.7-2.9-.8-1.3 5-2.3 10.1-4.1 15s-5.5 10.7-8.9 15.5c-8.1 11.4-21.7 16.7-34.1 22.2-14.7 6.4-29.1 13.8-45.6 11.8s-32.2-8.2-47.4-13.4a632.2 632.2 0 0 1-90.2-39.2c-13.1-7.1-28-14.2-35.5-27.9s-8.1-31.9-8.9-47.4a307.1 307.1 0 0 1 11.5-98.2c8-27.9 20.6-56.6 49-68.6s59.8-8.9 87.4.3 54.4 26.3 76.3 46.9 38.9 45.8 47.4 75.2c8.1 27.6 9.4 56.9 6.4 85.4-.8 7.5-2 15-3.3 22.4-.4 1.8 2.5 2.7 2.9.8z"/><path class="cls-4" d="M919.1 415.5c-.4-37-1.1-75-12.7-110.5a150.4 150.4 0 0 0-24.5-46.3c-12.2-15.5-27.2-28.4-42.3-41-28.6-23.9-59.6-49.6-98.4-52.8a81.1 81.1 0 0 0-27.3 2.3c-9.4 2.5-17.8 7.1-26.4 11.3s-19.7 7.2-30.2 9.6c-8.6 1.9-17 4.3-24.5 9-30.8 19.3-36.5 58.8-38.1 92-.9 20-2.4 39.7-4.5 59.6-1.8 17.6-3.4 35.6-1.1 53.3s8.1 32.2 19.2 44.8 27.3 21.9 42.9 29.3c18.2 8.6 36.7 16.5 55.3 24.2s40.1 16.2 61.1 21.1c34.8 8.3 71.6 6.6 102.2-13.4 24.4-15.9 42.1-41.3 47.5-70a105.7 105.7 0 0 0 1.8-22.5c-.1-1.9-3.1-1.9-3 0a104.2 104.2 0 0 1-33.3 78.6C858.2 517 825 526 791.9 522.7c-40.7-4.2-79.4-22.8-116.5-39-31.3-13.8-66.7-28-79-63-11.3-32.4-2.8-68.1-.2-101.1 2.8-36.3-1-77.4 23.9-107.3a59.7 59.7 0 0 1 18-14.8c8.4-4.4 17.8-6 27-8a117.9 117.9 0 0 0 25.5-9.2c8.6-4.2 17.1-8.7 26.6-10.8 38.7-8.9 75.1 13.8 104 37s58.1 46.2 74.3 79.4 19 68.6 20.1 103.8c.3 8.6.4 17.2.5 25.8a1.5 1.5 0 0 0 3 0z"/></g><path class="cls-5" d="M720.9 531.3s6.7-1.3 6.7 2.7-6.7 6.7-6.7 6.7L638 575.4l-82.8 34.8-74.8 32s-19.4 8.7-32.8 4.7L84.2 545.4z"/><path class="cls-6" d="M478 629l.4 8.6L718.9 536s4-1.3 4-6.7V524z"/><path class="cls-6" d="M478 629l.4 8.6s-12.1 9.3-37.4 2.6-343.5-90.8-343.5-90.8-25.2-4-18.6-16.1z"/><path class="cls-7" d="M434.3 629.5s29.4 8.1 56.1-5.3L718.9 528s9.3-5.7 0-9.5l-366.1-97.4s-6.7-2.7-17.4 0S92.2 521.3 92.2 521.3s-22.7 9.4-10.7 13.4 352.8 94.8 352.8 94.8zM730.2 202c-9.6-5-20.6-5.5-31-7.8-12.9-2.7-25.6-6.9-38.3-10.3l-75.4-20.7c-70.4-19.2-140.7-39-211.4-57.5-6.1-1.6-12.7-4.2-19.2-3.7s-14 12.5-12.8 18.4c0 0-1.4 248.6 0 275.3s20 25.4 20 25.4 336.7 90.9 354.1 96.2c4.7 1.4 8 1.1 10.4-.1a22.7 22.7 0 0 0 7-3.9 18.5 18.5 0 0 0 6.7-13.4V223.3c0-7.9-2.4-17.4-10.1-21.3z"/><path class="cls-8" d="M418.2 479.9l-21.3-5.4-18.8 8.1 20.1 5.3 20-8zm26.8 6.7l-21.4-5.4-18.7 8 20 5.4 20.1-8zm21.9 6.1l-21.1-5.2-18.5 7.9 19.8 5.3 19.8-8zm23.8 6.6l-21.2-5.2L451 502l19.9 5.3 19.8-8zm25.1 6.7l-21.2-5.3-18.5 7.9 19.9 5.3 19.8-7.9zm-121.6-33.1l-21.1-5.3-18.5 8 19.8 5.3 19.8-8z"/><path class="cls-8" d="M418 479.5l-21.1-5.3-18.5 8 19.8 5.3 19.8-8zm25.1 6.6l-21.1-5.2-18.5 7.9 19.8 5.3 19.8-8zm-121.5-33l-21.2-5.3-18.5 7.9 19.9 5.3 19.8-7.9zm23.8 6.6l-21.2-5.3-18.5 8 19.8 5.2 19.9-7.9zm25.1 6.6l-21.2-5.3-18.5 8 19.8 5.2 19.9-7.9zm170.7 47l-21.4-5.3-18.7 8 20 5.3 20.1-8zm24 6.7l-21.4-5.4-18.7 8.1 20.1 5.3 20-8zm25.4 5.3l-21.4-5.3-18.7 8 20.1 5.3 20-8zm24.1 6.7l-21.4-5.3-18.7 8 20 5.3 20.1-8zm36 9.4l-32-8.1-21.4 8.1 33.4 9.3 20-9.3zm-173.1-62l-21.2-5.3L438 482l19.8 5.3 19.8-7.9zm25.1 6.6l-21.1-5.3-18.5 7.9 19.8 5.3 19.8-7.9zm23.8 5.3l-21.2-5.3-18.5 7.9 19.9 5.3 19.8-7.9zm-121.6-31.7l-21.1-5.3-18.5 7.9 19.8 5.3 19.8-7.9zm40.1.2l-21.4-5.3-8.9 5 19.8 5.3 10.5-5zm24 6.7l-21.4-5.3-8.8 5 19.8 5.3 10.4-5zm24.1 5.4l-21.4-5.4-8.9 5.1 19.9 5.2 10.4-4.9zm24 8l-21.4-5.4-8.8 5.1 19.8 5.3 10.4-5zm24.1 5.3l-21.4-5.3-8.9 5 19.9 5.3 10.4-5zm28 6.7l-21.3-5.3-8.9 5 19.8 5.3 10.4-5zm22.7 6.7l-21.3-5.3-8.9 5 19.8 5.3 10.4-5zm25.4 6.7l-21.3-5.4-8.9 5.1 19.8 5.2 10.4-4.9zM640 512l-21.3-5.4-8.9 5 19.8 5.3L640 512zm25.4 6.6l-21.3-5.3-8.9 5 19.8 5.3 10.4-5zm24.1 6.7l-21.4-5.3-8.8 5 19.8 5.3 10.4-5zm-267.3-72.1l-21.3-5.4-8.9 5.1 19.8 5.2 10.4-4.9zm-25.3-6.7l-21.4-5.4-8.9 5.1 19.8 5.3 10.5-5zm-25.4-6.7l-30.8-8-12 5.3 32.4 7.7 10.4-5zm58.5 26.4l-21.1-5.3-18.5 7.9 19.8 5.3 19.8-7.9zm23.8 6.6l-21.1-5.3-18.5 7.9 19.8 5.3 19.8-7.9zM356 446.4l-32.6-7.9-17.4 8 30.2 7.8 19.8-7.9zm25.1 6.6l-21.1-5.3-18.5 7.9 19.8 5.3 19.8-7.9zm170.8 45.6l-21.4-5.3-18.7 8 20 5.3 20.1-8zm24 6.7l-21.4-5.4-18.7 8.1 20.1 5.3 20-8zm25.4 6.7l-21.4-5.4-18.7 8 20.1 5.4 20-8zm24.1 6.6l-21.4-5.3-18.7 8 20 5.4 20.1-8.1zm25.3 6.7l-21.3-5.3-18.7 8 20 5.3 20-8zm24.1 6.7l-21.4-5.3-18.7 8 20 5.3 20.1-8zm-90.9 8l-21.4-5.3-18.7 8 20.1 5.3 20-8zm41.5 12l-37.5-9.3-17.3 8 34.7 9.4 20.1-8.1zm-65.5-18.7l-21.4-5.3-18.7 8 20 5.4 20.1-8.1zm-24.1-6.6l-21.4-5.4-18.7 8 20.1 5.4 20-8zm-25.4-5.4l-21.3-5.3-18.8 8 20.1 5.3 20-8zm-25.4-6.7l-21.3-5.3-18.7 8 20 5.4 20-8.1zm-24-6.6l-21.4-5.4-18.7 8L441 516l20-8zm-24.1-6.7l-21.3-5.4-18.7 8 20 5.4 20-8zm-24-6.7l-21.4-5.4-18.7 8.1 20 5.3 20.1-8zm-26.7-5.4l-21.4-5.3-18.7 8 20 5.4 20.1-8.1zm-24.1-6.6l-21.4-5.4-18.7 8 20.1 5.4 20-8zm-24-6.7l-21.4-5.4-18.7 8.1 20 5.3 20.1-8zM546.5 548l-21.4-5.3-18.7 8 20.1 5.4 20-8.1zm-24-6.6l-21.4-5.4-18.7 8 20 5.4 20.1-8zm-24.1-6.7l-21.4-5.4-18.7 8.1 20.1 5.3 20-8zm-24-6.7l-21.4-5.3-18.7 8 20 5.3 20.1-8zM322 503.9l-21.4-5.3-18.7 8L302 512l20-8.1zm-25.4-6.6l-21.3-5.4-18.7 8 20 5.4 20-8zm-25.3-5.4l-21.4-5.3-18.7 8 20 5.3 20.1-8zm-24.1-6.7l-21.4-5.3-18.7 8 20.1 5.4 20-8.1zm200.4 37.5l-21.3-5.4-18.8 8 20.1 5.4 20-8zm-24-6.7l-21.4-5.4-18.7 8 20 5.4 20.1-8zm-24.1-6.7l-21.4-5.4-18.7 8.1 20.1 5.3 20-8zm-24-6.7l-21.4-5.3-18.7 8 20 5.3 20.1-8zm-22.7 9.4l-25.4-6.7-20.1 9.3 25.4 5.4 20.1-8zm151 40l-25.4-6.6-20.1 9.3 25.4 5.4 20.1-8.1zm26.7 8.1l-25.4-6.7-20.1 9.3 25.4 5.4 20.1-8zm46.7 12l-44-12-18.8 9.3 44.1 12 18.7-9.3zm25.4-10.7L550.5 548l-18.7 9.4 50.8 13.4 20-9.4zm-252.5-65.5l-21.4-5.3-18.7 8 20 5.3 20.1-8zm-24.1-6.7l-21.3-5.3-18.8 8 20.1 5.4 20-8.1zm-24-6.6l-49.5-13.4-21.3 8 50.7 13.4 20.1-8zm171 62.8l-116.2-32.1-21.4 9.4L453 553.4l20-8zm-160.3-76.2l-37.4-10.7-18.7 9.4 36 9.3 20.1-8zm42.7-343.4l360.8 98.9v261.9L355.4 389V125.8z"/><path class="cls-9" d="M342.1 119.1s-1.4-14.7 13.3-10.7L716.2 206s14 .6 14 16.7v280.6s1.4 20-12 13.3l-359.4-96.2s-16.1 0-17.4-20z"/><path class="cls-10" d="M414.9 555.4l-119.6-32.7a29.9 29.9 0 0 0-20 4l-45.5 18.7 66.8 17.3 63.5 16.7m-93.6-3.2l30.8-13.4"/><path class="cls-11" d="M697.7 464.5l-327.3-90.8V147.8l327.3 90.9v225.8z"/><path class="cls-7" d="M515.8 282.1v38.3l23.1-10.5-23.1-27.8z" id="play-arrow"/></svg>