<svg xmlns="http://www.w3.org/2000/svg" xmlns:xlink="http://www.w3.org/1999/xlink" viewBox="0 0 339.5 282.33"><defs><style>.cls-1,.cls-14,.cls-15{fill:none;}.cls-2{fill:#2f92ed;}.cls-3{clip-path:url(#clip-path);}.cls-4{opacity:0.38;fill:url(#Безымянный_градиент_4);}.cls-21,.cls-22,.cls-4{isolation:isolate;}.cls-5{fill:url(#Безымянный_градиент_4-2);}.cls-6{clip-path:url(#clip-path-2);}.cls-7{fill:#27348b;}.cls-8{fill:#2548aa;}.cls-9{fill:#1d3691;}.cls-10{fill:#6484ba;}.cls-11{fill:#8ba6d2;}.cls-12,.cls-22{fill:#fff;}.cls-13{fill:#212268;}.cls-14{stroke:#79aadf;}.cls-14,.cls-15{stroke-miterlimit:10;}.cls-15{stroke:#6484ba;}.cls-16{fill:#f7bda4;}.cls-17{fill:#4e4291;}.cls-18{fill:#3d2b82;}.cls-19{fill:#1cbdf4;}.cls-20{fill:#2a1c65;}.cls-22{font-size:4.86px;font-family:MyriadPro-Regular, Myriad Pro;}.cls-23{fill:red;}</style><clipPath id="clip-path"><rect class="cls-1" x="0.5" width="339" height="282"/></clipPath><linearGradient id="Безымянный_градиент_4" x1="6.35" y1="621.17" x2="352.07" y2="621.17" gradientTransform="matrix(1, 0, 0, -1, 0, 746.72)" gradientUnits="userSpaceOnUse"><stop offset="0" stop-color="#9090f1"/><stop offset="1" stop-color="#2d79cc"/></linearGradient><linearGradient id="Безымянный_градиент_4-2" x1="46.5" y1="620.35" x2="341.18" y2="620.35" xlink:href="#Безымянный_градиент_4"/><clipPath id="clip-path-2"><rect class="cls-1" x="73.5" y="133" width="266" height="140"/></clipPath></defs><title>мобилка 111</title><g id="Слой_6" data-name="Слой 6"><path class="cls-2" d="M198.16,168.43V170l-19.06,5.46,0-1.53Z"/><g class="cls-3"><path class="cls-4" d="M27.5-18C.4,2.86.39,63.35,21.5,84c5.64,5.52,16.86,13.06,39,13,39.68-.11,47,4.11,54,13,11.61,14.63-2.8,38.1,13,53,3,2.83,3.63,2.09,8,6,12.47,11.15,11.82,22.45,18,30,9,11,25.41,6.05,42,8,47.72,5.62,51.77,63.64,97,70,22.06,3.1,47.28-6.95,56-24,8.94-17.49-1.16-39-6-49C303.25,123.14,93.62-68.89,27.5-18Z"/><path class="cls-5" d="M46.5-2l294-1q.35,123.65.68,247.29S317,260.38,289.06,254.42a36.22,36.22,0,0,1-16.47-8.31c-4.29-3.9-5.48-7.09-9-11.57s-9.18-10-19.06-14.88a39.47,39.47,0,0,0-18.06-8.78c-6.76-1.24-10.65.11-19,.16a82.79,82.79,0,0,1-23.56-3.37c-6.43-1.42-22.57-6-30.71-20a40.68,40.68,0,0,1-3.65-8.66c-3.76-12.28-.88-20.74,0-33.3a108.89,108.89,0,0,0-1.4-26.31,43.81,43.81,0,0,0-4.09-10.53A61.31,61.31,0,0,0,126.5,88c-16-12.46-31.59-12.15-43-17C69.29,65,53.6,47.53,46.5-2Z"/></g><g class="cls-6"><path class="cls-7" d="M255.29,225.26a206.31,206.31,0,0,1,85.79-17.66q.18-25,.35-50a345.8,345.8,0,0,0-106.07-4.46,340.13,340.13,0,0,0-44.56,8.1c-11.44,3.14-19.3,6-23.93,8.32l-15.24,7.55a45.15,45.15,0,0,0,8.52,16c9.08,10.85,21.09,14.26,28.8,16.34,16.25,4.38,21.13.29,36.84,3.4A82.5,82.5,0,0,1,255.29,225.26Z"/><path class="cls-8" d="M252.81,224.27a239.37,239.37,0,0,1,89.26-20.07l.18-46.4c-7.6-1.26-64.19-10.4-108.94-6.15a295.43,295.43,0,0,0-44.55,8.12,180.72,180.72,0,0,0-23.94,8.31c-5.9,2.52-11.26,5.18-16.08,7.83a41.05,41.05,0,0,0,7,15.51c9.77,13.14,25.51,16.78,33.06,18.52,3.25.75,5.8,1.1,9.08,1.55,12.34,1.71,19.86,1,25.09,1.27C230.1,213.05,240.26,215.29,252.81,224.27Z"/><path class="cls-9" d="M270.73,244.69a31.31,31.31,0,0,0,20.56,3.49,29.61,29.61,0,0,0,10.88-4.43q2.49-16,4.41-33.23,1.1-9.92,1.91-19.5a34.94,34.94,0,0,1,13.23-12.48q4.38-1.11,9-2.13,5.3-1.18,10.38-2.16v65.86a98.73,98.73,0,0,1-18.73,8.72c-10.36,3.55-22.58,7.74-36.25,3.87A43.61,43.61,0,0,1,270.73,244.69Z"/><path class="cls-8" d="M282.2,251.4A30,30,0,0,0,309,243.58c.47-9.92,1.35-20.5,2.8-31.64.91-7.07,2-13.85,3.17-20.32a27,27,0,0,1,9.12-9.65s3.67-2.28,19.16-5.58v65.89A81,81,0,0,1,324.48,251c-6.14,1.94-18.42,5.68-33.4,2.81A59.45,59.45,0,0,1,282.2,251.4Z"/><path class="cls-10" d="M175.19,184.64s-1-.2-1,.41,1,1,1,1l12.49,5.23,12.49,5.23,11.26,4.83s2.91,1.31,4.93.7l54.72-15.28Z"/></g><path class="cls-11" d="M211.78,199.34l-.06,1.29-36.21-15.28a1,1,0,0,1-.6-1v-.8Z"/><path class="cls-11" d="M211.78,199.34l-.06,1.29s1.81,1.41,5.63.41l51.7-13.68s3.81-.6,2.81-2.41Z"/><path class="cls-12" d="M218.36,199.43a13.25,13.25,0,0,1-8.45-.8l-34.4-14.49s-1.41-.86,0-1.44l55.12-14.65a4.5,4.5,0,0,1,2.62,0c1.6.4,36.61,15.08,36.61,15.08s3.4,1.41,1.61,2S218.36,199.43,218.36,199.43Z"/><path class="cls-12" d="M173.8,135.06a18.25,18.25,0,0,1,4.68-1.17c1.93-.42,3.84-1,5.75-1.56l11.35-3.11c10.6-2.89,21.19-5.88,31.82-8.65a9.63,9.63,0,0,1,2.9-.57c.89.07,2.11,1.89,1.93,2.78,0,0,.2,37.42,0,41.44s-3,3.83-3,3.83-50.69,13.68-53.31,14.48a2,2,0,0,1-1.56,0,3.38,3.38,0,0,1-1.06-.56,2.8,2.8,0,0,1-1-2V138.28A3.47,3.47,0,0,1,173.8,135.06Z"/><polygon class="cls-13" points="220.77 176.9 223.99 176.09 226.81 177.3 223.79 178.11 220.77 176.9"/><polygon class="cls-13" points="216.75 177.9 219.96 177.1 222.78 178.3 219.77 179.11 216.75 177.9"/><polygon class="cls-13" points="213.45 178.83 216.63 178.04 219.41 179.23 216.43 180.02 213.45 178.83"/><polygon class="cls-13" points="209.87 179.82 213.04 179.03 215.83 180.22 212.85 181.02 209.87 179.82"/><polygon class="cls-13" points="206.09 180.82 209.27 180.02 212.05 181.22 209.07 182.02 206.09 180.82"/><polygon class="cls-13" points="224.39 175.85 227.56 175.05 230.35 176.24 227.37 177.04 224.39 175.85"/><polygon class="cls-13" points="220.8 176.84 223.99 176.05 226.77 177.24 223.79 178.04 220.8 176.84"/><polygon class="cls-13" points="217.02 177.84 220.21 177.04 222.99 178.24 220.01 179.03 217.02 177.84"/><polygon class="cls-13" points="235.32 172.87 238.51 172.07 241.29 173.26 238.31 174.06 235.32 172.87"/><polygon class="cls-13" points="231.74 173.86 234.93 173.06 237.71 174.26 234.73 175.05 231.74 173.86"/><polygon class="cls-13" points="227.97 174.85 231.15 174.06 233.93 175.25 230.95 176.05 227.97 174.85"/><polygon class="cls-13" points="202.27 181.93 205.48 181.13 208.3 182.33 205.28 183.13 202.27 181.93"/><polygon class="cls-13" points="198.64 182.93 201.86 182.13 204.68 183.33 201.66 184.14 198.64 182.93"/><polygon class="cls-13" points="194.82 183.74 198.04 182.93 200.86 184.14 197.84 184.94 194.82 183.74"/><polygon class="cls-13" points="191.2 184.74 194.42 183.94 197.24 185.14 194.22 185.95 191.2 184.74"/><polygon class="cls-13" points="185.76 186.16 190.59 184.94 193.81 186.16 188.78 187.56 185.76 186.16"/><polygon class="cls-13" points="211.84 176.82 215.02 176.03 217.8 177.22 214.82 178.01 211.84 176.82"/><polygon class="cls-13" points="208.06 177.82 211.23 177.02 214.02 178.21 211.04 179.01 208.06 177.82"/><polygon class="cls-13" points="204.48 178.61 207.66 177.81 210.44 179.01 207.46 179.8 204.48 178.61"/><polygon class="cls-13" points="222.77 173.84 225.96 173.04 228.75 174.23 225.76 175.03 222.77 173.84"/><polygon class="cls-13" points="216.75 173.88 219.96 173.08 221.3 173.83 218.32 174.63 216.75 173.88"/><polygon class="cls-13" points="213.12 174.89 216.35 174.08 217.68 174.84 214.7 175.64 213.12 174.89"/><polygon class="cls-13" points="209.51 175.69 212.73 174.89 214.06 175.64 211.07 176.44 209.51 175.69"/><polygon class="cls-13" points="205.89 176.9 209.11 176.09 210.43 176.85 207.45 177.65 205.89 176.9"/><polygon class="cls-13" points="202.27 177.7 205.48 176.9 206.81 177.66 203.83 178.45 202.27 177.7"/><polygon class="cls-13" points="198.04 178.71 201.26 177.9 202.59 178.66 199.61 179.46 198.04 178.71"/><polygon class="cls-13" points="194.62 179.71 197.84 178.91 199.17 179.67 196.19 180.46 194.62 179.71"/><polygon class="cls-13" points="190.8 180.72 194.02 179.92 195.35 180.67 192.37 181.47 190.8 180.72"/><polygon class="cls-13" points="187.38 181.73 190.59 180.92 191.93 181.68 188.94 182.48 187.38 181.73"/><polygon class="cls-13" points="183.56 182.73 186.78 181.93 188.1 182.69 185.12 183.48 183.56 182.73"/><polygon class="cls-13" points="179.94 183.74 183.15 182.93 184.49 183.69 181.5 184.49 179.94 183.74"/><polygon class="cls-13" points="220.17 172.87 223.39 172.07 224.72 172.83 221.74 173.62 220.17 172.87"/><polygon class="cls-13" points="223.99 171.87 227.21 171.06 228.54 171.82 225.56 172.62 223.99 171.87"/><polygon class="cls-13" points="227.81 170.86 232.44 169.65 234.25 170.46 229.38 171.61 227.81 170.86"/><polygon class="cls-13" points="218.99 174.83 222.18 174.04 224.96 175.23 221.98 176.03 218.99 174.83"/><polygon class="cls-13" points="215.42 175.82 218.6 175.03 221.38 176.23 218.4 177.02 215.42 175.82"/><polygon class="cls-13" points="230.14 171.85 235.06 170.66 237.67 171.87 233.12 173.04 230.14 171.85"/><polygon class="cls-13" points="226.36 172.84 229.54 172.05 232.32 173.24 229.34 174.04 226.36 172.84"/><polygon class="cls-13" points="200.65 179.71 203.87 178.91 206.69 180.12 203.67 180.92 200.65 179.71"/><polygon class="cls-13" points="197.03 180.72 200.25 179.92 203.07 181.13 200.05 181.93 197.03 180.72"/><polygon class="cls-13" points="193.21 181.73 196.43 180.92 199.25 182.13 196.23 182.93 193.21 181.73"/><polygon class="cls-13" points="189.59 182.73 192.81 181.93 195.62 183.13 192.61 183.94 189.59 182.73"/><polygon class="cls-13" points="185.76 183.74 188.99 182.93 191.8 184.14 188.78 184.94 185.76 183.74"/><polygon class="cls-13" points="182.15 184.74 185.37 183.94 188.18 185.14 185.16 185.95 182.15 184.74"/><polygon class="cls-13" points="195.83 185.95 199.05 185.14 201.86 186.35 198.84 187.16 195.83 185.95"/><polygon class="cls-13" points="189.59 187.76 195.22 186.35 197.84 187.56 192.61 188.97 189.59 187.76"/><polygon class="cls-13" points="199.45 184.94 202.67 184.14 205.48 185.35 202.46 186.16 199.45 184.94"/><polygon class="cls-13" points="203.07 183.94 206.29 183.13 209.11 184.34 206.09 185.14 203.07 183.94"/><polygon class="cls-13" points="206.89 183.13 210.11 182.33 212.93 183.54 209.91 184.34 206.89 183.13"/><polygon class="cls-13" points="210.71 182.13 213.93 181.32 216.75 182.53 213.73 183.33 210.71 182.13"/><polygon class="cls-13" points="214.33 181.13 217.55 180.32 220.37 181.52 217.35 182.33 214.33 181.13"/><polygon class="cls-13" points="217.96 180.12 221.17 179.31 223.99 180.52 220.97 181.32 217.96 180.12"/><polygon class="cls-13" points="221.58 179.11 224.79 178.3 227.61 179.51 224.6 180.32 221.58 179.11"/><polygon class="cls-13" points="225.6 178.3 228.82 177.5 231.63 178.71 228.62 179.51 225.6 178.3"/><polygon class="cls-13" points="229.22 177.3 232.44 176.49 235.26 177.7 232.24 178.51 229.22 177.3"/><polygon class="cls-13" points="232.84 176.29 236.06 175.49 238.88 176.7 235.86 177.5 232.84 176.29"/><polygon class="cls-13" points="201.46 187.16 204.68 186.35 207.49 187.56 204.48 188.36 201.46 187.16"/><polygon class="cls-13" points="205.08 186.16 208.3 185.35 211.12 186.55 208.1 187.36 205.08 186.16"/><polygon class="cls-13" points="208.7 185.14 211.92 184.34 214.74 185.55 211.72 186.35 208.7 185.14"/><polygon class="cls-13" points="212.32 184.14 215.54 183.33 218.36 184.54 215.34 185.35 212.32 184.14"/><polygon class="cls-13" points="235.26 180.52 238.47 179.71 241.29 180.92 238.28 181.73 235.26 180.52"/><polygon class="cls-13" points="239.08 179.51 242.3 178.71 245.12 179.92 242.1 180.72 239.08 179.51"/><polygon class="cls-13" points="242.9 178.71 246.12 177.9 248.94 179.11 245.92 179.92 242.9 178.71"/><polygon class="cls-13" points="246.52 177.7 249.74 176.9 252.56 178.11 249.54 178.91 246.52 177.7"/><polygon class="cls-13" points="216.35 183.33 219.57 182.53 222.38 183.74 219.36 184.54 216.35 183.33"/><polygon class="cls-13" points="219.96 182.33 223.19 181.52 226 182.73 222.98 183.54 219.96 182.33"/><polygon class="cls-13" points="223.59 181.32 226.81 180.52 229.63 181.73 226.61 182.53 223.59 181.32"/><polygon class="cls-13" points="227.21 180.32 230.43 179.51 233.25 180.72 230.23 181.52 227.21 180.32"/><polygon class="cls-13" points="230.63 181.73 234.45 180.72 237.47 182.13 233.65 182.93 230.63 181.73"/><polygon class="cls-13" points="207.9 187.76 211.72 186.76 214.74 188.16 210.92 188.97 207.9 187.76"/><polygon class="cls-13" points="203.87 188.97 207.7 187.97 210.71 189.37 206.89 190.17 203.87 188.97"/><polygon class="cls-13" points="196.83 190.78 203.47 188.97 206.29 190.38 199.65 192.19 196.83 190.78"/><polygon class="cls-13" points="193.01 189.17 200.86 187.16 203.67 188.57 196.03 190.58 193.01 189.17"/><polygon class="cls-13" points="231.03 179.31 234.25 178.51 237.07 179.71 234.05 180.52 231.03 179.31"/><polygon class="cls-13" points="234.66 178.3 237.87 177.5 240.69 178.71 237.67 179.51 234.66 178.3"/><polygon class="cls-13" points="238.28 177.3 245.72 175.29 248.94 176.49 241.29 178.51 238.28 177.3"/><polygon class="cls-13" points="212.52 186.76 230.03 181.93 233.25 183.33 215.54 187.97 212.52 186.76"/><polygon class="cls-13" points="236.66 175.29 242.3 173.68 245.12 175.09 239.68 176.49 236.66 175.29"/><polygon class="cls-13" points="230.23 123.58 175.91 138.47 175.91 177.9 230.23 163.22 230.23 123.58"/><path class="cls-14" d="M232.24,122.58a1.45,1.45,0,0,0-2-1.61l-54.32,14.69a2.3,2.3,0,0,0-2.11,2.48v42.28s-.21,3,1.81,2L229.72,168s2.42,0,2.62-3Z"/><path class="cls-15" d="M221.28,188.27l18-4.94a4.59,4.59,0,0,1,3,.61l6.82,2.84-10.06,2.62-9.56,2.51"/><line class="cls-15" x1="243.61" y1="191.4" x2="238.99" y2="189.38"/><path class="cls-2" d="M205.58,163.49l.1,1.42-21.19,6.21c0-.52,0-1-.05-1.55Z"/><path class="cls-2" d="M223.11,158.52l.17,1.4-15.61,4.54-.12-1.5Z"/><path class="cls-2" d="M183.25,169.85l.09,1.5-4.23,1.22v-1.52Z"/><path class="cls-16" d="M279.63,132.81s-1.77,7.2-1.06,8.92l.89,1.7c-1.85,4-1.55,5.22-1.09,5.61a10.34,10.34,0,0,0,2,.65s1.89,4.19,1.54,6c.18,2.19.82,4.84,8.09,3.13.77,2.9.77,6.85,1.83,8.26s16.53-6.9,16.53-6.9-3.15-4.54-2.54-7.91-2.71-.62-2.71-.62l-3.15-5.53Z"/><path class="cls-16" d="M231.32,188.9c-.31.57-2.65-1.89-2.65-1.89s-1.07-.47-1.07.65-1.48-1.7-1.89-.35-.77.88,0,1.61c-1.47-.49-2.71,0-1.89,1.34-1-.06-1.53.76-.26,3.6s.91,4.31,6.05,6.24c5,3,30,15.59,36.67,12.76l7.73-2.43-1.36-11.67-2.3-2.54-4.14,2.14-2.83,1.14s-10.92-1.42-18.6-2.78-11.22-3.07-11.22-3.07-.53-3.9-.71-4.25S231.79,188,231.32,188.9Z"/><path class="cls-16" d="M253.37,193.64s-3.1.53-5-.36c-3.14-.44-5.67-.88-5.67-.88s-1.78-1.7,4.91-1.51c2-.4,1.94-.56.75-1.73-1.13-1-1.7-1.06-2.17.57-.8.49-1.86,1.33-.84-1.06.49-1.11.13-1.33.49-1.11s-1.77,2.74-1.77,2.74-.8.84-1.24.57c-1,.53-1.82.93-1.82.93v-1.16h-1.89l3.06-5.37s4.64-2.13,7-1a57.17,57.17,0,0,1,6.69,3.46s5.17,2.18,13.58-.57,10-3.75,10-3.75l-2.77,5-7.83,7.26a64.91,64.91,0,0,1-14-1.83Z"/><path class="cls-17" d="M305.18,123.07s9,3.6,4.66,16.59c-2.18,6.14-4.19,10-4.07,12.64-3.37,1.82-6.38,6.72-13.88-2.84-.94-2.48-2.6-8.8-5.6-4l-1.48,2.84s2.27-7.79-1.89-12l-2.07-1.83s-6.73,4.72-9.44-1.42c2.77.53,4.31,1.3,7.26-4,.12-2.78-1.95-1.36-1.95-1.36s-3,.89-2.89,1.77-1-7.14,4.54-6.37,6.49-2.55,6.49-2.55,3.77-4.48,6.34-2.27,3.76-1.13,3.76-1.13,2.12-1.42,3.72,0,1.65,1.77,1.65,1.77l-.77-3.31,2.36,4.43s.71,0,1.66,1.35A4.8,4.8,0,0,0,305.18,123.07Z"/><path class="cls-18" d="M253,224.44a102.45,102.45,0,0,1,17.77-7.61c1.91-.61,3.65-1.14,5.36-1.53,6.28-1.55,10.48-2.75,15.6-2.67,4.6.08,8.56.13,10.1,2.6s-1.44,4.47-1.24,10.69c.14,4.25,1.62,5.19,2.12,11.92.31,4.1-.13,5.21-.53,5.9s-1.7,2.62-8.74,4c-5.36,1.07-10.41,2.06-16.46-.05-2.54-.89-6.07-2.14-8.35-5.2-.53-.71-1.33-1.8-3.09-4.42-.57-.87-1.35-1.93-2.43-3.28A75,75,0,0,0,253,224.44Z"/><path class="cls-19" d="M267.75,197.17a19.48,19.48,0,0,1,5.91,14.28c6.24-2.24,8.61-.82,13.81-6.61.24,15-3.78,28.22-1.42,32.71s2.27,5.55,9.09,6.85h7.55l5.61-49s.3-14.88,22.38-19c-4.84-9.33-15.79-18.73-21-14.52-11.46,4.72-24.8,7.32-32.92,26.57l-9,7.79Z"/><path class="cls-20" d="M261.17,232.25l24.48-4.34,1.56-14.63s-23.36,3.61-34.4,11C261.17,232.25,260.37,231.2,261.17,232.25Z"/><path class="cls-12" d="M289.42,167.3a43.39,43.39,0,0,0,18.9-8c4.49,1.51,4.84,1.67,4.84,1.67a48.26,48.26,0,0,1-24.27,10.21Z"/><g class="cls-21"><text class="cls-22" transform="matrix(0.98, -0.22, 0.22, 0.98, 220.31, 133.19)">R</text><text class="cls-22" transform="matrix(0.98, -0.22, 0.22, 0.98, 222.87, 132.6)">ec</text></g><circle class="cls-23" cx="217.86" cy="132.38" r="1.33"/><g id="чувак_на_монитор-2" data-name="чувак на монитор-2"><path class="cls-16" d="M205.36,153.49a4.69,4.69,0,0,1-1.7.26h0l.33-11.47h0s4.23.16,4.29,3a23,23,0,0,1-.21,3.52,17.8,17.8,0,0,1-.35,1.91,5.16,5.16,0,0,1-.2.67,3.24,3.24,0,0,1-.52.75,6.49,6.49,0,0,1-1.63,1.37Z"/><path class="cls-16" d="M201.5,152.47a.89.89,0,0,1,.36-.43,1.57,1.57,0,0,1,1.13,0,6,6,0,0,0,1.63.11h0a6.39,6.39,0,0,0,1.2-1.76c.82-.25,1.16-.12,1.31,0,.42.41-.16,1.24,0,2.44a3.65,3.65,0,0,0,.85,1.78l5.26,1.45h0l1.38,1.76-9.73,2.45h0l-9.73,2.45.38-2.19,1.18-1c1.19-1,2.39-2.05,3.58-3.06a4.43,4.43,0,0,0,1.17-4Z"/><path class="cls-16" d="M204.45,142.17l-.69,11.45a4.54,4.54,0,0,1-1.7-.43,6.11,6.11,0,0,1-1.49-1.51,3.47,3.47,0,0,1-.46-.79,5.12,5.12,0,0,1-.14-.68,15.72,15.72,0,0,1-.18-1.94,24.36,24.36,0,0,1,.1-3.52C200.22,141.94,204.45,142.17,204.45,142.17Z"/><path class="cls-2" d="M208,154.61c.32.07.34.16,1.23.45.45.15.84.26,1.8.49l2.24.52,1.38,1.75-9.73,2.46h0l-9.73,2.45.38-2.2,1.18-1q1.78-1.56,3.57-3.06a7,7,0,0,0,4.39-.51C205.88,155.33,206.81,154.34,208,154.61Z"/><path class="cls-12" d="M200.53,155.27a11.14,11.14,0,0,0,7.32-1.44c.84.73,1.39,1.22,1.38,1.23h0a29,29,0,0,0-4.2,1.52,34.47,34.47,0,0,1-5.3.36h0Z"/><path class="cls-17" d="M200.47,147.31a2.88,2.88,0,0,1,.93-.08c.25,0,.49,0,.73.05a2.33,2.33,0,0,1,.69.08c.06,0,.14,0,.18,0v-.08c0-.2-.34-.24-.53-.29a3.39,3.39,0,0,0-.57-.13,2.72,2.72,0,0,0-.57,0,2.3,2.3,0,0,0-.5.18l-.26.13h0l-.09,0h-.07C200.35,147.28,200.43,147.32,200.47,147.31Z"/><path class="cls-17" d="M207.12,146.89H207l-.27-.1a2.25,2.25,0,0,0-.51-.13,1.79,1.79,0,0,0-.57.08,2.7,2.7,0,0,0-.57.18c-.18.07-.48.15-.49.34v0h0s.12,0,.18,0a2.29,2.29,0,0,1,.68-.14l.72-.13a3,3,0,0,1,.94,0S207.17,146.91,207.12,146.89Z"/><path class="cls-17" d="M209.12,144.33a4.43,4.43,0,0,0-1-2.23c-.23-.24-1.23-1.13-.52-1.45-.35-.34-.81.09-.88.41,0,.1-.18.37-.17.45-.14-.71-.06-1.28-.89-1.66-1.33-.62-2.61,1-3.9,1.08-.62,0-1.73.29-1.94-.46a1.53,1.53,0,0,0-.26.31.8.8,0,0,0,0,.43c.06.25.31.68.64.68-.42,0-.69,0-.93-.35-.09.23.1.36.22.52a1.08,1.08,0,0,1-.74-.5c-.23.25-.08.6.1.84.05.08.74.57.75.47A16,16,0,0,1,199,145c-.09.39.3,1.39.42,1.25,0,.23.33,1.39.36,1.6a5.38,5.38,0,0,0,.31-1c0-.15.09-.31.12-.45s.07-.48.13-.74v-.08c.33-1.1,1.35-1.27,2.55-1.11H203a3.68,3.68,0,0,0,2.11-.43,3.28,3.28,0,0,0,.93-.68l0-.06a1.45,1.45,0,0,1,.31-.34c.07.31,0,.59.25.85a4.82,4.82,0,0,1,.56.78c.32.57.81,1.79.89,1.82a8.16,8.16,0,0,1,.19,1.1v0c0-.34.18-1.28.19-1.65C208.73,146,209.2,145,209.12,144.33Z"/></g></g></svg>