<svg id="Слой_2" data-name="Слой 2" xmlns="http://www.w3.org/2000/svg" xmlns:xlink="http://www.w3.org/1999/xlink" viewBox="0 0 322 757.26"><defs><style>.cls-1,.cls-13,.cls-14{fill:none;}.cls-2{clip-path:url(#clip-path);}.cls-3{fill:#2f92ed;}.cls-4{opacity:0.38;fill:url(#Безымянный_градиент_4);}.cls-20,.cls-21,.cls-24,.cls-4{isolation:isolate;}.cls-5{fill:url(#Безымянный_градиент_4-2);}.cls-6{fill:#27348b;}.cls-7{fill:#2548aa;}.cls-8{fill:#1d3691;}.cls-9{fill:#6484ba;}.cls-10{fill:#8ba6d2;}.cls-11,.cls-21{fill:#fff;}.cls-12{fill:#212268;}.cls-13{stroke:#79aadf;}.cls-13,.cls-14,.cls-35{stroke-miterlimit:10;}.cls-14{stroke:#6484ba;}.cls-15{fill:#f7bda4;}.cls-16{fill:#4e4291;}.cls-17{fill:#3d2b82;}.cls-18{fill:#1cbdf4;}.cls-19{fill:#2a1c65;}.cls-21{font-size:4.86px;font-family:MyriadPro-Regular, Myriad Pro;}.cls-22{fill:red;}.cls-23{fill:url(#Безымянный_градиент_4-3);}.cls-24{opacity:0.41;fill:url(#Безымянный_градиент_4-4);}.cls-25{fill:#e2e8f2;}.cls-26{fill:#1f3598;}.cls-27{fill:#c4dffc;}.cls-28{opacity:0.63;}.cls-29{fill:#eff6fc;}.cls-30,.cls-35{fill:#a0d2ff;}.cls-31{fill:#ced6e9;}.cls-32{fill:#f2f4f9;}.cls-33{fill:#f2f4fa;}.cls-34{fill:#3772ce;}.cls-35{stroke:#fff;stroke-width:3px;}.cls-36{fill:#020053;}.cls-37{fill:#e52364;}.cls-38{fill:#79181b;}.cls-39{fill:#b20032;}.cls-40{fill:#ff8358;}.cls-41{fill:#75a3ec;}</style><clipPath id="clip-path"><rect class="cls-1" y="-3.6" width="324" height="982.6"/></clipPath><linearGradient id="Безымянный_градиент_4" x1="-13.15" y1="594.76" x2="337.89" y2="594.76" gradientTransform="matrix(1, 0, 0, -1, 0, 696.72)" gradientUnits="userSpaceOnUse"><stop offset="0" stop-color="#9090f1"/><stop offset="1" stop-color="#2d79cc"/></linearGradient><linearGradient id="Безымянный_градиент_4-2" x1="27" y1="596.35" x2="327" y2="596.35" xlink:href="#Безымянный_градиент_4"/><linearGradient id="Безымянный_градиент_4-3" x1="-1.25" y1="91.38" x2="270.21" y2="91.38" xlink:href="#Безымянный_градиент_4"/><linearGradient id="Безымянный_градиент_4-4" x1="-1.25" y1="82.46" x2="269.64" y2="82.46" xlink:href="#Безымянный_градиент_4"/></defs><title>мобилка_ без кнопок</title><g class="cls-2"><path class="cls-3" d="M178.66,144.43V146l-19.06,5.46,0-1.53Z"/><path class="cls-4" d="M8-42C-19.1-21.14-19.11,39.35,2,60c5.64,5.52,16.86,13.06,39,13,39.68-.11,47,4.11,54,13,11.61,14.63-2.8,38.1,13,53,3,2.83,3.63,2.09,8,6,12.47,11.15,11.82,22.45,18,30,9,11,25.41,6.05,42,8,47.33,5.58,50.61,62,97,70,25.48,4.4,55.54-7.27,63-26,6.07-15.22-3.57-33.16-13-47C276.26,111.39,73.89-92.71,8-42Z"/><path class="cls-5" d="M27-26l300-5q-2.65,125.64-5.32,251.29s-24.16,16.09-52.12,10.13a36.22,36.22,0,0,1-16.47-8.31c-4.29-3.9-5.48-7.09-9-11.57s-9.18-10-19.06-14.88A39.47,39.47,0,0,0,207,186.88c-6.76-1.24-10.65.11-19,.16a82.79,82.79,0,0,1-23.56-3.37c-6.43-1.42-22.57-6-30.71-20a40.68,40.68,0,0,1-3.65-8.66c-3.76-12.28-.88-20.74,0-33.3a108.89,108.89,0,0,0-1.4-26.31,43.81,43.81,0,0,0-4.09-10.53A61.31,61.31,0,0,0,107,64C91,51.54,75.41,51.85,64,47,49.79,41,34.1,23.53,27-26Z"/><path class="cls-6" d="M235.79,201.26a206.31,206.31,0,0,1,85.79-17.66q.18-25,.35-50a345.8,345.8,0,0,0-106.07-4.46,340.13,340.13,0,0,0-44.56,8.1c-11.44,3.14-19.3,6-23.93,8.32l-15.24,7.55a45.15,45.15,0,0,0,8.52,16c9.08,10.85,21.09,14.26,28.8,16.34,16.25,4.38,21.13.29,36.84,3.4A82.5,82.5,0,0,1,235.79,201.26Z"/><path class="cls-7" d="M233.31,200.27a239.37,239.37,0,0,1,89.26-20.07l.18-46.4c-7.6-1.26-64.19-10.4-108.94-6.15a295.43,295.43,0,0,0-44.55,8.12,180.72,180.72,0,0,0-23.94,8.31c-5.9,2.52-11.26,5.18-16.08,7.83a41.05,41.05,0,0,0,7,15.51c9.77,13.14,25.51,16.78,33.06,18.52,3.25.75,5.8,1.1,9.08,1.55,12.34,1.71,19.86,1,25.09,1.27C210.6,189.05,220.76,191.29,233.31,200.27Z"/><path class="cls-8" d="M251.23,220.69a31.31,31.31,0,0,0,20.56,3.49,29.61,29.61,0,0,0,10.88-4.43q2.49-16,4.41-33.23,1.1-9.92,1.91-19.5a34.94,34.94,0,0,1,13.23-12.48q4.38-1.11,9-2.13,5.3-1.18,10.38-2.16v65.86a98.73,98.73,0,0,1-18.73,8.72c-10.36,3.55-22.58,7.74-36.25,3.87A43.61,43.61,0,0,1,251.23,220.69Z"/><path class="cls-7" d="M262.7,227.4a30,30,0,0,0,26.76-7.82c.47-9.92,1.35-20.5,2.8-31.64.91-7.07,2-13.85,3.17-20.32a27,27,0,0,1,9.12-9.65s3.67-2.28,19.16-5.58v65.89A81,81,0,0,1,305,227c-6.14,1.94-18.42,5.68-33.4,2.81A59.45,59.45,0,0,1,262.7,227.4Z"/><path class="cls-9" d="M155.69,160.64s-1-.2-1,.41,1,1,1,1l12.49,5.23,12.49,5.23,11.26,4.83s2.91,1.31,4.93.7l54.72-15.28Z"/><path class="cls-10" d="M192.28,175.34l-.06,1.29L156,161.35a1,1,0,0,1-.6-1v-.8Z"/><path class="cls-10" d="M192.28,175.34l-.06,1.29s1.81,1.41,5.63.41l51.7-13.68s3.81-.6,2.81-2.41Z"/><path class="cls-11" d="M198.86,175.43a13.25,13.25,0,0,1-8.45-.8L156,160.14s-1.41-.86,0-1.44l55.12-14.65a4.5,4.5,0,0,1,2.62,0c1.6.4,36.61,15.08,36.61,15.08s3.4,1.41,1.61,2S198.86,175.43,198.86,175.43Z"/><path class="cls-11" d="M154.3,111.06a18.25,18.25,0,0,1,4.68-1.17c1.93-.42,3.84-1,5.75-1.56l11.35-3.11c10.6-2.89,21.19-5.88,31.82-8.65a9.63,9.63,0,0,1,2.9-.57c.89.07,2.11,1.89,1.93,2.78,0,0,.2,37.42,0,41.44s-3,3.83-3,3.83S159,157.73,156.4,158.53a2,2,0,0,1-1.56,0,3.38,3.38,0,0,1-1.06-.56,2.8,2.8,0,0,1-1-2V114.28A3.47,3.47,0,0,1,154.3,111.06Z"/><polygon class="cls-12" points="201.27 152.9 204.49 152.09 207.31 153.3 204.29 154.11 201.27 152.9"/><polygon class="cls-12" points="197.25 153.9 200.46 153.1 203.28 154.3 200.27 155.11 197.25 153.9"/><polygon class="cls-12" points="193.95 154.83 197.13 154.04 199.91 155.23 196.93 156.02 193.95 154.83"/><polygon class="cls-12" points="190.37 155.82 193.54 155.03 196.33 156.22 193.35 157.02 190.37 155.82"/><polygon class="cls-12" points="186.59 156.82 189.77 156.02 192.55 157.22 189.57 158.02 186.59 156.82"/><polygon class="cls-12" points="204.89 151.85 208.06 151.05 210.85 152.24 207.87 153.04 204.89 151.85"/><polygon class="cls-12" points="201.3 152.84 204.49 152.05 207.27 153.24 204.29 154.04 201.3 152.84"/><polygon class="cls-12" points="197.52 153.84 200.71 153.04 203.49 154.24 200.51 155.03 197.52 153.84"/><polygon class="cls-12" points="215.82 148.87 219.01 148.07 221.79 149.26 218.81 150.06 215.82 148.87"/><polygon class="cls-12" points="212.24 149.86 215.43 149.06 218.21 150.26 215.23 151.05 212.24 149.86"/><polygon class="cls-12" points="208.47 150.85 211.65 150.06 214.43 151.25 211.45 152.05 208.47 150.85"/><polygon class="cls-12" points="182.77 157.93 185.98 157.13 188.8 158.33 185.78 159.13 182.77 157.93"/><polygon class="cls-12" points="179.14 158.93 182.36 158.13 185.18 159.33 182.16 160.14 179.14 158.93"/><polygon class="cls-12" points="175.32 159.74 178.54 158.93 181.36 160.14 178.34 160.94 175.32 159.74"/><polygon class="cls-12" points="171.7 160.74 174.92 159.94 177.74 161.14 174.72 161.95 171.7 160.74"/><polygon class="cls-12" points="166.26 162.16 171.09 160.94 174.31 162.16 169.28 163.56 166.26 162.16"/><polygon class="cls-12" points="192.34 152.82 195.52 152.03 198.3 153.22 195.32 154.01 192.34 152.82"/><polygon class="cls-12" points="188.56 153.82 191.73 153.02 194.52 154.21 191.54 155.01 188.56 153.82"/><polygon class="cls-12" points="184.98 154.61 188.16 153.81 190.94 155.01 187.96 155.8 184.98 154.61"/><polygon class="cls-12" points="203.27 149.84 206.46 149.04 209.25 150.23 206.26 151.03 203.27 149.84"/><polygon class="cls-12" points="197.25 149.88 200.46 149.08 201.8 149.83 198.82 150.63 197.25 149.88"/><polygon class="cls-12" points="193.62 150.89 196.85 150.08 198.18 150.84 195.2 151.64 193.62 150.89"/><polygon class="cls-12" points="190.01 151.69 193.23 150.89 194.56 151.64 191.57 152.44 190.01 151.69"/><polygon class="cls-12" points="186.39 152.9 189.61 152.09 190.93 152.85 187.95 153.65 186.39 152.9"/><polygon class="cls-12" points="182.77 153.7 185.98 152.9 187.31 153.66 184.33 154.45 182.77 153.7"/><polygon class="cls-12" points="178.54 154.71 181.76 153.9 183.09 154.66 180.11 155.46 178.54 154.71"/><polygon class="cls-12" points="175.12 155.71 178.34 154.91 179.67 155.67 176.69 156.46 175.12 155.71"/><polygon class="cls-12" points="171.3 156.72 174.52 155.92 175.85 156.67 172.87 157.47 171.3 156.72"/><polygon class="cls-12" points="167.88 157.73 171.09 156.92 172.43 157.68 169.44 158.48 167.88 157.73"/><polygon class="cls-12" points="164.06 158.73 167.28 157.93 168.6 158.69 165.62 159.48 164.06 158.73"/><polygon class="cls-12" points="160.44 159.74 163.65 158.93 164.99 159.69 162 160.49 160.44 159.74"/><polygon class="cls-12" points="200.67 148.87 203.89 148.07 205.22 148.83 202.24 149.62 200.67 148.87"/><polygon class="cls-12" points="204.49 147.87 207.71 147.06 209.04 147.82 206.06 148.62 204.49 147.87"/><polygon class="cls-12" points="208.31 146.86 212.94 145.65 214.75 146.46 209.88 147.61 208.31 146.86"/><polygon class="cls-12" points="199.49 150.83 202.68 150.04 205.46 151.23 202.48 152.03 199.49 150.83"/><polygon class="cls-12" points="195.92 151.82 199.1 151.03 201.88 152.23 198.9 153.02 195.92 151.82"/><polygon class="cls-12" points="210.64 147.85 215.56 146.66 218.17 147.87 213.62 149.04 210.64 147.85"/><polygon class="cls-12" points="206.86 148.84 210.04 148.05 212.82 149.24 209.84 150.04 206.86 148.84"/><polygon class="cls-12" points="181.15 155.71 184.37 154.91 187.19 156.12 184.17 156.92 181.15 155.71"/><polygon class="cls-12" points="177.53 156.72 180.75 155.92 183.57 157.13 180.55 157.93 177.53 156.72"/><polygon class="cls-12" points="173.71 157.73 176.93 156.92 179.75 158.13 176.73 158.93 173.71 157.73"/><polygon class="cls-12" points="170.09 158.73 173.31 157.93 176.12 159.13 173.11 159.94 170.09 158.73"/><polygon class="cls-12" points="166.26 159.74 169.49 158.93 172.3 160.14 169.28 160.94 166.26 159.74"/><polygon class="cls-12" points="162.65 160.74 165.87 159.94 168.68 161.14 165.66 161.95 162.65 160.74"/><polygon class="cls-12" points="176.33 161.95 179.55 161.14 182.36 162.35 179.34 163.16 176.33 161.95"/><polygon class="cls-12" points="170.09 163.76 175.72 162.35 178.34 163.56 173.11 164.97 170.09 163.76"/><polygon class="cls-12" points="179.95 160.94 183.17 160.14 185.98 161.35 182.96 162.16 179.95 160.94"/><polygon class="cls-12" points="183.57 159.94 186.79 159.13 189.61 160.34 186.59 161.14 183.57 159.94"/><polygon class="cls-12" points="187.39 159.13 190.61 158.33 193.43 159.54 190.41 160.34 187.39 159.13"/><polygon class="cls-12" points="191.21 158.13 194.43 157.32 197.25 158.53 194.23 159.33 191.21 158.13"/><polygon class="cls-12" points="194.83 157.13 198.05 156.32 200.87 157.52 197.85 158.33 194.83 157.13"/><polygon class="cls-12" points="198.46 156.12 201.67 155.31 204.49 156.52 201.47 157.32 198.46 156.12"/><polygon class="cls-12" points="202.08 155.11 205.29 154.3 208.11 155.51 205.1 156.32 202.08 155.11"/><polygon class="cls-12" points="206.1 154.3 209.32 153.5 212.13 154.71 209.12 155.51 206.1 154.3"/><polygon class="cls-12" points="209.72 153.3 212.94 152.49 215.76 153.7 212.74 154.51 209.72 153.3"/><polygon class="cls-12" points="213.34 152.29 216.56 151.49 219.38 152.7 216.36 153.5 213.34 152.29"/><polygon class="cls-12" points="181.96 163.16 185.18 162.35 187.99 163.56 184.98 164.36 181.96 163.16"/><polygon class="cls-12" points="185.58 162.16 188.8 161.35 191.62 162.55 188.6 163.36 185.58 162.16"/><polygon class="cls-12" points="189.2 161.14 192.42 160.34 195.24 161.55 192.22 162.35 189.2 161.14"/><polygon class="cls-12" points="192.82 160.14 196.04 159.33 198.86 160.54 195.84 161.35 192.82 160.14"/><polygon class="cls-12" points="215.76 156.52 218.97 155.71 221.79 156.92 218.78 157.73 215.76 156.52"/><polygon class="cls-12" points="219.58 155.51 222.8 154.71 225.62 155.92 222.6 156.72 219.58 155.51"/><polygon class="cls-12" points="223.4 154.71 226.62 153.9 229.44 155.11 226.42 155.92 223.4 154.71"/><polygon class="cls-12" points="227.02 153.7 230.24 152.9 233.06 154.11 230.04 154.91 227.02 153.7"/><polygon class="cls-12" points="196.85 159.33 200.07 158.53 202.88 159.74 199.86 160.54 196.85 159.33"/><polygon class="cls-12" points="200.46 158.33 203.69 157.52 206.5 158.73 203.48 159.54 200.46 158.33"/><polygon class="cls-12" points="204.09 157.32 207.31 156.52 210.13 157.73 207.11 158.53 204.09 157.32"/><polygon class="cls-12" points="207.71 156.32 210.93 155.51 213.75 156.72 210.73 157.52 207.71 156.32"/><polygon class="cls-12" points="211.13 157.73 214.95 156.72 217.97 158.13 214.15 158.93 211.13 157.73"/><polygon class="cls-12" points="188.4 163.76 192.22 162.76 195.24 164.16 191.42 164.97 188.4 163.76"/><polygon class="cls-12" points="184.37 164.97 188.2 163.97 191.21 165.37 187.39 166.17 184.37 164.97"/><polygon class="cls-12" points="177.33 166.78 183.97 164.97 186.79 166.38 180.15 168.19 177.33 166.78"/><polygon class="cls-12" points="173.51 165.17 181.36 163.16 184.17 164.57 176.53 166.58 173.51 165.17"/><polygon class="cls-12" points="211.53 155.31 214.75 154.51 217.57 155.71 214.55 156.52 211.53 155.31"/><polygon class="cls-12" points="215.16 154.3 218.37 153.5 221.19 154.71 218.17 155.51 215.16 154.3"/><polygon class="cls-12" points="218.78 153.3 226.22 151.29 229.44 152.49 221.79 154.51 218.78 153.3"/><polygon class="cls-12" points="193.02 162.76 210.53 157.93 213.75 159.33 196.04 163.97 193.02 162.76"/><polygon class="cls-12" points="217.16 151.29 222.8 149.68 225.62 151.09 220.18 152.49 217.16 151.29"/><polygon class="cls-12" points="210.73 99.58 156.41 114.47 156.41 153.9 210.73 139.22 210.73 99.58"/><path class="cls-13" d="M212.74,98.58a1.45,1.45,0,0,0-2-1.61l-54.32,14.69a2.3,2.3,0,0,0-2.11,2.48v42.28s-.21,3,1.81,2L210.22,144s2.42,0,2.62-3Z"/><path class="cls-14" d="M201.78,164.27l18-4.94a4.59,4.59,0,0,1,3,.61l6.82,2.84-10.06,2.62L210,167.91"/><line class="cls-14" x1="224.11" y1="167.4" x2="219.49" y2="165.38"/><path class="cls-3" d="M186.08,139.49l.1,1.42L165,147.12c0-.52,0-1-.05-1.55Z"/><path class="cls-3" d="M203.61,134.52l.17,1.4-15.61,4.54-.12-1.5Z"/><path class="cls-3" d="M163.75,145.85l.09,1.5-4.23,1.22v-1.52Z"/><path class="cls-15" d="M260.13,108.81s-1.77,7.2-1.06,8.92l.89,1.7c-1.85,4-1.55,5.22-1.09,5.61a10.34,10.34,0,0,0,2,.65s1.89,4.19,1.54,6c.18,2.19.82,4.84,8.09,3.13.77,2.9.77,6.85,1.83,8.26s16.53-6.9,16.53-6.9-3.15-4.54-2.54-7.91-2.71-.62-2.71-.62l-3.15-5.53Z"/><path class="cls-15" d="M211.82,164.9c-.31.57-2.65-1.89-2.65-1.89s-1.07-.47-1.07.65-1.48-1.7-1.89-.35-.77.88,0,1.61c-1.47-.49-2.71,0-1.89,1.34-1-.06-1.53.76-.26,3.6s.91,4.31,6.05,6.24c5,3,30,15.59,36.67,12.76l7.73-2.43-1.36-11.67-2.3-2.54-4.14,2.14-2.83,1.14s-10.92-1.42-18.6-2.78-11.22-3.07-11.22-3.07-.53-3.9-.71-4.25S212.29,164,211.82,164.9Z"/><path class="cls-15" d="M233.87,169.64s-3.1.53-5-.36c-3.14-.44-5.67-.88-5.67-.88s-1.78-1.7,4.91-1.51c2-.4,1.94-.56.75-1.73-1.13-1-1.7-1.06-2.17.57-.8.49-1.86,1.33-.84-1.06.49-1.11.13-1.33.49-1.11s-1.77,2.74-1.77,2.74-.8.84-1.24.57c-1,.53-1.82.93-1.82.93v-1.16h-1.89l3.06-5.37s4.64-2.13,7-1a57.17,57.17,0,0,1,6.69,3.46s5.17,2.18,13.58-.57,10-3.75,10-3.75l-2.77,5-7.83,7.26a64.91,64.91,0,0,1-14.05-1.83Z"/><path class="cls-16" d="M285.68,99.07s9,3.6,4.66,16.59c-2.18,6.14-4.19,10-4.07,12.64-3.37,1.82-6.38,6.72-13.88-2.84-.94-2.48-2.6-8.8-5.6-4l-1.48,2.84s2.27-7.79-1.89-12l-2.07-1.83s-6.73,4.72-9.44-1.42c2.77.53,4.31,1.3,7.26-4,.12-2.78-1.95-1.36-1.95-1.36s-3,.89-2.89,1.77-1-7.14,4.54-6.37,6.49-2.55,6.49-2.55,3.77-4.48,6.34-2.27,3.76-1.13,3.76-1.13,2.12-1.42,3.72,0,1.65,1.77,1.65,1.77l-.77-3.31L282.42,96s.71,0,1.66,1.35A4.8,4.8,0,0,0,285.68,99.07Z"/><path class="cls-17" d="M233.49,200.44a102.45,102.45,0,0,1,17.77-7.61c1.91-.61,3.65-1.14,5.36-1.53,6.28-1.55,10.48-2.75,15.6-2.67,4.6.08,8.56.13,10.1,2.6s-1.44,4.47-1.24,10.69c.14,4.25,1.62,5.19,2.12,11.92.31,4.1-.13,5.21-.53,5.9s-1.7,2.62-8.74,4c-5.36,1.07-10.41,2.06-16.46-.05-2.54-.89-6.07-2.14-8.35-5.2-.53-.71-1.33-1.8-3.09-4.42-.57-.87-1.35-1.93-2.43-3.28A75,75,0,0,0,233.49,200.44Z"/><path class="cls-18" d="M248.25,173.17a19.48,19.48,0,0,1,5.91,14.28c6.24-2.24,8.61-.82,13.81-6.61.24,15-3.78,28.22-1.42,32.71s2.27,5.55,9.09,6.85h7.55l5.61-49s.3-14.88,22.38-19c-4.84-9.33-15.79-18.73-21-14.52-11.46,4.72-24.8,7.32-32.92,26.57l-9,7.79Z"/><path class="cls-19" d="M241.67,208.25l24.48-4.34,1.56-14.63s-23.36,3.61-34.4,11C241.67,208.25,240.87,207.2,241.67,208.25Z"/><path class="cls-11" d="M269.92,143.3a43.39,43.39,0,0,0,18.9-8c4.49,1.51,4.84,1.67,4.84,1.67a48.26,48.26,0,0,1-24.27,10.21Z"/><g class="cls-20"><text class="cls-21" transform="translate(200.78 109.22) rotate(-12.78)">R</text><text class="cls-21" transform="translate(203.35 108.64) rotate(-12.78)">ec</text></g><circle class="cls-22" cx="198.36" cy="108.38" r="1.33"/><g id="чувак_на_монитор-2" data-name="чувак на монитор-2"><path class="cls-15" d="M185.86,129.49a4.69,4.69,0,0,1-1.7.26h0l.33-11.47h0s4.23.16,4.29,3a23,23,0,0,1-.21,3.52,17.8,17.8,0,0,1-.35,1.91,5.16,5.16,0,0,1-.2.67,3.24,3.24,0,0,1-.52.75,6.49,6.49,0,0,1-1.63,1.37Z"/><path class="cls-15" d="M182,128.47a.89.89,0,0,1,.36-.43,1.57,1.57,0,0,1,1.13,0,6,6,0,0,0,1.63.11h0a6.39,6.39,0,0,0,1.2-1.76c.82-.25,1.16-.12,1.31,0,.42.41-.16,1.24,0,2.44a3.65,3.65,0,0,0,.85,1.78l5.26,1.45h0l1.38,1.76-9.73,2.45h0l-9.73,2.45.38-2.19,1.18-1c1.19-1,2.39-2.05,3.58-3.06a4.43,4.43,0,0,0,1.17-4Z"/><path class="cls-15" d="M185,118.17l-.69,11.45a4.54,4.54,0,0,1-1.7-.43,6.11,6.11,0,0,1-1.49-1.51,3.47,3.47,0,0,1-.46-.79,5.12,5.12,0,0,1-.14-.68,15.72,15.72,0,0,1-.18-1.94,24.36,24.36,0,0,1,.1-3.52C180.72,117.94,185,118.17,185,118.17Z"/><path class="cls-3" d="M188.5,130.61c.32.07.34.16,1.23.45.45.15.84.26,1.8.49l2.24.52,1.38,1.75-9.73,2.46h0l-9.73,2.45.38-2.2,1.18-1q1.78-1.56,3.57-3.06a7,7,0,0,0,4.39-.51C186.38,131.33,187.31,130.34,188.5,130.61Z"/><path class="cls-11" d="M181,131.27a11.14,11.14,0,0,0,7.32-1.44c.84.73,1.39,1.22,1.38,1.23h0a29,29,0,0,0-4.2,1.52,34.47,34.47,0,0,1-5.3.36h0Z"/><path class="cls-16" d="M181,123.31a2.88,2.88,0,0,1,.93-.08c.25,0,.49,0,.73,0a2.33,2.33,0,0,1,.69.08c.06,0,.14,0,.18,0v-.08c0-.2-.34-.24-.53-.29a3.39,3.39,0,0,0-.57-.13,2.71,2.71,0,0,0-.57,0,2.3,2.3,0,0,0-.5.18l-.26.13h0l-.09,0h-.07C180.85,123.28,180.93,123.32,181,123.31Z"/><path class="cls-16" d="M187.62,122.89h-.17l-.27-.1a2.25,2.25,0,0,0-.51-.13,1.79,1.79,0,0,0-.57.08,2.7,2.7,0,0,0-.57.18c-.18.07-.48.15-.49.34v0h0s.12,0,.18,0a2.29,2.29,0,0,1,.68-.14l.72-.13a3,3,0,0,1,.94,0S187.67,122.91,187.62,122.89Z"/><path class="cls-16" d="M189.62,120.33a4.43,4.43,0,0,0-1-2.23c-.23-.24-1.23-1.13-.52-1.45-.35-.34-.81.09-.88.41,0,.1-.18.37-.17.45-.14-.71-.06-1.28-.89-1.66-1.33-.62-2.61,1-3.9,1.08-.62,0-1.73.29-1.94-.46a1.53,1.53,0,0,0-.26.31.8.8,0,0,0,0,.43c.06.25.31.68.64.68-.42,0-.69,0-.93-.35-.09.23.1.36.22.52a1.08,1.08,0,0,1-.74-.5c-.23.25-.08.6.1.84.05.08.74.57.75.47a16,16,0,0,1-.57,2.16c-.09.39.3,1.39.42,1.25,0,.23.33,1.39.36,1.6a5.38,5.38,0,0,0,.31-1c0-.15.09-.31.12-.45s.07-.48.13-.74v-.08c.33-1.1,1.35-1.27,2.55-1.11h.12a3.68,3.68,0,0,0,2.11-.43,3.28,3.28,0,0,0,.93-.68l0-.06a1.45,1.45,0,0,1,.31-.34c.07.31,0,.59.25.85a4.82,4.82,0,0,1,.56.78c.32.57.81,1.79.89,1.82a8.16,8.16,0,0,1,.19,1.1v0c0-.34.18-1.28.19-1.65C189.23,122,189.7,121,189.62,120.33Z"/></g><path class="cls-23" d="M-1.25,491s14.62,38.32,100.32,36.27c49.27-1.18,81.48-17.27,128.83,1.08,23.83,9.22,32.69,20.86,36.91,29.29,7.67,15.33,5.4,30.89,3.83,38.11a133.79,133.79,0,0,1-12.78,14.44c-8.47,8.29-13.43,11.43-17.77,15.56C232,631.59,225,641.65,222,660.18a67,67,0,0,1-9.73,24.72c-27,41.18-91.79,34.6-95.77,34.14A154.06,154.06,0,0,1-1.25,670.17Z"/><path class="cls-24" d="M1.53,502.46c36.6,14.91,67,18,88.86,17.77,57.94-.65,80.6-25.07,122.73-10,7.28,2.59,39.31,14.07,51.7,45.12,6.09,15.28,5.19,29.6,3.83,38.12a51.14,51.14,0,0,1-8.21,21.18c-7.45,10.82-15.69,12.86-21.22,25-2.23,4.86-2.21,7.06-3.58,13.4a89.71,89.71,0,0,1-16.42,36c-34.25,44.38-99.55,36.81-105,36.12A225.35,225.35,0,0,1-1.25,667.88Q.13,585.17,1.53,502.46Z"/><g id="чуваки-2"><path class="cls-25" d="M160.38,562.94l-.18.36h.14A3,3,0,0,1,160.38,562.94Z"/><path class="cls-26" d="M20.11,598.22c4.17-4.24,8.12,2.42,10,5.19,1.3,1.89,5.84,7,5.19,9.43-.24.87-.35.83-1.23,1a5.44,5.44,0,0,1-2.65-.27,15.12,15.12,0,0,1-9.78-8.31c-.16,1.09-.25,2.2-.31,3.3a.33.33,0,0,1-.34.29.36.36,0,0,1-.17-.07c-.41-.31-.81-.62-1.2-.95-1.46-1.23-.65-2.79-1-4.65A5.75,5.75,0,0,1,20.11,598.22Z"/><path class="cls-27" d="M66.33,702.22a3.91,3.91,0,0,0,3.51.23,1.07,1.07,0,0,0,.13-2,3.89,3.89,0,0,0-3.51-.24A1.08,1.08,0,0,0,66.33,702.22Z"/><path class="cls-27" d="M68.68,654.5l-3,46.2a.54.54,0,0,0,0,.18.38.38,0,0,0,.34.24l4.19.28a.41.41,0,0,0,.37-.2.48.48,0,0,0,0-.17l3-46.21a.41.41,0,0,0-.37-.42l-4.18-.27A.4.4,0,0,0,68.68,654.5Z"/><g class="cls-28"><path class="cls-27" d="M68.17,662.43a.28.28,0,0,0,0,.18,1.1,1.1,0,0,0-.06.26,1.2,1.2,0,0,0,.65,1.06,3.89,3.89,0,0,0,3.51.23,1.23,1.23,0,0,0,.87-1,.62.62,0,0,0,0-.27.38.38,0,0,0,.06-.16l.51-7.92a.4.4,0,0,0-.37-.42l-4.18-.27a.39.39,0,0,0-.42.37Z"/></g><path class="cls-27" d="M211.07,586.53l-73.75-49.74A17.41,17.41,0,0,0,120,535.58l-131.1,64.06a4.58,4.58,0,0,0-2.12,6.11,4.66,4.66,0,0,0,1.59,1.82l74.93,50a17.38,17.38,0,0,0,17.36,1.12l129.92-64.25a4.59,4.59,0,0,0,.53-7.91Z"/><path class="cls-29" d="M211.33,578.19l-73.72-49.74a17.38,17.38,0,0,0-17.36-1.21l-131.15,64a4.59,4.59,0,0,0-2.1,6.15,4.67,4.67,0,0,0,1.57,1.79l75,50a17.4,17.4,0,0,0,17.4,1.12L210.83,586.1a4.58,4.58,0,0,0,2-6.16A4.48,4.48,0,0,0,211.33,578.19Z"/><path class="cls-30" d="M116.84,618.94,157.19,599c1.83-.91,1.94-2.56.24-3.69l-14.72-9.82a7.07,7.07,0,0,0-6.39-.41L96,605c-1.83.91-1.94,2.59-.24,3.69l14.72,9.82A7.07,7.07,0,0,0,116.84,618.94Z"/><polygon class="cls-30" points="158.81 594.44 158.57 598.13 113.59 619.5 94.53 606.78 94.71 603.98 158.81 594.44"/><path class="cls-31" d="M117,616.14l40.35-19.95c1.83-.9,1.94-2.55.24-3.68l-14.72-9.82a7.07,7.07,0,0,0-6.39-.41L96.15,602.22c-1.83.9-2,2.55-.23,3.69l14.71,9.81A7.07,7.07,0,0,0,117,616.14Z"/><polygon class="cls-31" points="109.06 610.1 148.16 590.78 144.97 588.65 105.88 607.97 109.06 610.1"/><polygon class="cls-31" points="114.53 613.74 153.62 594.42 150.44 592.3 111.34 611.62 114.53 613.74"/><polygon class="cls-25" points="147.4 590.73 109.09 609.67 106.63 608.03 144.94 589.09 147.4 590.73"/><polygon class="cls-25" points="152.88 594.38 114.56 613.32 112.1 611.67 150.41 592.73 152.88 594.38"/><polygon class="cls-25" points="142.12 586.65 103.81 605.59 101.34 603.94 139.66 585 142.12 586.65"/><path class="cls-27" d="M102,564.92s-5,11.36-.91,14.09l2,1.3h0l7.78,5.19a1.26,1.26,0,0,1-.16,2.38l-11.77,5.84a4.47,4.47,0,0,1-4.11-.31l-5.54-3.74h0l-1.77-1.29-.24-.17-.06-.05-1.88-1.36s-3.43-2.87-2.82-12.25Z"/><path class="cls-32" d="M82.55,572.39c-.6,9.38,2.83,12.25,2.83,12.25L87.27,586s0,0,.06.06l.24.16c.53.39,1.12.81,1.76,1.29h.06L90,588l4.9,3.34a4.51,4.51,0,0,0,4.12.3l11.76-5.83a1.26,1.26,0,0,0,.16-2.39l-4.91-3.28-2.86-1.91h0l-2-1.32c-4-2.67.65-13.53.9-14.07h0Z"/><path class="cls-29" d="M82.55,572.39c-.6,9.38,2.83,12.25,2.83,12.25L87.27,586s0,0,.06.06l.24.16c.53.39,1.12.81,1.76,1.29h.06L90,588l16-7.85-2.86-1.9h0l-2-1.33c-4-2.67.65-13.53.9-14.07h0Z"/><g id="_Группа_9" data-name=" Группа 9"><path class="cls-11" d="M57.64,534.47,120,503.66c1.55-.76,2.67-.33,3.89.81l2.68,1.73-3.12,1.95-3,46.94a8.24,8.24,0,0,1-4.15,6.22l-61,30.13L55,594.11a.48.48,0,0,1-.51.45.52.52,0,0,1-.27-.1l-2.7-2.13a2.5,2.5,0,0,1-1.23-2.64l3.17-49A8.24,8.24,0,0,1,57.64,534.47Z"/><path class="cls-10" d="M57.41,543.31l-3.17,49c-.15,2.39,1.45,3.45,3.59,2.4l62.33-30.8a8.27,8.27,0,0,0,4.15-6.22l3.16-49c.16-2.38-1.45-3.46-3.58-2.4l-62.34,30.8A8.28,8.28,0,0,0,57.41,543.31Z"/><polygon class="cls-12" points="119.68 559.09 122.73 511.91 62.04 541.9 58.99 589.08 119.68 559.09"/><path class="cls-27" d="M54.85,582.83l-.61,9.47c-.15,2.39,1.45,3.45,3.59,2.4l62.33-30.8a8.27,8.27,0,0,0,4.15-6.22l.61-9.47Z"/><path class="cls-27" d="M54.94,595.15a3,3,0,0,1-1.13-2.87l.65-9.73,71-35.07-.65,10.22a8.61,8.61,0,0,1-4.39,6.58L58,595.09a3.77,3.77,0,0,1-1.94.45A2.29,2.29,0,0,1,54.94,595.15Zm.33-12-.59,9.22a1.85,1.85,0,0,0,3,1.94L120,563.48a7.79,7.79,0,0,0,3.89-5.83l.56-8.72Z"/></g><path class="cls-33" d="M91.42,571.6c-.09,1.44.88,2.09,2.17,1.45a5,5,0,0,0,2.52-3.77c.09-1.44-.88-2.08-2.17-1.45A5,5,0,0,0,91.42,571.6Z"/><path class="cls-34" d="M152.71,588.19h0a.81.81,0,0,0,0-.22A.29.29,0,0,1,152.71,588.19Z"/><path class="cls-15" d="M153.53,586.05a.74.74,0,0,0,.58.09.18.18,0,0,1,.06-.16Z"/><path class="cls-15" d="M150.29,591.92H150l.91-.76C150.69,591.42,150.5,591.67,150.29,591.92Z"/><path class="cls-15" d="M163.75,599c-1.58,2-6.36,1-10.76-2.38,1.29-.29,2.59-.5,3.72-.65a23.13,23.13,0,0,1,7.38.2A3.16,3.16,0,0,1,163.75,599Z"/><path class="cls-26" d="M158.78,566.85l.38.07Z"/><polygon class="cls-30" points="93.9 532 110.7 523.29 110.17 534.96 93.37 543.66 93.9 532"/><polygon class="cls-30" points="73.74 542.44 90.54 533.74 90.01 545.41 73.2 554.11 73.74 542.44"/><polygon class="cls-35" points="93.19 547.44 110 538.74 109.47 550.4 92.66 559.11 93.19 547.44"/><polygon class="cls-30" points="73.03 557.89 89.83 549.19 89.3 560.85 72.49 569.56 73.03 557.89"/><path class="cls-3" d="M78.92,566.22l6.19-3.2c0-1.85-.48-3.33-1.34-3.57-.4-.12-.86.08-1.75.49S80.35,560.7,78.92,566.22Z"/><path class="cls-3" d="M83.64,558.25c-.26.65-1,1.3-1.63,1.12a1.21,1.21,0,0,1-.75-.65,2,2,0,0,1,.79-2.36,1.35,1.35,0,0,1,1.22-.13C83.88,556.54,83.93,557.57,83.64,558.25Z"/><path class="cls-3" d="M99.19,540.63l6.19-3.24c0-1.85-.48-3.32-1.33-3.57-.41-.12-.87.09-1.76.49S100.62,535.11,99.19,540.63Z"/><path class="cls-3" d="M103.91,532.66c-.27.65-1,1.3-1.63,1.12a1.24,1.24,0,0,1-.75-.65,2,2,0,0,1,.78-2.36,1.38,1.38,0,0,1,1.23-.14C104.15,531,104.2,532,103.91,532.66Z"/><path class="cls-3" d="M78.38,551.42l6.19-3.21c0-1.85-.48-3.32-1.34-3.57-.4-.12-.86.09-1.76.49S79.8,545.92,78.38,551.42Z"/><path class="cls-3" d="M83.1,543.47c-.27.65-1,1.3-1.63,1.12a1.24,1.24,0,0,1-.75-.65,2,2,0,0,1,.78-2.36,1.38,1.38,0,0,1,1.23-.14C83.34,541.76,83.39,542.79,83.1,543.47Z"/><g id="дама-2"><rect class="cls-26" x="114.11" y="690.13" width="8.06" height="3.36" rx="1.12" ry="1.12" transform="translate(-579.86 765.06) rotate(-86.3)"/><path class="cls-15" d="M122.76,643.75l-.28,2.6-3.84,36.17v.06a5.5,5.5,0,0,1,.23,1.94,10.21,10.21,0,0,1-7.3,1.94,25.39,25.39,0,0,0-.11-5.3c0-.39-.59-36.43-.59-36.43v0C115.28,645,118.35,643.22,122.76,643.75Z"/><path class="cls-26" d="M111.75,690.74c-3,1.85-2.86,3.78-7.13,2.44a8.12,8.12,0,0,1-3.62-2,3,3,0,0,1-.48-3.62,4.76,4.76,0,0,1,3.25-1.54,19.66,19.66,0,0,1,6.22,0,5.22,5.22,0,0,1,2.72,1.1C114.19,688.46,113.1,689.91,111.75,690.74Z"/><path class="cls-15" d="M113.67,682.8a7.53,7.53,0,0,0-2,1.3,27.59,27.59,0,0,0-6.29,5.65,5.1,5.1,0,0,0,3.33,3,24.19,24.19,0,0,0,2.8-.79,14.93,14.93,0,0,0,6.38-4.62c.2-.26.4-.6.24-.88L115.82,684c-2.26-2.49-6,.61-8.57,1.73-1,.42-2,1-2.14,2s.75,1.77,1.6,2.24a8.12,8.12,0,0,0,2.7.94Z"/><path class="cls-26" d="M119.67,683.64a3.81,3.81,0,0,0-3.53.28c-1.76.91-3.12,2.5-4.68,3.69-2.16,1.64-4.27,2.49-6.69,1.2-.85.44-1.46,1-1.48,1.64,0,1,1.62,2.32,2.35,2.89,2.29,1.8,6.31-.59,8.32-1.46,1.58-.65,3.2-.43,4.7-1C120.68,690.16,121.6,685.62,119.67,683.64Z"/><rect class="cls-26" x="135.16" y="678.65" width="8.06" height="3.36" rx="1.12" ry="1.12" transform="translate(-548.71 775.33) rotate(-86.3)"/><path class="cls-15" d="M143.58,640.8l0-1.18L140,671.29v.06a5.55,5.55,0,0,1,.22,1.94,10.24,10.24,0,0,1-7.29,2,24.81,24.81,0,0,0-.12-5.31c0-.39-.22-30.38-.22-30.38h0C137,639.88,139.18,640.24,143.58,640.8Z"/><path class="cls-26" d="M133.11,679.53c-3,1.86-2.86,3.78-7.13,2.44a8.08,8.08,0,0,1-3.63-2,3,3,0,0,1-.48-3.63,4.75,4.75,0,0,1,3.25-1.53,19.09,19.09,0,0,1,6.22,0,5.35,5.35,0,0,1,2.74,1.08C135.55,677.25,134.46,678.7,133.11,679.53Z"/><path class="cls-15" d="M135,671.6a7.48,7.48,0,0,0-2,1.3,27.78,27.78,0,0,0-6.29,5.64,5.08,5.08,0,0,0,3.33,3,21.34,21.34,0,0,0,2.81-.79,14.93,14.93,0,0,0,6.36-4.62c.2-.26.4-.6.24-.88-.75-.82-1.51-1.65-2.26-2.49-2.27-2.49-6.06.65-8.57,1.73-1,.43-2,1-2.15,2.06s.76,1.76,1.6,2.24a8.68,8.68,0,0,0,2.7.94Z"/><path class="cls-26" d="M141,672.43a3.84,3.84,0,0,0-3.53.28c-1.76.91-3.12,2.5-4.68,3.69-2.15,1.64-4.27,2.5-6.68,1.2-.86.44-1.47,1-1.49,1.64,0,1,1.63,2.32,2.36,2.89,2.28,1.81,6.3-.59,8.31-1.45,1.58-.65,3.21-.44,4.7-1C142,678.94,143,674.41,141,672.43Z"/><path class="cls-36" d="M115.66,641.32l11.07-5.42c4.27-1.81,7.36,1,11.7,2.59l-.52-.6,2.29-3.12,24.79-.14c8.33,5.45,8.64,26.58,8.64,26.58v.16h0c.47,8.59-13.23,14.14-23.58,15a16.82,16.82,0,0,1-10.37-2.52l-1.66-1L114.13,658C106.94,653.21,107.75,644.68,115.66,641.32Z"/><path class="cls-15" d="M164,614.09a23.89,23.89,0,0,0,.26-2.67c-.48-1.21-.92-2.3-.91-2.38l-16.74-13.31a3.2,3.2,0,0,0-2.24-1h-.46a3.21,3.21,0,0,0-2.81,3.56,3.16,3.16,0,0,0,.86,1.83L158.2,616l0,0a3.46,3.46,0,0,0,5.79-2Z"/><path class="cls-15" d="M140.74,601.83c2,2.09,4.93,2.52,6.59.95s1.4-4.54-.58-6.63-4.93-2.52-6.59-.95S138.76,599.73,140.74,601.83Z"/><path class="cls-37" d="M166.89,631a33.11,33.11,0,0,0-.2,4.34,2,2,0,0,1-1,1.82,26.44,26.44,0,0,1-4,1.77c-4,1.37-8.49,2-12.57.82l-.48-.15c-2.34-.77-7.42-2.51-7.7-5.48a2.28,2.28,0,0,1,0-.37,8,8,0,0,1,.09-.84l.86-13.23c-1-3.89-3.24-6.8-1.73-11.59a17.24,17.24,0,0,1,3.15-6c2.38-2.86,5.64-4.54,9.73-5.42,1.3-.28,2.59-.5,3.72-.65a22.57,22.57,0,0,1,7.38.2,10.5,10.5,0,0,1,6.41,3.36,5.88,5.88,0,0,1,.51.72c2.76,4.8.72,11.13-.72,16S167.4,626,166.89,631Z"/><polygon class="cls-15" points="163.23 600.78 154 600.18 153.3 593.31 152.77 588.13 162 588.73 163.23 600.78"/><polygon class="cls-15" points="159.53 590.37 154.49 597.04 154.2 597.02 153.5 590.15 159.53 590.37"/><path class="cls-15" d="M144.45,582.43c.21.76.7.76,1.39,1.67,1.89,2.45.12,4.72,1.54,6.63,1.1,1.46,3.25,1.61,6.82,1.85,2.2.14,3.3.22,4.45-.23,2.71-1.06,4.38-4,5.5-6.92a26.26,26.26,0,0,0,1-3.37,12.61,12.61,0,0,0,.27-4,11.38,11.38,0,0,0-3.82-7.22,18,18,0,0,0-7.07-3.6,6.06,6.06,0,0,0-3.81-.18,3.25,3.25,0,0,0-1.87,1.85,2.42,2.42,0,0,0-.2.95,12.54,12.54,0,0,1-1.46,7.3C146,579.36,144,580.76,144.45,582.43Z"/><path class="cls-38" d="M168.64,578.4a17.28,17.28,0,0,1-2,5.78,13.68,13.68,0,0,1-5.63,6c-4.27,2.17-9,1.1-9.08.65s1.85-.14,2.78-1.49c1.3-1.91-.39-5.33-.93-6.38a22.91,22.91,0,0,0-2-3c-1-1.41-4.19-6.28-2.84-11a7.11,7.11,0,0,1,2.34-3.76s3.68-2.87,10.29.16a11.47,11.47,0,0,1,2.85,1.86l.16.14A12.76,12.76,0,0,1,168.64,578.4Z"/><path class="cls-15" d="M154.27,582.11a.8.8,0,0,0,.58.15.16.16,0,0,1,.06-.15Z"/><path class="cls-39" d="M150.49,608.86c-1-2.19-2-3.78-4.54-3.53a33.15,33.15,0,0,0-5.29,1.19c-.2.49-.39,1-.56,1.53-1.49,4.79.7,7.68,1.73,11.59L141,632.87c0,.28-.07.56-.09.84a1.15,1.15,0,0,0,0,.37c.28,3,5.36,4.71,7.69,5.48l.49.15,1.94-30A4.45,4.45,0,0,1,150.49,608.86Z"/><path class="cls-15" d="M138.72,631.73a24.07,24.07,0,0,0,.26-2.68c-.48-1.21-.91-2.29-.91-2.38l-16.74-13.31a3.22,3.22,0,0,0-2.24-1h-.46a3.16,3.16,0,0,0-1.83.86,3.21,3.21,0,0,0-.11,4.53h0l16.21,15.89,0,0a3.46,3.46,0,0,0,4.89-.17A3.51,3.51,0,0,0,138.72,631.73Z"/><path class="cls-15" d="M115.44,619.49c1.94,2.1,4.92,2.52,6.58,1s1.4-4.54-.58-6.62-4.93-2.53-6.59-1S113.45,617.37,115.44,619.49Z"/><path class="cls-15" d="M120.52,614.87h0a1.37,1.37,0,0,0,.06-1.94l-5.69-6a1.36,1.36,0,0,0-1.94-.06h0a1.37,1.37,0,0,0-.06,1.94l5.69,6A1.37,1.37,0,0,0,120.52,614.87Z"/><path class="cls-37" d="M136,634.67h.06a4.55,4.55,0,0,0,5.92-2.49c.05-.13.1-.26.14-.39l7.13-22.32a4.75,4.75,0,0,0-9.05-2.89h0l-2.81,8.8L134.65,624h0C133.43,628.22,131.13,632.46,136,634.67Z"/><path class="cls-38" d="M150.61,577.1c0-.21.11-.57.2-1.3.47-3.66,0-7.61,3.42-10.15,2.35-1.77,5.58-1.67,8.51-1.3,3.19.4,6.48,1.06,9.07,2.93,4.91,3.53,4.37,11.59,2.51,16.67a40.53,40.53,0,0,0-1.79,6.31c-.17,3.32,1.64,5.13,5.38,6a8.43,8.43,0,0,1,6.07,5.39,11.78,11.78,0,0,1,.72,4.32c-.08,4.59.28,5.88,5.49,7.85a11.94,11.94,0,0,1,7,7.14c3.21,8.42-1.41,20-10.3,25.81s-18.71,3.76-21.92-4.65a18.52,18.52,0,0,1-.15-11.63c1.94-6.65,1.35-7.78-1.47-10.47h0c-4.15-5.83-4.34-9.64-3.51-12.12,1-2.9,3.37-4.12,2.87-6.3-.61-2.65-4.47-2.11-6-5.63-.82-1.88-.65-4.13-.42-6.59s.65-2.28.49-3.32C156.25,582,150.6,581.1,150.61,577.1Z"/></g><g id="креселко-2"><g id="_Группа_10" data-name=" Группа 10"><g id="_Группа_11" data-name=" Группа 11"><path class="cls-34" d="M172.33,715.31a5.76,5.76,0,0,0-2.31-4.67c-1.38-.92-2.59-.32-2.69,1.34a5.76,5.76,0,0,0,2.3,4.67C171,717.57,172.25,717,172.33,715.31Z"/><path class="cls-34" d="M172.33,715.31a5.76,5.76,0,0,0-2.31-4.67c-1.38-.92-2.59-.32-2.69,1.34a5.76,5.76,0,0,0,2.3,4.67C171,717.57,172.25,717,172.33,715.31Z"/><polygon class="cls-34" points="168.14 710.38 165.82 711.4 168.93 718.05 171.64 716.85 171.21 713.2 168.14 710.38"/><path class="cls-30" d="M170.07,716.32a5.75,5.75,0,0,0-2.31-4.67c-1.39-.93-2.59-.33-2.7,1.33a5.78,5.78,0,0,0,2.31,4.68C168.75,718.58,170,718,170.07,716.32Z"/><path class="cls-30" d="M170.07,716.32a5.75,5.75,0,0,0-2.31-4.67c-1.39-.93-2.59-.33-2.7,1.33a5.78,5.78,0,0,0,2.31,4.68C168.75,718.58,170,718,170.07,716.32Z"/></g><g id="_Группа_12" data-name=" Группа 12"><path class="cls-34" d="M142.2,695.81a5.78,5.78,0,0,0-2.28-4.68c-1.38-.92-2.6-.32-2.7,1.3a5.75,5.75,0,0,0,2.31,4.67C140.88,698.06,142.09,697.47,142.2,695.81Z"/><path class="cls-34" d="M142.2,695.81a5.78,5.78,0,0,0-2.28-4.68c-1.38-.92-2.6-.32-2.7,1.3a5.75,5.75,0,0,0,2.31,4.67C140.88,698.06,142.09,697.47,142.2,695.81Z"/><polygon class="cls-34" points="137.99 690.87 135.67 691.9 138.78 698.54 141.49 697.34 141.06 693.69 137.99 690.87"/><path class="cls-30" d="M139.92,696.81a5.79,5.79,0,0,0-2.32-4.67c-1.38-.93-2.59-.33-2.7,1.33a5.79,5.79,0,0,0,2.31,4.67C138.62,699.07,139.81,698.47,139.92,696.81Z"/><path class="cls-30" d="M139.92,696.81a5.79,5.79,0,0,0-2.32-4.67c-1.38-.93-2.59-.33-2.7,1.33a5.79,5.79,0,0,0,2.31,4.67C138.62,699.07,139.81,698.47,139.92,696.81Z"/></g><g id="_Группа_13" data-name=" Группа 13"><path class="cls-34" d="M142.51,714.15a5.77,5.77,0,0,0-2.31-4.68c-1.38-.92-2.59-.33-2.7,1.33a5.77,5.77,0,0,0,2.31,4.68C141.17,716.42,142.38,715.81,142.51,714.15Z"/><path class="cls-34" d="M142.51,714.15a5.77,5.77,0,0,0-2.31-4.68c-1.38-.92-2.59-.33-2.7,1.33a5.77,5.77,0,0,0,2.31,4.68C141.17,716.42,142.38,715.81,142.51,714.15Z"/><polygon class="cls-34" points="138.28 709.23 135.96 710.25 139.06 716.89 141.78 715.7 141.34 712.04 138.28 709.23"/><path class="cls-30" d="M140.2,715.16a5.78,5.78,0,0,0-2.31-4.68c-1.38-.92-2.59-.32-2.7,1.34a5.75,5.75,0,0,0,2.31,4.67C138.89,717.39,140.09,716.82,140.2,715.16Z"/><path class="cls-30" d="M140.2,715.16a5.78,5.78,0,0,0-2.31-4.68c-1.38-.92-2.59-.32-2.7,1.34a5.75,5.75,0,0,0,2.31,4.67C138.89,717.39,140.09,716.82,140.2,715.16Z"/></g><g id="_Группа_14" data-name=" Группа 14"><path class="cls-34" d="M174,698.51a5.78,5.78,0,0,0-2.31-4.67c-1.39-.92-2.59-.33-2.7,1.33a5.77,5.77,0,0,0,2.31,4.68C172.68,700.77,173.89,700.17,174,698.51Z"/><path class="cls-34" d="M174,698.51a5.78,5.78,0,0,0-2.31-4.67c-1.39-.92-2.59-.33-2.7,1.33a5.77,5.77,0,0,0,2.31,4.68C172.68,700.77,173.89,700.17,174,698.51Z"/><polygon class="cls-34" points="169.78 693.58 167.47 694.61 170.57 701.25 173.28 700.05 172.86 696.4 169.78 693.58"/><path class="cls-30" d="M171.68,699.52a5.76,5.76,0,0,0-2.3-4.68c-1.39-.92-2.6-.32-2.7,1.34a5.74,5.74,0,0,0,2.31,4.67C170.39,701.77,171.61,701.18,171.68,699.52Z"/><path class="cls-30" d="M171.68,699.52a5.76,5.76,0,0,0-2.3-4.68c-1.39-.92-2.6-.32-2.7,1.34a5.74,5.74,0,0,0,2.31,4.67C170.39,701.77,171.61,701.18,171.68,699.52Z"/></g><path class="cls-29" d="M135.73,706.5l12-5.91-11.08-7.39c-1.83-1.21-1.71-3,.26-4h0a7.62,7.62,0,0,1,6.86.45l11.09,7.39,11.94-5.9a7.64,7.64,0,0,1,6.87.44c1.82,1.21,1.71,3-.26,4l-11.94,5.91,11.09,7.39c1.81,1.21,1.69,3-.26,4h0a7.66,7.66,0,0,1-6.88-.44L154.31,705l-12,5.9a7.64,7.64,0,0,1-6.87-.44C133.65,709.25,133.77,707.46,135.73,706.5Z"/><path class="cls-29" d="M135.73,706.5l12-5.91-11.08-7.39c-1.83-1.21-1.71-3,.26-4h0a7.62,7.62,0,0,1,6.86.45l11.09,7.39,11.94-5.9a7.64,7.64,0,0,1,6.87.44c1.82,1.21,1.71,3-.26,4l-11.94,5.91,11.09,7.39c1.81,1.21,1.69,3-.26,4h0a7.66,7.66,0,0,1-6.88-.44L154.31,705l-12,5.9a7.64,7.64,0,0,1-6.87-.44C133.65,709.25,133.77,707.46,135.73,706.5Z"/></g><g id="_Группа_15" data-name=" Группа 15"><path class="cls-27" d="M160.36,701.21c-.15,2.16-2.86,3.73-6.06,3.52s-5.68-2.11-5.54-4.26,3-5.55,6.16-5.34S160.49,699.07,160.36,701.21Z"/></g><g id="_Группа_16" data-name=" Группа 16"><path class="cls-29" d="M159,698.26c-.11,1.58-2.09,2.73-4.45,2.59s-4.16-1.55-4.06-3.13,2.09-2.74,4.43-2.59S159.1,696.68,159,698.26Z"/></g><path class="cls-27" d="M156.73,667.33a2.62,2.62,0,0,1,2.43,2.8l-1.65,25.39a2.6,2.6,0,0,1-5.19-.34L154,669.79a2.61,2.61,0,0,1,2.72-2.47Z"/><path class="cls-30" d="M201.66,622.51l-6.87,43.23a7.5,7.5,0,0,1-4,5.5L154,689.82a7.46,7.46,0,0,1-7.37-.37l-26.28-16.7a12.42,12.42,0,0,1-5.77-10.38h0a5.28,5.28,0,0,1,8.2-4.47l17,11.22a4.57,4.57,0,0,0,6.68-2.08L159.37,635a3.85,3.85,0,0,1,2.11-2.14l34.84-14.52a3.89,3.89,0,0,1,5.34,4.2Z"/></g><path class="cls-34" d="M63.47,582h0a.81.81,0,0,1,0-.22A.25.25,0,0,0,63.47,582Z"/><path class="cls-40" d="M62.77,579.76a.81.81,0,0,1-.59,0,.83.83,0,0,0,0-.15Z"/><path class="cls-40" d="M65.63,589c.11,0,.21,0,.32.05l-.85-.82Z"/><path class="cls-15" d="M51.69,595.28c1.45,2.13,6.31,1.37,11-1.69-1.29-.38-2.55-.65-3.7-.91a22.76,22.76,0,0,0-7.41-.28A3.18,3.18,0,0,0,51.69,595.28Z"/><path class="cls-15" d="M45.09,698.18l-3.34-43.82.86-9.91,20.48,3.09,11.85-5.3,4.13,54.81s-5.83,35.21-5.86,35.59a25.09,25.09,0,0,0-.45,5.33,9.78,9.78,0,0,1-7-2.41,5.6,5.6,0,0,1,.34-1.95v-.05l-.65-33.37-6.24-38.25-.92,16.73L57.2,698.12l-2.86,31.59c-2.17,0-5.23-.07-7.4-.18l-.26-.14a4,4,0,0,1,.2-.58Z"/><path class="cls-12" d="M72.16,630.46l2.46,3.89a18.49,18.49,0,0,1,2.91,10.17l4.38,46.79a7.42,7.42,0,0,1-5.19,7.78c-8.57,2.64-24.64,5.83-33.26-3.63L41.18,659a79.55,79.55,0,0,1,5.35-27.23Z"/><path class="cls-41" d="M43.38,626.79h-.06a4.54,4.54,0,0,1-4.13-4.92c0-.16,0-.31.07-.47l4-23.21a4.77,4.77,0,1,1,9.4,1.63L51.1,609l-1.56,9h0C48.72,622.27,48.79,627.11,43.38,626.79Z"/><path class="cls-25" d="M46.46,627.14a31.85,31.85,0,0,1-.08,4.37,2,2,0,0,0,.93,1.9,26.49,26.49,0,0,0,3.88,2c3.89,1.64,8.39,2.59,12.57,1.64l.49-.12c2.39-.65,7.61-2,8.08-5a1.5,1.5,0,0,0,0-.37,6.12,6.12,0,0,0,0-.85V617.42c1.3-3.89,3.68-6.62,2.49-11.52A17.46,17.46,0,0,0,72,599.66c-2.19-3-5.36-4.9-9.4-6.07-1.3-.37-2.55-.65-3.7-.91a22.49,22.49,0,0,0-7.41-.28,10.7,10.7,0,0,0-6.66,3,7.36,7.36,0,0,0-.55.7c-3.09,4.64-1.45,11.11-.33,16.14S46.27,622.09,46.46,627.14Z"/><polygon class="cls-15" points="52.09 593.91 61.4 593.91 62.55 587.07 63.41 581.9 54.1 581.9 52.09 593.91"/><polygon class="cls-15" points="56.48 586.9 61.11 593.91 61.4 593.91 62.55 587.07 56.48 586.9"/><path class="cls-15" d="M63.42,581.4h-.05a.74.74,0,0,1,0-.21A.23.23,0,0,0,63.42,581.4Z"/><path class="cls-15" d="M71.77,579.47c-.37.46-.94.11-1.62.65-1,.76-.59,2.14-.88,3.89-.07.43-.65,3.89-2.87,5-1,.55-2.52.3-5.53-.21-2.15-.36-3.24-.52-3.85-.91-2.21-1.43-3.24-4.49-3.8-7.39a29,29,0,0,1-.41-3.34,13.73,13.73,0,0,1,.34-3.78,10.82,10.82,0,0,1,4.41-6.2,14.89,14.89,0,0,1,6.7-2.29,5,5,0,0,1,3.36.44,3.1,3.1,0,0,1,1.36,2,2.43,2.43,0,0,1,0,.93,14.42,14.42,0,0,0,.78,5.45C70.76,576.57,72.49,578.55,71.77,579.47Z"/><path class="cls-15" d="M62.83,579.3a.67.67,0,0,1-.52.05.83.83,0,0,0,0-.15Z"/><path class="cls-36" d="M67.51,564.6c-3.41-3.54-9.61-3.72-14.21-1.94a13.44,13.44,0,0,0-5,3.38c-2,2.1-3.89,8.58-3.62,11.57s2.7,4.85,4.71,6.8a23.1,23.1,0,0,0,4.86,3.6,9.6,9.6,0,0,1,3.37-3.33c2.05-1.15,3.17-.65,4.45-2,.89-1,.81-1.74,2.14-2.94.83-.75,1.07-.65,1.6-1.21,1.08-1.15.78-2.35,1.2-4.21.72-3.24,2.54-3.52,2.52-5.71A6.09,6.09,0,0,0,67.51,564.6Z"/><path class="cls-15" d="M61.28,579.3A5.74,5.74,0,0,0,63.07,583a1.7,1.7,0,0,0,1.45.37c1.56-.4,1.41-2.87.93-4.09a2.76,2.76,0,0,0-2.08-1.81,1.87,1.87,0,0,0-2.08,1.64A1.34,1.34,0,0,0,61.28,579.3Z"/><path class="cls-31" d="M64.35,606c1.19-2.13,2.22-3.67,4.78-3.25a32.84,32.84,0,0,1,5.24,1.55c.16.5.32,1,.46,1.57,1.18,4.9-1.2,7.66-2.49,11.52v13.33a6,6,0,0,0,0,.85,2.2,2.2,0,0,1,0,.36c-.5,3-5.68,4.38-8.08,5l-.49.12V606.83A3.74,3.74,0,0,0,64.35,606Z"/><path class="cls-34" d="M46,631.48a31.13,31.13,0,0,0,.08-4.32v-.7l.65.33c6.19,3.35,12,6.49,21.9,2.32l1.08-.42a11.51,11.51,0,0,0,2.48-1.18l.65-.43v3.64a7.86,7.86,0,0,0,0,.85,1.71,1.71,0,0,1,0,.45c-.53,3.29-6,4.72-8.38,5.33a16.27,16.27,0,0,1-4,.49,24.41,24.41,0,0,1-9.26-2,27.91,27.91,0,0,1-4.05-2A2.46,2.46,0,0,1,46,631.48Z"/><path class="cls-15" d="M72.65,628.49A23.58,23.58,0,0,1,75.4,628c1.3.41,2.44.77,2.53.75l15,16.31a3.29,3.29,0,0,1,1.18,2.25,3.84,3.84,0,0,1,0,.48,3.24,3.24,0,0,1-.76,1.94,3.31,3.31,0,0,1-4.66.45L71.06,634.64l0,0a3.58,3.58,0,0,1,1.63-6.11Z"/><path class="cls-15" d="M89.82,652.82c.07-2.12.69-6.29,2.85-6.79a2.05,2.05,0,0,1,1.07.05c1.89.53,2.54,3.33,3,5.18.4,1.68.6,2.52.33,3.38-.77,2.46-4.27,4.24-6,3.19C89.69,657,89.76,654.82,89.82,652.82Z"/><path class="cls-15" d="M95.18,650.92a1.57,1.57,0,0,1,1,.31,2.66,2.66,0,0,1,.89,2.23l.58,7.24a1.42,1.42,0,0,1-1.22,1.58l-.18-.42c-.11-.25-.21-.52-.31-.8a14.25,14.25,0,0,1-.65-2.67c-.46-1.94-.94-3.89-1.4-5.88A1.43,1.43,0,0,1,95.18,650.92Z"/><path class="cls-25" d="M74.33,633.7h-.07A4.77,4.77,0,0,1,68.61,630c0-.13,0-.27-.07-.41l-3.24-24.3A5,5,0,0,1,75.16,604l1.29,9.57,1.3,9.44h0C78.22,627.55,79.8,632.34,74.33,633.7Z"/><path class="cls-36" d="M48.93,565.89c-5,.27-11,1.22-13,5.84-1.4,3.32,0,7.13-.51,10.72-.69,4.46-4.29,7.78-7.1,11.31s-4.95,8.63-2.46,12.4a12.13,12.13,0,0,1,1.52,2.31c.72,2-.72,4-1.73,5.89a16.39,16.39,0,0,0,1.18,17.19,7.9,7.9,0,0,0,4.54,3.31c3.76.78,7.07-2.67,8.75-6.12a27.53,27.53,0,0,0,2.42-16.42,8.47,8.47,0,0,1-.1-4.09c.64-2,2.8-3,4.45-4.29a12.15,12.15,0,0,0,2.86-15.33c-1-1.67-2.48-3.24-2.44-5.23.08-3.66,5-5,6.91-8.15,1.17-2,.25-5.18-1.51-7.13a6.54,6.54,0,0,0-2.2-1.58Z"/><path class="cls-34" d="M219.82,543.84l0,0a.54.54,0,0,1,0-.18A.21.21,0,0,0,219.82,543.84Z"/><path class="cls-15" d="M101.83,550.57a1.72,1.72,0,0,1-.64.11h0l.13-4.54h0s1.66.06,1.68,1.17a9.13,9.13,0,0,1-.08,1.38,5.68,5.68,0,0,1-.14.75,1.12,1.12,0,0,1-.08.26,1,1,0,0,1-.2.3,2.56,2.56,0,0,1-.65.54Z"/><path class="cls-15" d="M101.48,546.11l-.27,4.54a2.15,2.15,0,0,1-.65-.17,3.3,3.3,0,0,1-.59-.59,3.24,3.24,0,0,1-.17-.32,1.18,1.18,0,0,1-.06-.27c0-.19,0-.45-.07-.76a9.09,9.09,0,0,1,0-1.38C99.81,546,101.48,546.11,101.48,546.11Z"/><path class="cls-15" d="M100.31,551a.47.47,0,0,1,.1-.2c.11-.1.27-.08.43-.09a2.05,2.05,0,0,0,.65-.1h0a2.44,2.44,0,0,0,.31-.77c.3-.17.44-.15.51-.1s0,.49.22.94a1.5,1.5,0,0,0,.48.61l2.14.11h0l.65.56-3.49,1.75h0l-3.53,1.77,0-.88.37-.5c.37-.5.74-1,1.12-1.48a1.68,1.68,0,0,0,.24-.68A1.77,1.77,0,0,0,100.31,551Z"/><path class="cls-3" d="M103,551.23a2.05,2.05,0,0,1,.51.07c.19,0,.35,0,.73,0h.91l.65.56-3.48,1.77h0l-3.53,1.77,0-.88.37-.5c.37-.5.74-1,1.12-1.48a2.77,2.77,0,0,0,1.64-.56C102.24,551.69,102.51,551.23,103,551.23Z"/><path class="cls-16" d="M99.91,548.14a1.14,1.14,0,0,1,.37,0h.28a1.27,1.27,0,0,1,.28,0h.07c0-.08-.14-.1-.21-.11l-.22-.06h-.23l-.19.07-.11.06h-.07S99.9,548.14,99.91,548.14Z"/><path class="cls-16" d="M102.53,548h0l-.11-.05-.2,0h-.23l-.21.07c-.07,0-.19.06-.19.14h.07a1.1,1.1,0,0,1,.26-.06l.29,0a1.15,1.15,0,0,1,.37,0S102.55,548,102.53,548Z"/><path class="cls-16" d="M103.32,547a1.78,1.78,0,0,0-.4-.88c-.09-.09-.49-.46-.21-.57-.14-.13-.32,0-.34.16a1.34,1.34,0,0,0-.07.18c-.06-.29,0-.51-.35-.65-.52-.24-1,.39-1.54.43-.24,0-.68.11-.76-.18a.58.58,0,0,0-.1.12.25.25,0,0,0,0,.17.31.31,0,0,0,.25.27c-.17,0-.27,0-.37-.14,0,.09,0,.14.09.21a.52.52,0,0,1-.3-.2c-.09.09,0,.24,0,.33a1.14,1.14,0,0,0,.3.18,5.9,5.9,0,0,1-.23.85c0,.15.12.55.16.5s.14.54.15.64a2.4,2.4,0,0,0,.12-.38l0-.17a.58.58,0,0,1,0-.29c0-.11,0,0,0,0,.12-.43.53-.5,1-.43h0a1.51,1.51,0,0,0,.83-.18,1.31,1.31,0,0,0,.37-.26h0s.07-.11.11-.13,0,.23.1.34a1.7,1.7,0,0,1,.23.3c.12.22.32.71.35.71s.06.3.08.44h0c0-.13.07-.5.07-.64A.87.87,0,0,0,103.32,547Z"/><path class="cls-11" d="M100.17,552.12a4.4,4.4,0,0,0,2.7-1.18l.64.36h0a11.53,11.53,0,0,0-1.48.94,12.85,12.85,0,0,1-2,.59h0Z"/><path class="cls-26" d="M73.3,737.73c3,2.15,2.74,4.16,7.3,3a8.42,8.42,0,0,0,4-1.9,3.12,3.12,0,0,0,.75-3.77,5,5,0,0,0-3.3-1.83,20.6,20.6,0,0,0-6.55-.39,5.63,5.63,0,0,0-2.94,1C70.88,735.16,71.93,736.76,73.3,737.73Z"/><path class="cls-15" d="M71.84,729.25a8.11,8.11,0,0,1,2.06,1.48,29.35,29.35,0,0,1,6.23,6.36c-.48,1.41-2,2.43-3.72,2.94a24.83,24.83,0,0,1-2.89-1,15.63,15.63,0,0,1-6.38-5.29c-.2-.28-.38-.64-.19-.93l2.55-2.46c2.54-2.47,6.32,1,8.89,2.39,1,.51,2.08,1.21,2.11,2.31s-.9,1.81-1.83,2.25a9.11,9.11,0,0,1-2.94.8Z"/><rect class="cls-26" x="65.08" y="733.17" width="3.55" height="8.49" rx="1.18" ry="1.18"/><path class="cls-26" d="M65.46,729.71a4,4,0,0,1,3.69.53c1.79,1.08,3.11,2.84,4.67,4.2,2.15,1.87,4.32,2.91,7,1.71.86.53,1.47,1.14,1.45,1.83,0,1-1.87,2.33-2.67,2.88-2.53,1.74-6.59-1.05-8.65-2.1-1.62-.83-3.34-.65-4.88-1.36C64,736.49,63.29,731.65,65.46,729.71Z"/><path class="cls-15" d="M60.47,731.86a4.56,4.56,0,0,0,.94-2.68,2.87,2.87,0,0,0-1.57-2.46,6.89,6.89,0,0,0-1.16-.56c-2.18-.85-5-3-7.67-3a2.3,2.3,0,0,0-.76-.31l.14.35a4.5,4.5,0,0,0-3.18,2.19l-.13.18c2.15,1.19,3.8.73,5.72,2.33C55.23,729.84,57.66,733.52,60.47,731.86Z"/><path class="cls-26" d="M64.61,726.53c-.55-1-2.52-1.3-3.61-1.3a12.72,12.72,0,0,0-1.74.12,1.25,1.25,0,0,0-.65.32c0,.08.1.16.14.24a4.83,4.83,0,0,1,.57,1.65.42.42,0,0,1-.19.47,3.26,3.26,0,0,1-1.69.65c-1.8,1-4.19-1.57-5.69-2.93-1.13-1-1.65-.81-2.86-1.53l-.2-.12a2.59,2.59,0,0,0-3.11.3,5,5,0,0,0-.41.76c-1,2.23-.37,6,2.43,6a21,21,0,0,1,4.15.72c5,2.52,8.92,3.71,12.22-1.65C64.85,728.8,65.24,727.71,64.61,726.53Z"/><rect class="cls-26" x="45.8" y="726.89" width="3.55" height="8.49" rx="1.18" ry="1.18"/></g></g></svg>
