<svg xmlns="http://www.w3.org/2000/svg" id="Слой_1" data-name="Слой 1" xmlns:xlink="http://www.w3.org/1999/xlink" viewBox="0 0 1920 1225"><defs><style>.cls-1,.cls-3{fill:none}.cls-2{opacity:.84;fill:url(#Безымянный_градиент_331)}.cls-3{stroke:#d0d4ff;stroke-miterlimit:10;stroke-width:2px}.cls-4{opacity:.83;fill:url(#Безымянный_градиент_52)}.cls-5{opacity:.68;fill:url(#Безымянный_градиент_110)}.cls-6{fill:#2548aa}.cls-7{fill:#0e5edd}.cls-8{fill:#00519b}.cls-9{clip-path:url(#clip-path)}.cls-10{fill:#0267a9;opacity:.64}.cls-11{fill:#00237f;opacity:.44}.cls-12{fill:#16bbf4}.cls-13{fill:#27d6ff}.cls-14{fill:#6a2789}.cls-15{fill:#561a7c}.cls-16{fill:#4d1d73}.cls-17{fill:#fc9f90}.cls-18{fill:#ffaf99}.cls-19{fill:#a30036}.cls-20{fill:#c61749}.cls-21{fill:#990e35}.cls-22{fill:#3b1865}.cls-23{fill:#962742}.cls-24{fill:#d0d0d9}.cls-25{fill:#aa003d}.cls-26{fill:#dae1e6}.cls-27{fill:#e52364}.cls-28{fill:#ffb28a}.cls-29{fill:#ff9b7f}.cls-30{fill:#ffb797}.cls-31{fill:#a0eaff}.cls-32{fill:#ffbe95}.cls-33{fill:#db8c74}.cls-34{fill:#36c6f4}.cls-35{fill:#ef94b1}.cls-36{fill:#3a1864}.cls-37{fill:#ea8b75}.cls-38{fill:#d9dadf}.cls-39{fill:#dadee3}.cls-40{fill:#96223f}.cls-41{fill:#eb8680}.cls-42{fill:#ffa1bd}.cls-43{fill:#94213e}.cls-44{fill:#9a2e46}.cls-45{fill:#e781a1}.cls-46{fill:url(#Безымянный_градиент_199)}.cls-47{opacity:.69;fill:url(#Безымянный_градиент_11)}.cls-48{fill:#006eac;opacity:.55}.cls-49{fill:url(#Безымянный_градиент_52-2)}.cls-50{fill:url(#Безымянный_градиент_52-3)}.cls-51{fill:url(#Безымянный_градиент_52-4)}.cls-52{fill:url(#Безымянный_градиент_52-5)}.cls-53{fill:url(#Безымянный_градиент_52-6)}.cls-54{fill:url(#Безымянный_градиент_52-7)}.cls-55{fill:url(#Безымянный_градиент_52-8)}.cls-56{fill:url(#Безымянный_градиент_52-9)}.cls-57{fill:url(#Безымянный_градиент_52-10)}.cls-58{fill:url(#Безымянный_градиент_52-11)}.cls-59{fill:#eb8e22}.cls-60{fill:#00576f}.cls-61{fill:url(#Безымянный_градиент_186)}.cls-62{fill:url(#Безымянный_градиент_87)}.cls-63{fill:#635852}.cls-64{fill:#b2baff}.cls-65,.cls-70,.cls-71{opacity:.5}.cls-65{fill:url(#Безымянный_градиент_52-12)}.cls-66{fill:url(#Безымянный_градиент_52-13)}.cls-67{fill:url(#Безымянный_градиент_52-14)}.cls-68{fill:url(#Безымянный_градиент_52-15)}.cls-69{fill:url(#Безымянный_градиент_52-16)}.cls-70{fill:url(#Безымянный_градиент_52-17)}.cls-71{fill:url(#Безымянный_градиент_52-18)}.cls-72{fill:url(#Безымянный_градиент_52-19)}.cls-73,.cls-74,.cls-75{opacity:.2}.cls-73{fill:url(#Безымянный_градиент_52-20)}.cls-74{fill:url(#Безымянный_градиент_52-21)}.cls-75{fill:url(#Безымянный_градиент_52-22)}.cls-76{fill:#00cbab}.cls-77{fill:#009d91}.cls-78{fill:#0f808f}.cls-79{fill:#00ffd2}.cls-80{fill:#2f6298}.cls-81{fill:#144e8a}.cls-82{fill:#d8e2f2}.cls-83{opacity:.17}</style><linearGradient id="Безымянный_градиент_331" x1="975.64" x2="950.72" y1="794.09" y2="122.24" data-name="Безымянный градиент 331" gradientUnits="userSpaceOnUse"><stop offset="0" stop-color="#a59eff"/><stop offset="1" stop-color="#0077c2"/></linearGradient><linearGradient id="Безымянный_градиент_52" x1="2" x2="495" y1="669" y2="669" data-name="Безымянный градиент 52" gradientUnits="userSpaceOnUse"><stop offset="0" stop-color="#c1bae4"/><stop offset="1" stop-color="#fff" stop-opacity=".1"/></linearGradient><linearGradient id="Безымянный_градиент_110" x1="1322.17" x2="1139.85" y1="597.16" y2="184.41" data-name="Безымянный градиент 110" gradientUnits="userSpaceOnUse"><stop offset="0" stop-color="#b6b9ff"/><stop offset="1" stop-color="#fff" stop-opacity=".1"/></linearGradient><clipPath id="clip-path"><path d="M1686.7 459a59.4 59.4 0 0 0-49.9-18c-15.8 1.9-33.2 10.7-44.9 35.8-26.7 57.3-17.2 166.1-50.6 162.3s-48.7 206.3-107.9 148-203.4 8.6-203.4 8.6-73.5 109.8 0 139.4 26.8 159.5 325.6 116.5c294-42.2 357-356.9 131.1-592.6z" class="cls-1"/></clipPath><linearGradient id="Безымянный_градиент_199" x1="486.96" x2="778.4" y1="472.02" y2="1501.18" data-name="Безымянный градиент 199" gradientUnits="userSpaceOnUse"><stop offset="0" stop-color="#ab82e4"/><stop offset=".07" stop-color="#9c8ae8"/><stop offset=".13" stop-color="#8b92ed"/><stop offset=".96" stop-color="#0066b0"/></linearGradient><linearGradient id="Безымянный_градиент_11" x2="412.19" y1="791" y2="791" data-name="Безымянный градиент 11" gradientUnits="userSpaceOnUse"><stop offset="0" stop-color="#a8a2ff"/><stop offset="1" stop-color="#a8a2ff" stop-opacity="0"/></linearGradient><linearGradient id="Безымянный_градиент_52-2" x1="125.76" x2="572.24" y1="972.76" y2="972.76" xlink:href="#Безымянный_градиент_52"/><linearGradient id="Безымянный_градиент_52-3" x1="284.04" x2="341.76" y1="986.71" y2="1190.53" xlink:href="#Безымянный_градиент_52"/><linearGradient id="Безымянный_градиент_52-4" x1="431" x2="606.85" y1="1059.5" y2="1059.5" xlink:href="#Безымянный_градиент_52"/><linearGradient id="Безымянный_градиент_52-5" x1="270" x2="561" y1="1008.61" y2="1008.61" xlink:href="#Безымянный_градиент_52"/><linearGradient id="Безымянный_градиент_52-6" x1="42" x2="278.79" y1="1032.38" y2="1032.38" xlink:href="#Безымянный_градиент_52"/><linearGradient id="Безымянный_градиент_52-7" x1="654" x2="868" y1="895" y2="895" xlink:href="#Безымянный_градиент_52"/><linearGradient id="Безымянный_градиент_52-8" x1="565" x2="708" y1="989.5" y2="989.5" xlink:href="#Безымянный_градиент_52"/><linearGradient id="Безымянный_градиент_52-9" x1="91.82" x2="59.7" y1="960.52" y2="887.79" xlink:href="#Безымянный_градиент_52"/><linearGradient id="Безымянный_градиент_52-10" x1="910.57" x2="899.05" y1="860.52" y2="834.44" gradientTransform="rotate(10.7 888.71 857.17)" xlink:href="#Безымянный_градиент_52"/><linearGradient id="Безымянный_градиент_52-11" x1="708" x2="840" y1="914" y2="914" xlink:href="#Безымянный_градиент_52"/><radialGradient id="Безымянный_градиент_186" cx="801.42" cy="163.96" r="46.35" data-name="Безымянный градиент 186" gradientTransform="matrix(-.31 -.95 1.23 -.41 852.04 991.31)" gradientUnits="userSpaceOnUse"><stop offset=".29" stop-color="#fff"/><stop offset=".34" stop-color="#f9f9fb" stop-opacity=".99"/><stop offset=".42" stop-color="#e8eaef" stop-opacity=".95"/><stop offset=".53" stop-color="#cbd0dd" stop-opacity=".89"/><stop offset=".64" stop-color="#a5adc3" stop-opacity=".81"/><stop offset=".66" stop-color="#a0a9c0" stop-opacity=".8"/><stop offset="1" stop-color="#ebecef"/></radialGradient><linearGradient id="Безымянный_градиент_87" x1="878.07" x2="964.52" y1="223.39" y2="125.14" data-name="Безымянный градиент 87" gradientUnits="userSpaceOnUse"><stop offset="0" stop-color="#fff"/><stop offset=".3" stop-color="#fdfdfe"/><stop offset=".41" stop-color="#f6f7f9"/><stop offset=".49" stop-color="#ebecf1"/><stop offset=".55" stop-color="#dadde6"/><stop offset=".61" stop-color="#c4c9d8"/><stop offset=".66" stop-color="#a9b1c6"/><stop offset=".67" stop-color="#a0a9c0"/><stop offset="1" stop-color="#fff"/></linearGradient><linearGradient id="Безымянный_градиент_52-12" x1="217" x2="509" y1="907.92" y2="907.92" xlink:href="#Безымянный_градиент_52"/><linearGradient id="Безымянный_градиент_52-13" x1="466" x2="744.06" y1="890.52" y2="890.52" xlink:href="#Безымянный_градиент_52"/><linearGradient id="Безымянный_градиент_52-14" x1="123.98" x2="185.89" y1="840.21" y2="1058.82" xlink:href="#Безымянный_градиент_52"/><linearGradient id="Безымянный_градиент_52-15" x1="258" x2="434" y1="959.39" y2="959.39" xlink:href="#Безымянный_градиент_52"/><linearGradient id="Безымянный_градиент_52-16" x1="894" x2="969" y1="827.5" y2="827.5" xlink:href="#Безымянный_градиент_52"/><linearGradient id="Безымянный_градиент_52-17" x1="565" x2="692" y1="847" y2="847" xlink:href="#Безымянный_градиент_52"/><linearGradient id="Безымянный_градиент_52-18" x1="774" x2="914" y1="820.5" y2="820.5" xlink:href="#Безымянный_градиент_52"/><linearGradient id="Безымянный_градиент_52-19" x1="885" x2="1014" y1="793" y2="793" xlink:href="#Безымянный_градиент_52"/><linearGradient id="Безымянный_градиент_52-20" x1="58" x2="214" y1="877.05" y2="877.05" xlink:href="#Безымянный_градиент_52"/><linearGradient id="Безымянный_градиент_52-21" x1="434" x2="547" y1="869" y2="869" xlink:href="#Безымянный_градиент_52"/><linearGradient id="Безымянный_градиент_52-22" x1="136" x2="460" y1="854.68" y2="854.68" xlink:href="#Безымянный_градиент_52"/></defs><path d="M0 0h1920v745H0z" class="cls-2"/><path d="M1921 794l-606 330m429-291l-606 330m549-407l-606 330m696-436l-606 330" class="cls-3"/><path d="M495 742.5s-24-27-65-11c0 0-1-6-17-5 0 0 10-36-28-45 0 0 0-8-18-9 0 0-2-59-78-49 0 0-15 4-27-7 0 0-56-48-108 0l-12 10s-8-10-19-3c0 0-5-6-15-3 0 0-20-33-53-9 0 0-5-10-14-4 0 0 4-30-39-56v196s389 39 390 39 103-44 103-44z" class="cls-4"/><path d="M947 683s46-59 55-31c0 0 51-41.5 64-13.5 0 0 9 26 44 6 0 0 21-29 0-51 0 0-6.5 2.5-11.5-6.5 0 0-51 16-53-32 0 0-38-1-29-53 .8-4.5 1.3-8.5 3.7-12.6a33.9 33.9 0 0 1 9.7-10.6c5.5-4 11.2-7.4 18.1-7.7s9.8-1.9 5.5-8.1c0 0-22-34 28-46 0 0 7-1 0-7s-22-44 17-67c0 0 17-16 43 0 0 0 32 26 47-5 0 0-36 8-27-36l5-7a14.3 14.3 0 0 1 7-16s-23-21 1-44 44-7 44-7 9 4 11 12c0 0 20-8 9-28 0 0-5 0-7 3 0 0-22 1-18-14 0 0-40-7-9-49 0 0-27-8 1-70 0 0 28-50 95-47 0 0 20-2 37 22 0 0 24-26 58-22s43 24 43 24 9 20-8 43c0 0 10 10 6 20 0 0 4 3 12-9 0 0 43-22 56 28 0 0 40-11 50 39s-26 78-49 71c0 0 14 18-4 28 0 0 19 25-3 38s-45 10-53-3l-10 1s24 16-6 51c0 0-7 11 20 11 0 0 11-41 65-9 0 0 9 7 10 16 0 0 20-1 23 22 0 0 57 16 46 78s-38 79-58 81-33-7-33-7-4 15-18 15-12-2-12-2-5 15-25 1c0 0-14 4-9 17s17 6 17 6 17-3 14 19c0 0 28-21 36 21 0 0 17 38-19 48 0 0-3 1-7 8 0 0-5 5-17-5 0 0-19 36 7 39 0 0 22 5 33-14 0 0 5-6 9-3 0 0 10-22 32-17s28 22 30 32 2 28 9 26-619.6-17.5-619.6-17.5z" class="cls-5"/><path d="M1123 711l102.9-37.4L1259 709s-59.2 22.5-136 2z" class="cls-6"/><path d="M768 613l117 58-28 4-89-62z" class="cls-7"/><path d="M1920.5 745l-.5-69.5-226-30-180 46-90-24-51 23c-4-7-36-9-36-9-102 49-252 25-252 25a558.3 558.3 0 0 1-98.8-13c-49.8-11.3-76.7-25.5-76.7-25.5l-52.3 6.9c-7.4-7.6-14.7-14-21.2-17.9-30-18-68-44-68-44s-55.2 29-64 40c-16 20-30 27-30 27l-47.9 25.5L320.5 746l370.8-.2z" class="cls-6"/><path d="M1686.7 459a59.4 59.4 0 0 0-49.9-18c-15.8 1.9-33.2 10.7-44.9 35.8-26.7 57.3-17.2 166.1-50.6 162.3s-48.7 206.3-107.9 148-203.4 8.6-203.4 8.6-73.5 109.8 0 139.4 26.8 159.5 325.6 116.5c294-42.2 357-356.9 131.1-592.6z" class="cls-8"/><path d="M1647.3 431.7s86.9 158.5 66.8 207.2 16.3 309.4-165.2 307.5-207 102.2-207 102.2l90.5 117.4s421.1-127 425-125.1 54.4-79.2 50.6-128.9-11.5-184.3-23.9-207.2-62.1-139.4-65.9-145.1-44.9-98.4-47.7-99.3-123.2-28.7-123.2-28.7z" class="cls-9 cls-10"/><path d="M1220.5 931.1s86.9 42 129.8-13.3-17.2-78.3 103.2-71.7 112.6-48.7 112.6-48.7l-148-8.5-118.4 22.9-26.7 39.1z" class="cls-11"/><path d="M1549.6 632.6s-9.1 35.4-56 15.9c0 0-31.6-11.6-35.3-32.9 0 0-2.2 45-8.8 64.3 0 0 11.7-6.8 9.3 5.3 0 0-7.4 20.7-14.6 25.8 0 0 39 17.3 98.4-9.2s22.9-91.7 22.9-91.7z" class="cls-12"/><path d="M1545.2 829.1a31.4 31.4 0 0 1-6.6 1.5c-3.2-3.8-7.8-3.5-12.1-4.1a145.7 145.7 0 0 1-18.3-3.1c-12.6-3.2-25.3-5.9-37.8-9.7-5.5-6.1-6.4-14.3-9.3-21.6-6-14.6-11.4-29.4-19.8-43-3.2-5.2-7.9-9.3-10.5-14.9a3.3 3.3 0 0 1 .2-1.7 2.6 2.6 0 0 1 1.3-1c3-.6 5.4 1.2 8 2.1l3.3 1.1c10.6 4.1 21.3 7.9 32.4 10.4a151.2 151.2 0 0 0 88.1-2.7 40.3 40.3 0 0 1-15.1.7c-2.4-.3-4.7-1.3-1.7-4.2s7.1-3.2 10.2-5.6c8.6-8 8.9-16.4.9-26.9a15.3 15.3 0 0 0-7.5-5.2c-3.6-1-7.4.1-10.9-1.2-1.9-3.6-1-4.6 4.3-5.1 4.1 1.6 8.5.9 12.7 2.9 6.1 3 10.2 7.4 11.6 13.9s2.2 14-1.8 20.5c15.2-6.4 14.1-26.7 7-35.2-5.3-6.4-12.6-8.1-20.1-4.2-2.7 1.3-5.1 3.3-8.4 3-1.7-3.9 2.1-4.8 3.9-6.2 11.7-9 16.6-23.1 17.9-37.4a121.4 121.4 0 0 0 0-20c-.3-5.1.6-13.3-2.4-17.7-.1 0-10.3 16.3-11.1 17.9-5.1 9.2-10.8 20.5-22.1 23-17.9 4-38.2-1-53.6-10.7-12.4-7.8-24.6-24.9-21.5-43.2 1.9-11.5 6.6-17.5 11.4-28 2.9-4.4 4.8-9.4 8.3-13.5 2.2 5 21.9 3.7 26.9 2.7 4.2-2.9 9.3-2.1 14-2.9 24.8-4.5 48.3-12.7 71-23.4a3 3 0 0 1 2.3-1.4 3.1 3.1 0 0 1 1.9.3c6.7 3.4 9.4 9 9.2 16.4-.2 5.3-1.2 10.5-1.4 15.8-.6 17 2.8 33.5 5.3 50.1 1.7 10.9 2.9 21.7 4.3 32.6a24.5 24.5 0 0 1-2.1 13.6c-1.8 3.9-3.6 7.8-5.7 11.5-4.4 7.9-5.4 16.1-1.9 24.6 1 2.6 1.2 5.4 1.7 9a120.5 120.5 0 0 0 8.3-12.2c1-1.5 1.6-3.9 4.3-3.5.1 0 .1.3.2.4s-.1.4-.1.6c-.7 9.1-3.2 17.9-5.2 26.7-4.2 18.3-9.4 36.4-17 53.6-8.5 19.5-18.6 39.6-38 50.3a73.4 73.4 0 0 1-8.9 4.3z" class="cls-13"/><path d="M1446 829.5c-31.6-.8-63.3-.3-94.9-.4l-6.1.3a21.4 21.4 0 0 0-16.3 9.3 61.8 61.8 0 0 0-7.2 13.4c-11.6 27.5-31.6 46.6-58 59.7-14.6 7.2-29.7 12.9-44.8 18.9l-15.3 6c-7.9-5.3-14.3-12.2-20-19.8a2.7 2.7 0 0 1 .6-1.7 440.8 440.8 0 0 0 63.5-79.9c8-12.8 15.4-25.8 23-38.8 3.6-6.1 8.4-8.7 15.7-7.8s15.7 5.1 21.9 11 13.8 14.8 22.1 20.9a29.6 29.6 0 0 0 18.6 6.2c18.7-.3 37.4.2 56.1-.3 10-.3 19.9.3 29.9 0 3.8.7 8.6-2.1 11.2 3z" class="cls-14"/><path d="M1443.6 829.4a39.6 39.6 0 0 1-8.7-1.4h-.4c-21.9-1.9-41.9-10.2-61.8-18.7-17.4-7.5-33.4-17.5-50.1-26.4-5.6-2.9-11.2-5.6-17.4-7.1l-6.7-.5c-3.2-.8 3.4-4.9 6.6-5.5a34.2 34.2 0 0 1 4.5-.4c12-1 22.8 3.6 33.4 8.2 22.6 9.6 45.7 17.7 69.8 23.3a271.9 271.9 0 0 0 35.9 6.1c5.6.6 5.9.2 4-5-5.9-16.4-11-33.2-19.2-48.7-1.9-3.6-4-7-6.2-10.4-6.9-10.7-15.9-16-29.4-15.6-17.6.5-34.8 2.4-51.7 7.1-19.2 5.2-38.6 7-58.4 4.1a70.5 70.5 0 0 1-10.2-1.9c-2.2-.7-4.9-1.2-4.7-4.6a158.2 158.2 0 0 1 19.1-14.6 91 91 0 0 1 8.8-4.5l.6-.5c1.7-1.6 3.9-.9 6-.7 21.8 1.7 43.5 4.6 65.2 6.4 15.3 1.9 30.8 2.4 46 5.1l.7.2c5.7 2.6 9.4 6.2 13.2 11.1 2.4 3 4.8 6.1 7 9.2 12.8 18.3 19.6 39.8 27.6 60.3a158.4 158.4 0 0 0 8.1 17.2l2.9 5.7c.3.4 2.3 6.1 1 6-10.1-.4-20.2-.9-30.1-2.8a33.3 33.3 0 0 0-5.4-.7z" class="cls-15"/><path d="M1616 689a9.2 9.2 0 0 1-3.2 5.4c-.6.5-.6 1.6-.9 2.3a90.4 90.4 0 0 1-11.8 16.2c.5-6.8-2.3-12.7-3.8-18.9a22.7 22.7 0 0 1 2.2-15.9c2.4-4.5 4.6-9.1 6.9-13.6a24.2 24.2 0 0 0 2.1-17.1c-1.1-4.5-1.1-9.2-1.6-13.8-.7-7-2.3-13.9-3.1-20.9s-1.8-13-3-19.4c-1.8-9.3-1.2-18.8-1.5-28.2-.1-3.9 1-7.6 1.5-11.4.9-8-2.2-13.7-8.7-17.9 1.5-3.5 5.3-2.6 7.8-4.3s3.1.5 4.5 1.1a34.4 34.4 0 0 1 8.8 5.8 36.7 36.7 0 0 1 7.9 10.4 54.6 54.6 0 0 1 3.9 9.7 108.9 108.9 0 0 1 5.1 27.2c.3 5.9 1.2 11.7 1 17.5-.6 11.3-1.3 22.6-2.3 33.8a194.1 194.1 0 0 1-4.9 32.2c-1.5 5.9-3.1 11.8-6 17.1a9.5 9.5 0 0 0-.9 2.7z" class="cls-12"/><path d="M1403.3 828l-59.7.3c-4 0-7.4-2-10.6-4a52.1 52.1 0 0 1-11.5-8.9c-5.2-5.4-10.6-10.6-15.9-16s-15.1-9.4-24.2-9.5c-3.5-.1-6.7 2.3-8.7 5.8-5.6 9.9-11.2 19.7-17.1 29.4-10.9 17.7-21.9 35.4-35.2 51.6-7.2 8.7-14.3 17.5-22.1 25.8-3.3 3.5-6.2 7.4-9.7 10.8l-4.7 4c-3.8-3.6-7.2-6.3-8.9-10.7 11.8-14.1 23.7-28.1 35.5-42.1l21.1-25.1c1-1.2-.7-2.2-.4-3.5 15-13.6 26.5-30.2 40.1-45.1 5.1-5.7 11.3-10.1 17.6-14.3a7.4 7.4 0 0 1 5-1.5c11.5 0 20.4 5.9 29 12.7 10.6 8.5 20.9 17.4 32.9 23.9s27.7 11.4 42.6 13.9c1.9.4 4.3-.3 4.9 2.5z" class="cls-16"/><path d="M1191.9 847.7c-5.6-10.6-11.4-21-16.8-31.6a3.7 3.7 0 0 0-2.6-2.3c-7.9 4.6-14.9 10.9-22.2 16.2s-14 10.5-21.5 15.1a203.2 203.2 0 0 1-48.3 21l-9.9 2.5c-2.9 5.6-1.4 11.1.1 16.6 1 3.2 3.4 4.4 6.7 3.6a38.9 38.9 0 0 0 7.5-2.5 100.5 100.5 0 0 1 30.5-8.1c3.3-.4 7 .1 9.8-2.4a12.4 12.4 0 0 1 7.9-6.2c3.7-1.1 7.3-2.4 11-3.6 16-5 32.4-9.1 48.2-14.9a3.7 3.7 0 0 0-.4-3.4z" class="cls-17"/><path d="M1192.3 851.1c-6.8-12.3-13.8-24.6-19.8-37.3 2.3-2.4 1.5-1.8 7.7-7.2 8.9-7 23.3-20 33.8-20.6 6.6-.4 9.5 13.6 16.2 13.8 10.3.3 20-2.5 29.6-5.7 2.4-.9 4.8-2.2 7.5-2.1s1.8 3 .3 4.3c-7 5.8-12.6 13.1-19.7 18.8-8.6 7-15.7 15.5-22.6 24.2-10.6 4.9-21.8 8.4-33 11.8z" class="cls-15"/><path d="M1175 906.6c3 3.1 9.1 10.2 9.1 10.6.6 2.4-1.1 3.7-2.6 5.1-14 13.2-24.7 29.3-38 43.1-4.4 4.7-5.5 11.2-7.7 17s-9.7 8.6-13.2 14.2-7.2 8.1-10.7 12.3-8.4 5-12.8 1.3-8.6-5.5-9.1-11.2c29.9-27.1 55-58.8 81.7-89 1-1.2 3-3 3.3-3.4z" class="cls-17"/><path d="M1135.1 982c1.1-6.7 3-13.3 7.9-18.2 7.1-7.1 12.8-15.4 19.5-22.9 5.1-5.7 9.8-11.9 15.4-17.1 2.2-2 4.6-4 6.2-6.6 6.9 6 13.1 12.8 19.3 19.5-9.7 4.9-19.8 9.2-29 15.1a160.9 160.9 0 0 0-19.8 15c-2.4 2.1-4.1 4.5-3.8 7.9-5.4 2-9.7 6.4-15.7 7.3z" class="cls-18"/><path d="M1070.6 868.6c1.2 4.5 1.2 15.3 1.4 16 .7 2.4 1.9 3.9 4.9 2.8s8.4-2.9 12.4-4.6c11.5-5 23.6-6.6 35.9-7-1.9 10.4-7.3 17.7-17.6 21.2a118.2 118.2 0 0 0-20.4 9.5l-2.1 1.1a1.9 1.9 0 0 1-2.2-.6 1.7 1.7 0 0 1 .3-2.7c2.2-1.5 4.5-2.7 6.7-4.1a45.7 45.7 0 0 0 7.8-5.9c.7-.7 1.5-1.5 1.1-2.6s-1.7-1.1-2.6-1l-6.6 1c-1.2.2-2.4.3-3.6.6-9.8 2.6-17.8.8-23.7-8.3-3.8-6-8.5-11.4-12.7-17.1a35 35 0 0 1-2.4-4.2 2.9 2.9 0 0 1 .4-3.4 3 3 0 0 1 3.4-.4c2.6 1.1 5.2 2.3 7.7 3.6z" class="cls-19"/><path d="M1135.1 982c3-1.9 5.9-3.9 8.9-5.7a10.3 10.3 0 0 1 6.8-1.6c2.6 5 2 10.2.6 15.3a41.2 41.2 0 0 1-7.7 15c-5.8 7.7-11.8 15.3-17.8 22.9a11 11 0 0 1-2 2.3 1.9 1.9 0 0 1-2.7-.3 1.4 1.4 0 0 1-.1-2.1c1.9-3.1 3-6.6 5.4-9.4 3.9-4.5 6-10 8.4-15.3.4-.8 1.5-2.4-.6-2.7s-1.1 1-1.8 1.4c-3.7-.2-5.8 2.6-8.4 4.4-5.2 3.8-12.2 10.3-18.2 12.9 2-6.9 9.5-13.6 13.3-19.4.9-1.4 3.2-2 2.5-4.3 3.6-5.4 8.9-9 13.4-13.4z" class="cls-20"/><path d="M1124.8 991.7c1 .7-1.9 5.3-2.7 6.2-5.2 6.1-8.3 13.7-13.8 19.5-3.1 3.2-7.1 2.7-10.8 2-11.4-2.3-22.2-6.3-32.9-10.6a11 11 0 0 1-2.6-1.5c-2.2-2-1.8-4.8.8-5.9a16.6 16.6 0 0 1 5.4-1c7.2-.6 14.5-1 21.8-1.4 2.4 3.7 5.8 6.7 9.1 9.6s7.8 3.6 11.9-.9 10.2-11.9 13.8-16z" class="cls-21"/><path d="M1479.1 832.9c-.2-.3-4.4-10.7-4.8-10.7 3.1-2.5 6.9-2 10.5-2 7.8 0 15.7.3 23.4 2 9.4 1.2 18.7 3.1 28.1 3.7 3.1.3 17.5-3.1 17.6-1.2-20.1 10.3-34.3 10-44 9.8s-20.7 1.1-30.8-1.6z" class="cls-12"/><path d="M1225.3 839.3l-1.5-.7a4.1 4.1 0 0 1 .7-1.5c8.5-8.1 15.1-17.9 24.7-24.9 4.2-3.1 7.6-7.2 11.2-11.1s7-4.3 8.8-8.1a2.5 2.5 0 0 0 .2-.7 3.2 3.2 0 0 1 1-1 1.2 1.2 0 0 1 1.3.4c1.4 2-.7 2.5-1.5 3.3-10.7 10.9-20.1 23-29.9 34.7-2.5 2.9-5.2 5.5-8.9 6.9.1 1-.7 1.1-1.3 1.3z" class="cls-22"/><path d="M1132.5 1001.8c-.1-1.3-1-2.8.9-3.6a3 3 0 0 1 3.4.2c1.2 1.2.8 2.7.2 4a118 118 0 0 1-9 16.3c-.4.6-5.9 8.3-6.3 7.7 1.7-5.6 10.4-18.5 10.8-24.6z" class="cls-23"/><path d="M1271.7 791.7h-1.2a14.2 14.2 0 0 0-1.3 1.2c-4.5.2-8.4 2.7-12.6 4-9.2 3-18.4 5-28 4.5-3.1-.1-6.1 0-9.2 0-13.2-.2-34.7 7.7-47.1 12.8 1.6-.7 12.4-11 13.7-12.2s4.5-4.1 6.8-6.1c11.9-10.4 24.7-19.6 36.7-29.8 14.2-11.8 28.8-23 43.4-34.2 1.3 3 4.3 3 6.8 3.5a135.3 135.3 0 0 0 38.6 2.4c11-.7 21.8-3.6 32.6-6.5 18.9-5.2 38.2-6.2 57.7-5.4 6 .2 10.4 4.2 14.2 8.4 9.2 10.2 15.1 22.5 20 35.2s8.7 24.3 13 36.5c.3.9 1 1.8.4 3.1-21.2-.9-41.8-5.8-62.2-11.4s-38.2-13.1-56.9-20.8c-8.8-3.6-17.8-6.9-27.7-6-3 .2-6 .4-8.5 2.4a2.1 2.1 0 0 1-1.1 1l-2.7 1.2c-1.1.1-2.2 1.1-3.5.3-6.7 2.2-11.3 7.6-16.9 11.5-1.8 1.4-3.4 3-5 4.4z" class="cls-14"/><path d="M1372.9 719.7c-9.5-.1-18.9-1.7-28.4-2.5-14.5-1.3-28.9-3-43.4-4.5l-12.6-1.3a6.1 6.1 0 0 1-5.5-4.3c-4.2-13.3-8.5-26.6-12.7-39.9-7-22.1-14.1-44.3-21-66.4-2-7.2-3.8-10.8 7.7-9 0 .3 75.2 6.9 75.7 7.2 3.5 2 5.4 5 6.6 8.9q16.5 51.6 32.9 103.1c.9 2.8 2.9 5.6.7 8.7z" class="cls-24"/><path d="M1424.6 428.5a91 91 0 0 1 2.5-14c1.9-7 4.5-14.9 8.9-20.6s7.7-12.4 13.7-13c2.1 1.6-7.3 13-7.8 14.9-3.3 12.2.5 22.9 7.8 32.4 4.8 6.2 10.6 11.7 17.9 15.1 1.5.7 5.3 1 2.2 4.3-9.7.7-18-3.1-26-8-1.8-1.1-3.1-3.1-5.9-3.8a55.1 55.1 0 0 0 6.6 28c1.4 2.7 3.3 5.2 3.1 8.5-2.7 7.4-.6 11.1 7.2 12.9 1.8.4 3.7.3 5.4.9 5.2 2.6 9.2 7.1 14.4 9.8 8.1 4.2 16.4 7.6 25.7 3.6 2.7-1.9 3.8-5.1 5.9-7.5s3.7-2.1 5.9-.7c13.5 8.5 14 32.9 1 41.3a25.1 25.1 0 0 1-9.1 3.4q-6.1 1.2-12.3 3c-9.8 2.6-15.9 8.5-16.9 18.9-1.1 5.4-3.2 10.5-5 15.6-3.4 9-10.5 16.2-12.8 25.6a34.9 34.9 0 0 0 1.2 20.1c2 5-2.4 41.7-8.7 60.7a11.1 11.1 0 0 1-.7 1.6c-3.5 4.2-6.2 9.4-12.2 10.8-2.8-1.7-8.8-7.6-10.7-10.3s3-3.8 3.5-7.6c3.2-22.2 6.3-44.5 7.8-67a311.4 311.4 0 0 0-1.7-61.8c-3.7-27.3-9.9-54.2-10.8-81.8 0-6.6-.3-13.2-.5-19.8a115.1 115.1 0 0 1 .4-15.5z" class="cls-25"/><path d="M1424.7 453.4c.3.2.7 14 .8 16.2s.6 6.2 1 9.3c.7 6.2 1.8 12.3 2.8 18.5 1.3 8.4 2.8 16.9 4.2 25.3s3.2 16.1 3.6 24.3 1.7 19.1 1.9 28.7c.3 19.4-1.7 38.5-3.4 57.8q-2.1 18.8-4.8 37.5c-.6 4.5-1.3 8.9-2 13.4a59.1 59.1 0 0 1-11.5-12.9 21.9 21.9 0 0 1-3.5-7.2c-1-3.9-.4-8 .2-12 1.4-9.4 2.9-18.8 4.3-28.2 1.9-12.2 3.7-24.4 5-36.7s1.4-24.1 1.5-36.3c.2-15.4-.7-50.8-.8-50.9s-.1-2.1-.1-3.2c0-5.6.1-11.3.1-17 0-2.9.1-5.8.1-8.7s.9-24.4.6-17.9z" class="cls-20"/><path d="M1372.9 719.7a22.9 22.9 0 0 0-.7-3.6c-4.8-15-9.7-29.9-14.5-44.9-6.8-21.5-13.6-43-20.2-64.6-1-3.1-4.9-7.5-4.8-7.6 5.8.3 8.4 3.9 10 9q8.8 28.1 17.9 56.1l14.4 44.5c.5 1.3 1 2.6 1.6 3.9 23.6 2.2 47.2 4.7 70.8 7.2a10.7 10.7 0 0 1 4.8 2.3 4.5 4.5 0 0 1 .9 4 4 4 0 0 1-2.9 3c-2.4.5-5.9-.3-8.4-.4s-6.1-.4-9.1-.8c-6.6-.9-13.1-2.6-19.8-3.5-11-1.6-21.9-2.3-33-3.4-.8-.1-7-.9-7-1.2z" class="cls-26"/><path d="M1424 501.5c.4.6 3.2 48.6 2.6 70.7a235.2 235.2 0 0 1-2.5 26.5c-1.7 12-4.3 23.8-5.3 35.9s-3 21.9-4.6 32.9c-6.6-7.7-6.1-16.6-4.5-25.8 3.8-20.7 7.6-41.4 10.4-62.2 1.7-13 2.7-26.1 3.4-39.2s-.2-25.9.5-38.8z" class="cls-27"/><path d="M1452.1 721a85.4 85.4 0 0 0-15.1-3.7c-5.4-.9-10.7-2.2-14.4-6.8a12.9 12.9 0 0 1-3.2-5.2c-.6-2.9-2.4-5.1-3.9-7.4a16.8 16.8 0 0 1 8.3 3.1c1.3.9 3.3 1.1 5.8 2.3s3.3 1.6 5.4 3.9a49.3 49.3 0 0 0 22.9 6.9c11 .9 22.1 2.5 33.2 1.3a4.6 4.6 0 0 1 2 .5 6.5 6.5 0 0 1 1.6 1.3c3.1 4.9 5 9.9.6 15.2-14-4-28.5-6.4-42.5-10.7z" class="cls-28"/><path d="M1433.8 707.6c-1.6-2.4-7.8-4.9-7.9-5.5 2.5-3.9 8.1-7.8 11.4-11.1l9.9-9.9c2.6-2.6 7.5-7 11-4.6s.6 11.6-.6 14.7-4.7 7.9-6.3 10.9-2.8 5.5-4.8 7.5a6.2 6.2 0 0 1-2.3 1.4c-3.9.1-7.2-1.3-10.4-3.4z" class="cls-29"/><path d="M1505.8 493.1c-1 2.8-2.2 5.6-5 7.2-7.5 3.1-13.9.4-19.9-3.8-4.3-3-8.6-6-13.6-8.1s-6.5-8.5-6-14.4c1.9-2 3.7-.4 5.5.3 7.7 2.7 9.6 1.6 11.3-6.3a6.7 6.7 0 0 0 .4-2.4c-1.3-8.1 3.4-12.6 9.4-16.8 3.6-2.5 8.4-4.2 9.7-9.3.1-1.8.5-3.6.7-5.3a13.1 13.1 0 0 1 .6-2.7c5-7.5 9.3-8.7 16.7-4.4 1.3 2.7 3.2 5.1 4.6 7.7s3.6 7.6 1.3 11.9c-.3.4-1.1.8-1 1s.6-.7 1.1-.1a2.9 2.9 0 0 1 1 1.2c1.7 6.2 5.4 11.4 8.6 16.8 1.4 2.5 3.1 4.8 3.3 7.8a7.3 7.3 0 0 0 .6 4.1c6.8 13.7 14.3 26.9 24.4 38.5 5.6 6.4 12.9 10.2 20.6 13.6 3.5 1.5 9.3 1.6 11 6.1-.4.4-2.1.7-2.5 1.1-9.4 5-19.7 7.3-29.7 10.4-15.5 4.8-31 9.5-46.7 13.4l-3.8.8c-2.3.4-4.5 0-6.8.4s-4.5 1-6.7 1.2a24.2 24.2 0 0 1-4.7-.3l-5.2-.7a36.5 36.5 0 0 1-4.6-.7l-2.1-.6a6.1 6.1 0 0 1-1.8-.9c-.4-.4-.1-1.2.3-1.6 3.4-2 5.3-5.5 8.2-8 5.9-5 12-9.7 19.3-12.4 20-7.5 22.4-23 19.9-39.9a27.5 27.5 0 0 0-4.1-11.4c-2.8-4.1-5.6-4.3-8.9-.7a49.2 49.2 0 0 0-5.4 7.3z" class="cls-30"/><path d="M1552.1 700.2a12 12 0 0 1 7.2 5c.4 3.7 3.2 6.3 4.2 9.8 2.4 8.3-.3 14.4-6.9 19.4s-14.5 4.4-22.3 4.3a147.8 147.8 0 0 1-28.9-3.9 9.4 9.4 0 0 1-4.9-2.4c-2.2-4.6-1.3-9.7-1.8-14.5 1.1-3.7 4.5-3.9 7.3-4.2a122.1 122.1 0 0 0 42.1-12.6 6.1 6.1 0 0 1 4-.9z" class="cls-28"/><path d="M1544.7 695.4c2.4-.1 4.1-1.5 6-2.7a21.1 21.1 0 0 1 10.1-3.5c6.9-.6 11.4 2.6 14.9 7.6 6.8 9.6 7.4 26.6-4.8 35.2a16.7 16.7 0 0 1-9.5 3.2c8.5-5.9 7-13.8 6.2-21.1-1-9.4-8.1-15.4-19-17.4-1.4-.2-2.9.1-3.9-1.3z" class="cls-31"/><path d="M1589.8 535.6a17.6 17.6 0 0 1-2-.9l-2.6-1.3c-1.9-.9-3.8-1.8-5.7-2.5a56.2 56.2 0 0 1-27.6-21.8 216.1 216.1 0 0 1-18.1-30.8c-.8-1.5-2.1-3.2 0-4.8 3.2-.1 3.2 3.2 4.8 4.7l.9 1.3c.5.9 1.1 1.8 1.7 2.7 1.8 2.7 4 5.2 5.8 8a185.2 185.2 0 0 0 17.2 21.4c2.6 4.1 6.5 6.7 10.8 8.8 6.5 3.6 13.4 6 20.5 8.8a49.3 49.3 0 0 1 4.7 2.2c.2.1-1.3 1.5-1.4 1.6a3.9 3.9 0 0 1-1.1.6 9.7 9.7 0 0 1-2.4.8 11.4 11.4 0 0 0-2.5.6c-.8.2-1.5.9-2.4.7z" class="cls-32"/><path d="M1501.1 561.4a19.9 19.9 0 0 0 4.8-.7c26.6-6.9 52.8-15.2 79.1-23.1 8.5-3.1 11-3.5 12.2-3.7.8 2.2-10 5-10.9 5.4-15.3 6.5-30.7 12.6-46.7 17.1a241.1 241.1 0 0 1-27.8 5.9c-2.8.4-27.4 3.9-35.9-1 0-.1-.5-2.3.6-1.8 7.3 3 17.9 2.3 24.6 1.9z" class="cls-31"/><path d="M1495.8 712.6c15.8-.9 30.7-4.7 44.1-13.5 4.1.4 8.3-1.3 12.2 1.1-7.6 5.6-16.5 8.2-25.3 11.1s-14.9 5.5-27.3 6.3c-2.7-.6-3.7-2.4-3.7-5z" class="cls-32"/><path d="M1549.6 738.7c-2.5.4-6.3 1.7-8.9 1.9a171.1 171.1 0 0 1-32-1.1 59.3 59.3 0 0 0-7.3-.2c-1.6-.1-2.7-.6-3-2.4s.3-3.9 2.5-4.9c14 3.4 28.3 5.5 42.8 4.9a29.1 29.1 0 0 0 13.2-3.7c1.2-.3 1.7.1 1.3 1.3-2.8 2.6-5.1 3-8.6 4.2z" class="cls-33"/><path d="M1508.2 822.2c-11.3 0-21 3.1-32.3 3.1-.2 0-5.5-12.8-5.5-12.8s-4.3-10.4-5.5-14.7c2.5.1 10.9 9 17.5 8.2a32 32 0 0 1 10.7.6l1.7.4c6.6.6 7.2 13.2 13.4 15.2z" class="cls-12"/><path d="M1558.2 734.5a15.9 15.9 0 0 0-1.3-1.3 3.6 3.6 0 0 1 .7-1c7.3-6.2 6.4-13.4 3-21.2-.8-1.8-5.7-5.8-3.6-8.3 5.5 3.1 8.3 11 8.5 16.4s-1.7 11.8-7.3 15.4z" class="cls-33"/><path d="M1476.5 559.5v.3c-1.2 5.3-6.4 15.4-9.1 19.8 2.4-6.1 3.9-16.8 5.4-22.1.6.8 3.7 2 3.7 2z" class="cls-34"/><path d="M1566.7 660.1l1.2-1.3z" class="cls-35"/><path d="M1293.6 775.9l3.7-1.3c.6-.7 1.8-.4 2.4-1.1h1.2a64.9 64.9 0 0 1 20.5 7.1c17.8 9.5 35.1 20 53.6 28.2a268.2 268.2 0 0 0 58.8 18.6c.3.1.6.5.9.7h-31.4c-7.3-1.3-14.6-2.6-21.7-4.5-17.7-4.7-33.2-13.2-47.4-24.6-7.4-5.9-14.3-12.5-22.6-17.2-4.8-2.7-9.6-5.1-15.3-4.6a2.9 2.9 0 0 1-2.7-1.3z" class="cls-36"/><path d="M1563.4 450.4c3.8 15.8 6.2 31.8 8.3 47.9.6 4.5 1.1 9 1.6 13.6a43.6 43.6 0 0 0 2 8.6c-1.9-.6-9.2-4.9-12.1-8.1a389 389 0 0 0-18.9-87.2c-9.9-28.6-29.9-45.5-59.3-51.8-2.6-.6-22 3.8-23.7.8 1.5-2.6 20.3-5.9 22.7-6 10.8-.8 22.5 1.6 32.5 5.5s19.3 12.2 25.7 22.1 10.6 20.5 14.4 31.3a238.5 238.5 0 0 1 6.8 23.3z" class="cls-27"/><path d="M1269.2 793l1.3-1.2zm30.5-19.5a2.3 2.3 0 0 1-2.4 1.1 2.5 2.5 0 0 1 2.4-1.1z" class="cls-16"/><path d="M1464.4 373.5c4.4-.6 8.6-2.8 13.2-2.5 16.9 1 31.5 7.4 44.6 18.2 7.3 6 12.7 13.2 17.6 21.2a57.6 57.6 0 0 1 4.4 9.9 347.8 347.8 0 0 1 15.2 54.8c1.7 9.3 3.3 18.6 4.6 27.9.5 3.1 1.2 6.4-.8 9.4-6.8-6.4-12.2-13.9-17.2-21.8-4.7-15.9-9.1-32-15.2-47.5a1.3 1.3 0 0 1-.2-1.3c-.7.7.5 1.3.3 2 3.6 9.3 6.8 18.7 8.6 28.5.4 2.5 2.1 5.7-.2 7.9-3.1-3.6-4.9-6.1-5.5-6.7l-10.5-18.7c-1.2-2.1-2.2-4.3-1.6-6.8 1.8-7.8-1.4-14-6.1-19.6-7.7-3.9-10.9-3.1-15.7 3.9-5.9-2-12.4-2.5-14.9-5.6 2.5 3.1 9 4.6 14.5 7.8a6.5 6.5 0 0 1-1 4.7c-2.6 5.3-8.4 6.4-12.6 9.6a19.1 19.1 0 0 1-3.4 1h-1.8c-2.4-.2-4.7-.1-7.1-.4s-4.2.2-4.5-2.6-.9-1.3-1.5-1.5c-14.4-6.8-23.7-18-28.2-33.1-1.7-5.3-1.3-11.1.3-16.7.4-1.5 2.3-3.2.2-4.9a1.6 1.6 0 0 1-.3-1.6c2.1-3.5 5.4-5.8 8.5-8.2 5.1-3.2 9.9-7.2 16.3-7.3z" class="cls-20"/><path d="M1476.5 559.5c-1.3-.5-3.1-1.2-3.7-2 .4-10 5.9-16.1 15-19.2 5-1.7 10.1-2.6 15.3-3.8a27.4 27.4 0 0 0 9-3.4c8-5 9.6-12.7 8.1-21.2a31.5 31.5 0 0 0-8.8-16.9c-2.3-2.4-3.8-1.4-5.6.1a16.4 16.4 0 0 1 4.7-9c4.2-4.3 7.5-4 10.7 1a33.5 33.5 0 0 1 5.1 15.5c.7 7.2.6 14.5-2.3 21.5s-6.2 10.7-12.2 13.7c-7.8 3.8-15.9 7-22.6 12.9-2.4 2.1-5 4-6.8 6.8s-3.1 4.4-5.9 4z" class="cls-37"/><path d="M1469.1 446.8c1.8 1.7 4.2 1 6.3 1.2s4.9-.2 7.1 1.1c.1 3.7-3.1 4.2-5.5 5.2s-6 2.2-8.7 3.8-7.6 4.7-7.8 9.9a2.1 2.1 0 0 1-2.4 2.1c-6.3-7.8-13.8-14.8-16.1-25.1-.5-2.4-2.5-5.3 1.5-6.8a59.9 59.9 0 0 0 25.6 8.6z" class="cls-28"/><path d="M1458.2 469.9c.4-.5 1.1-1 1-1.4-.7-5.6 2.7-8.5 6.9-10.9s5.6-3.2 8.8-4 6.4-3.3 9.5-5.3c4.7-3 9.4-6 14-9.1.7.5 1.5 1.3 1.3 2.2a2.7 2.7 0 0 1-1.1 1.5l-7.1 5.5c-2.3 1.7-4.7 3.9-7.3 5.2s-4.4 4.4-4 8.1a26.5 26.5 0 0 1-1.3 9.6c-1.5 5.8-4.8 7.5-10.5 5.4a43.8 43.8 0 0 1-6.4-3.4c-2.7 2.2-.1 4.5.1 6.6s.6 5.6-2.6 7.1-8.3-.7-11.9-3.2c-5.2-3.9-5.5-6.1-1.2-11.2s7.3-4.5 11.8-2.7z" class="cls-38"/><path d="M1458.2 469.9c-.3.2-.7.6-.9.6-4.2-2-7.6-.1-10.9 2.1.2-.1-5.3-11.1-5.8-12.2-3.7-8.4-6.1-18.6-4.1-27.7a78.1 78.1 0 0 1 7 5.5c-1.8 1.5-1 3.2-.5 5 2.2 7.7 5.6 14.6 11.6 20.1 2 1.8 4 3.5 3.6 6.6zm1.3 17.1c2.5-3 1.9-6.4 1-9.8-.4-1.1-1.1-2.3-1-3.4s1.4-1.5 2.5-.5a86.8 86.8 0 0 0 1.4 8.9c.6 2.5 1.8 4.4 4.7 5 4.5.8 8.2 3.4 11.5 6.3a27.1 27.1 0 0 0 21.2 6.8c-5 4.3-10.7 2.8-16.1 1.7-7.9-1.7-14.4-6.1-20.6-11.1-1.6-1.2-3.1-2.6-4.6-3.9zm38.3 244.4c-1.2 0-5.4-1.5-7.3-2l-33-8-4.1-.8a10.5 10.5 0 0 0-3.4-2 92.7 92.7 0 0 0-12.9-2.9c-7.9-1.1-14.1-4.7-16.8-12.7a9.2 9.2 0 0 0-4.8-5.1 12.1 12.1 0 0 0-6 .2c-11.6 3.4-22.9 7.6-32.9 14.4.7 2.7 3 2.2 4.9 2.4l20.5 2 46.3 4.3a9.6 9.6 0 0 1 2.4 0 7.6 7.6 0 0 1 1.7.9c1.1 1.1.9 2.5.8 3.9 1.5 1.6 3.5 1.8 5.4 2.6 6.2 2.9 33.9 9.3 34.6 8.7s6-3.5 4.6-5.9z" class="cls-33"/><path d="M1489.3 738.7a9.1 9.1 0 0 0 2.5-1.4 4.7 4.7 0 0 0 1-1 13.9 13.9 0 0 0 3.4-10.3 17.6 17.6 0 0 0-1.8-7.5c-1.3-2.4-3.9-3-6.5-3.1a21.5 21.5 0 0 1-7.9-1.7 12.1 12.1 0 0 1 8.5-3.5 11.8 11.8 0 0 1 8.3 3.7 16.3 16.3 0 0 1 3.9 8c.4 2.4 1.2 7.9.2 10.1s-1.7 3.3-2.5 4.9c-6.2 7.7-9.2 8.7-18.2 5.9a9.3 9.3 0 0 0-3.6-3.5c.2-1.2-2.2-4.6 1.1-4.9l3.1.6c.3 2.7 1.9 3.9 4.2 4.3a10.4 10.4 0 0 0 4.3-.6z" class="cls-39"/><path d="M1480.3 713.7c2.1-.1 4.3-.2 6.4-.1s6.3 2.5 8.1 5.6c-9.8.6-16.1-1.7-22.8-2.2-3.6-.3-7.2-.7-10.8-.9a69.8 69.8 0 0 1-26.5-6.9c-.7-.3-9.7-5.9-8.8-7.1s19.3 8.5 20.5 8.8c5.4 1.2 10.8 1.5 16.3 2a128.9 128.9 0 0 0 17.6.8z" class="cls-32"/><path d="M1499.5 434.5c-7.9-.3-13.3-4.8-18-10.7 1.7-1.2 2.2.4 2.9.9a27.2 27.2 0 0 0 12.1 4.9c1.9.2 3.1.8 3.4 2.7a17 17 0 0 0-.4 2.2z" class="cls-40"/><path d="M1510.5 432.1a6.2 6.2 0 0 1 5.9 4.3c.4 1.1.7 2.5-.3 3.3s-2.2-.2-2.8-1.2-2.2-1.5-3.7-1.6-3.5-.4-3.3-2.5 2.4-2.3 4.2-2.3z" class="cls-33"/><path d="M1515.6 428.4c7 5.2 9.1 11.7 6.1 19.6h-1.3c1.7-5.8.2-10.8-3.4-15.6-.7-1.1-2.8-2.1-1.4-4z" class="cls-41"/><path d="M1520.4 447.9c-.1.2-.2.5-.3.5s-.3-.3.3-.5z" class="cls-41"/><path d="M1527.7 655.2l-1.2 1.2z" class="cls-42"/><path d="M1538.7 479.6a.3.3 0 0 1-.1-.2c-.5-1-.1-2.6-.2-3.7a40 40 0 0 0-.8-4.8c-.6-3.1-1.6-6.2-2.4-9.4-1.6-6.5-4.2-12.9-5.1-19.7 3.7 4 5 9.2 6.9 14 4 10.4 6.6 21.4 9.6 32.2a5 5 0 0 1-.6 2.6s-6.5-9.6-7.2-10.9z" class="cls-43"/><path d="M1432.6 732c.1-.2.2-.5.3-.5s.3.3-.3.5z" class="cls-42"/><path d="M1561.8 624.7l.3-.5.3.2-.6.3z" class="cls-35"/><path d="M1508.1 393.1a46.5 46.5 0 0 1 23 21.4c5.2 9.7 7.4 20.5 10 31.1.4 1.8 1.8 3.7.8 6.3-1.8-1.6-2.4-3.6-3.1-5.5-2.9-7.5-5.8-15.1-8.4-22.7-4.2-11.9-11.8-21.1-21.7-28.6-.4-.3-.9-.7-.6-2z" class="cls-27"/><path d="M1464.2 462.4c2.3-2.6 5.5-4 8.6-5.4s4.6-.9 4.9 3.2c0 1.1-.1 2.4-.2 3.6a8 8 0 0 1-4 5.6c-2.5 1.4-5.2 2.4-7.8.4s-3-4.5-1.5-7.4z" class="cls-33"/><path d="M1464.2 462.4c.1 1.6-.2 3.3.7 4.7s3 3.3 5.6 2.1 5.5-2.6 7-5.4c.5 2.3-.6 4.3-1.1 6.4-1.1 4.7-3.1 5.7-7.4 3.9a20.6 20.6 0 0 1-4.1-2.3c-3.9-2.8-4-5.3-.7-9.4z" class="cls-28"/><path d="M1449.5 474.4c4.3-3.1 5.5-2.9 7.5 1.5 1.2 2.8 3.4 5.8-.1 8.6-3.4-2.7-8.5-4.1-7.4-10.1z" class="cls-33"/><path d="M1449.5 474.4c.8 4.6 5.5 6.3 7.4 10.1-4.2.4-7.1-2.2-9.9-4.7s-1.4-2.8.3-4l1.1-.9z" class="cls-44"/><path d="M1424.1 726.1s25 4.1 29.2-.2l28.1 9.1s-5.6 5.2 2 8.7c0 0 8.3 2.9 15-6.8 0 0 13.1 4.1 37.6 3.9l12.4-2.1s-10.9 6.7 15.9 3.7c0 0-42.2 18-94.8 1.1 0 0-28-8.7-38.5-11z" class="cls-12"/><path d="M1492.3 736.9l-10.9-1.9-.5.6s.5 7.4 10.8 1.9z" class="cls-45"/><path d="M1683.6 741.1s7.9 9.8 21 7.6c5.7-.9 28.6-6.6 28.6-6.6s-40.1 20-49.6-1zm-4.4 12.4s10.8 14.4 45.9 9.6c0 0-34.5 11.5-45.9-9.6z" class="cls-11"/><path d="M1220 744L0 745v324s205 143 452 99c357.1-63.6 127-160.7 299-218 429-143 189-197 469-206z" class="cls-46"/><path d="M910 668l89 15 36 20 27-13 33 18s-109-2-185-40z" class="cls-7"/><path d="M411 745s10 13-28 18.1c0 0 0 4.6-18 5.2 0 0-2 33.5-78 27.8 0 0-15-2.3-27 4 0 0-56 27.2-108 0l-12-5.7a21.5 21.5 0 0 1-19 1.7s-5 3.4-15 1.7c0 0-20 18.7-53 5.1 0 0-5 5.7-14 2.3 0 0 4 17-39 31.8v-92s427 .6 411 0z" class="cls-47"/><path d="M572 944c8.8 10.3-223 88-446.2 57 0 0 244.2 41 446.2-57z" class="cls-48"/><path d="M572 940c8.8 10.3-223 88-446.2 57 0 0 244.2 41 446.2-57z" class="cls-49"/><path d="M155 1050s149 65 301 25c0 0-170 25-301-25z" class="cls-50"/><path d="M155 1059s149 65 301 25c0 0-170 25-301-25z" class="cls-48"/><path d="M602 992s50 86-171 135c0 0 195-48 171-135z" class="cls-51"/><path d="M605 998s50 86-171 135c0 0 195-48 171-135z" class="cls-48"/><path d="M270 1031s191 18 291-49c0 0-47 71-291 49z" class="cls-52"/><path d="M270 1038s191 18 291-49c0 0-47 71-291 49z" class="cls-48"/><path d="M42 1009s178 41 228 46-125-15-228-46z" class="cls-53"/><path d="M654 944s120-72 214-98c0 0-105 23-214 98z" class="cls-54"/><path d="M654 947s120-72 214-98c0 0-105 23-214 98z" class="cls-48"/><path d="M708 881c-8.4 3.8-18.4 4.5-27.1 8.6a119.9 119.9 0 0 0-50.2 46c-12.6 20.6-19.1 40.7-14.8 64.7 7.3 40.7-14.1 79.8-50.9 97.7 29.5-14.4 53.8-34.1 56-69.7 1.2-17.9-6.7-35.7-4.3-53.4 6-44.7 53.4-76.9 91.3-93.9z" class="cls-55"/><path d="M712 884c-8.4 3.8-18.4 4.5-27.1 8.6a119.9 119.9 0 0 0-50.2 46c-12.6 20.6-19.1 40.7-14.8 64.7 7.3 40.7-14.1 79.8-50.9 97.7 29.5-14.4 53.8-34.1 56-69.7 1.2-17.9-6.7-35.7-4.3-53.4 6-44.7 53.4-76.9 91.3-93.9z" class="cls-48"/><path d="M0 898s37 77 170 75c0 0-77 15.3-170-55.8z" class="cls-56"/><path d="M0 908s37 72 170 70c0 0-77 20.3-170-50.8z" class="cls-48"/><path d="M992.4 810.6S864 907 821 895c0 0 25.6 24.4 171.4-84.4z" class="cls-57"/><path d="M992.4 813.6S864 910 821 898c0 0 25.6 24.4 171.4-84.4z" class="cls-48"/><path d="M708 952s0-28 132-76c0 0-111 42-132 76z" class="cls-58"/><path d="M708 954s0-28 132-76c0 0-111 42-132 76z" class="cls-48"/><path d="M336.2 764c-.3-.2-3.8-3.1-4.3-3.1s-3.1-1.1-3.7 0a3.2 3.2 0 0 1-1.1 1.2.6.6 0 0 1-.8 0c-.9-1.1-3.6-3.7-6.6-2.8a9.2 9.2 0 0 1-4.5.3 4.9 4.9 0 0 0-2.9.5l-7.2 3.8-.3.3a.6.6 0 0 0 .6.9h30.4c.5 0 .8-.7.4-1zM286 750s18.4-8.5 26-7.8c0 0 12-5.2 20-14.2l16.6 3.8L362 729c9 4.1 12.8 3.5 12.8 3.5s20.7 4.9 26.9 1.4 23.5-1.4 25.5-2.8 6.9 2.8 6.9 2.8.7 1.4 15.9 0c0 0-8.3 1.4-9.7 3.5s-12.4-.7-17.9 4.1c0 0-1.7 1-10.7-.4 0 0-6.9 0-8.3 2.8 0 0-16.7 6.2-25.4 2.1-6.5-3-58 5.5-62.2 5.5S298.1 749 286 750zm109 25h-30s4-8 7-9 3 4 8 3 15 6 15 6z" class="cls-6"/><path d="M831 98.4L808.6 96s-4.8 1.6-5.6 4.8l30.4 8z" class="cls-59"/><path d="M903.8 194.3s16.7 10.4 21.5 11.2 13.6 4.8 12.8 11.2c0 0-6.4-4-10.4 0s-7.2 4-13.5 0c0 0-6.4-.8-8 3.2 0 0-5.6 0-9.6-12.8s7.2-12.8 7.2-12.8z" class="cls-60"/><path d="M831.8 132s-46.4-16-55.2 6.4-8.8 32.8-8.8 32.8 1.6 19.1 17.6 0c0 0 4-4 12-1.6s4-2.4 12-7.2 25.6-3.2 28 0c0 0-4-24.8-5.6-30.4z" class="cls-61"/><path d="M826.2 97.6a8.4 8.4 0 0 0 4.8 0c2.4-.8 15.2-4.8 23.2 9.6s.8 21.6 14.4 32.8c0 0 1.6 1.6 23.2 3.2s32.7 0 67.9 28 66.4 57.5 66.4 57.5 10.4 12-3.2 5.6-34.4-15.2-44.8-22.4-17.6-7.2-24.8-14.4-36.7-19.9-64.7-22.3c0 0 1.6 4.8 28.8 35.9 0 0 6.3 5.6-5.6.8 0 0-47.8-11-70.4-43.2a50.3 50.3 0 0 1-8.9-24.7c-1-11.9-2.5-31.1-1.5-34.4 2.4-8-4.8-12-4.8-12z" class="cls-62"/><path d="M780.6 175.2v-9.6s-4 4-5.6 0 0-15.2 0-15.2-6.4 10.4-7.2 20.8 5.6 16.7 12.8 4zm231.1 55.1s-15.2-15.2-15.2-19.2 25.6 19.2 25.6 19.2-16.8-14.4-19.2-20 43.2 34.4 43.2 34.4 2.4 6.4-6.4 0-28-14.4-28-14.4z" class="cls-60"/><ellipse cx="844.2" cy="105.7" class="cls-60" rx="1.5" ry="3.1" transform="rotate(-52.1 844.532 105.5)"/><path d="M883.8 189.5l9.6 21.6 6.4 4.8v4l3.2 7.2-4.8-4 .8 7.2-15.2-35.2v-5.6zm-7.2 8l1.6 13.6 5.6 7.2s-3.2-3.2 0 8.8c0 0-5.6-10.4-5.6-.8l-2.4-9.6-1.6-20z" class="cls-63"/><path d="M868 255s106 109 128 151c20 38.3 87 64 173 88 0 0-141-36-168-76-18.4-27.2-33.2-57.7-133-163z" class="cls-64"/><path d="M933 300s53.1 29.5 116 118c27 38 240 119 240 119s-206-78-238-122c0 0-73-91-118-115z" class="cls-64"/><path d="M217 922s105 21 292-33c0 0-154 54-292 33z" class="cls-65"/><path d="M466 940s118.1 8.8 144-43c28-56 131-58 134-57s-99.3-4.9-133 60c-27 52-145 40-145 40z" class="cls-66"/><path d="M53 889s24 57 188 65c0 0-152-6-188-65z" class="cls-67"/><path d="M258 966s109-18 176-12c0 0-102-1-176 12z" class="cls-68"/><path d="M894 849s24-22 75-43c0 0-44 20-75 43z" class="cls-69"/><path d="M565 883s34-50 127-72c0 0-84 20-127 72z" class="cls-70"/><path d="M774 849s39-13 140-57z" class="cls-71"/><path d="M885 820s115-41 129-54c0 0-67 33-129 54z" class="cls-72"/><path d="M58 857s66 38 156 40c0 0-74 4-156-40z" class="cls-73"/><path d="M434 889s76-3 113-40c0 0-32 37-113 40z" class="cls-74"/><path d="M136 854s156 51 324-17c0 0-150 64-324 17z" class="cls-75"/><path d="M1920 959l-227 129m38-80l-227 129" class="cls-3"/><path d="M1844.4 1029.4c.1-2 .5-3.9.7-5.8 1.1-9.7 2.3-19.5 3.4-29.3l3-27.2c-.7-.8-1.7-.7-2.6-.7H1802c-.8 0-1.6-.2-2.2.4-.3 2.7 1.3 4.8 2.2 7.1 3.4 7.9 7 15.7 10.5 23.6 2.5 5.5 5 10.9 7.4 16.4s5 11.2 7.4 16.8a2.4 2.4 0 0 0 2.6 1.6h11.4c.8 0 1.7-.3 2.5.3s.6-2.3.6-3.2z" class="cls-25"/><path d="M1851.5 967.1c-.7-.8-1.7-.7-2.6-.7H1802c-.8 0-1.6-.2-2.2.4h-28.5l-5.2-.2a1.4 1.4 0 0 1-.2-.7v-5.2c0-4.5.1-8.9 0-13.4 0-1.3.4-1.7 1.7-1.7h34.6a82.2 82.2 0 0 0 11.1 0 9.4 9.4 0 0 0 2.9 0h37.3c3.9 0 3.4-.4 3.4 3.5v14.5c0 3.1.4 3-2.9 3a3.7 3.7 0 0 0-2.5.5z" class="cls-27"/><path d="M1796.7 693.1c.5-.8 1.1-1.4 1.9-.3s2.3 2.9 3.3 4.3c2.9 3.9 5.3 8.1 7.8 12.2s3.5 7.3 5.2 11l3.6 8.9a27.2 27.2 0 0 0 2 6.3c.2.6.3 1.2.5 1.7a181.3 181.3 0 0 1 6.4 45.2c0 6.4-.3 12.9-.6 19.4-.6 1.8-1.1 3.7-1.6 5.6-3.9.2-7.4-1.2-11.1-1.9a3.9 3.9 0 0 1-2.9-2.2 17.4 17.4 0 0 0 .5-2.2c.2-2.2-.9-3.2-3.1-3a7.9 7.9 0 0 0-2.3.9c-1.4.6-2.1 2.1-3.4 2.7l-1-1.5c.6-2.5 1-5.1-.2-7.5s-1-2.4-2.4-2.3-2.3 1.3-3 2.5-.1.5-.2.7a9.8 9.8 0 0 0 0 6.1c-.7 0-.8.6-1.1 1.1s-.5 2.5-1.9 3a157 157 0 0 1 .4-16.8c.4-4.1.1-8.3.5-12.4s.1-8.8.5-13.2.3-8.5.5-12.7c.3-8.8.7-17.6 1-26.4.2-7 .5-14 .7-21 0-2.4-.3-4.8.3-7.2a1.2 1.2 0 0 0-.3-1z" class="cls-76"/><path d="M1796.7 693.1a1.2 1.2 0 0 1 .3 1c-.6 2.4-.3 4.8-.3 7.2-.2 7-.5 14-.7 21-.3 8.8-.7 17.6-1 26.4-.2 4.2-.1 8.5-.5 12.7s-.1 8.8-.5 13.2-.1 8.3-.5 12.4a157 157 0 0 0-.4 16.8c0 6.6-.1 13.3.3 19.9s.5 11.4.7 17.1c.1 4 .4 8.1.7 12.1a82.2 82.2 0 0 0 .7 9.8 35.2 35.2 0 0 1 .1 6.5 39 39 0 0 1-2.1-5.7 123.7 123.7 0 0 0-10.6-25.5l-4.4-8.2a12.4 12.4 0 0 0 .5-4.3v-95a2.7 2.7 0 0 0-1.1-2.5l.3-1 .3-.6c.1-.6.3-1.3.4-2 2.6-5.9 5.3-11.8 8.3-17.5s5.7-9 8.9-13.3z" class="cls-77"/><path d="M1816.2 945.6a9.4 9.4 0 0 1-2.9 0c-.2-4.7.6-9.4 1-14.1s1.2-9.4 1.8-14.1c.3-2.2 1.2-4.3 1.3-6.6.1-4.2.8-8.3 1.2-12.5a54.8 54.8 0 0 1 .5-5.7 49 49 0 0 0 .8-7.7c.3-2.6.5-5.3.8-7.9.4-4.9.9-9.8 1.4-14.6.1-1.1.3-1.9 1.6-2a56.4 56.4 0 0 0 3.5 10c1.4 3.4 1.4 2.6 3.9 1l.6-.6c2.9-3 6-5.9 8.7-9.1a95.5 95.5 0 0 0 14-23.6 70.4 70.4 0 0 0 3.6-10.1c1.6 8.5 1.8 19 1.3 27.6a134.2 134.2 0 0 1-10.2 44.5 100.6 100.6 0 0 1-6.2 12.8c-7 12-15.1 23.1-26 32a4.6 4.6 0 0 0-.7.7zm38.1-220.7c0-.6.1-1.2.1-1.8-.5-14.8-3-29.2-9-42.8h-.4a102.4 102.4 0 0 0-16.9 29.6 1.6 1.6 0 0 0-.2 1 6.1 6.1 0 0 0-.7 1.4 157 157 0 0 0-5.7 19.2 19.5 19.5 0 0 1-1 4c.2.6.3 1.2.5 1.7a181.3 181.3 0 0 1 6.4 45.2c0 6.4-.3 12.9-.6 19.4 1.3-2.3 1.9-4.8 3-7.2a159.4 159.4 0 0 1 7.2-14.3 66.8 66.8 0 0 1 12.2-15.3 12.2 12.2 0 0 0 1.5-1.7c-.1-1.8.7-3.3 1-5 .7-4.3 1.4-8.7 1.8-13a139.2 139.2 0 0 0 .8-20.4z" class="cls-78"/><path d="M1826.8 801.8c1.3-2.3 1.9-4.8 3-7.2a159.4 159.4 0 0 1 7.2-14.3 66.8 66.8 0 0 1 12.2-15.3 12.2 12.2 0 0 0 1.5-1.7c1.9-.8 3-2.7 5-3.6a46.6 46.6 0 0 1 3.8 9.3 90.7 90.7 0 0 1 3.3 35.5 121.6 121.6 0 0 1-2.8 16.9 2.1 2.1 0 0 1-.4 1.1c-1 0-1.8-.7-2.7-1-9.5-3.3-19.1-6.5-28.6-9.9a11.3 11.3 0 0 0-4.1-.5l.9-3.7c.6-1.9 1.1-3.8 1.7-5.6z" class="cls-76"/><path d="M1824.2 811.1a11.3 11.3 0 0 1 4.1.5c9.5 3.4 19.1 6.6 28.6 9.9.9.3 1.7 1 2.7 1s-1.6 6.2-1.7 6.7-1.1 2.7-1.6 4-1.2 3.3-1.9 4.9a95.5 95.5 0 0 1-14 23.6c-2.7 3.2-5.8 6.1-8.7 9.1l-.6.6c-2.5 1.6-2.5 2.4-3.9-1a56.4 56.4 0 0 1-3.5-10 8 8 0 0 0-.3-1.5 56.1 56.1 0 0 1-1.7-9.1 81.6 81.6 0 0 1-.7-13.1c.1-.9.4-1.9-.4-2.7l.6-3.6c.4-1.9.2-3.9.5-5.9.7-4.5 1.4-9 2.5-13.4z" class="cls-76"/><path d="M1771.3 966.9h28.5c-.3 2.7 1.3 4.8 2.2 7.1 3.4 7.9 7 15.7 10.5 23.6 2.5 5.5 5 10.9 7.4 16.4s5 11.2 7.4 16.8a2.4 2.4 0 0 0 2.6 1.6h11.4c.8 0 1.7-.3 2.5.3l-2.3.2h-60.4l-2.6-.2a14.1 14.1 0 0 0-.1-4.1c-.5-4.4-1-8.7-1.6-13.1s-1-10.6-2-15.8-.8-8.6-1.3-12.9c-.7-6.7-1.5-13.3-2.2-19.9z" class="cls-20"/><path d="M1820.6 834c.8.8.5 1.8.4 2.7a81.6 81.6 0 0 0 .7 13.1 56.1 56.1 0 0 0 1.7 9.1 8 8 0 0 1 .3 1.5c-1.3.1-1.5.9-1.6 2-.5 4.8-1 9.7-1.4 14.6-.3 2.6-.5 5.3-.8 7.9a49 49 0 0 1-.8 7.7 54.8 54.8 0 0 0-.5 5.7c-.4 4.2-1.1 8.3-1.2 12.5-.1 2.3-1 4.4-1.3 6.6-.6 4.7-1.5 9.3-1.8 14.1s-1.2 9.4-1 14.1a82.2 82.2 0 0 1-11.1 0c-2.6-6-4.5-12.3-6.7-18.5a1.4 1.4 0 0 0 .4-1.6 6.1 6.1 0 0 1 .1-4c.4-1.3.7-2.7 1-4 .8-4.5 1.7-8.9 1.6-13.5a104.5 104.5 0 0 0-.8-20.9c-.5-2.5-.9-5 1.8-6.8.4-.2.5-.6.8-1 5.9-7.4 10.1-15.8 14-24.3a133.2 133.2 0 0 0 6.2-17z" class="cls-77"/><path d="M1820.6 834a133.2 133.2 0 0 1-6.2 17c-3.9 8.5-8.1 16.9-14 24.3-.3.4-.4.8-.8 1-2.7 1.8-2.3 4.3-1.8 6.8a104.5 104.5 0 0 1 .8 20.9c-1.7-.1-3.5.4-5.3-.4s-2.3-.9-3.8.6a10.9 10.9 0 0 1-6.3 3.4 263.5 263.5 0 0 1-12.4-27c-1.8-4.3-3.6-8.6-5.2-12.9-2.4-6.9-4.7-13.7-7-20.6-.9-3-2.6-5.8-3-9s-1.5-4.4-1.6-6.7c3.9-.9 7.9-1.7 11.7-2.8s6.4-1.3 9.3-3c1.6 1 1.9 3.1 3.5 4.2l4.4 8.2a123.7 123.7 0 0 1 10.6 25.5 39 39 0 0 0 2.1 5.7 35.2 35.2 0 0 0-.1-6.5 82.2 82.2 0 0 1-.7-9.8c-.3-4-.6-8.1-.7-12.1-.2-5.7-.3-11.4-.7-17.1s-.3-13.3-.3-19.9c1.4-.5 1.5-1.9 1.9-3s.4-1.1 1.1-1.1l.6 1.1c1.4 2 2.9 2 4.5.1a4.6 4.6 0 0 1 .7-.7l1 1.5a3.6 3.6 0 0 1-.6 2 2.8 2.8 0 0 0 .4 3.5c1 1 2.1.7 3.4.3s3.6-2.5 5.1-4.2a3.9 3.9 0 0 0 2.9 2.2c3.7.7 7.2 2.1 11.1 1.9-.4 1.2-.7 2.5-1 3.7-1.1 4.4-1.8 8.9-2.5 13.4-.3 2-.1 4-.5 5.9zm-11.5 14.3a14.7 14.7 0 0 0 0-2.1 3.1 3.1 0 0 0-4.6-2.4 8 8 0 0 0-3.2 2.6 14.8 14.8 0 0 0-2.9 7.6 4.5 4.5 0 0 0 1.7 4.4c1.4 1 2.9.4 4-.5a11.2 11.2 0 0 0 5-9.6zm-6.2-7.1a5 5 0 0 0 4.1-1.4 16.4 16.4 0 0 0 4-4.3 7.2 7.2 0 0 0 1.2-4.7c-.1-1.9-.7-2.4-2.7-2.6a7.4 7.4 0 0 0-4.8 1.5c-2.9 1.9-5.2 4.3-5.4 8s.5 3.5 3.6 3.5zM1792 895v-.8c0-1.2-.2-2.3-1.3-2.9s-2.4-.1-3.4.6a5.7 5.7 0 0 0-1.1 1.1c-1.5 1.7-2 3.9-2.5 6.1a4.3 4.3 0 0 0 1.9 3.8 3.8 3.8 0 0 0 3.9-1.4c1.5-1.9 2.7-4 2.5-6.5zm-17.1-21.5c-.3-1.9-.7-3.8-2.2-5.1s-1.6-1.5-2.7-.8a2.4 2.4 0 0 0-1.3 2.8 10.4 10.4 0 0 0 1.8 4.5c.6.9 1.4 1.6 2.6 1.2a2.7 2.7 0 0 0 1.8-2.6zm7.2-1.3c0-.7.3-1.9-1-2.3a2.5 2.5 0 0 0-3.1 1.2 6.7 6.7 0 0 0-1.6 5.1c.1 1 .4 1.9 1.4 2.2a2.2 2.2 0 0 0 2.5-.9 7.9 7.9 0 0 0 1.8-5.3zm-4.1 12.3a7.5 7.5 0 0 0 0 1.5 1.5 1.5 0 0 0 2.3 1.2c2-.8 3.8-4.6 3.3-6.8s-1.6-2.2-3.1-1.2-2.5 3.1-2.5 5.3zm7.8-11.6a6 6 0 0 0 2.3 5.2 2.5 2.5 0 0 0 2.5.3c.8-.3.9-1.1.9-1.9a8 8 0 0 0-1.7-5 2.5 2.5 0 0 0-2.9-1.1c-1.4.4-1.1 1.6-1.1 2.5zm10.3-1.8l-.2-.5c-.1.2-.2.3-.2.4s.1.3.2.5a.5.5 0 0 1 .2-.4z" class="cls-76"/><path d="M1811.2 803.3c-1.5 1.7-2.9 3.3-5.1 4.2s-2.4.7-3.4-.3a2.8 2.8 0 0 1-.4-3.5 3.6 3.6 0 0 0 .6-2c1.3-.6 2-2.1 3.4-2.7a7.9 7.9 0 0 1 2.3-.9c2.2-.2 3.3.8 3.1 3a17.4 17.4 0 0 1-.5 2.2zm-9.3-3.1a4.6 4.6 0 0 0-.7.7c-1.6 1.9-3.1 1.9-4.5-.1l-.6-1.1a9.8 9.8 0 0 1 0-6.1c.1-.2 0-.5.2-.7s1.4-2.5 3-2.5 1.9 1.2 2.4 2.3.8 5 .2 7.5z" class="cls-79"/><path d="M1771.5 750.3a196.7 196.7 0 0 1 5.4-20 6 6 0 0 1 1-2.3 2.7 2.7 0 0 1 1.1 2.5v95a12.4 12.4 0 0 1-.5 4.3c-1.6-1.1-1.9-3.2-3.5-4.2s-2.4-3.5-3.4-5.3l-.4-.4a7.6 7.6 0 0 0-.2-3c-.9-4.8-1.5-9.5-2-14.3s-.6-10.7-.9-16c.2-3.7.1-7.4.3-11a208.1 208.1 0 0 1 2.8-23.6z" class="cls-77"/><path d="M1778.2 727a.4.4 0 0 1 .3-.6z" class="cls-80"/><path d="M1771.6 820.3c1 1.8 2.6 3.3 3.4 5.3-2.9 1.7-6.2 2-9.3 3s-7.8 1.9-11.7 2.8a7.1 7.1 0 0 1-1.3-3.1c-.9-2.8-1.8-5.7-2.6-8.6-2.2-7.7-4.3-15.4-6.5-23.1.5-.6.9-.1 1.3.1l4.5 2.6a12.3 12.3 0 0 0 3.6 2.5 33.5 33.5 0 0 0 5 4.3c1.3 1 2.1 2.5 3.8 2.9.1.4.1.8.4 1 3.2 3.1 6 6.7 9 9.9.1.1.3.2.4.4z" class="cls-76"/><path d="M1741.1 840.7c1.9 8.3 3.8 16.8 6.1 23.4a137.3 137.3 0 0 0 10.9 23.7c8.4 14.4 22.7 29.4 36.9 38.2-23.5-38.6-38.9-85-51.2-128.5.6 2.1-2.4 7.7-2.8 9.9a73.7 73.7 0 0 0-1.4 11.5 88.6 88.6 0 0 0 1.5 21.8" class="cls-77"/><path d="M1792.9 923.9c.2-.8-.4-1.3-.8-1.8-3.4-4.6-5.4-11.3-7.9-16.5 2.6-.3 3.5.3 5.3-1.4s2-1.6 3.8-.6 3.6.3 5.3.4c.1 4.6-.8 9-1.6 13.5-.3 1.3-.6 2.7-1 4a6.1 6.1 0 0 0-.1 4 1.4 1.4 0 0 1-.4 1.6 6.5 6.5 0 0 0-2-2.6.8.8 0 0 0-.5-.7z" class="cls-79"/><path d="M1793 923.8a.8.8 0 0 1 .5.7c-.3-.1-.7-.2-.5-.7z" class="cls-81"/><path d="M1809.1 848.3a11.2 11.2 0 0 1-5 9.6c-1.1.9-2.6 1.5-4 .5a4.5 4.5 0 0 1-1.7-4.4 14.8 14.8 0 0 1 2.9-7.6 8 8 0 0 1 3.2-2.6 3.1 3.1 0 0 1 4.6 2.4 14.7 14.7 0 0 1 0 2.1zm-6.2-7.1c-3.1 0-3.8-.6-3.6-3.5s2.5-6.1 5.4-8a7.4 7.4 0 0 1 4.8-1.5c2 .2 2.6.7 2.7 2.6a7.2 7.2 0 0 1-1.2 4.7 16.4 16.4 0 0 1-4 4.3 5 5 0 0 1-4.1 1.4zM1792 895c.2 2.5-1 4.6-2.5 6.5a3.8 3.8 0 0 1-3.9 1.4 4.3 4.3 0 0 1-1.9-3.8c.5-2.2 1-4.4 2.5-6.1a5.7 5.7 0 0 1 1.1-1.1c1-.7 2.2-1.3 3.4-.6s1.3 1.7 1.3 2.9zm-17.1-21.5a2.7 2.7 0 0 1-1.8 2.6c-1.2.4-2-.3-2.6-1.2a10.4 10.4 0 0 1-1.8-4.5 2.4 2.4 0 0 1 1.3-2.8c1.1-.7 1.9.1 2.7.8s1.9 3.2 2.2 5.1zm7.2-1.3a7.9 7.9 0 0 1-1.8 5.3 2.2 2.2 0 0 1-2.5.9c-1-.3-1.3-1.2-1.4-2.2a6.7 6.7 0 0 1 1.6-5.1 2.5 2.5 0 0 1 3.1-1.2c1.3.4 1 1.6 1 2.3zm-4.1 12.3c0-2.2.6-4.1 2.5-5.3s2.8-.4 3.1 1.2-1.3 6-3.3 6.8a1.5 1.5 0 0 1-2.3-1.2 7.5 7.5 0 0 1 0-1.5zm7.8-11.6c0-.9-.3-2.1 1.1-2.5a2.5 2.5 0 0 1 2.9 1.1 8 8 0 0 1 1.7 5c0 .8-.1 1.6-.9 1.9a2.5 2.5 0 0 1-2.5-.3 6 6 0 0 1-2.3-5.2z" class="cls-79"/><path d="M1796.1 871.1a.5.5 0 0 0-.2.4c-.1-.2-.2-.3-.2-.5s.1-.2.2-.4z" class="cls-81"/><path d="M1771.6 820.3c-.1-.2-.3-.3-.4-.4s.3.2.4.4z" class="cls-82"/><path d="M1695.3 1028.3l72.8 17m-456.8 24l72.8 17m-190.8-118l72.8 17m-104.8 58l72.8 17m272.2 17l72.8 17" class="cls-3"/><path d="M1618 956.3s10.5-36.8-17.7-48.5c0 0 24.7 18.9 17.7 48.5z" class="cls-11"/><path d="M1600 925s17 4 10 21c0 0 6-11-10-21zm-19 0s19.9.6 22.4 12.3c0 0 6.6 6.7 3.6 18.7 0 0 3-13-6-18 0 0-1-11-20-13z" class="cls-11"/></svg>