<?xml version="1.0" encoding="utf-8"?>
<!-- Generator: Adobe Illustrator 22.0.0, SVG Export Plug-In . SVG Version: 6.00 Build 0)  -->
<svg version="1.1" id="Слой_1" xmlns="http://www.w3.org/2000/svg" xmlns:xlink="http://www.w3.org/1999/xlink" x="0px" y="0px"
	 viewBox="0 0 1010.7 325.4" style="enable-background:new 0 0 1010.7 325.4;" xml:space="preserve">
<style type="text/css">
	.st0{fill:#FFFFFF;}
</style>
<g>
	<path class="st0" d="M267.6,198.4c-2.1,0-4-0.4-5.8-1.2s-3.4-1.8-4.7-3.1c-1.3-1.3-2.4-2.8-3.2-4.5c-0.8-1.7-1.2-3.6-1.2-5.5
		c0-4.1,1.4-7.5,4.2-10.3c2.8-2.8,6.3-4.2,10.5-4.2h59c4.2,0,7.7,1.4,10.5,4.2s4.2,6.2,4.2,10.3c0,2-0.4,3.8-1.2,5.5
		c-0.8,1.7-1.8,3.3-3.2,4.5c-1.3,1.3-2.9,2.3-4.7,3.1c-1.8,0.8-3.7,1.2-5.8,1.2H267.6z"/>
	<path class="st0" d="M476.5,111.7l2.9-41.4c0.2-2.3,0.8-4.3,1.9-6.1c1.1-1.8,2.4-3.3,4.1-4.5c1.6-1.2,3.4-2.2,5.4-2.8
		c1.9-0.6,3.9-0.9,5.9-0.9c3.7,0,7,1.1,9.9,3.4c2.9,2.3,4.3,5.8,4.3,10.6v41.7h23.6c4.2,0,7.4,1.3,9.5,3.9c2.2,2.6,3.2,5.5,3.2,8.5
		s-1.1,5.9-3.2,8.5c-2.1,2.6-5.3,3.8-9.6,3.8h-23.6v64c0,7.3,0.1,13.4,0.4,18.5c0.3,5,0.9,9.1,2,12.2c1.1,3.1,2.8,5.4,5.1,6.8
		c2.3,1.4,5.5,2.1,9.6,2.1c1,0,2.2-0.1,3.4-0.2c1.2-0.1,2.5-0.2,3.7-0.4s2.4-0.3,3.5-0.4c1.1-0.1,1.9-0.2,2.5-0.2
		c3.9,0,6.9,1.3,9.1,3.8c2.2,2.6,3.2,5.4,3.2,8.6c0,3.3-1,6-3,8c-2,2.1-4.6,3.7-7.9,4.9c-3.2,1.2-6.9,2.1-10.9,2.5
		c-4,0.5-8.1,0.7-12.2,0.7c-7.2,0-13.5-0.9-19.1-2.8c-5.5-1.8-10.2-4.9-14-9.2s-6.7-9.9-8.7-16.9s-3-15.5-3-25.7V136h-14.9
		c-4.3,0-7.5-1.3-9.6-3.8c-2.1-2.6-3.2-5.4-3.2-8.5s1.1-5.9,3.2-8.5c2.2-2.6,5.4-3.9,9.7-3.9h16.8V111.7z"/>
	<path class="st0" d="M721.3,183.8c0,2.8-0.9,5.2-2.7,7.3s-4.5,3.2-8.2,3.2H605.5c0.9,14.9,5.5,26.4,13.8,34.6s19.2,12.3,32.7,12.3
		c8.3,0,16.2-1.2,23.6-3.5c7.4-2.4,14.9-5.5,22.6-9.4c1.8-0.9,3.6-1.4,5.2-1.4c2.8,0,5,1,6.7,3.1s2.5,4.4,2.5,7.1
		c0,1.1-0.2,2.3-0.5,3.6c-0.4,1.3-1,2.5-1.8,3.6c-3.3,4.2-7.3,7.8-12.1,10.8s-9.9,5.4-15.5,7.2c-5.5,1.8-11.3,3.2-17.2,4.1
		s-11.6,1.3-17.2,1.3c-11.2,0-21.6-1.8-31.3-5.5c-9.6-3.7-18-9.1-25.2-16.1c-7.1-7-12.7-15.7-16.8-26s-6.1-21-6.1-31.9
		c0-9.3,1.9-18.8,5.7-28.5c3.8-9.6,9-18.1,15.6-25.2c6.6-7.2,14.6-13.1,23.9-17.6c9.3-4.6,20.1-6.9,32.4-6.9c12.6,0,23.5,2,32.7,6
		s16.8,9.3,22.9,16c6.1,6.7,10.7,14.7,13.9,23.9C719.4,165.1,721.1,174.4,721.3,183.8z M689.3,175.8c-0.4-4.9-1.6-10.2-3.5-15.7
		c-2-5.5-4.7-10.3-8.2-14.2s-7.9-6.9-12.9-8.9c-5.1-2-10.9-3-17.5-3c-6,0-11.4,1.1-16.2,3.2c-4.9,2.2-9.1,5.3-12.6,9.4
		c-3.5,4.1-6.4,8.9-8.5,14.3c-2.2,5.4-3.4,10.4-3.8,14.9H689.3z"/>
	<path class="st0" d="M784.4,151.4c0,3.2,0.9,5.8,2.8,8c1.8,2.2,4.4,4,7.5,5.6c3.2,1.6,6.9,3,11.2,4.1s9,2.3,14,3.4
		c5,1.1,10.3,2.5,15.8,4s11,3.2,16.4,5.1c9.8,2.9,17.4,7.4,23,13.5c5.6,6.2,8.4,13.9,8.4,23.1c0,7.6-1.8,14.6-5.4,20.9
		c-3.6,6.4-8.5,11.6-14.8,15.9c-6.3,4.2-13.6,7.4-21.9,9.5c-8.4,2.1-17.3,3.2-26.9,3.2c-8.6,0-16.8-0.7-24.6-2.2
		c-7.8-1.4-14.5-3.4-20.4-5.8c-5.9-2.5-10.5-5.3-13.9-8.6s-5.2-6.8-5.2-10.5c0-2.9,1.1-5.3,3.4-7.2c2.3-1.9,5.1-2.9,8.6-2.9
		c2.1,0,4.8,0.7,8.3,2s7.6,2.9,12.3,4.8c4.7,1.8,10,3.4,15.7,4.8c5.7,1.3,12,2,18.6,2c4.1,0,8.1-0.4,12-1.3
		c3.9-0.9,7.4-2.3,10.4-4.2s5.5-4.3,7.3-7.2s2.8-6.4,2.8-10.4c0-3.7-1.6-7.2-4.8-10.4s-7.8-5.7-13.6-7.5c-6.9-1.9-13.6-3.6-20.2-5.1
		c-6.6-1.4-12.9-2.9-18.9-4.5s-11.5-3.4-16.6-5.5s-9.4-4.6-13.1-7.8c-3.6-3.1-6.5-7-8.6-11.5s-3.2-10-3.2-16.3s1.6-12.2,4.9-17.8
		c3.3-5.6,7.8-10.2,13.6-13.9c5.8-3.7,12.6-6.4,20.6-8.2c7.9-1.7,16.5-2.6,25.7-2.6c9.6,0,18.1,0.7,25.2,2.2
		c7.2,1.4,13.2,3.3,17.9,5.6c4.8,2.3,8.3,4.9,10.7,7.9c2.4,2.9,3.5,5.9,3.5,8.9c0,2.9-1.1,5.1-3.4,6.7c-2.3,1.6-5,2.4-8.3,2.4
		c-1.1,0-2.3-0.1-3.5-0.4c-1.2-0.3-2.3-0.7-3.5-1.3c-4.1-2.4-9.2-4.3-15.2-5.7s-13.4-2.2-22.1-2.2c-4.9,0-9.4,0.3-13.5,1
		s-7.5,1.8-10.3,3.3s-5,3.6-6.6,6.3C785.2,147.2,784.4,149.5,784.4,151.4z"/>
	<path class="st0" d="M930.2,111.7l2.9-41.4c0.2-2.3,0.8-4.3,1.9-6.1c1.1-1.8,2.4-3.3,4.1-4.5c1.6-1.2,3.4-2.2,5.4-2.8
		c1.9-0.6,3.9-0.9,5.9-0.9c3.7,0,7,1.1,9.9,3.4c2.9,2.3,4.3,5.8,4.3,10.6v41.7h23.6c4.2,0,7.4,1.3,9.5,3.9c2.2,2.6,3.2,5.5,3.2,8.5
		s-1.1,5.9-3.2,8.5s-5.3,3.8-9.6,3.8h-23.6v64c0,7.3,0.1,13.4,0.4,18.5c0.3,5,0.9,9.1,2,12.2c1.1,3.1,2.8,5.4,5.1,6.8
		c2.3,1.4,5.5,2.1,9.6,2.1c1,0,2.2-0.1,3.4-0.2c1.2-0.1,2.5-0.2,3.7-0.4s2.4-0.3,3.5-0.4c1.1-0.1,1.9-0.2,2.5-0.2
		c3.9,0,6.9,1.3,9.1,3.8c2.2,2.6,3.2,5.4,3.2,8.6c0,3.3-1,6-3,8c-2,2.1-4.6,3.7-7.9,4.9c-3.2,1.2-6.9,2.1-10.9,2.5
		c-4,0.5-8.1,0.7-12.2,0.7c-7.2,0-13.5-0.9-19.1-2.8c-5.5-1.8-10.2-4.9-14-9.2s-6.7-9.9-8.7-16.9s-3-15.5-3-25.7V136h-14.9
		c-4.3,0-7.5-1.3-9.6-3.8c-2.1-2.6-3.2-5.4-3.2-8.5s1.1-5.9,3.2-8.5c2.2-2.6,5.4-3.9,9.7-3.9h16.8V111.7z"/>
</g>
<g>
	<path class="st0" d="M98.1,115.5c3.8,2.2,7.5,4.2,11.1,6.4c12.6,8.1,21.9,18.8,26.6,33.2c3.7,11.6,4,23.5,2,35.4
		c-3.1,18.1-11.8,33.2-25.5,45.3c-8.6,7.6-19,11.4-30.2,13.1c-6.9,1-13.9,1.4-20.9,0.4c-11.2-1.5-20.4-6.6-27.9-15
		c-0.3-0.4-0.6-0.7-1.3-1.4c0,0.9,0,1.5,0,2c0,11.4,0.1,22.8-0.1,34.2c-0.1,8.8-2.2,24.7-3.9,35.5c-1,6.5-6.6,11.3-13.1,11.3h0
		c-8,0-14.2-7.1-13.1-15c1.6-12,3.6-28.2,3.6-36.7c0-57.2,0-114.5,0-171.7c0-9.3,0.4-18.5,1.5-27.7c2.8-24.3,20.1-43.1,44.3-47.4
		c15-2.7,29.8-1.6,43.9,4.6c10.3,4.5,18.9,11,24.5,21c4.4,7.9,5.9,16.5,5.8,25.5c-0.1,17.1-7.4,30.6-20.2,41.5
		c-1.1,1-2.3,1.9-3.5,2.8L98.1,115.5z M86.7,111.2c0.1-0.2,0.3-0.5,0.5-0.9c5.9-10.3,9.4-21.3,10.5-33.1c0.8-8.7,0.5-17.3-1.9-25.8
		c-2.6-9.2-7.5-16.8-16.3-21c-16.5-8.1-38.5-1.1-45,20.3C32.3,58.2,32,66,32,73.7c-0.1,47.8,0,95.7,0,143.5c0,0.6,0,1.2,0.3,1.7
		c5,8,11.4,14.4,20.4,17.8c6.6,2.5,13.4,3,20.3,2.2c11.5-1.3,20.7-6.5,26.8-16.6c6.1-10.1,8.8-21.2,9.4-32.8
		c0.8-14.9-2.2-29.1-7.6-42.8c-3.5-8.8-7.9-17-14.7-23.9c-1-1-1.9-1.3-3.4-1c-6.3,1.6-12.8,2.3-19.3,1.9c-3.3-0.2-6.6-0.7-9.4-2.6
		c-4.6-3.1-4.2-9.4,0.8-11.8c1-0.5,2-0.8,3-1c5.1-1.2,10.3-0.8,15.4,0.2C78.2,109.2,82.4,110.2,86.7,111.2z"/>
</g>
</svg>
