<svg id="Слой_1" data-name="Слой 1" xmlns="http://www.w3.org/2000/svg" xmlns:xlink="http://www.w3.org/1999/xlink" viewBox="0 0 1920 1386.6"><defs><style>.cls-1{fill:#b74ba0}.cls-2{opacity:.56}.cls-3{fill:url(#Безымянный_градиент_218)}.cls-4{opacity:.7}.cls-5{fill:url(#Безымянный_градиент_142)}.cls-6{fill:url(#Безымянный_градиент_142-2)}.cls-7{fill:url(#Безымянный_градиент_142-3)}.cls-8{fill:url(#Безымянный_градиент_142-4)}.cls-9{fill:url(#Безымянный_градиент_142-5)}.cls-10{fill:url(#Безымянный_градиент_142-6)}.cls-11{fill:url(#Безымянный_градиент_142-7)}.cls-12{fill:url(#Безымянный_градиент_142-8)}.cls-13{fill:url(#Безымянный_градиент_142-9)}.cls-14{fill:url(#Безымянный_градиент_142-10)}.cls-15{fill:url(#Безымянный_градиент_142-11)}.cls-16{fill:url(#Безымянный_градиент_142-12)}.cls-17{fill:url(#Безымянный_градиент_142-13)}.cls-18{fill:#2548aa}.cls-19{fill:#5d2b80}.cls-20{fill:#ec7b7c}.cls-21{fill:#097bd8}.cls-22{fill:#672cd7}.cls-23,.cls-24{opacity:.82}.cls-23{fill:url(#Безымянный_градиент_263)}.cls-24{fill:url(#Безымянный_градиент_263-2)}.cls-25{fill:#f8fbfc}.cls-26{fill:#17b9f8}.cls-27{fill:#fff}.cls-28{fill:url(#Безымянный_градиент_552)}.cls-29{fill:#1797e9}.cls-30{fill:url(#Безымянный_градиент_552-2)}.cls-31{fill:#56d6ed}.cls-32{fill:url(#Безымянный_градиент_552-3)}.cls-33{opacity:.46}</style><linearGradient id="Безымянный_градиент_218" data-name="Безымянный градиент 218" x1="1408.18" y1="1337.85" x2="420.2" y2="-236.33" gradientUnits="userSpaceOnUse"><stop offset="0" stop-color="#a675f5"/><stop offset="1" stop-color="#006acd"/></linearGradient><radialGradient id="Безымянный_градиент_142" data-name="Безымянный градиент 142" cx="1668.5" cy="843" fx="1782.204" fy="867.494" r="116.31" gradientUnits="userSpaceOnUse"><stop offset="0" stop-color="#fff"/><stop offset="1" stop-color="#fff" stop-opacity="0"/></radialGradient><radialGradient id="Безымянный_градиент_142-2" cx="-42.27" cy="74.82" fx="377.17" fy="165.183" r="429.06" xlink:href="#Безымянный_градиент_142"/><radialGradient id="Безымянный_градиент_142-3" cx="1727.3" cy="966.59" fx="1755.311" fy="966.594" r="28.66" xlink:href="#Безымянный_градиент_142"/><radialGradient id="Безымянный_градиент_142-4" cx="1805.3" cy="975.59" fx="1833.311" fy="975.594" r="28.66" xlink:href="#Безымянный_градиент_142"/><radialGradient id="Безымянный_градиент_142-5" cx="-151.2" cy="199.61" fx="-136.365" fy="199.608" r="15.17" gradientTransform="rotate(-90 66.5 160.5)" xlink:href="#Безымянный_градиент_142"/><radialGradient id="Безымянный_градиент_142-6" cx="-247.2" cy="142.61" fx="-232.365" fy="142.608" r="15.17" gradientTransform="rotate(-90 66.5 160.5)" xlink:href="#Безымянный_градиент_142"/><radialGradient id="Безымянный_градиент_142-7" cx="-225.2" cy="137.61" fx="-210.365" fy="137.608" r="15.17" gradientTransform="rotate(-90 66.5 160.5)" xlink:href="#Безымянный_градиент_142"/><radialGradient id="Безымянный_градиент_142-8" cx="-300.2" cy="109.61" fx="-285.365" fy="109.608" r="15.17" gradientTransform="rotate(-90 66.5 160.5)" xlink:href="#Безымянный_градиент_142"/><radialGradient id="Безымянный_градиент_142-9" cx="29.3" cy="465.59" fx="57.311" fy="465.594" r="28.66" xlink:href="#Безымянный_градиент_142"/><radialGradient id="Безымянный_градиент_142-10" cx="-680.2" cy="1918.61" fx="-665.365" fy="1918.608" r="15.17" gradientTransform="rotate(-90 66.5 160.5)" xlink:href="#Безымянный_градиент_142"/><radialGradient id="Безымянный_градиент_142-11" cx="-754.2" cy="1856.61" fx="-739.365" fy="1856.608" r="15.17" gradientTransform="rotate(-90 66.5 160.5)" xlink:href="#Безымянный_градиент_142"/><radialGradient id="Безымянный_градиент_142-12" cx="-829.2" cy="1828.61" fx="-814.365" fy="1828.608" r="15.17" gradientTransform="rotate(-90 66.5 160.5)" xlink:href="#Безымянный_градиент_142"/><radialGradient id="Безымянный_градиент_142-13" cx="1748.3" cy="994.59" fx="1776.311" fy="994.594" r="28.66" xlink:href="#Безымянный_градиент_142"/><linearGradient id="Безымянный_градиент_263" data-name="Безымянный градиент 263" x1="50.57" y1="937.49" x2="118.58" y2="937.49" gradientUnits="userSpaceOnUse"><stop offset="0" stop-color="#d39bee"/><stop offset="1" stop-color="#fb30be"/></linearGradient><linearGradient id="Безымянный_градиент_263-2" x1="158.66" y1="1092.28" x2="281.71" y2="1092.28" xlink:href="#Безымянный_градиент_263"/><linearGradient id="Безымянный_градиент_552" data-name="Безымянный градиент 552" x1="61.79" y1="1087" x2="68.23" y2="1087" gradientUnits="userSpaceOnUse"><stop offset="0" stop-color="#9d80e4"/><stop offset="1" stop-color="#006ab9"/></linearGradient><linearGradient id="Безымянный_градиент_552-2" x1="177.37" y1="1019.1" x2="218.94" y2="1019.1" xlink:href="#Безымянный_градиент_552"/><linearGradient id="Безымянный_градиент_552-3" x1="187.6" y1="1099.28" x2="77.73" y2="924.21" xlink:href="#Безымянный_градиент_552"/></defs><title>+теньМонтажная область 1 копия</title><path class="cls-1" d="M2 1065.2l.8 1.6h-.1l-.8-1.6z"/><path class="cls-3" d="M0-1s202.8 166 801 89.5C1446 6 1735 1 1920 108.5l-1 1071.5s-339.8-209.1-1212-61c-483 82-707 20-707 20V-1z"/><path class="cls-3" d="M0-1s202.8 166 801 89.5C1446 6 1735 1 1920 108.5l-1 1071.5s-339.8-209.1-1212-61c-483 82-707 20-707 20V-1z"/><circle class="cls-5" cx="1681.5" cy="903.5" r="34.5"/><path class="cls-6" d="M0 433.7c0-72.7 113-63.9 113-130.2S73 190 0 173.3c-.3-.1 0 260.7 0 260.4z"/><circle class="cls-7" cx="1730.5" cy="981.5" r="8.5"/><circle class="cls-8" cx="1808.5" cy="990.5" r="8.5"/><circle class="cls-9" cx="113.5" cy="376.5" r="4.5"/><circle class="cls-10" cx="56.5" cy="472.5" r="4.5"/><circle class="cls-11" cx="51.5" cy="450.5" r="4.5"/><circle class="cls-12" cx="23.5" cy="525.5" r="4.5"/><circle class="cls-13" cx="32.5" cy="480.5" r="8.5"/><circle class="cls-14" cx="1832.5" cy="905.5" r="4.5"/><circle class="cls-15" cx="1770.5" cy="979.5" r="4.5"/><circle class="cls-16" cx="1742.5" cy="1054.5" r="4.5"/><circle class="cls-17" cx="1751.5" cy="1009.5" r="8.5"/><path class="cls-18" d="M285.6 142.3c-12.2 6.3-12.2 6.3-25.3 6.5h-.5c-10.9 0-17.4 7.4-23.7 14.7-1.9 2.1.4 3 2.3 3.5 12.2 2.6 23.2.9 32.1-8.6 1.8-2 3.5-2.8 6.4-1.6a15.5 15.5 0 0 0 8.8.9c1.8-.3 3.5-1 1.5-3.2s-4.1-7.1-1.6-12.2zm-73.3 11.1a7.1 7.1 0 0 0-4.6 2.2c-3.1 2.9-6.1 4-10.7 2.8-7.4-1.8-17.9 3.3-22 9.7-.9 1.5-1.3 2.8.9 3.4 7.4 2 14.9 2.3 20.9-2.7s8.6-6 14.4-4.1a3.6 3.6 0 0 0 3.7-1.2c-2.1-2.9-3.6-6.1-2.6-10.1zm-54.6-31.5c.1 5.7 2.5 8.8 6.8 10.4 2.7 1 1.5 2.4 0 3.5a15.8 15.8 0 0 1-8.3 3c-3.2.1-4.3 1.6-5.1 4.2-3.9 12.4-13.1 18.7-25.2 21.5-2 .5-4.4.7-3.6-2.1 2.5-9.3 5.1-18.7 15-23.5l.4-.2c11.8-5.8 11.8-5.8 20-16.8zm-5.2 73.1c-4.8-2.8-7.7 1.2-11.5 4.3-6.2 5.1-13.6 5.7-21.2 4.1-2.6-.5-2.9-1.6-1.1-3.7 6.7-7.9 14.5-13.1 25.6-10.1 3.4.9 4.5-2.3 6.4-3.8 4.2-3.1 4.5-3 5.3 1.9a9 9 0 0 0 .8 2.3c2 4 1.3 5-4.3 5zm-56-31.4c.8 4.1 3.5 6.3 6.7 8a3.4 3.4 0 0 1-2.9 2.6c-6 .9-8.7 4.7-11.1 10-3.4 7.1-10.2 10-17.7 11.4-2.2.5-2.5-.9-2.3-2.6.9-7.5 8.2-16.7 15.7-18.3 4.5-.9 6.9-3.1 8.4-7.1a6.5 6.5 0 0 1 3.2-4zm174.8 920.9c.3-5.5.8-10.6-3.6-14.4-2-1.6.1-2.5 1.4-2.8 3.4-.6 7-1 10.1.1s6.1-.5 8.4-3c9.6-10.2 21.3-13.2 34.9-10.5 3.8.7 4.5 1.7 2.3 5.2-8 12.8-20.1 18.5-34.7 15.7-4.4-.8-7.3 1.2-10.1 3.8s-4.9 4.5-8.7 5.9zm102.2-69.5c-4.3-1.7-8.7.5-12.6 4.4-2.4 2.3-4 2.6-4-1.6a11.5 11.5 0 0 0-.7-3.6c-.4-1.4-3.1-2.3-1.4-4a4.9 4.9 0 0 1 5-1.4c4.9 2 7.7-.4 11.1-3.6 6.3-6 14.4-7.2 22.7-6.1 2.8.4 4.3 1.9 2.1 4.9-5.2 7-11.5 11.8-22.2 11zm-115.8 84.4a12.2 12.2 0 0 1-7.8-1.7c-3.4-2.3-6.5-3.9-10.6-1.7a2.2 2.2 0 0 1-3.3-1.7c-.3-2.3-1-4.9.5-6.8s2.7 0 3.8.7c3.1 1.9 5.9 2.5 9.5.8 6.4-3 12.7-1 18.6 2 3 1.6 4.1 3.7.1 5.6s-6.9 3.2-10.8 2.8zm82.7-86.7c.1 5.5-4.2 11.1-9.4 13-2.3.8-4.2 1.7-5.3 4.1s-1.2 2.7-2.7 1.8a8 8 0 0 1-3.2-3.4c-.6-1.5 1-2.1 2.3-2.4s3.9-2.8 5-5.2c2-4.3 5.6-6.9 10-8.4 1.7-.6 3.2-.4 3.3.5z"/><path class="cls-19" d="M116.2 1147.7a21.5 21.5 0 0 0-1.4-2.7c-3.4-6.4-8.5-11.6-13.8-16.4a56.7 56.7 0 0 1-13.4-17 212.9 212.9 0 0 1-8.7-25.9l-2.7-6.5c-5.8-13.8-14.9-24.6-28.6-31.1-7.3-2.5-14.6-5.1-22.6-5.5a2.2 2.2 0 0 0 1.9 2c6.1 2 11.3 5.5 16.3 9.5 11.9 9.5 18.4 21.3 15.5 37.1-1.4 7.9-2.4 15.8-3.6 23.7-1.7 9.5-1.7 18.8 4 27.3 1.7 3.1 2.7 6.9 5.9 7.8 6.6 1.8 50.8 6.8 52 6 3.2-2 1.1-4.6-.8-8.3zM66 1076"/><path class="cls-20" d="M175.4 925.8c1.1-12.7 2.1-25.4 8.9-38.1 3.2 7.4 6 13.9 8.7 20.4.9 2 2.8 6.3 3.7 8.9 1.9 5.9 4 11.6 6.1 17.4a6.9 6.9 0 0 0 .2 1.3c.3 1.6.6 3.3 1 4.9 4.5 16.2-.6 31-6.4 45.8-.1-.8-7.9 24.9-10.6 35.7a314.6 314.6 0 0 0-6.2 36.2c-.2.8-.1 1.6-.8 2.2-.3-2.6-1.7-4.8-2.7-7.2q5.3-27.9 12.1-55.5a34.8 34.8 0 0 0-2.2-24.2c-1.6-3.4-3.2-6.8-5-10.2s-1.6-4.8.5-7.2 1-3.9-1.8-4.1-3.9-2.2-4.5-4.7l3.5-3.4c6.8-5.9 6.6-11.1-.6-15.8z"/><path class="cls-21" d="M66.8 1053.5c.1-.9 0-1.8.9-2.3s.1 1.8-.9 2.3z"/><path class="cls-22" d="M91.9 1055.8l.5-.5.3.4-.7.2zm.1.1a6 6 0 0 0-.8.8h-.1l.8-.8zm-1.7 1.4l.8-.7h.1l-.8.8z"/><path class="cls-1" d="M110.7 1062.1l.3.6-.3.2a1.1 1.1 0 0 0 0-.8z"/><path class="cls-23" d="M115.1 1005.5c-.7-4.5-1.3-9-2-13.4a54.7 54.7 0 0 1-2.8-11.8c-2-6.2-4.1-12.3-6.2-18.4-4.5-13-12.3-24.4-18.5-36.5S74.9 903 72.2 890.8c-4.3-11.1-6.1-22.8-7.8-34.5-2.6-17.6-3.6-35.3-.5-52.9l.9-5.4c-.4.4-1 .6-1.2 1.1a86 86 0 0 0-9 29.7c-2.1 19.1-.6 38.3-3.1 57.5-1.4 10.7-1 21.9-.3 32.8.4 5.7.2 11.5 1.3 17s2.4 13.5 5.6 19.7c4.7 9.2 10.4 17.9 14.4 27.5 2.9 4.4 4 9.6 6.6 14.1 2.6 8.2 5.3 16.3 7.7 24.5 5.3 18 7.3 36.5 9.4 55.1 1.4-3.9 2.8-7.8 4.3-11.7-.7-19-1.5-37.9-5.2-56.6-.8-4.1-1.8-8.2-2.8-12.3a21.1 21.1 0 0 1-6.1 1 21.1 21.1 0 0 0 6.1-1l-1.3-5.1c-4.1-12.2-8-24.5-12.8-36.5a8.6 8.6 0 0 1 .1-1.6c1.7-.4 1.7 1.1 2 1.8a229.5 229.5 0 0 1 13.3 36.1c1.4 5.1 3.5 14.4 4.9 19.9 1.3 8.9 3 17.7 3.5 26.6.3 5.9.8 11.8 1.3 17.7.1 1.3-.4 2.9 1 3.9l6.7-8.5 7.4-10.4c-.9-11.6-1.3-23.3-3.5-34.8z"/><path class="cls-24" d="M273.9 1100.2a15.7 15.7 0 0 1-15.5 1.8l-12.4-5.3c-7.8-3.1-15.2-2-22.3 2.5l-6.4 8c-3 7.2-9.4 9.7-15.7 12.1l-5 2.3a2.3 2.3 0 0 0 1.1 4.4l5.8-.2c3.4 0 3.9 1.5 2.4 4.2-5.5 10.1-12.8 18.8-22.6 25-2.6 1.6-3.9 1.6-4.6-1.7-1.2-5.8-2.6-11.5-2.9-17.4a38.3 38.3 0 0 1-.8-12.6 10.9 10.9 0 0 0-.1-1.8c8.8-3.5 16.2-12.6 22.8-18.5s15.9-12.4 23.6-18.9c10.5-8.9 17.5-22 24.1-33.9 4.2-7.7 7.9-16.3 6.8-25-14.8.3-25 14.3-38 21.2-5.9 3.1-12.7 4.9-17 9.9s-4.9 10.4-6.9 15.8c-4.9 13.7-15.8 25.8-15.4 40.4l22-27.2c1-1.2 2.2-2.2 3.2-3.3l-13.7 19.6c-2.6 3.2-5.9 6.5-8.3 9.9-1 1.5-2.3 3.4-3.4 5.4v-4.1a18.5 18.5 0 0 1 .6-7.4c.3-1-.3-2.8-.3-3.9a122.9 122.9 0 0 1 2.3-22.6c.4-2.9 1-5.8.7-8.7-.7.8-3.5 3-3.6 4 0 4.7-.9 9.5-1.3 14.2l-.9 15.1c-.2 4.1-.6 8.3-.5 12.4.1 1.4.3 2.7.3 4.1a9.9 9.9 0 0 1-.3 2.4c-.1.5-1.1 1.8-1 2.2-.2-1.2-.3-2-.4-2.8l-6.8 17.7c-1.9 6.5-3.9 12.8-4.9 19.5h3.4c1.6-10.9 5.6-21 10-31.2.3 2.1.6 4.2.8 6.3s.1 4.4.2 6.7c.8 4.8 1.8 9.7 2.3 14.6l8 4c12.4-7 19.2-18.5 25.7-30.4 1.2-2.2 2.2-4.5 3.9-6.3a8 8 0 0 1 2.9-2.3c1.3-.4 2.7-.3 3.9-1a11.6 11.6 0 0 0 2-1.8c9-8.8 22.1-2.8 33-3.5a29.3 29.3 0 0 0 10-2.4 25.1 25.1 0 0 0 4.5-2.6c2.3-1.5 4-4.1 5.7-6.2s3.2-4 4.7-6.1a11.2 11.2 0 0 0 1.6-2.8 14.1 14.1 0 0 0 .5-2.7c-1.2.6-2.5 3.4-3.4 4.5a34.2 34.2 0 0 1-4.2 4.3z"/><path class="cls-25" d="M209.8 1071.3c-.1.6-9.8 11.8-10.1 12.2-8.6 10.7-16.8 23-24.9 34.1v-4.8c7.4-9.2 14.7-18.4 22.1-27.5 1-1.2 2.2-2.2 3.2-3.3zm-39.4 50.5c.2-1.8-.3-3.8 1.5-5.2.2 2.6.8 5.2-1.1 8z"/><path class="cls-27" d="M103.5 1055.3c-.5-5.9-1-11.8-1.3-17.7-.6-10.2-2.7-20.3-4-30.5-1.5-5.3-3-10.6-4.4-16A229.5 229.5 0 0 0 80.5 955c-.3-.7-7.5-24.7-9.2-24.3 0 .5 7 23.6 7.1 24.1 4.8 12 8.7 24.3 12.8 36.5.4 1.7.9 3.4 1.3 5.1 1 4.1 2 8.2 2.8 12.3 3.7 18.7 4.5 37.6 5.2 56.6l4-6.1c-1.4-1-.9-2.6-1-3.9z"/><path class="cls-28" d="M61.8 1072c7.4 8.6 5.2 19.7 6.4 30-2.5-10-3.9-20-6.4-30z"/><path class="cls-26" d="M136.8 1157.8c-1-14-1.2-27.2 2.2-40.7s10.6-26.6 22.1-34.5c7.1-5 16.6-9 18.4-17.5 1.1-5.7-1.8-11.5-5.5-16s-8.3-8.2-11.4-13.2-4.4-11.6-1.2-16.4 10.3-6.2 14.8-10.2a15.2 15.2 0 0 0 4.6-13.4c-2-11.8-17.1-17.3-20.3-28.9-1.5-7.1 5.9-12.7 11.9-16.5s15.2-9.6 13.6-16.6c-1.2-5.2-9.1-8.4-14.3-10.1S161 921 157.3 917s-4.4-13.6-1.8-20.3 6.9-12.7 9-19.5c1.2-3.9 1.6-8.3-.8-11.6s-8.1-4.5-12.3-2.9-7.5 5.1-10.2 8.8a67.6 67.6 0 0 0-11.9 52.8c2 10 6.1 20.7 1.6 29.8s-17.8 14.1-19.9 24.6 5.5 16.9 9.6 25.1c5.8 11.6 5.1 24-1.7 35.1s-19.9 21.9-22.2 35.2c-1.1 6.8 1 13.7 3.1 20.3 6.5 20.1 14.1 40.5 13.6 61.5"/><path class="cls-29" d="M178.1 1070.2zm59.2-197.4l-3.4 2.8a86.9 86.9 0 0 0-16 20.1c-7.2 12-11.4 25.3-15.1 38.7a6.9 6.9 0 0 0 .2 1.3c.3 1.6.6 3.3 1 4.9 4.5 16.2-.6 31-6.4 45.8 0 1-.1 2-.1 3a26.4 26.4 0 0 0 .2 2.8c-.4 5.8.1 11.5-.6 17.3-1.1 10.3-4.2 20.2-7.3 30-3.3 6.1-4.9 13-9 18.8-.2.8-.1 1.6-.8 2.2a19.1 19.1 0 0 1-1.8 8.8 1.4 1.4 0 0 0 .2.6l-.3.2c.1 1.4.1 2.8.1 4.1 5.8-9.3 10.7-19.1 15.9-28.8l1.9-4a101.8 101.8 0 0 0 8.5-17.2 20.2 20.2 0 0 1 3.1-5.8c2.5-8.6 5.2-26.1 5.2-26.1s5.4-8 4 .7a101.6 101.6 0 0 1-5.9 25.5 9.9 9.9 0 0 1-1.1 3.3l-1.1-.2c-3.3 6.4-6.8 17.4-10.2 23.9a169.5 169.5 0 0 1-13.5 21.9c-4.1 5.6-9.7 12.5-8.3 19.8-.2-1.2 5.1-6.6 6.1-7.8l6.8-8.6c4.7-6 9.3-12 13.8-18.1 6.9-9.5 17.3-24.7 15.3-25.7.6-1.3 1.3-2.5 1.8-3.8 6.8-18.4 5.9-37.3 3.7-56.3-1-10.1-2.1-20.3-3.2-30.5a28.1 28.1 0 0 0 .1-2.9c-.6-21.4 3.5-41.5 16.7-58.9.4-.5.4-1.1-.5-1.8zm-20 64.2a3.1 3.1 0 0 1 2.1-.6 3.1 3.1 0 0 0-2.1.6zm2.1-.6z"/><path class="cls-30" d="M218.6 966.8c-.1-2.6-.3-6-1.2-7.9a7.9 7.9 0 0 0-2.1 5c-.5 9.3-1.5 18.7-2.8 28a195.7 195.7 0 0 1-3.8 20c-3.7 14-10.9 26.6-17.6 39.2q-5.5 10.5-11.4 20.7c-1.3 2.3-2.7 4.9-2.2 7.5a435.6 435.6 0 0 0 25.3-41.9 172.2 172.2 0 0 0 9.2-21.7 113 113 0 0 0 5.1-25.1c.7-7 2.4-15.5 1.7-22.4-.1-.4-.1-.9-.2-1.4z"/><path class="cls-32" d="M167.6 996.7s-14.1 3.2-22.7 13c0 0-4.3-48.7 8.6-63.9 10.7-12.4 17-14.6 18.9-15a37.9 37.9 0 0 0-19.9 10.7c-9.8 9.7-14.1-46.5-2.2-66 0 0-16.2 19.5-5.4 70.3l-4.3 42.2s-4.4-13-17.3-13c0 0 15.1 6.4 15.1 34.7 0 22.7-11.9 73.5-11.9 73.5s-4.3-9.7-19.5-10.8c0 0 19 5.7 16.1 18.9a55.9 55.9 0 0 0-1.4 8c-1.1 12.9-3.7 45.8-1.3 57.2l3.8.3c-.7-10.4-3-54.6 5.5-66 9.8-13 36.8-28.1 36.8-28.1s-25.9 9.7-34.6 17.3c0 0 2.2-35.7 11.9-57.4s23.8-25.9 23.8-25.9z"/><path class="cls-25" d="M193.6 990.2s2.1-48.7-5.4-77.9c0 0 12 44.3 7.5 68.1zm-25.4 137.4s-2.7 4.9 0 9.5l-1.2 3.2s-3.1-.6-1.8-5a44.4 44.4 0 0 1 3-7.7zm-4.1 21.6l-1.7-5.7-1.1 3.9s-1.1 5.3 2.1 4.7z"/></svg>