<svg xmlns="http://www.w3.org/2000/svg" viewBox="0 0 84 84"><defs><style>.cls-1{fill:#0076c3}.cls-2{fill:#ffd593}.cls-3{fill:#1a539c}.cls-4{fill:none;stroke:#1a539c;stroke-miterlimit:10}</style></defs><title>iconsМонтажная область 6</title><g id="Слой_11" data-name="Слой 11"><path class="cls-1" d="M26 33.4l-.6 25.9 33.3 1.1V38.6h-16l-5.2-7.5-12.1-.5.6 2.8z"/><path class="cls-2" d="M39.8 34.6h18.4V38H42.1l-2.3-3.4z"/><path class="cls-3" d="M40.1 34l-2.7-3.7-.2-.3H24.9v30.4h34.4V34zm18.1 1.1V38H43l-2.1-2.9zM26 59.2V31.1h10.6l2.9 4 2.7 3.8c.1.2.3.2.5.2h15.5v20z"/><path class="cls-1" d="M29.5 28.8l-.6 25.9 33.3 1.1V34H46.1l-5.2-7.5-12-.5.6 2.8z"/><path class="cls-2" d="M43.2 30h18.4v3.4H45.5L43.2 30z"/><path class="cls-3" d="M43.5 29.4l-2.6-3.7-.2-.3H28.3v30.4h34.4V29.4zm18.1 1.2v2.8H46.4l-2-2.8zM29.5 54.7V26.5h10.6l2.8 4.1 2.7 3.7c.2.2.3.3.5.3h15.5v20.1z"/><circle class="cls-4" cx="41.2" cy="41.7" r="41.1"/></g></svg>